<?xml version="1.0" encoding="UTF-8" standalone="no"?>
<!-- Created with Inkscape (http://www.inkscape.org/) -->

<svg
   xmlns:dc="http://purl.org/dc/elements/1.1/"
   xmlns:cc="http://creativecommons.org/ns#"
   xmlns:rdf="http://www.w3.org/1999/02/22-rdf-syntax-ns#"
   xmlns:svg="http://www.w3.org/2000/svg"
   xmlns="http://www.w3.org/2000/svg"
   xmlns:sodipodi="http://sodipodi.sourceforge.net/DTD/sodipodi-0.dtd"
   xmlns:inkscape="http://www.inkscape.org/namespaces/inkscape"
   width="210mm"
   height="297mm"
   viewBox="0 0 744.09448819 1052.3622047"
   id="svg5381"
   version="1.1"
   inkscape:version="0.91 r13725"
   sodipodi:docname="ORC-KIT Robot base.svg">
  <defs
     id="defs5383" />
  <sodipodi:namedview
     id="base"
     pagecolor="#ffffff"
     bordercolor="#666666"
     borderopacity="1.0"
     inkscape:pageopacity="0.0"
     inkscape:pageshadow="2"
     inkscape:zoom="1.4"
     inkscape:cx="285.39071"
     inkscape:cy="419.62104"
     inkscape:document-units="px"
     inkscape:current-layer="layer1"
     showgrid="false"
     inkscape:window-width="1920"
     inkscape:window-height="1028"
     inkscape:window-x="1072"
     inkscape:window-y="832"
     inkscape:window-maximized="1" />
  <metadata
     id="metadata5386">
    <rdf:RDF>
      <cc:Work
         rdf:about="">
        <dc:format>image/svg+xml</dc:format>
        <dc:type
           rdf:resource="http://purl.org/dc/dcmitype/StillImage" />
        <dc:title />
      </cc:Work>
    </rdf:RDF>
  </metadata>
  <g
     inkscape:label="Layer 1"
     inkscape:groupmode="layer"
     id="layer1">
    <path
       style="color:#000000;clip-rule:nonzero;display:inline;overflow:visible;visibility:visible;opacity:1;isolation:auto;mix-blend-mode:normal;color-interpolation:sRGB;color-interpolation-filters:linearRGB;solid-color:#000000;solid-opacity:1;fill:none;fill-opacity:1;fill-rule:nonzero;stroke:#000000;stroke-width:1.25078738;stroke-linecap:round;stroke-linejoin:miter;stroke-miterlimit:4;stroke-dasharray:none;stroke-dashoffset:0;stroke-opacity:1;color-rendering:auto;image-rendering:auto;shape-rendering:auto;text-rendering:auto;enable-background:accumulate"
       d="m 351.06515,198.59643 c -72.09397,4.33562 -141.14141,30.59888 -197.89258,75.27149 l 0,133.2207 13.77734,0 0,42.52339 -13.77734,0 0,31.3555 -127.462889,0 c -4.76874,23.3205 -7.17543,47.0622 -7.1836,70.8653 0.008,23.8037 2.41474,47.546 7.1836,70.8671 l 127.462889,0 0,31.3575 13.77734,0 0,42.5214 -13.77734,0 0,133.2208 c 62.54968,49.4481 139.94915,76.354 219.68359,76.3671 79.7868,-0.1361 157.19245,-27.1966 219.68555,-76.8007 l 0,-132.7872 -10.58398,0 0,-42.5214 10.58398,0 0,-31.3575 127.10156,0 c 4.89024,-23.3088 7.41799,-47.0512 7.54493,-70.8671 -0.008,-23.8031 -2.41486,-47.5448 -7.1836,-70.8653 l -127.46289,0 0,-31.3555 -13.7793,0 0,-42.52143 13.7793,0 0,-133.22266 C 546.01964,237.09545 491.0125,212.58701 432.56124,202.58862 l 0,58.08008 -81.49609,0 0,-62.07227 z m -69.64649,23.75782 c 2.16021,0.1009 4.15613,1.18264 5.41993,2.9375 2.28802,3.17561 1.56833,7.60477 -1.60743,9.89258 -3.17611,2.2876 -7.60537,1.56703 -9.89257,-1.60938 -2.2872,-3.17662 -1.56574,-7.60599 1.61132,-9.89258 0.51945,-0.37364 1.08711,-0.67521 1.6875,-0.89648 0.8889,-0.32839 1.83463,-0.47516 2.78125,-0.43164 z m 181.10743,0 c 0.94662,-0.0435 1.89235,0.10325 2.78125,0.43164 0.60039,0.22127 1.16805,0.52284 1.6875,0.89648 3.17641,2.2872 3.89698,6.71647 1.60937,9.89258 -2.2872,3.17641 -6.71646,3.89699 -9.89258,1.60938 -3.17576,-2.28781 -3.89544,-6.71698 -1.60742,-9.89258 1.26422,-1.75538 3.26097,-2.83719 5.42188,-2.9375 z m -214.24024,12.55859 c 2.16057,0.0998 4.15726,1.18091 5.42188,2.93555 2.28894,3.17647 1.56826,7.60722 -1.60938,9.89453 -3.17612,2.28761 -7.60538,1.56703 -9.89258,-1.60938 -2.2876,-3.17611 -1.56703,-7.60537 1.60938,-9.89257 0.51994,-0.37448 1.08827,-0.67672 1.68945,-0.89844 0.88903,-0.32772 1.83476,-0.47383 2.78125,-0.42969 z m 247.37109,0 c 0.94714,-0.0444 1.89356,0.10171 2.78321,0.42969 0.6005,0.22188 1.16816,0.52411 1.6875,0.89844 3.17706,2.28659 3.89852,6.71595 1.61133,9.89257 -2.2872,3.17641 -6.71646,3.89699 -9.89258,1.60938 -3.17764,-2.28731 -3.89832,-6.71806 -1.60938,-9.89453 1.2642,-1.75412 3.26007,-2.83511 5.41992,-2.93555 z m -56.53906,1.30664 c 1.95741,1.9e-4 3.54386,1.58751 3.54297,3.54492 -1.9e-4,1.95665 -1.58632,3.54278 -3.54297,3.54297 -1.95741,8.9e-4 -3.54473,-1.58556 -3.54492,-3.54297 -8.9e-4,-1.95817 1.58675,-3.54581 3.54492,-3.54492 z m -96.3789,0.002 c 1.95665,1.9e-4 3.54278,1.58632 3.54296,3.54297 -1.8e-4,1.95665 -1.58631,3.54278 -3.54296,3.54297 -1.95665,-1.9e-4 -3.54278,-1.58632 -3.54297,-3.54297 1.9e-4,-1.95665 1.58632,-3.54278 3.54297,-3.54297 z m -127.58594,11.25 c 2.16057,0.0998 4.15725,1.18091 5.42187,2.93555 2.28761,3.17611 1.56704,7.60538 -1.60937,9.89258 -3.17646,2.28894 -7.60722,1.56827 -9.89453,-1.60937 -2.2872,-3.17662 -1.56573,-7.60599 1.61133,-9.89258 0.52005,-0.3738 1.08838,-0.67538 1.68945,-0.89649 0.88903,-0.32772 1.83476,-0.47383 2.78125,-0.42969 z m 313.63867,0 c 0.94584,-0.0439 1.89088,0.10223 2.7793,0.42969 0.60175,0.22095 1.17074,0.52254 1.6914,0.89649 3.17641,2.2872 3.89699,6.71646 1.60938,9.89258 -2.28731,3.17763 -6.71807,3.89831 -9.89453,1.60937 -3.17576,-2.28781 -3.89544,-6.71698 -1.60742,-9.89258 1.26462,-1.75464 3.2613,-2.8357 5.42187,-2.93555 z m -170.30078,18.86915 26.96289,0 c 4.30911,0 7.77734,3.46823 7.77734,7.77734 l 0,2.16016 c 0,4.30911 -3.46823,7.77929 -7.77734,7.77929 l -26.96289,0 c -4.30911,0 -7.7793,-3.47018 -7.7793,-7.77929 l 0,-2.16016 c 0,-4.30911 3.47019,-7.77734 7.7793,-7.77734 z m 66.62891,1.77148 a 7.0866141,7.0866141 0 0 1 7.08789,7.08594 7.0866141,7.0866141 0 0 1 -7.08789,7.08789 7.0866141,7.0866141 0 0 1 -7.08594,-7.08789 7.0866141,7.0866141 0 0 1 7.08594,-7.08594 z m -248.0293,11.24219 c 3.9133,3.7e-4 7.08557,3.17263 7.08594,7.08594 7e-4,3.91403 -3.17188,7.08752 -7.08594,7.08789 -3.91483,7e-4 -7.08859,-3.17306 -7.08789,-7.08789 3.7e-4,-3.91406 3.17383,-7.08664 7.08789,-7.08594 z m 283.46289,0 c 3.91406,-7e-4 7.08752,3.17187 7.08789,7.08594 7e-4,3.91483 -3.17306,7.08859 -7.08789,7.08789 -3.91406,-3.7e-4 -7.08664,-3.17386 -7.08594,-7.08789 3.7e-4,-3.91332 3.17264,-7.08557 7.08594,-7.08594 z m 35.43359,0 c 3.91406,-7e-4 7.08752,3.17187 7.08789,7.08594 7e-4,3.91483 -3.17306,7.08859 -7.08789,7.08789 -3.91406,-3.8e-4 -7.08663,-3.17386 -7.08593,-7.08789 3.7e-4,-3.91332 3.17263,-7.08556 7.08593,-7.08594 z m 35.4336,0 c 3.9133,3.8e-4 7.08556,3.17263 7.08593,7.08594 7e-4,3.91403 -3.17187,7.08751 -7.08593,7.08789 -3.91483,7e-4 -7.08859,-3.17306 -7.08789,-7.08789 3.7e-4,-3.91406 3.17383,-7.08664 7.08789,-7.08594 z m 35.43359,0 c 3.9133,3.7e-4 7.08557,3.17263 7.08594,7.08594 7e-4,3.91403 -3.17188,7.08752 -7.08594,7.08789 -3.91483,7e-4 -7.08859,-3.17306 -7.08789,-7.08789 3.7e-4,-3.91406 3.17383,-7.08664 7.08789,-7.08594 z m -354.33203,0.002 c 3.9133,3.7e-4 7.08557,3.17264 7.08594,7.08594 -3.7e-4,3.9133 -3.17264,7.08557 -7.08594,7.08594 -3.9133,-3.7e-4 -7.08557,-3.17264 -7.08594,-7.08594 3.7e-4,-3.9133 3.17264,-7.08557 7.08594,-7.08594 z m 35.43359,0 c 3.91406,-7e-4 7.08752,3.17188 7.08789,7.08594 -3.7e-4,3.91406 -3.17383,7.08664 -7.08789,7.08594 -3.9133,-3.8e-4 -7.08556,-3.17264 -7.08593,-7.08594 3.7e-4,-3.9133 3.17263,-7.08556 7.08593,-7.08594 z m 35.4336,0 c 3.9133,3.8e-4 7.08556,3.17264 7.08593,7.08594 -3.7e-4,3.9133 -3.17263,7.08556 -7.08593,7.08594 -3.91406,7e-4 -7.08752,-3.17188 -7.08789,-7.08594 3.7e-4,-3.91406 3.17383,-7.08664 7.08789,-7.08594 z m 195.98437,32.71094 17.7168,0 0,31.89062 12.22461,0 0,21.25977 -12.22461,0 0,31.88867 -17.7168,0 0,-31.88867 -12.22265,0 0,-21.25977 12.22265,0 0,-31.89062 z m -232.60937,0.12695 17.71679,0 0,31.89063 12.22266,0 0,21.25976 -12.22266,0 0,31.88867 -17.71679,0 0,-31.88867 -12.22461,0 0,-21.25976 12.22461,0 0,-31.89063 z m 36.62695,2.59375 c 3.9133,3.7e-4 7.08557,3.17264 7.08594,7.08594 7e-4,3.91406 -3.17188,7.08752 -7.08594,7.08789 -3.91483,7e-4 -7.08859,-3.17306 -7.08789,-7.08789 3.7e-4,-3.91406 3.17383,-7.08664 7.08789,-7.08594 z m 35.43164,0 c 3.9133,3.7e-4 7.08557,3.17264 7.08594,7.08594 7e-4,3.91406 -3.17188,7.08752 -7.08594,7.08789 -3.91483,7e-4 -7.08859,-3.17306 -7.08789,-7.08789 3.7e-4,-3.91406 3.17383,-7.08664 7.08789,-7.08594 z m 35.43164,0.002 c 3.9133,3.7e-4 7.08557,3.17264 7.08594,7.08594 -3.7e-4,3.9133 -3.17264,7.08557 -7.08594,7.08594 -3.9133,-3.7e-4 -7.08557,-3.17264 -7.08594,-7.08594 3.7e-4,-3.9133 3.17264,-7.08557 7.08594,-7.08594 z m 35.4336,0 c 3.91406,-7e-4 7.08752,3.17188 7.08789,7.08594 -3.7e-4,3.91406 -3.17386,7.08664 -7.08789,7.08594 -3.9133,-3.7e-4 -7.08557,-3.17264 -7.08594,-7.08594 3.7e-4,-3.9133 3.17261,-7.08557 7.08594,-7.08594 z m 35.43359,0 c 3.9133,3.7e-4 7.08557,3.17264 7.08594,7.08594 -3.7e-4,3.9133 -3.17264,7.08557 -7.08594,7.08594 -3.91406,7e-4 -7.08752,-3.17188 -7.08789,-7.08594 3.7e-4,-3.91406 3.17383,-7.08664 7.08789,-7.08594 z m 35.43359,0 c 3.9133,3.7e-4 7.08557,3.17264 7.08594,7.08594 -3.7e-4,3.9133 -3.17264,7.08557 -7.08594,7.08594 -3.91406,7e-4 -7.08752,-3.17188 -7.08789,-7.08594 3.7e-4,-3.91406 3.17383,-7.08664 7.08789,-7.08594 z m -5.98437,34.48243 c 2.93421,2.8e-4 5.31309,2.37829 5.31445,5.3125 0.002,2.9365 -2.37795,5.31808 -5.31445,5.31836 -2.93727,8e-4 -5.31829,-2.38109 -5.31641,-5.31836 0.001,-2.93498 2.38143,-5.3133 5.31641,-5.3125 z m -165.28711,0.12695 c 2.93497,-8e-4 5.31504,2.37753 5.3164,5.3125 0.002,2.93726 -2.37914,5.31916 -5.3164,5.31836 -2.9365,-2.8e-4 -5.31634,-2.38186 -5.31446,-5.31836 10e-4,-2.93422 2.38024,-5.31222 5.31446,-5.3125 z m 82.6875,54.77148 c 2.93498,2.8e-4 5.31417,2.37948 5.31445,5.31446 8e-4,2.93573 -2.37872,5.31612 -5.31445,5.3164 -2.93574,-2.8e-4 -5.31526,-2.38066 -5.31446,-5.3164 2.8e-4,-2.93498 2.37948,-5.31418 5.31446,-5.31446 z m -139.28906,3.27344 7.08593,0 0,42.52147 -7.08593,0 0,-42.52147 z m 271.49609,0.002 7.08594,0 0,42.51957 -7.08594,0 0,-42.51957 z m -171.09961,50.95877 c 2.93499,3e-4 5.3142,2.3795 5.31445,5.3145 -3.1e-4,2.935 -2.3795,5.3141 -5.31445,5.3144 -2.93572,8e-4 -5.3161,-2.3787 -5.31641,-5.3144 2.5e-4,-2.9358 2.38065,-5.3153 5.31641,-5.3145 z m 77.78711,0 c 2.93499,3e-4 5.3142,2.3795 5.31445,5.3145 -3.1e-4,2.935 -2.3795,5.3141 -5.31445,5.3144 -2.93495,-3e-4 -5.31414,-2.3794 -5.31445,-5.3144 2.5e-4,-2.935 2.37946,-5.3142 5.31445,-5.3145 z m -368.421879,51.0938 c 3.91483,-7e-4 7.0886,3.1731 7.08789,7.0879 -3.9e-4,3.914 -3.17384,7.0866 -7.08789,7.0859 -3.91328,-4e-4 -7.08554,-3.1726 -7.08594,-7.0859 -7.1e-4,-3.9141 3.17187,-7.0875 7.08594,-7.0879 z m 212.599609,0 c 3.91407,4e-4 7.08665,3.1738 7.08594,7.0879 -3.9e-4,3.9133 -3.17265,7.0855 -7.08594,7.0859 -3.91405,7e-4 -7.0875,-3.1719 -7.08789,-7.0859 -7.1e-4,-3.9148 3.17306,-7.0886 7.08789,-7.0879 z m 233.85938,0 c 3.91407,4e-4 7.08665,3.1738 7.08594,7.0879 -3.9e-4,3.9133 -3.17265,7.0855 -7.08594,7.0859 -3.91405,7e-4 -7.0875,-3.1719 -7.08789,-7.0859 -7.1e-4,-3.9148 3.17306,-7.0886 7.08789,-7.0879 z m 212.59766,0 c 3.91403,4e-4 7.08664,3.1738 7.08593,7.0879 -3.9e-4,3.9133 -3.17265,7.0855 -7.08593,7.0859 -3.91329,-4e-4 -7.08555,-3.1726 -7.08594,-7.0859 -7.1e-4,-3.9141 3.17184,-7.0875 7.08594,-7.0879 z m -621.851569,19.4882 a 5.3149605,5.3149605 0 0 1 5.31641,5.3145 5.3149605,5.3149605 0 0 1 -5.31641,5.3164 5.3149605,5.3149605 0 0 1 -5.31445,-5.3164 5.3149605,5.3149605 0 0 1 5.31445,-5.3145 z m 63.781249,0 a 5.3149605,5.3149605 0 0 1 5.31446,5.3145 5.3149605,5.3149605 0 0 1 -5.31446,5.3164 5.3149605,5.3149605 0 0 1 -5.3164,-5.3164 5.3149605,5.3149605 0 0 1 5.3164,-5.3145 z m 457.08594,0 a 5.3149605,5.3149605 0 0 1 5.31445,5.3145 5.3149605,5.3149605 0 0 1 -5.31445,5.3164 5.3149605,5.3149605 0 0 1 -5.31445,-5.3164 5.3149605,5.3149605 0 0 1 5.31445,-5.3145 z m 63.7793,0 a 5.3149605,5.3149605 0 0 1 5.31445,5.3145 5.3149605,5.3149605 0 0 1 -5.31445,5.3164 5.3149605,5.3149605 0 0 1 -5.31446,-5.3164 5.3149605,5.3149605 0 0 1 5.31446,-5.3145 z m -552.75586,12.4024 a 10.629921,10.629921 0 0 1 10.6289,10.6309 10.629921,10.629921 0 0 1 -10.6289,10.6289 10.629921,10.629921 0 0 1 -10.63086,-10.6289 10.629921,10.629921 0 0 1 10.63086,-10.6309 z m 138.22851,0 c 5.87073,6e-4 10.62945,4.7602 10.62891,10.6309 -5.6e-4,5.8699 -4.75896,10.6283 -10.62891,10.6289 -5.87071,5e-4 -10.6303,-4.7582 -10.63086,-10.6289 -5.4e-4,-5.8715 4.75937,-10.6314 10.63086,-10.6309 z m 245.47266,0 c 5.87073,6e-4 10.62945,4.7602 10.62891,10.6309 -5.6e-4,5.8699 -4.75896,10.6283 -10.62891,10.6289 -5.87071,5e-4 -10.6303,-4.7582 -10.63086,-10.6289 -5.4e-4,-5.8715 4.75937,-10.6314 10.63086,-10.6309 z m 137.17187,0.029 a 10.629921,10.629921 0 0 1 10.62891,10.6309 10.629921,10.629921 0 0 1 -10.62891,10.6289 10.629921,10.629921 0 0 1 -10.63086,-10.6289 10.629921,10.629921 0 0 1 10.63086,-10.6309 z m -589.968749,3.5137 c 3.91483,-7e-4 7.0886,3.1731 7.08789,7.0879 -3.9e-4,3.914 -3.17384,7.0866 -7.08789,7.0859 -3.91328,-4e-4 -7.08554,-3.1726 -7.08594,-7.0859 -7.1e-4,-3.9141 3.17187,-7.0875 7.08594,-7.0879 z m 659.056649,0 c 3.91403,4e-4 7.08664,3.1738 7.08593,7.0879 -3.9e-4,3.9133 -3.17266,7.0855 -7.08593,7.0859 -3.91329,-4e-4 -7.08555,-3.1726 -7.08594,-7.0859 -7.1e-4,-3.9141 3.17184,-7.0875 7.08594,-7.0879 z m -329.5293,18.6875 c 2.93571,-8e-4 5.31609,2.3787 5.3164,5.3144 -2.5e-4,2.9358 -2.38065,5.3153 -5.3164,5.3145 -2.935,-3e-4 -5.31419,-2.3795 -5.31446,-5.3145 3.2e-4,-2.935 2.3795,-5.3141 5.31446,-5.3144 z m -292.322269,11.4297 a 5.3149605,5.3149605 0 0 1 5.31641,5.3164 5.3149605,5.3149605 0 0 1 -5.31641,5.3144 5.3149605,5.3149605 0 0 1 -5.31445,-5.3144 5.3149605,5.3149605 0 0 1 5.31445,-5.3164 z m 63.781249,0 a 5.3149605,5.3149605 0 0 1 5.31446,5.3164 5.3149605,5.3149605 0 0 1 -5.31446,5.3144 5.3149605,5.3149605 0 0 1 -5.3164,-5.3144 5.3149605,5.3149605 0 0 1 5.3164,-5.3164 z m 457.08594,0 a 5.3149605,5.3149605 0 0 1 5.31445,5.3164 5.3149605,5.3149605 0 0 1 -5.31445,5.3144 5.3149605,5.3149605 0 0 1 -5.31445,-5.3144 5.3149605,5.3149605 0 0 1 5.31445,-5.3164 z m 63.7793,0 a 5.3149605,5.3149605 0 0 1 5.31445,5.3164 5.3149605,5.3149605 0 0 1 -5.31445,5.3144 5.3149605,5.3149605 0 0 1 -5.31446,-5.3144 5.3149605,5.3149605 0 0 1 5.31446,-5.3164 z m -621.851569,5.3164 c 3.91405,-7e-4 7.0875,3.1719 7.08789,7.0859 -3.9e-4,3.914 -3.17384,7.0866 -7.08789,7.0859 -3.91328,-4e-4 -7.08554,-3.1726 -7.08594,-7.0859 4e-4,-3.9133 3.17266,-7.0855 7.08594,-7.0859 z m 212.599609,0 c 3.91329,4e-4 7.08555,3.1726 7.08594,7.0859 -3.9e-4,3.9133 -3.17265,7.0855 -7.08594,7.0859 -3.91405,7e-4 -7.0875,-3.1719 -7.08789,-7.0859 3.9e-4,-3.914 3.17384,-7.0866 7.08789,-7.0859 z m 233.85938,0 c 3.91329,4e-4 7.08555,3.1726 7.08594,7.0859 -3.9e-4,3.9133 -3.17265,7.0855 -7.08594,7.0859 -3.91405,7e-4 -7.0875,-3.1719 -7.08789,-7.0859 3.9e-4,-3.914 3.17384,-7.0866 7.08789,-7.0859 z m 212.59766,0 c 3.91327,4e-4 7.08554,3.1726 7.08593,7.0859 -3.9e-4,3.9133 -3.17268,7.0855 -7.08593,7.0859 -3.91329,-4e-4 -7.08555,-3.1726 -7.08594,-7.0859 3.9e-4,-3.9133 3.17262,-7.0855 7.08594,-7.0859 z m -262.0293,28.5703 c 2.93571,-8e-4 5.31609,2.3787 5.3164,5.3144 -2.5e-4,2.9358 -2.38065,5.3153 -5.3164,5.3145 -2.935,-3e-4 -5.31419,-2.3795 -5.31446,-5.3145 3.2e-4,-2.935 2.3795,-5.3141 5.31446,-5.3144 z m -98.69727,0.3007 c 2.935,3e-4 5.31421,2.3795 5.31446,5.3145 -2.5e-4,2.935 -2.37946,5.3142 -5.31446,5.3145 -2.93575,8e-4 -5.31615,-2.3787 -5.3164,-5.3145 2.5e-4,-2.9358 2.38065,-5.3153 5.3164,-5.3145 z m -108.09375,45.1758 7.08789,0 0,42.5196 -7.08789,0 0,-42.5196 z m 271.49805,0 7.08594,0 0,42.5196 -7.08594,0 0,-42.5196 z m -132.20703,21.2598 c 2.9365,-8e-4 5.3172,2.3799 5.3164,5.3164 -2.5e-4,2.9358 -2.38065,5.3153 -5.3164,5.3145 -2.935,-3e-4 -5.31419,-2.3795 -5.31446,-5.3145 -8e-4,-2.9357 2.37872,-5.3161 5.31446,-5.3164 z m 107.40234,31.3477 17.7168,0 0,31.8906 12.22461,0 0,21.2597 -12.22461,0 0,31.8887 -17.7168,0 0,-31.8887 -12.22265,0 0,-21.2597 12.22265,0 0,-31.8906 z m -232.60937,0.125 17.71679,0 0,31.8906 12.22266,0 0,21.2597 -12.22266,0 0,31.8887 -17.71679,0 0,-31.8887 -12.22461,0 0,-21.2597 12.22461,0 0,-31.8906 z m 96.86133,22.1543 c 2.93572,0 5.31525,2.3807 5.31445,5.3164 -3.1e-4,2.935 -2.3795,5.3141 -5.31445,5.3144 -2.93496,-3e-4 -5.31415,-2.3794 -5.31446,-5.3144 -8e-4,-2.9357 2.37871,-5.3163 5.31446,-5.3164 z m 28.3457,0 c 2.9365,0 5.3172,2.3799 5.3164,5.3164 -3.1e-4,2.9357 -2.38069,5.3152 -5.3164,5.3144 -2.93496,-3e-4 -5.31412,-2.3794 -5.31446,-5.3144 -8e-4,-2.9357 2.37872,-5.3163 5.31446,-5.3164 z m 28.34765,0 c 2.93574,0 5.31526,2.3807 5.31446,5.3164 -3.1e-4,2.935 -2.3795,5.3141 -5.31446,5.3144 -2.93571,8e-4 -5.31609,-2.3787 -5.3164,-5.3144 -8e-4,-2.9365 2.3799,-5.3172 5.3164,-5.3164 z m 54.25196,14.9257 c 2.93421,3e-4 5.31309,2.3783 5.31445,5.3125 0.002,2.9365 -2.37793,5.3181 -5.31445,5.3184 -2.93728,8e-4 -5.31831,-2.3811 -5.31641,-5.3184 0.001,-2.935 2.38143,-5.3133 5.31641,-5.3125 z m -165.28711,0.125 c 2.93497,-8e-4 5.31504,2.3775 5.3164,5.3125 0.002,2.9373 -2.37912,5.3192 -5.3164,5.3184 -2.93652,-3e-4 -5.31634,-2.3819 -5.31446,-5.3184 10e-4,-2.9342 2.38024,-5.3122 5.31446,-5.3125 z m 82.6875,16.3614 c 2.9365,-8e-4 5.3172,2.3799 5.3164,5.3164 -3.1e-4,2.9357 -2.38069,5.3152 -5.3164,5.3144 -2.93496,-3e-4 -5.31412,-2.3794 -5.31446,-5.3144 -8e-4,-2.9357 2.37872,-5.3161 5.31446,-5.3164 z m -85.5,28.5253 c 2.93575,-8e-4 5.31615,2.3787 5.3164,5.3145 -2.5e-4,2.9358 -2.38065,5.3153 -5.3164,5.3145 -2.935,-3e-4 -5.31418,-2.3795 -5.31446,-5.3145 2.5e-4,-2.935 2.37946,-5.3142 5.31446,-5.3145 z m 171,4.8008 c 2.9365,-8e-4 5.3172,2.3799 5.3164,5.3164 -2.5e-4,2.9358 -2.38065,5.3153 -5.3164,5.3145 -2.935,-3e-4 -5.31419,-2.3795 -5.31446,-5.3145 -8e-4,-2.9357 2.37872,-5.3161 5.31446,-5.3164 z m -280.38086,17.8262 c 3.91407,4e-4 7.08665,3.1738 7.08594,7.0879 -3.9e-4,3.9133 -3.17265,7.0855 -7.08594,7.0859 -3.91405,7e-4 -7.0875,-3.1718 -7.08789,-7.0859 -7.1e-4,-3.9148 3.17306,-7.0886 7.08789,-7.0879 z m 35.43164,0 c 3.91329,4e-4 7.08555,3.1726 7.08594,7.0859 -3.4e-4,3.9133 -3.17262,7.0856 -7.08594,7.086 -3.91332,-4e-4 -7.0856,-3.1727 -7.08594,-7.086 3.9e-4,-3.9133 3.17265,-7.0855 7.08594,-7.0859 z m 35.43359,0 c 3.91405,-7e-4 7.0875,3.1718 7.08789,7.0859 -3.4e-4,3.9141 -3.1738,7.0867 -7.08789,7.086 -3.91332,-4e-4 -7.08559,-3.1727 -7.08593,-7.086 3.9e-4,-3.9133 3.17265,-7.0855 7.08593,-7.0859 z m 248.03125,0 c 3.91483,-7e-4 7.0886,3.1731 7.08789,7.0879 -3.9e-4,3.9141 -3.17384,7.0866 -7.08789,7.0859 -3.91328,-4e-4 -7.08554,-3.1726 -7.08593,-7.0859 -7.1e-4,-3.9141 3.17187,-7.0875 7.08593,-7.0879 z m 35.4336,0 c 3.91406,4e-4 7.08664,3.1738 7.08593,7.0879 -3.9e-4,3.9133 -3.17265,7.0855 -7.08593,7.0859 -3.91405,7e-4 -7.0875,-3.1718 -7.08789,-7.0859 -7.1e-4,-3.9148 3.17306,-7.0886 7.08789,-7.0879 z m 35.43359,0 c 3.91407,4e-4 7.08665,3.1738 7.08594,7.0879 -3.9e-4,3.9133 -3.17265,7.0855 -7.08594,7.0859 -3.91405,7e-4 -7.0875,-3.1718 -7.08789,-7.0859 -7.1e-4,-3.9148 3.17306,-7.0886 7.08789,-7.0879 z m -351.85742,31.8809 0,0 c 1.42708,0.035 2.81039,0.4998 3.96875,1.334 3.17762,2.2873 3.89829,6.718 1.60937,9.8945 -1.86104,2.5831 -5.21629,3.608 -8.20312,2.5058 -0.60118,-0.2217 -1.16951,-0.5239 -1.68945,-0.8984 -3.17707,-2.2866 -3.89854,-6.716 -1.61133,-9.8926 1.2638,-1.7549 3.25971,-2.8366 5.41992,-2.9375 0.16845,-0.01 0.33717,-0.013 0.50586,-0.01 z m 313.85742,0.016 0,0 c 0.19867,-0.01 0.39782,-0.01 0.59766,0 2.16021,0.1009 4.15612,1.1826 5.41992,2.9375 2.28762,3.1761 1.56704,7.6054 -1.60938,9.8926 -0.52054,0.3747 -1.08954,0.6769 -1.6914,0.8985 -2.98627,1.1012 -6.34038,0.076 -8.20117,-2.5059 -2.28933,-3.1759 -1.56955,-7.6066 1.60742,-9.8945 1.13641,-0.8184 2.4863,-1.2781 3.87695,-1.3301 z m -156.88281,6.0702 c 11.74144,0 21.25974,9.5184 21.25976,21.2598 -8e-5,11.7414 -9.51836,21.2597 -21.25976,21.2597 -11.7414,0 -21.25969,-9.5183 -21.25977,-21.2597 2e-5,-11.7414 9.51833,-21.2598 21.25977,-21.2598 z m -123.8418,6.4766 0,0 c 1.42708,0.035 2.81039,0.4998 3.96875,1.334 3.17762,2.2873 3.8983,6.718 1.60938,9.8945 -1.86159,2.5824 -5.21674,3.6065 -8.20313,2.5039 -0.60107,-0.2211 -1.1694,-0.5227 -1.68945,-0.8965 -3.17642,-2.2872 -3.897,-6.7165 -1.60938,-9.8926 1.2638,-1.7549 3.2597,-2.8366 5.41993,-2.9375 0.16776,-0.01 0.33587,-0.013 0.5039,-0.01 z m 247.5918,0.016 0,0 c 0.19858,-0.01 0.3979,-0.01 0.59765,0 2.16021,0.1009 4.15613,1.1826 5.41993,2.9375 2.28721,3.1766 1.56574,7.606 -1.61133,9.8926 -0.51945,0.3736 -1.08711,0.6752 -1.6875,0.8965 -2.98639,1.1026 -6.34154,0.078 -8.20313,-2.5039 -2.28892,-3.1766 -1.56824,-7.6072 1.60938,-9.8945 1.13594,-0.8181 2.48494,-1.2778 3.875,-1.3301 z m -214.45899,12.5469 0,0 c 1.42708,0.035 2.81039,0.4998 3.96875,1.334 3.17571,2.2878 3.89539,6.7169 1.60743,9.8925 -1.86079,2.5822 -5.2149,3.6071 -8.20118,2.5059 -0.60039,-0.2213 -1.16805,-0.5229 -1.6875,-0.8965 -3.17707,-2.2866 -3.89853,-6.716 -1.61132,-9.8926 1.2638,-1.7549 3.25971,-2.8366 5.41992,-2.9375 0.16779,-0.01 0.33587,-0.013 0.5039,-0.01 z m 181.32618,0.016 0,0 c 0.19866,-0.01 0.39781,-0.01 0.59765,0 2.15951,0.1015 4.15459,1.1832 5.41797,2.9375 2.28762,3.1761 1.56705,7.6054 -1.60937,9.8926 -0.51945,0.3736 -1.08711,0.6752 -1.6875,0.8965 -2.98684,1.1022 -6.34209,0.077 -8.20313,-2.5059 -2.28796,-3.1756 -1.56828,-7.6047 1.60742,-9.8925 1.13642,-0.8184 2.4863,-1.2781 3.87696,-1.3301 z m -126.05079,9.2988 c 3.91483,-7e-4 7.08861,3.1731 7.0879,7.0879 -3.9e-4,3.9141 -3.17385,7.0866 -7.0879,7.0859 -3.91328,-4e-4 -7.08554,-3.1726 -7.08593,-7.0859 -7.1e-4,-3.9141 3.17187,-7.0875 7.08593,-7.0879 z m 70.86719,0 c 3.91407,4e-4 7.08665,3.1738 7.08594,7.0879 -3.9e-4,3.9133 -3.17265,7.0855 -7.08594,7.0859 -3.91329,-4e-4 -7.08555,-3.1726 -7.08594,-7.0859 -7.1e-4,-3.9141 3.17187,-7.0875 7.08594,-7.0879 z"
       id="path4372"
       inkscape:connector-curvature="0" />
    <g
       inkscape:label="Layer 1"
       id="layer1-9"
       transform="translate(-336.67245,-274.31255)"
       style="display:inline;opacity:1;fill:#c6d0e0;fill-opacity:1;stroke:#ff0000;stroke-width:1.25078738;stroke-miterlimit:4;stroke-dasharray:none;stroke-opacity:1" />
    <g
       style="display:inline;opacity:0.75"
       id="layer1-0"
       inkscape:label="Layer 1"
       transform="matrix(0.48643241,0,0,0.48643241,329.87898,356.9015)">
      <g
         id="orckit_logo"
         inkscape:label="orckit_logo"
         style="display:inline"
         transform="matrix(3.2608124,0,0,3.2608124,-1336.0056,-2355.2679)">
        <title
           id="title9082">orckit_logo</title>
        <g
           id="text4478-9-2"
           style="font-style:normal;font-variant:normal;font-weight:normal;font-stretch:normal;font-size:20px;line-height:125%;font-family:'Bebas Neue';-inkscape-font-specification:'Bebas Neue';letter-spacing:0px;word-spacing:0px;display:inline;opacity:1;fill:#a1c800;fill-opacity:1;stroke:none;stroke-width:1px;stroke-linecap:butt;stroke-linejoin:miter;stroke-opacity:1" />
        <path
           inkscape:connector-curvature="0"
           d="m 545.06814,853.74916 -7.81282,9.51048 7.81282,10.13624 7.81282,-10.13624 -7.81282,-9.51048 z m -10.73454,10.29296 -11.90198,3.18885 3.5023,13.06999 15.07538,1.31843 3.29523,-7.91692 -9.97093,-9.66035 z m 21.46908,0 -9.97093,9.66035 3.29581,7.91692 15.0748,-1.31843 3.5023,-13.06999 -11.90198,-3.18885 z m -10.83807,14.51769 0.002,0.23967 -3.30266,3.84949 -2.06317,7.69956 5.46822,6.31878 5.4688,-6.31878 -2.06316,-7.69956 -3.30325,-3.84949 0.002,-0.23967 -0.10354,0.12069 -0.10352,-0.12069 z m -15.03591,3.95932 -4.04054,8.41912 8.76232,1.99625 6.12773,-10.2169 -10.84951,-0.19847 z m 30.27888,0 -10.84951,0.19847 6.12773,10.2169 8.76232,-1.99625 -4.04054,-8.41912 z m -3.09301,17.05808 1.6479,0 0,8.59772 1.57625,0 0,-8.59772 1.6479,0 0,-1.43296 -4.87205,0 0,1.43296 z m -2.25623,8.59772 1.57625,0 0,-10.03068 -1.57625,0 0,10.03068 z m -2.33661,0 1.61924,0 -2.19242,-5.55986 2.19242,-4.47082 -1.57625,0 -2.0348,4.34186 -0.0287,0 0,-4.34186 -1.57625,0 0,10.03068 1.57625,0 0,-3.08085 0.4872,-0.91709 1.53326,3.99794 z m -7.53062,-4.29886 2.86591,0 0,-1.43295 -2.86591,0 0,1.43295 z m -2.389,0.55885 0,1.43295 c 0,0.71648 -0.31524,0.97441 -0.81678,0.97441 -0.50154,0 -0.81679,-0.25793 -0.81679,-0.97441 l 0,-5.41656 c 0,-0.71647 0.31525,-0.98874 0.81679,-0.98874 0.50154,0 0.81678,0.27227 0.81678,0.98874 l 0,1.07472 1.49027,0 0,-0.97441 c 0,-1.60491 -0.80245,-2.522 -2.35004,-2.522 -1.54759,0 -2.35004,0.91709 -2.35004,2.522 l 0,5.21594 c 0,1.60491 0.80245,2.52201 2.35004,2.52201 1.54759,0 2.35004,-0.9171 2.35004,-2.52201 l 0,-1.33264 -1.49027,0 z m -3.94555,3.74001 c -0.15762,-0.37257 -0.17195,-0.73081 -0.17195,-1.21801 l 0,-1.54759 c 0,-1.04606 -0.25794,-1.7912 -1.04606,-2.12078 l 0,-0.0286 c 0.70214,-0.32958 1.03172,-0.98874 1.03172,-2.02047 l 0,-0.78812 c 0,-1.54759 -0.70215,-2.30706 -2.33571,-2.30706 l -2.3787,0 0,10.03068 1.57624,0 0,-4.08392 0.54453,0 c 0.71648,0 1.03172,0.34391 1.03172,1.27533 l 0,1.57625 c 0,0.81678 0.0573,0.97441 0.1433,1.23234 l 1.60491,0 z m -2.56499,-8.59772 c 0.55886,0 0.80245,0.31524 0.80245,1.03173 l 0,0.98873 c 0,0.80246 -0.35824,1.06039 -0.94574,1.06039 l -0.61618,0 0,-3.08085 0.75947,0 z m -6.56987,0.8741 c 0,-0.71647 0.31526,-0.98874 0.81679,-0.98874 0.50154,0 0.81679,0.27227 0.81679,0.98874 l 0,5.41656 c 0,0.71648 -0.31525,0.98874 -0.81679,0.98874 -0.50153,0 -0.81679,-0.27226 -0.81679,-0.98874 l 0,-5.41656 z m -1.57624,5.31625 c 0,1.60491 0.84544,2.52201 2.39303,2.52201 1.54759,0 2.39304,-0.9171 2.39304,-2.52201 l 0,-5.21594 c 0,-1.60491 -0.84545,-2.522 -2.39304,-2.522 -1.54759,0 -2.39303,0.91709 -2.39303,2.522 l 0,5.21594 z"
           style="display:inline;opacity:1;fill:none;fill-opacity:1;fill-rule:evenodd;stroke:#0000ff;stroke-width:0.78806436;stroke-linecap:butt;stroke-linejoin:miter;stroke-miterlimit:4;stroke-dasharray:none;stroke-opacity:1"
           id="path4279-0-7" />
      </g>
    </g>
    <g
       style="display:inline;opacity:0.75"
       id="layer1-0-8"
       inkscape:label="Layer 1"
       transform="matrix(0.48643241,0,0,0.48643241,-15.317879,357.08132)">
      <g
         id="orckit_logo-6"
         inkscape:label="orckit_logo"
         style="display:inline"
         transform="matrix(3.2608124,0,0,3.2608124,-1336.0056,-2355.2679)">
        <title
           id="title9082-0">orckit_logo</title>
        <g
           id="text4478-9-2-9"
           style="font-style:normal;font-variant:normal;font-weight:normal;font-stretch:normal;font-size:20px;line-height:125%;font-family:'Bebas Neue';-inkscape-font-specification:'Bebas Neue';letter-spacing:0px;word-spacing:0px;display:inline;opacity:1;fill:#a1c800;fill-opacity:1;stroke:none;stroke-width:1px;stroke-linecap:butt;stroke-linejoin:miter;stroke-opacity:1" />
        <path
           inkscape:connector-curvature="0"
           d="m 545.06814,853.74916 -7.81282,9.51048 7.81282,10.13624 7.81282,-10.13624 -7.81282,-9.51048 z m -10.73454,10.29296 -11.90198,3.18885 3.5023,13.06999 15.07538,1.31843 3.29523,-7.91692 -9.97093,-9.66035 z m 21.46908,0 -9.97093,9.66035 3.29581,7.91692 15.0748,-1.31843 3.5023,-13.06999 -11.90198,-3.18885 z m -10.83807,14.51769 0.002,0.23967 -3.30266,3.84949 -2.06317,7.69956 5.46822,6.31878 5.4688,-6.31878 -2.06316,-7.69956 -3.30325,-3.84949 0.002,-0.23967 -0.10354,0.12069 -0.10352,-0.12069 z m -15.03591,3.95932 -4.04054,8.41912 8.76232,1.99625 6.12773,-10.2169 -10.84951,-0.19847 z m 30.27888,0 -10.84951,0.19847 6.12773,10.2169 8.76232,-1.99625 -4.04054,-8.41912 z m -3.09301,17.05808 1.6479,0 0,8.59772 1.57625,0 0,-8.59772 1.6479,0 0,-1.43296 -4.87205,0 0,1.43296 z m -2.25623,8.59772 1.57625,0 0,-10.03068 -1.57625,0 0,10.03068 z m -2.33661,0 1.61924,0 -2.19242,-5.55986 2.19242,-4.47082 -1.57625,0 -2.0348,4.34186 -0.0287,0 0,-4.34186 -1.57625,0 0,10.03068 1.57625,0 0,-3.08085 0.4872,-0.91709 1.53326,3.99794 z m -7.53062,-4.29886 2.86591,0 0,-1.43295 -2.86591,0 0,1.43295 z m -2.389,0.55885 0,1.43295 c 0,0.71648 -0.31524,0.97441 -0.81678,0.97441 -0.50154,0 -0.81679,-0.25793 -0.81679,-0.97441 l 0,-5.41656 c 0,-0.71647 0.31525,-0.98874 0.81679,-0.98874 0.50154,0 0.81678,0.27227 0.81678,0.98874 l 0,1.07472 1.49027,0 0,-0.97441 c 0,-1.60491 -0.80245,-2.522 -2.35004,-2.522 -1.54759,0 -2.35004,0.91709 -2.35004,2.522 l 0,5.21594 c 0,1.60491 0.80245,2.52201 2.35004,2.52201 1.54759,0 2.35004,-0.9171 2.35004,-2.52201 l 0,-1.33264 -1.49027,0 z m -3.94555,3.74001 c -0.15762,-0.37257 -0.17195,-0.73081 -0.17195,-1.21801 l 0,-1.54759 c 0,-1.04606 -0.25794,-1.7912 -1.04606,-2.12078 l 0,-0.0286 c 0.70214,-0.32958 1.03172,-0.98874 1.03172,-2.02047 l 0,-0.78812 c 0,-1.54759 -0.70215,-2.30706 -2.33571,-2.30706 l -2.3787,0 0,10.03068 1.57624,0 0,-4.08392 0.54453,0 c 0.71648,0 1.03172,0.34391 1.03172,1.27533 l 0,1.57625 c 0,0.81678 0.0573,0.97441 0.1433,1.23234 l 1.60491,0 z m -2.56499,-8.59772 c 0.55886,0 0.80245,0.31524 0.80245,1.03173 l 0,0.98873 c 0,0.80246 -0.35824,1.06039 -0.94574,1.06039 l -0.61618,0 0,-3.08085 0.75947,0 z m -6.56987,0.8741 c 0,-0.71647 0.31526,-0.98874 0.81679,-0.98874 0.50154,0 0.81679,0.27227 0.81679,0.98874 l 0,5.41656 c 0,0.71648 -0.31525,0.98874 -0.81679,0.98874 -0.50153,0 -0.81679,-0.27226 -0.81679,-0.98874 l 0,-5.41656 z m -1.57624,5.31625 c 0,1.60491 0.84544,2.52201 2.39303,2.52201 1.54759,0 2.39304,-0.9171 2.39304,-2.52201 l 0,-5.21594 c 0,-1.60491 -0.84545,-2.522 -2.39304,-2.522 -1.54759,0 -2.39303,0.91709 -2.39303,2.522 l 0,5.21594 z"
           style="display:inline;opacity:1;fill:none;fill-opacity:1;fill-rule:evenodd;stroke:#0000ff;stroke-width:0.78806436;stroke-linecap:butt;stroke-linejoin:miter;stroke-miterlimit:4;stroke-dasharray:none;stroke-opacity:1"
           id="path4279-0-7-8" />
      </g>
    </g>
  </g>
</svg>
