<?xml version="1.0" encoding="UTF-8" standalone="no"?>
<!-- Created with Inkscape (http://www.inkscape.org/) -->

<svg
   xmlns:dc="http://purl.org/dc/elements/1.1/"
   xmlns:cc="http://creativecommons.org/ns#"
   xmlns:rdf="http://www.w3.org/1999/02/22-rdf-syntax-ns#"
   xmlns:svg="http://www.w3.org/2000/svg"
   xmlns="http://www.w3.org/2000/svg"
   xmlns:sodipodi="http://sodipodi.sourceforge.net/DTD/sodipodi-0.dtd"
   xmlns:inkscape="http://www.inkscape.org/namespaces/inkscape"
   width="210mm"
   height="297mm"
   viewBox="0 0 744.09448819 1052.3622047"
   id="svg5815"
   version="1.1"
   inkscape:version="0.91 r13725"
   sodipodi:docname="motor_mounts_for_4mm_in_layers.svg">
  <defs
     id="defs5817" />
  <sodipodi:namedview
     id="base"
     pagecolor="#ffffff"
     bordercolor="#666666"
     borderopacity="1.0"
     inkscape:pageopacity="0.0"
     inkscape:pageshadow="2"
     inkscape:zoom="1.4"
     inkscape:cx="110.06413"
     inkscape:cy="170.40335"
     inkscape:document-units="px"
     inkscape:current-layer="layer1"
     showgrid="false"
     inkscape:object-paths="true"
     inkscape:snap-intersection-paths="true"
     inkscape:object-nodes="true" />
  <metadata
     id="metadata5820">
    <rdf:RDF>
      <cc:Work
         rdf:about="">
        <dc:format>image/svg+xml</dc:format>
        <dc:type
           rdf:resource="http://purl.org/dc/dcmitype/StillImage" />
        <dc:title></dc:title>
      </cc:Work>
    </rdf:RDF>
  </metadata>
  <g
     inkscape:label="outline"
     inkscape:groupmode="layer"
     id="layer1">
    <path
       style="color:#000000;clip-rule:nonzero;display:inline;overflow:visible;visibility:visible;opacity:1;isolation:auto;mix-blend-mode:normal;color-interpolation:sRGB;color-interpolation-filters:linearRGB;solid-color:#000000;solid-opacity:1;fill:none;fill-opacity:1;fill-rule:nonzero;stroke:#000000;stroke-width:1.32599998;stroke-linecap:round;stroke-linejoin:miter;stroke-miterlimit:4;stroke-dasharray:none;stroke-dashoffset:0;stroke-opacity:1;color-rendering:auto;image-rendering:auto;shape-rendering:auto;text-rendering:auto;enable-background:accumulate"
       d="m 25.179651,772.57953 0,63.77933 22.143212,0 0,-10.6289 20.86551,0 7.38672,0 57.578117,0 c 4.96014,0 8.95312,-3.927 8.95312,-8.80471 l 0,-24.9122 c 0,-4.8777 -3.99298,-8.8046 -8.95312,-8.8046 l -57.578117,0 -7.38672,0 -20.86551,0 0,-10.62892 z"
       id="path4800"
       inkscape:connector-curvature="0"
       sodipodi:nodetypes="ccccccssssccccc" />
    <path
       style="color:#000000;clip-rule:nonzero;display:inline;overflow:visible;visibility:visible;opacity:1;isolation:auto;mix-blend-mode:normal;color-interpolation:sRGB;color-interpolation-filters:linearRGB;solid-color:#000000;solid-opacity:1;fill:none;fill-opacity:1;fill-rule:nonzero;stroke:#000000;stroke-width:1.32599998;stroke-linecap:round;stroke-linejoin:miter;stroke-miterlimit:4;stroke-dasharray:none;stroke-dashoffset:0;stroke-opacity:1;color-rendering:auto;image-rendering:auto;shape-rendering:auto;text-rendering:auto;enable-background:accumulate"
       d="m 25.179651,900.1382 0,63.77933 22.143212,0 0,-10.6289 20.86551,0 7.38672,0 57.578117,0 c 4.96014,0 8.95312,-3.927 8.95312,-8.80471 l 0,-24.9122 c 0,-4.8777 -3.99298,-8.8046 -8.95312,-8.8046 l -57.578117,0 -7.38672,0 -20.86551,0 0,-10.62892 z"
       id="path4800-8"
       inkscape:connector-curvature="0"
       sodipodi:nodetypes="ccccccssssccccc" />
    <path
       style="color:#000000;clip-rule:nonzero;display:inline;overflow:visible;visibility:visible;opacity:1;isolation:auto;mix-blend-mode:normal;color-interpolation:sRGB;color-interpolation-filters:linearRGB;solid-color:#000000;solid-opacity:1;fill:none;fill-opacity:1;fill-rule:nonzero;stroke:#000000;stroke-width:1.32599998;stroke-linecap:round;stroke-linejoin:miter;stroke-miterlimit:4;stroke-dasharray:none;stroke-dashoffset:0;stroke-opacity:1;color-rendering:auto;image-rendering:auto;shape-rendering:auto;text-rendering:auto;enable-background:accumulate"
       d="m 156.57743,772.57958 0,63.77934 22.14321,0 0,-10.6289 20.86551,0 7.38672,0 57.57813,0 c 4.96014,0 8.95312,-3.927 8.95312,-8.80472 l 0,-24.9122 c 0,-4.8777 -3.99298,-8.8046 -8.95312,-8.8046 l -57.57813,0 -7.38672,0 -20.86551,0 0,-10.62892 z"
       id="path4800-0"
       inkscape:connector-curvature="0"
       sodipodi:nodetypes="ccccccssssccccc" />
    <path
       style="color:#000000;clip-rule:nonzero;display:inline;overflow:visible;visibility:visible;opacity:1;isolation:auto;mix-blend-mode:normal;color-interpolation:sRGB;color-interpolation-filters:linearRGB;solid-color:#000000;solid-opacity:1;fill:none;fill-opacity:1;fill-rule:nonzero;stroke:#000000;stroke-width:1.32599998;stroke-linecap:round;stroke-linejoin:miter;stroke-miterlimit:4;stroke-dasharray:none;stroke-dashoffset:0;stroke-opacity:1;color-rendering:auto;image-rendering:auto;shape-rendering:auto;text-rendering:auto;enable-background:accumulate"
       d="m 156.57892,900.13825 0,63.77933 22.14321,0 0,-10.6289 20.86551,0 7.38672,0 57.57812,0 c 4.96014,0 8.95312,-3.927 8.95312,-8.80471 l 0,-24.9122 c 0,-4.8777 -3.99298,-8.8046 -8.95312,-8.8046 l -57.57812,0 -7.38672,0 -20.86551,0 0,-10.62892 z"
       id="path4800-3"
       inkscape:connector-curvature="0"
       sodipodi:nodetypes="ccccccssssccccc" />
    <path
       style="color:#000000;clip-rule:nonzero;display:inline;overflow:visible;visibility:visible;opacity:1;isolation:auto;mix-blend-mode:normal;color-interpolation:sRGB;color-interpolation-filters:linearRGB;solid-color:#000000;solid-opacity:1;fill:none;fill-opacity:1;fill-rule:nonzero;stroke:#000000;stroke-width:1.32599998;stroke-linecap:round;stroke-linejoin:miter;stroke-miterlimit:4;stroke-dasharray:none;stroke-dashoffset:0;stroke-opacity:1;color-rendering:auto;image-rendering:auto;shape-rendering:auto;text-rendering:auto;enable-background:accumulate"
       d="m 273.5056,835.08834 0,63.77933 -22.14321,0 0,-10.6289 -20.86551,0 -7.38672,0 -57.57813,0 c -4.96014,0 -8.95312,-3.927 -8.95312,-8.80471 l 0,-24.9122 c 0,-4.8777 3.99298,-8.8046 8.95312,-8.8046 l 57.57813,0 7.38672,0 20.86551,0 0,-10.62892 z"
       id="path4800-5"
       inkscape:connector-curvature="0"
       sodipodi:nodetypes="ccccccssssccccc" />
    <path
       style="color:#000000;clip-rule:nonzero;display:inline;overflow:visible;visibility:visible;opacity:1;isolation:auto;mix-blend-mode:normal;color-interpolation:sRGB;color-interpolation-filters:linearRGB;solid-color:#000000;solid-opacity:1;fill:none;fill-opacity:1;fill-rule:nonzero;stroke:#000000;stroke-width:1.32599998;stroke-linecap:round;stroke-linejoin:miter;stroke-miterlimit:4;stroke-dasharray:none;stroke-dashoffset:0;stroke-opacity:1;color-rendering:auto;image-rendering:auto;shape-rendering:auto;text-rendering:auto;enable-background:accumulate"
       d="m 142.10633,835.08872 0,63.77933 -22.1432,0 0,-10.6289 -20.865514,0 -7.38672,0 -57.578123,0 c -4.960142,0 -8.953122,-3.927 -8.953122,-8.80471 l 0,-24.9122 c 0,-4.8777 3.99298,-8.8046 8.953122,-8.8046 l 57.578123,0 7.38672,0 20.865514,0 0,-10.62892 z"
       id="path4800-5-9"
       inkscape:connector-curvature="0"
       sodipodi:nodetypes="ccccccssssccccc" />
    <path
       style="color:#000000;clip-rule:nonzero;display:inline;overflow:visible;visibility:visible;opacity:1;isolation:auto;mix-blend-mode:normal;color-interpolation:sRGB;color-interpolation-filters:linearRGB;solid-color:#000000;solid-opacity:1;fill:none;fill-opacity:1;fill-rule:nonzero;stroke:#000000;stroke-width:1.32599998;stroke-linecap:round;stroke-linejoin:miter;stroke-miterlimit:4;stroke-dasharray:none;stroke-dashoffset:0;stroke-opacity:1;color-rendering:auto;image-rendering:auto;shape-rendering:auto;text-rendering:auto;enable-background:accumulate"
       d="m 142.10633,962.64792 0,63.77928 -22.1432,0 0,-10.6289 -20.865514,0 -7.38672,0 -57.578123,0 c -4.960142,0 -8.953122,-3.927 -8.953122,-8.8047 l 0,-24.91216 c 0,-4.8777 3.99298,-8.8046 8.953122,-8.8046 l 57.578123,0 7.38672,0 20.865514,0 0,-10.62892 z"
       id="path4800-5-8"
       inkscape:connector-curvature="0"
       sodipodi:nodetypes="ccccccssssccccc" />
    <path
       style="color:#000000;clip-rule:nonzero;display:inline;overflow:visible;visibility:visible;opacity:1;isolation:auto;mix-blend-mode:normal;color-interpolation:sRGB;color-interpolation-filters:linearRGB;solid-color:#000000;solid-opacity:1;fill:none;fill-opacity:1;fill-rule:nonzero;stroke:#000000;stroke-width:1.32599998;stroke-linecap:round;stroke-linejoin:miter;stroke-miterlimit:4;stroke-dasharray:none;stroke-dashoffset:0;stroke-opacity:1;color-rendering:auto;image-rendering:auto;shape-rendering:auto;text-rendering:auto;enable-background:accumulate"
       d="m 273.50562,962.64743 0,63.77927 -22.14321,0 0,-10.6289 -20.86551,0 -7.38672,0 -57.57813,0 c -4.96014,0 -8.95312,-3.927 -8.95312,-8.8047 l 0,-24.91215 c 0,-4.8777 3.99298,-8.8046 8.95312,-8.8046 l 57.57813,0 7.38672,0 20.86551,0 0,-10.62892 z"
       id="path4800-5-2"
       inkscape:connector-curvature="0"
       sodipodi:nodetypes="ccccccssssccccc" />
  </g>
  <g
     inkscape:groupmode="layer"
     id="layer4"
     inkscape:label="holes">
    <path
       inkscape:connector-curvature="0"
       style="color:#000000;clip-rule:nonzero;display:inline;overflow:visible;visibility:visible;opacity:1;isolation:auto;mix-blend-mode:normal;color-interpolation:sRGB;color-interpolation-filters:linearRGB;solid-color:#000000;solid-opacity:1;fill:#ffffff;fill-opacity:1;fill-rule:nonzero;stroke:#ff0000;stroke-width:1.32582521;stroke-linecap:round;stroke-linejoin:miter;stroke-miterlimit:4;stroke-dasharray:none;stroke-dashoffset:0;stroke-opacity:1;color-rendering:auto;image-rendering:auto;shape-rendering:auto;text-rendering:auto;enable-background:accumulate"
       d="m 71.239153,799.15375 c 2.93572,-8e-4 5.3161,2.3787 5.31641,5.3144 8.5e-4,2.9365 -2.37987,5.3173 -5.31641,5.3165 -2.93577,-3e-4 -5.3153,-2.3807 -5.31445,-5.3165 3.1e-4,-2.935 2.3795,-5.3141 5.31445,-5.3144 z"
       id="path4798" />
    <path
       inkscape:connector-curvature="0"
       style="color:#000000;clip-rule:nonzero;display:inline;overflow:visible;visibility:visible;opacity:1;isolation:auto;mix-blend-mode:normal;color-interpolation:sRGB;color-interpolation-filters:linearRGB;solid-color:#000000;solid-opacity:1;fill:#ffffff;fill-opacity:1;fill-rule:nonzero;stroke:#ff0000;stroke-width:1.32582521;stroke-linecap:round;stroke-linejoin:miter;stroke-miterlimit:4;stroke-dasharray:none;stroke-dashoffset:0;stroke-opacity:1;color-rendering:auto;image-rendering:auto;shape-rendering:auto;text-rendering:auto;enable-background:accumulate"
       d="m 133.24891,799.15375 c 2.93573,3e-4 5.31525,2.3807 5.31445,5.3164 -2.5e-4,2.935 -2.37946,5.3142 -5.31445,5.3145 -2.93576,8e-4 -5.31616,-2.3787 -5.31641,-5.3145 -8e-4,-2.9365 2.37991,-5.3172 5.31641,-5.3164 z"
       id="rect4386-0-4-4-5" />
    <path
       inkscape:connector-curvature="0"
       style="color:#000000;clip-rule:nonzero;display:inline;overflow:visible;visibility:visible;opacity:1;isolation:auto;mix-blend-mode:normal;color-interpolation:sRGB;color-interpolation-filters:linearRGB;solid-color:#000000;solid-opacity:1;fill:#ffffff;fill-opacity:1;fill-rule:nonzero;stroke:#ff0000;stroke-width:1.32582521;stroke-linecap:round;stroke-linejoin:miter;stroke-miterlimit:4;stroke-dasharray:none;stroke-dashoffset:0;stroke-opacity:1;color-rendering:auto;image-rendering:auto;shape-rendering:auto;text-rendering:auto;enable-background:accumulate"
       d="m 71.239153,926.71241 c 2.93572,-8e-4 5.3161,2.3787 5.31641,5.3144 8.5e-4,2.9365 -2.37987,5.3173 -5.31641,5.3165 -2.93577,-3e-4 -5.3153,-2.3807 -5.31445,-5.3165 3.1e-4,-2.935 2.3795,-5.3141 5.31445,-5.3144 z"
       id="path4798-8" />
    <path
       inkscape:connector-curvature="0"
       style="color:#000000;clip-rule:nonzero;display:inline;overflow:visible;visibility:visible;opacity:1;isolation:auto;mix-blend-mode:normal;color-interpolation:sRGB;color-interpolation-filters:linearRGB;solid-color:#000000;solid-opacity:1;fill:#ffffff;fill-opacity:1;fill-rule:nonzero;stroke:#ff0000;stroke-width:1.32582521;stroke-linecap:round;stroke-linejoin:miter;stroke-miterlimit:4;stroke-dasharray:none;stroke-dashoffset:0;stroke-opacity:1;color-rendering:auto;image-rendering:auto;shape-rendering:auto;text-rendering:auto;enable-background:accumulate"
       d="m 133.24891,926.71241 c 2.93573,3e-4 5.31525,2.3807 5.31445,5.3164 -2.5e-4,2.935 -2.37946,5.3142 -5.31445,5.3145 -2.93576,8e-4 -5.31616,-2.3787 -5.31641,-5.3145 -8e-4,-2.9365 2.37991,-5.3172 5.31641,-5.3164 z"
       id="rect4386-0-4-4-5-6" />
    <path
       inkscape:connector-curvature="0"
       style="color:#000000;clip-rule:nonzero;display:inline;overflow:visible;visibility:visible;opacity:1;isolation:auto;mix-blend-mode:normal;color-interpolation:sRGB;color-interpolation-filters:linearRGB;solid-color:#000000;solid-opacity:1;fill:#ffffff;fill-opacity:1;fill-rule:nonzero;stroke:#ff0000;stroke-width:1.32582521;stroke-linecap:round;stroke-linejoin:miter;stroke-miterlimit:4;stroke-dasharray:none;stroke-dashoffset:0;stroke-opacity:1;color-rendering:auto;image-rendering:auto;shape-rendering:auto;text-rendering:auto;enable-background:accumulate"
       d="m 202.63693,799.1538 c 2.93572,-8e-4 5.3161,2.3787 5.31641,5.3144 8.5e-4,2.9365 -2.37987,5.3173 -5.31641,5.3165 -2.93577,-3e-4 -5.3153,-2.3807 -5.31445,-5.3165 3.1e-4,-2.935 2.3795,-5.3141 5.31445,-5.3144 z"
       id="path4798-3" />
    <path
       inkscape:connector-curvature="0"
       style="color:#000000;clip-rule:nonzero;display:inline;overflow:visible;visibility:visible;opacity:1;isolation:auto;mix-blend-mode:normal;color-interpolation:sRGB;color-interpolation-filters:linearRGB;solid-color:#000000;solid-opacity:1;fill:#ffffff;fill-opacity:1;fill-rule:nonzero;stroke:#ff0000;stroke-width:1.32582521;stroke-linecap:round;stroke-linejoin:miter;stroke-miterlimit:4;stroke-dasharray:none;stroke-dashoffset:0;stroke-opacity:1;color-rendering:auto;image-rendering:auto;shape-rendering:auto;text-rendering:auto;enable-background:accumulate"
       d="m 264.6467,799.1538 c 2.93573,3e-4 5.31525,2.3807 5.31445,5.3164 -2.5e-4,2.935 -2.37946,5.3142 -5.31445,5.3145 -2.93576,8e-4 -5.31616,-2.3787 -5.31641,-5.3145 -8e-4,-2.9365 2.37991,-5.3172 5.31641,-5.3164 z"
       id="rect4386-0-4-4-5-2" />
    <path
       inkscape:connector-curvature="0"
       style="color:#000000;clip-rule:nonzero;display:inline;overflow:visible;visibility:visible;opacity:1;isolation:auto;mix-blend-mode:normal;color-interpolation:sRGB;color-interpolation-filters:linearRGB;solid-color:#000000;solid-opacity:1;fill:#ffffff;fill-opacity:1;fill-rule:nonzero;stroke:#ff0000;stroke-width:1.32582521;stroke-linecap:round;stroke-linejoin:miter;stroke-miterlimit:4;stroke-dasharray:none;stroke-dashoffset:0;stroke-opacity:1;color-rendering:auto;image-rendering:auto;shape-rendering:auto;text-rendering:auto;enable-background:accumulate"
       d="m 202.63842,926.71246 c 2.93572,-8e-4 5.3161,2.3787 5.31641,5.3144 8.5e-4,2.9365 -2.37987,5.3173 -5.31641,5.3165 -2.93577,-3e-4 -5.3153,-2.3807 -5.31445,-5.3165 3.1e-4,-2.935 2.3795,-5.3141 5.31445,-5.3144 z"
       id="path4798-6" />
    <path
       inkscape:connector-curvature="0"
       style="color:#000000;clip-rule:nonzero;display:inline;overflow:visible;visibility:visible;opacity:1;isolation:auto;mix-blend-mode:normal;color-interpolation:sRGB;color-interpolation-filters:linearRGB;solid-color:#000000;solid-opacity:1;fill:#ffffff;fill-opacity:1;fill-rule:nonzero;stroke:#ff0000;stroke-width:1.32582521;stroke-linecap:round;stroke-linejoin:miter;stroke-miterlimit:4;stroke-dasharray:none;stroke-dashoffset:0;stroke-opacity:1;color-rendering:auto;image-rendering:auto;shape-rendering:auto;text-rendering:auto;enable-background:accumulate"
       d="m 264.64818,926.71246 c 2.93573,3e-4 5.31525,2.3807 5.31445,5.3164 -2.5e-4,2.935 -2.37946,5.3142 -5.31445,5.3145 -2.93576,8e-4 -5.31616,-2.3787 -5.31641,-5.3145 -8e-4,-2.9365 2.37991,-5.3172 5.31641,-5.3164 z"
       id="rect4386-0-4-4-5-27" />
    <path
       inkscape:connector-curvature="0"
       style="color:#000000;clip-rule:nonzero;display:inline;overflow:visible;visibility:visible;opacity:1;isolation:auto;mix-blend-mode:normal;color-interpolation:sRGB;color-interpolation-filters:linearRGB;solid-color:#000000;solid-opacity:1;fill:#ffffff;fill-opacity:1;fill-rule:nonzero;stroke:#ff0000;stroke-width:1.32582521;stroke-linecap:round;stroke-linejoin:miter;stroke-miterlimit:4;stroke-dasharray:none;stroke-dashoffset:0;stroke-opacity:1;color-rendering:auto;image-rendering:auto;shape-rendering:auto;text-rendering:auto;enable-background:accumulate"
       d="m 227.4461,861.66256 c -2.93572,-8e-4 -5.3161,2.3787 -5.31641,5.3144 -8.5e-4,2.9365 2.37987,5.3173 5.31641,5.3165 2.93577,-3e-4 5.3153,-2.3807 5.31445,-5.3165 -3.1e-4,-2.935 -2.3795,-5.3141 -5.31445,-5.3144 z"
       id="path4798-4" />
    <path
       inkscape:connector-curvature="0"
       style="color:#000000;clip-rule:nonzero;display:inline;overflow:visible;visibility:visible;opacity:1;isolation:auto;mix-blend-mode:normal;color-interpolation:sRGB;color-interpolation-filters:linearRGB;solid-color:#000000;solid-opacity:1;fill:#ffffff;fill-opacity:1;fill-rule:nonzero;stroke:#ff0000;stroke-width:1.32582521;stroke-linecap:round;stroke-linejoin:miter;stroke-miterlimit:4;stroke-dasharray:none;stroke-dashoffset:0;stroke-opacity:1;color-rendering:auto;image-rendering:auto;shape-rendering:auto;text-rendering:auto;enable-background:accumulate"
       d="m 165.43633,861.66256 c -2.93573,3e-4 -5.31525,2.3807 -5.31445,5.3164 2.5e-4,2.935 2.37946,5.3142 5.31445,5.3145 2.93576,8e-4 5.31616,-2.3787 5.31641,-5.3145 8e-4,-2.9365 -2.37991,-5.3172 -5.31641,-5.3164 z"
       id="rect4386-0-4-4-5-0" />
    <path
       inkscape:connector-curvature="0"
       style="color:#000000;clip-rule:nonzero;display:inline;overflow:visible;visibility:visible;opacity:1;isolation:auto;mix-blend-mode:normal;color-interpolation:sRGB;color-interpolation-filters:linearRGB;solid-color:#000000;solid-opacity:1;fill:#ffffff;fill-opacity:1;fill-rule:nonzero;stroke:#ff0000;stroke-width:1.32582521;stroke-linecap:round;stroke-linejoin:miter;stroke-miterlimit:4;stroke-dasharray:none;stroke-dashoffset:0;stroke-opacity:1;color-rendering:auto;image-rendering:auto;shape-rendering:auto;text-rendering:auto;enable-background:accumulate"
       d="m 96.046836,861.66294 c -2.93572,-8e-4 -5.3161,2.3787 -5.31641,5.3144 -8.5e-4,2.9365 2.37987,5.3173 5.31641,5.3165 2.93577,-3e-4 5.315304,-2.3807 5.314454,-5.3165 -3.1e-4,-2.935 -2.379504,-5.3141 -5.314454,-5.3144 z"
       id="path4798-4-5" />
    <path
       inkscape:connector-curvature="0"
       style="color:#000000;clip-rule:nonzero;display:inline;overflow:visible;visibility:visible;opacity:1;isolation:auto;mix-blend-mode:normal;color-interpolation:sRGB;color-interpolation-filters:linearRGB;solid-color:#000000;solid-opacity:1;fill:#ffffff;fill-opacity:1;fill-rule:nonzero;stroke:#ff0000;stroke-width:1.32582521;stroke-linecap:round;stroke-linejoin:miter;stroke-miterlimit:4;stroke-dasharray:none;stroke-dashoffset:0;stroke-opacity:1;color-rendering:auto;image-rendering:auto;shape-rendering:auto;text-rendering:auto;enable-background:accumulate"
       d="m 34.037073,861.66294 c -2.935732,3e-4 -5.315252,2.3807 -5.314452,5.3164 2.5e-4,2.935 2.37946,5.3142 5.314452,5.3145 2.93576,8e-4 5.31616,-2.3787 5.31641,-5.3145 8e-4,-2.9365 -2.37991,-5.3172 -5.31641,-5.3164 z"
       id="rect4386-0-4-4-5-0-4" />
    <path
       inkscape:connector-curvature="0"
       style="color:#000000;clip-rule:nonzero;display:inline;overflow:visible;visibility:visible;opacity:1;isolation:auto;mix-blend-mode:normal;color-interpolation:sRGB;color-interpolation-filters:linearRGB;solid-color:#000000;solid-opacity:1;fill:#ffffff;fill-opacity:1;fill-rule:nonzero;stroke:#ff0000;stroke-width:1.32582521;stroke-linecap:round;stroke-linejoin:miter;stroke-miterlimit:4;stroke-dasharray:none;stroke-dashoffset:0;stroke-opacity:1;color-rendering:auto;image-rendering:auto;shape-rendering:auto;text-rendering:auto;enable-background:accumulate"
       d="m 96.046836,989.22213 c -2.93572,-8e-4 -5.3161,2.3787 -5.31641,5.3144 -8.5e-4,2.9365 2.37987,5.3173 5.31641,5.3165 2.93577,-3e-4 5.315304,-2.3807 5.314454,-5.3165 -3.1e-4,-2.935 -2.379504,-5.3141 -5.314454,-5.3144 z"
       id="path4798-4-0" />
    <path
       inkscape:connector-curvature="0"
       style="color:#000000;clip-rule:nonzero;display:inline;overflow:visible;visibility:visible;opacity:1;isolation:auto;mix-blend-mode:normal;color-interpolation:sRGB;color-interpolation-filters:linearRGB;solid-color:#000000;solid-opacity:1;fill:#ffffff;fill-opacity:1;fill-rule:nonzero;stroke:#ff0000;stroke-width:1.32582521;stroke-linecap:round;stroke-linejoin:miter;stroke-miterlimit:4;stroke-dasharray:none;stroke-dashoffset:0;stroke-opacity:1;color-rendering:auto;image-rendering:auto;shape-rendering:auto;text-rendering:auto;enable-background:accumulate"
       d="m 34.037073,989.22213 c -2.935732,3e-4 -5.315252,2.3807 -5.314452,5.3164 2.5e-4,2.935 2.37946,5.3142 5.314452,5.3145 2.93576,8e-4 5.31616,-2.3787 5.31641,-5.3145 8e-4,-2.9365 -2.37991,-5.3172 -5.31641,-5.3164 z"
       id="rect4386-0-4-4-5-0-5" />
    <path
       inkscape:connector-curvature="0"
       style="color:#000000;clip-rule:nonzero;display:inline;overflow:visible;visibility:visible;opacity:1;isolation:auto;mix-blend-mode:normal;color-interpolation:sRGB;color-interpolation-filters:linearRGB;solid-color:#000000;solid-opacity:1;fill:#ffffff;fill-opacity:1;fill-rule:nonzero;stroke:#ff0000;stroke-width:1.32582521;stroke-linecap:round;stroke-linejoin:miter;stroke-miterlimit:4;stroke-dasharray:none;stroke-dashoffset:0;stroke-opacity:1;color-rendering:auto;image-rendering:auto;shape-rendering:auto;text-rendering:auto;enable-background:accumulate"
       d="m 227.44612,989.22164 c -2.93572,-8e-4 -5.3161,2.3787 -5.31641,5.3144 -8.5e-4,2.9365 2.37987,5.3173 5.31641,5.3165 2.93577,-3e-4 5.3153,-2.3807 5.31445,-5.3165 -3.1e-4,-2.935 -2.3795,-5.3141 -5.31445,-5.3144 z"
       id="path4798-4-9" />
    <path
       inkscape:connector-curvature="0"
       style="color:#000000;clip-rule:nonzero;display:inline;overflow:visible;visibility:visible;opacity:1;isolation:auto;mix-blend-mode:normal;color-interpolation:sRGB;color-interpolation-filters:linearRGB;solid-color:#000000;solid-opacity:1;fill:#ffffff;fill-opacity:1;fill-rule:nonzero;stroke:#ff0000;stroke-width:1.32582521;stroke-linecap:round;stroke-linejoin:miter;stroke-miterlimit:4;stroke-dasharray:none;stroke-dashoffset:0;stroke-opacity:1;color-rendering:auto;image-rendering:auto;shape-rendering:auto;text-rendering:auto;enable-background:accumulate"
       d="m 165.43635,989.22164 c -2.93573,3e-4 -5.31525,2.3807 -5.31445,5.3164 2.5e-4,2.935 2.37946,5.3142 5.31445,5.3145 2.93576,8e-4 5.31616,-2.3787 5.31641,-5.3145 8e-4,-2.9365 -2.37991,-5.3172 -5.31641,-5.3164 z"
       id="rect4386-0-4-4-5-0-7" />
  </g>
</svg>
