  0
SECTION
  2
HEADER
  9
$ACADVER
  1
AC1014
  9
$HANDSEED
  5
FFFF
  9
$MEASUREMENT
 70
     1
  0
ENDSEC
  0
SECTION
  2
TABLES
  0
TABLE
  2
VPORT
  5
8
330
0
100
AcDbSymbolTable
 70
     4
  0
VPORT
  5
2E
330
8
100
AcDbSymbolTableRecord
100
AcDbViewportTableRecord
  2
*ACTIVE
 70
     0
 10
0.0
 20
0.0
 11
1.0
 21
1.0
 12
210.0
 22
148.5
 13
0.0
 23
0.0
 14
10.0
 24
10.0
 15
10.0
 25
10.0
 16
0.0
 26
0.0
 36
1.0
 17
0.0
 27
0.0
 37
0.0
 40
341.0
 41
1.24
 42
50.0
 43
0.0
 44
0.0
 50
0.0
 51
0.0
 71
     0
 72
   100
 73
     1
 74
     3
 75
     0
 76
     0
 77
     0
 78
     0
  0
ENDTAB
  0
TABLE
  2
LTYPE
  5
5
330
0
100
AcDbSymbolTable
 70
     1
  0
LTYPE
  5
14
330
5
100
AcDbSymbolTableRecord
100
AcDbLinetypeTableRecord
  2
BYBLOCK
 70
     0
  3

 72
    65
 73
     0
 40
0.0
  0
LTYPE
  5
15
330
5
100
AcDbSymbolTableRecord
100
AcDbLinetypeTableRecord
  2
BYLAYER
 70
     0
  3

 72
    65
 73
     0
 40
0.0
  0
LTYPE
  5
16
330
5
100
AcDbSymbolTableRecord
100
AcDbLinetypeTableRecord
  2
CONTINUOUS
 70
     0
  3
Solid line
 72
    65
 73
     0
 40
0.0
  0
ENDTAB
  0
TABLE
  2
LAYER
  5
2
100
AcDbSymbolTable
 70
2
  0
LAYER
  5
50
100
AcDbSymbolTableRecord
100
AcDbLayerTableRecord
  2
0
 70
0
  6
CONTINUOUS
  0
LAYER
  5
51
100
AcDbSymbolTableRecord
100
AcDbLayerTableRecord
  2
Layer_1
 70
0
  6
CONTINUOUS
  0
ENDTAB
  0
TABLE
  2
STYLE
  5
3
330
0
100
AcDbSymbolTable
 70
     1
  0
STYLE
  5
11
330
3
100
AcDbSymbolTableRecord
100
AcDbTextStyleTableRecord
  2
STANDARD
 70
     0
 40
0.0
 41
1.0
 50
0.0
 71
     0
 42
2.5
  3
txt
  4

  0
ENDTAB
  0
TABLE
  2
VIEW
  5
6
330
0
100
AcDbSymbolTable
 70
     0
  0
ENDTAB
  0
TABLE
  2
UCS
  5
7
330
0
100
AcDbSymbolTable
 70
     0
  0
ENDTAB
  0
TABLE
  2
APPID
  5
9
330
0
100
AcDbSymbolTable
 70
     2
  0
APPID
  5
12
330
9
100
AcDbSymbolTableRecord
100
AcDbRegAppTableRecord
  2
ACAD
 70
     0
  0
ENDTAB
  0
TABLE
  2
DIMSTYLE
  5
A
330
0
100
AcDbSymbolTable
 70
     1
  0
DIMSTYLE
105
27
330
A
100
AcDbSymbolTableRecord
100
AcDbDimStyleTableRecord
  2
ISO-25
 70
     0
  3

  4

  5

  6

  7

 40
1.0
 41
2.5
 42
0.625
 43
3.75
 44
1.25
 45
0.0
 46
0.0
 47
0.0
 48
0.0
140
2.5
141
2.5
142
0.0
143
0.03937007874016
144
1.0
145
0.0
146
1.0
147
0.625
 71
     0
 72
     0
 73
     0
 74
     0
 75
     0
 76
     0
 77
     1
 78
     8
170
     0
171
     3
172
     1
173
     0
174
     0
175
     0
176
     0
177
     0
178
     0
270
     2
271
     2
272
     2
273
     2
274
     3
340
11
275
     0
280
     0
281
     0
282
     0
283
     0
284
     8
285
     0
286
     0
287
     3
288
     0
  0
ENDTAB
  0
TABLE
  2
BLOCK_RECORD
  5
1
330
0
100
AcDbSymbolTable
 70
     1
  0
BLOCK_RECORD
  5
1F
330
1
100
AcDbSymbolTableRecord
100
AcDbBlockTableRecord
  2
*MODEL_SPACE
  0
BLOCK_RECORD
  5
1B
330
1
100
AcDbSymbolTableRecord
100
AcDbBlockTableRecord
  2
*PAPER_SPACE
  0
ENDTAB
  0
ENDSEC
  0
SECTION
  2
BLOCKS
  0
BLOCK
  5
20
330
1F
100
AcDbEntity
  8
0
100
AcDbBlockBegin
  2
*MODEL_SPACE
 70
     0
 10
0.0
 20
0.0
 30
0.0
  3
*MODEL_SPACE
  1

  0
ENDBLK
  5
21
330
1F
100
AcDbEntity
  8
0
100
AcDbBlockEnd
  0
BLOCK
  5
1C
330
1B
100
AcDbEntity
 67
     1
  8
0
100
AcDbBlockBegin
  2
*PAPER_SPACE
  1

  0
ENDBLK
  5
1D
330
1B
100
AcDbEntity
 67
     1
  8
0
100
AcDbBlockEnd
  0
ENDSEC
  0
SECTION
  2
ENTITIES
  0
SPLINE
  5
100
100
AcDbEntity
  8
Layer_1
 62
7
100
AcDbSpline
 70
8
 71
3
 72
8
 73
4
 74
0
 40
0
 40
0
 40
0
 40
0
 40
1
 40
1
 40
1
 40
1
 10
99.078387
 20
240.951674
 30
0.0
 10
78.731866
 20
239.728066
 30
0.0
 10
59.245144
 20
232.315990
 30
0.0
 10
43.228703
 20
219.708387
 30
0.0
  0
LINE
  5
101
100
AcDbEntity
  8
Layer_1
 62
7
100
AcDbLine
 10
43.228703
 20
219.708387
 30
0.0
 11
43.228703
 21
182.110545
 31
0.0
  0
LINE
  5
102
100
AcDbEntity
  8
Layer_1
 62
7
100
AcDbLine
 10
43.228703
 20
182.110545
 30
0.0
 11
47.116975
 21
182.110545
 31
0.0
  0
LINE
  5
103
100
AcDbEntity
  8
Layer_1
 62
7
100
AcDbLine
 10
47.116975
 20
182.110545
 30
0.0
 11
47.116975
 21
170.109499
 31
0.0
  0
LINE
  5
104
100
AcDbEntity
  8
Layer_1
 62
7
100
AcDbLine
 10
47.116975
 20
170.109499
 30
0.0
 11
43.228703
 21
170.109499
 31
0.0
  0
LINE
  5
105
100
AcDbEntity
  8
Layer_1
 62
7
100
AcDbLine
 10
43.228703
 20
170.109499
 30
0.0
 11
43.228703
 21
161.260281
 31
0.0
  0
LINE
  5
106
100
AcDbEntity
  8
Layer_1
 62
7
100
AcDbLine
 10
43.228703
 20
161.260281
 30
0.0
 11
7.255843
 21
161.260281
 31
0.0
  0
SPLINE
  5
107
100
AcDbEntity
  8
Layer_1
 62
7
100
AcDbSpline
 70
8
 71
3
 72
8
 73
4
 74
0
 40
0
 40
0
 40
0
 40
0
 40
1
 40
1
 40
1
 40
1
 10
7.255843
 20
161.260281
 30
0.0
 10
5.909999
 20
154.678717
 30
0.0
 10
5.230778
 20
147.978282
 30
0.0
 10
5.228472
 20
141.260518
 30
0.0
  0
SPLINE
  5
108
100
AcDbEntity
  8
Layer_1
 62
7
100
AcDbSpline
 70
8
 71
3
 72
8
 73
4
 74
0
 40
0
 40
0
 40
0
 40
0
 40
1
 40
1
 40
1
 40
1
 10
5.228472
 20
141.260518
 30
0.0
 10
5.230730
 20
134.542585
 30
0.0
 10
5.909965
 20
127.841980
 30
0.0
 10
7.255843
 20
121.260248
 30
0.0
  0
LINE
  5
109
100
AcDbEntity
  8
Layer_1
 62
7
100
AcDbLine
 10
7.255843
 20
121.260248
 30
0.0
 11
43.228703
 21
121.260248
 31
0.0
  0
LINE
  5
10a
100
AcDbEntity
  8
Layer_1
 62
7
100
AcDbLine
 10
43.228703
 20
121.260248
 30
0.0
 11
43.228703
 21
112.410464
 31
0.0
  0
LINE
  5
10b
100
AcDbEntity
  8
Layer_1
 62
7
100
AcDbLine
 10
43.228703
 20
112.410464
 30
0.0
 11
47.116975
 21
112.410464
 31
0.0
  0
LINE
  5
10c
100
AcDbEntity
  8
Layer_1
 62
7
100
AcDbLine
 10
47.116975
 20
112.410464
 30
0.0
 11
47.116975
 21
100.409980
 31
0.0
  0
LINE
  5
10d
100
AcDbEntity
  8
Layer_1
 62
7
100
AcDbLine
 10
47.116975
 20
100.409980
 30
0.0
 11
43.228703
 21
100.409980
 31
0.0
  0
LINE
  5
10e
100
AcDbEntity
  8
Layer_1
 62
7
100
AcDbLine
 10
43.228703
 20
100.409980
 30
0.0
 11
43.228703
 21
62.812110
 31
0.0
  0
SPLINE
  5
10f
100
AcDbEntity
  8
Layer_1
 62
7
100
AcDbSpline
 70
8
 71
3
 72
8
 73
4
 74
0
 40
0
 40
0
 40
0
 40
0
 40
1
 40
1
 40
1
 40
1
 10
43.228703
 20
62.812110
 30
0.0
 10
60.881613
 20
48.856757
 30
0.0
 10
82.725463
 20
41.263315
 30
0.0
 10
105.228294
 20
41.259617
 30
0.0
  0
SPLINE
  5
110
100
AcDbEntity
  8
Layer_1
 62
7
100
AcDbSpline
 70
8
 71
3
 72
8
 73
4
 74
0
 40
0
 40
0
 40
0
 40
0
 40
1
 40
1
 40
1
 40
1
 10
105.228294
 20
41.259617
 30
0.0
 10
127.745902
 20
41.298028
 30
0.0
 10
149.591497
 20
48.935102
 30
0.0
 10
167.228438
 20
62.934482
 30
0.0
  0
LINE
  5
111
100
AcDbEntity
  8
Layer_1
 62
7
100
AcDbLine
 10
167.228438
 20
62.934482
 30
0.0
 11
167.228438
 21
100.409980
 31
0.0
  0
LINE
  5
112
100
AcDbEntity
  8
Layer_1
 62
7
100
AcDbLine
 10
167.228438
 20
100.409980
 30
0.0
 11
164.241404
 21
100.409980
 31
0.0
  0
LINE
  5
113
100
AcDbEntity
  8
Layer_1
 62
7
100
AcDbLine
 10
164.241404
 20
100.409980
 30
0.0
 11
164.241404
 21
112.410464
 31
0.0
  0
LINE
  5
114
100
AcDbEntity
  8
Layer_1
 62
7
100
AcDbLine
 10
164.241404
 20
112.410464
 30
0.0
 11
167.228438
 21
112.410464
 31
0.0
  0
LINE
  5
115
100
AcDbEntity
  8
Layer_1
 62
7
100
AcDbLine
 10
167.228438
 20
112.410464
 30
0.0
 11
167.228438
 21
121.260248
 31
0.0
  0
LINE
  5
116
100
AcDbEntity
  8
Layer_1
 62
7
100
AcDbLine
 10
167.228438
 20
121.260248
 30
0.0
 11
203.099323
 21
121.260248
 31
0.0
  0
SPLINE
  5
117
100
AcDbEntity
  8
Layer_1
 62
7
100
AcDbSpline
 70
8
 71
3
 72
8
 73
4
 74
0
 40
0
 40
0
 40
0
 40
0
 40
1
 40
1
 40
1
 40
1
 10
203.099323
 20
121.260248
 30
0.0
 10
204.479457
 20
127.838509
 30
0.0
 10
205.192844
 20
134.539142
 30
0.0
 10
205.228670
 20
141.260518
 30
0.0
  0
SPLINE
  5
118
100
AcDbEntity
  8
Layer_1
 62
7
100
AcDbSpline
 70
8
 71
3
 72
8
 73
4
 74
0
 40
0
 40
0
 40
0
 40
0
 40
1
 40
1
 40
1
 40
1
 10
205.228670
 20
141.260518
 30
0.0
 10
205.226412
 20
147.978282
 30
0.0
 10
204.547143
 20
154.678717
 30
0.0
 10
203.201298
 20
161.260281
 30
0.0
  0
LINE
  5
119
100
AcDbEntity
  8
Layer_1
 62
7
100
AcDbLine
 10
203.201298
 20
161.260281
 30
0.0
 11
167.228438
 21
161.260281
 31
0.0
  0
LINE
  5
11a
100
AcDbEntity
  8
Layer_1
 62
7
100
AcDbLine
 10
167.228438
 20
161.260281
 30
0.0
 11
167.228438
 21
170.109499
 31
0.0
  0
LINE
  5
11b
100
AcDbEntity
  8
Layer_1
 62
7
100
AcDbLine
 10
167.228438
 20
170.109499
 30
0.0
 11
163.339613
 21
170.109499
 31
0.0
  0
LINE
  5
11c
100
AcDbEntity
  8
Layer_1
 62
7
100
AcDbLine
 10
163.339613
 20
170.109499
 30
0.0
 11
163.339613
 21
182.109992
 31
0.0
  0
LINE
  5
11d
100
AcDbEntity
  8
Layer_1
 62
7
100
AcDbLine
 10
163.339613
 20
182.109992
 30
0.0
 11
167.228438
 21
182.109992
 31
0.0
  0
LINE
  5
11e
100
AcDbEntity
  8
Layer_1
 62
7
100
AcDbLine
 10
167.228438
 20
182.109992
 30
0.0
 11
167.228438
 21
219.708387
 31
0.0
  0
SPLINE
  5
11f
100
AcDbEntity
  8
Layer_1
 62
7
100
AcDbSpline
 70
8
 71
3
 72
8
 73
4
 74
0
 40
0
 40
0
 40
0
 40
0
 40
1
 40
1
 40
1
 40
1
 10
167.228438
 20
219.708387
 30
0.0
 10
154.098876
 20
230.086395
 30
0.0
 10
138.574639
 20
237.003222
 30
0.0
 10
122.078394
 20
239.824989
 30
0.0
  0
LINE
  5
120
100
AcDbEntity
  8
Layer_1
 62
7
100
AcDbLine
 10
122.078394
 20
239.824989
 30
0.0
 11
122.078394
 21
223.433500
 31
0.0
  0
LINE
  5
121
100
AcDbEntity
  8
Layer_1
 62
7
100
AcDbLine
 10
122.078394
 20
223.433500
 30
0.0
 11
99.078387
 21
223.433500
 31
0.0
  0
LINE
  5
122
100
AcDbEntity
  8
Layer_1
 62
7
100
AcDbLine
 10
99.078387
 20
223.433500
 30
0.0
 11
99.078387
 21
240.951674
 31
0.0
  0
LINE
  5
123
100
AcDbEntity
  8
Layer_1
 62
7
100
AcDbLine
 10
99.078387
 20
240.951674
 30
0.0
 11
99.078387
 21
240.951674
 31
0.0
  0
SPLINE
  5
124
100
AcDbEntity
  8
Layer_1
 62
7
100
AcDbSpline
 70
8
 71
3
 72
8
 73
4
 74
0
 40
0
 40
0
 40
0
 40
0
 40
1
 40
1
 40
1
 40
1
 10
79.422600
 20
234.246689
 30
0.0
 10
80.032259
 20
234.218213
 30
0.0
 10
80.595552
 20
233.912922
 30
0.0
 10
80.952224
 20
233.417662
 30
0.0
  0
SPLINE
  5
125
100
AcDbEntity
  8
Layer_1
 62
7
100
AcDbSpline
 70
8
 71
3
 72
8
 73
4
 74
0
 40
0
 40
0
 40
0
 40
0
 40
1
 40
1
 40
1
 40
1
 10
80.952224
 20
233.417662
 30
0.0
 10
81.597954
 20
232.521434
 30
0.0
 10
81.394842
 20
231.271427
 30
0.0
 10
80.498572
 20
230.625756
 30
0.0
  0
SPLINE
  5
126
100
AcDbEntity
  8
Layer_1
 62
7
100
AcDbSpline
 70
8
 71
3
 72
8
 73
4
 74
0
 40
0
 40
0
 40
0
 40
0
 40
1
 40
1
 40
1
 40
1
 10
80.498572
 20
230.625756
 30
0.0
 10
79.602203
 20
229.980144
 30
0.0
 10
78.352167
 20
230.183505
 30
0.0
 10
77.706669
 20
231.079959
 30
0.0
  0
SPLINE
  5
127
100
AcDbEntity
  8
Layer_1
 62
7
100
AcDbSpline
 70
8
 71
3
 72
8
 73
4
 74
0
 40
0
 40
0
 40
0
 40
0
 40
1
 40
1
 40
1
 40
1
 10
77.706669
 20
231.079959
 30
0.0
 10
77.061170
 20
231.976471
 30
0.0
 10
77.264782
 20
233.226538
 30
0.0
 10
78.161419
 20
233.871864
 30
0.0
  0
SPLINE
  5
128
100
AcDbEntity
  8
Layer_1
 62
7
100
AcDbSpline
 70
8
 71
3
 72
8
 73
4
 74
0
 40
0
 40
0
 40
0
 40
0
 40
1
 40
1
 40
1
 40
1
 10
78.161419
 20
233.871864
 30
0.0
 10
78.308019
 20
233.977314
 30
0.0
 10
78.468226
 20
234.062424
 30
0.0
 10
78.637669
 20
234.124871
 30
0.0
  0
SPLINE
  5
129
100
AcDbEntity
  8
Layer_1
 62
7
100
AcDbSpline
 70
8
 71
3
 72
8
 73
4
 74
0
 40
0
 40
0
 40
0
 40
0
 40
1
 40
1
 40
1
 40
1
 10
78.637669
 20
234.124871
 30
0.0
 10
78.888536
 20
234.217550
 30
0.0
 10
79.155442
 20
234.258972
 30
0.0
 10
79.422600
 20
234.246689
 30
0.0
  0
LINE
  5
12a
100
AcDbEntity
  8
Layer_1
 62
7
100
AcDbLine
 10
79.422600
 20
234.246689
 30
0.0
 11
79.422600
 21
234.246689
 31
0.0
  0
SPLINE
  5
12b
100
AcDbEntity
  8
Layer_1
 62
7
100
AcDbSpline
 70
8
 71
3
 72
8
 73
4
 74
0
 40
0
 40
0
 40
0
 40
0
 40
1
 40
1
 40
1
 40
1
 10
130.535141
 20
234.246689
 30
0.0
 10
130.802298
 20
234.258966
 30
0.0
 10
131.069204
 20
234.217550
 30
0.0
 10
131.320072
 20
234.124871
 30
0.0
  0
SPLINE
  5
12c
100
AcDbEntity
  8
Layer_1
 62
7
100
AcDbSpline
 70
8
 71
3
 72
8
 73
4
 74
0
 40
0
 40
0
 40
0
 40
0
 40
1
 40
1
 40
1
 40
1
 10
131.320072
 20
234.124871
 30
0.0
 10
131.489515
 20
234.062424
 30
0.0
 10
131.649721
 20
233.977314
 30
0.0
 10
131.796322
 20
233.871864
 30
0.0
  0
SPLINE
  5
12d
100
AcDbEntity
  8
Layer_1
 62
7
100
AcDbSpline
 70
8
 71
3
 72
8
 73
4
 74
0
 40
0
 40
0
 40
0
 40
0
 40
1
 40
1
 40
1
 40
1
 10
131.796322
 20
233.871864
 30
0.0
 10
132.692775
 20
233.226366
 30
0.0
 10
132.896136
 20
231.976327
 30
0.0
 10
132.250521
 20
231.079959
 30
0.0
  0
SPLINE
  5
12e
100
AcDbEntity
  8
Layer_1
 62
7
100
AcDbSpline
 70
8
 71
3
 72
8
 73
4
 74
0
 40
0
 40
0
 40
0
 40
0
 40
1
 40
1
 40
1
 40
1
 10
132.250521
 20
231.079959
 30
0.0
 10
131.605023
 20
230.183505
 30
0.0
 10
130.354987
 20
229.980141
 30
0.0
 10
129.458616
 20
230.625756
 30
0.0
  0
SPLINE
  5
12f
100
AcDbEntity
  8
Layer_1
 62
7
100
AcDbSpline
 70
8
 71
3
 72
8
 73
4
 74
0
 40
0
 40
0
 40
0
 40
0
 40
1
 40
1
 40
1
 40
1
 10
129.458616
 20
230.625756
 30
0.0
 10
128.562346
 20
231.271427
 30
0.0
 10
128.359236
 20
232.521437
 30
0.0
 10
129.004966
 20
233.417662
 30
0.0
  0
SPLINE
  5
130
100
AcDbEntity
  8
Layer_1
 62
7
100
AcDbSpline
 70
8
 71
3
 72
8
 73
4
 74
0
 40
0
 40
0
 40
0
 40
0
 40
1
 40
1
 40
1
 40
1
 10
129.004966
 20
233.417662
 30
0.0
 10
129.361757
 20
233.913069
 30
0.0
 10
129.925284
 20
234.218380
 30
0.0
 10
130.535141
 20
234.246689
 30
0.0
  0
LINE
  5
131
100
AcDbEntity
  8
Layer_1
 62
7
100
AcDbLine
 10
130.535141
 20
234.246689
 30
0.0
 11
130.535141
 21
234.246689
 31
0.0
  0
SPLINE
  5
132
100
AcDbEntity
  8
Layer_1
 62
7
100
AcDbSpline
 70
8
 71
3
 72
8
 73
4
 74
0
 40
0
 40
0
 40
0
 40
0
 40
1
 40
1
 40
1
 40
1
 10
70.071784
 20
230.702376
 30
0.0
 10
70.681545
 20
230.674210
 30
0.0
 10
71.245055
 20
230.369097
 30
0.0
 10
71.601959
 20
229.873899
 30
0.0
  0
SPLINE
  5
133
100
AcDbEntity
  8
Layer_1
 62
7
100
AcDbSpline
 70
8
 71
3
 72
8
 73
4
 74
0
 40
0
 40
0
 40
0
 40
0
 40
1
 40
1
 40
1
 40
1
 10
71.601959
 20
229.873899
 30
0.0
 10
72.247949
 20
228.977428
 30
0.0
 10
72.044557
 20
227.726972
 30
0.0
 10
71.147757
 20
227.081443
 30
0.0
  0
SPLINE
  5
134
100
AcDbEntity
  8
Layer_1
 62
7
100
AcDbSpline
 70
8
 71
3
 72
8
 73
4
 74
0
 40
0
 40
0
 40
0
 40
0
 40
1
 40
1
 40
1
 40
1
 10
71.147757
 20
227.081443
 30
0.0
 10
70.251385
 20
226.435828
 30
0.0
 10
69.001349
 20
226.639192
 30
0.0
 10
68.355851
 20
227.535645
 30
0.0
  0
SPLINE
  5
135
100
AcDbEntity
  8
Layer_1
 62
7
100
AcDbSpline
 70
8
 71
3
 72
8
 73
4
 74
0
 40
0
 40
0
 40
0
 40
0
 40
1
 40
1
 40
1
 40
1
 10
68.355851
 20
227.535645
 30
0.0
 10
67.710239
 20
228.432014
 30
0.0
 10
67.913600
 20
229.682050
 30
0.0
 10
68.810053
 20
230.327548
 30
0.0
  0
SPLINE
  5
136
100
AcDbEntity
  8
Layer_1
 62
7
100
AcDbSpline
 70
8
 71
3
 72
8
 73
4
 74
0
 40
0
 40
0
 40
0
 40
0
 40
1
 40
1
 40
1
 40
1
 10
68.810053
 20
230.327548
 30
0.0
 10
68.956792
 20
230.433235
 30
0.0
 10
69.117187
 20
230.518534
 30
0.0
 10
69.286854
 20
230.581108
 30
0.0
  0
SPLINE
  5
137
100
AcDbEntity
  8
Layer_1
 62
7
100
AcDbSpline
 70
8
 71
3
 72
8
 73
4
 74
0
 40
0
 40
0
 40
0
 40
0
 40
1
 40
1
 40
1
 40
1
 10
69.286854
 20
230.581108
 30
0.0
 10
69.537758
 20
230.673598
 30
0.0
 10
69.804664
 20
230.714834
 30
0.0
 10
70.071784
 20
230.702376
 30
0.0
  0
LINE
  5
138
100
AcDbEntity
  8
Layer_1
 62
7
100
AcDbLine
 10
70.071784
 20
230.702376
 30
0.0
 11
70.071784
 21
230.702376
 31
0.0
  0
SPLINE
  5
139
100
AcDbEntity
  8
Layer_1
 62
7
100
AcDbSpline
 70
8
 71
3
 72
8
 73
4
 74
0
 40
0
 40
0
 40
0
 40
0
 40
1
 40
1
 40
1
 40
1
 10
139.885403
 20
230.702376
 30
0.0
 10
140.152707
 20
230.714907
 30
0.0
 10
140.419808
 20
230.673671
 30
0.0
 10
140.670887
 20
230.581108
 30
0.0
  0
SPLINE
  5
13a
100
AcDbEntity
  8
Layer_1
 62
7
100
AcDbSpline
 70
8
 71
3
 72
8
 73
4
 74
0
 40
0
 40
0
 40
0
 40
0
 40
1
 40
1
 40
1
 40
1
 10
140.670887
 20
230.581108
 30
0.0
 10
140.840361
 20
230.518489
 30
0.0
 10
141.000567
 20
230.433193
 30
0.0
 10
141.147137
 20
230.327548
 30
0.0
  0
SPLINE
  5
13b
100
AcDbEntity
  8
Layer_1
 62
7
100
AcDbSpline
 70
8
 71
3
 72
8
 73
4
 74
0
 40
0
 40
0
 40
0
 40
0
 40
1
 40
1
 40
1
 40
1
 10
141.147137
 20
230.327548
 30
0.0
 10
142.043774
 20
229.682222
 30
0.0
 10
142.247386
 20
228.432158
 30
0.0
 10
141.601890
 20
227.535645
 30
0.0
  0
SPLINE
  5
13c
100
AcDbEntity
  8
Layer_1
 62
7
100
AcDbSpline
 70
8
 71
3
 72
8
 73
4
 74
0
 40
0
 40
0
 40
0
 40
0
 40
1
 40
1
 40
1
 40
1
 10
141.601890
 20
227.535645
 30
0.0
 10
140.956391
 20
226.639192
 30
0.0
 10
139.706356
 20
226.435828
 30
0.0
 10
138.809984
 20
227.081443
 30
0.0
  0
SPLINE
  5
13d
100
AcDbEntity
  8
Layer_1
 62
7
100
AcDbSpline
 70
8
 71
3
 72
8
 73
4
 74
0
 40
0
 40
0
 40
0
 40
0
 40
1
 40
1
 40
1
 40
1
 10
138.809984
 20
227.081443
 30
0.0
 10
137.913183
 20
227.726972
 30
0.0
 10
137.709791
 20
228.977428
 30
0.0
 10
138.355781
 20
229.873899
 30
0.0
  0
SPLINE
  5
13e
100
AcDbEntity
  8
Layer_1
 62
7
100
AcDbSpline
 70
8
 71
3
 72
8
 73
4
 74
0
 40
0
 40
0
 40
0
 40
0
 40
1
 40
1
 40
1
 40
1
 10
138.355781
 20
229.873899
 30
0.0
 10
138.712567
 20
230.368950
 30
0.0
 10
139.275845
 20
230.674030
 30
0.0
 10
139.885403
 20
230.702376
 30
0.0
  0
LINE
  5
13f
100
AcDbEntity
  8
Layer_1
 62
7
100
AcDbLine
 10
139.885403
 20
230.702376
 30
0.0
 11
139.885403
 21
230.702376
 31
0.0
  0
SPLINE
  5
140
100
AcDbEntity
  8
Layer_1
 62
7
100
AcDbSpline
 70
8
 71
3
 72
8
 73
4
 74
0
 40
0
 40
0
 40
0
 40
0
 40
1
 40
1
 40
1
 40
1
 10
123.928824
 20
230.333613
 30
0.0
 10
124.481249
 20
230.333560
 30
0.0
 10
124.928980
 20
229.885583
 30
0.0
 10
124.928729
 20
229.333158
 30
0.0
  0
SPLINE
  5
141
100
AcDbEntity
  8
Layer_1
 62
7
100
AcDbSpline
 70
8
 71
3
 72
8
 73
4
 74
0
 40
0
 40
0
 40
0
 40
0
 40
1
 40
1
 40
1
 40
1
 10
124.928729
 20
229.333158
 30
0.0
 10
124.928675
 20
228.780948
 30
0.0
 10
124.481034
 20
228.333307
 30
0.0
 10
123.928824
 20
228.333253
 30
0.0
  0
SPLINE
  5
142
100
AcDbEntity
  8
Layer_1
 62
7
100
AcDbSpline
 70
8
 71
3
 72
8
 73
4
 74
0
 40
0
 40
0
 40
0
 40
0
 40
1
 40
1
 40
1
 40
1
 10
123.928824
 20
228.333253
 30
0.0
 10
123.376399
 20
228.333002
 30
0.0
 10
122.928422
 20
228.780734
 30
0.0
 10
122.928369
 20
229.333158
 30
0.0
  0
SPLINE
  5
143
100
AcDbEntity
  8
Layer_1
 62
7
100
AcDbSpline
 70
8
 71
3
 72
8
 73
4
 74
0
 40
0
 40
0
 40
0
 40
0
 40
1
 40
1
 40
1
 40
1
 10
122.928369
 20
229.333158
 30
0.0
 10
122.928118
 20
229.885797
 30
0.0
 10
123.376185
 20
230.333865
 30
0.0
 10
123.928824
 20
230.333613
 30
0.0
  0
LINE
  5
144
100
AcDbEntity
  8
Layer_1
 62
7
100
AcDbLine
 10
123.928824
 20
230.333613
 30
0.0
 11
123.928824
 21
230.333613
 31
0.0
  0
SPLINE
  5
145
100
AcDbEntity
  8
Layer_1
 62
7
100
AcDbSpline
 70
8
 71
3
 72
8
 73
4
 74
0
 40
0
 40
0
 40
0
 40
0
 40
1
 40
1
 40
1
 40
1
 10
96.728557
 20
230.333049
 30
0.0
 10
97.280767
 20
230.332995
 30
0.0
 10
97.728408
 20
229.885354
 30
0.0
 10
97.728459
 20
229.333144
 30
0.0
  0
SPLINE
  5
146
100
AcDbEntity
  8
Layer_1
 62
7
100
AcDbSpline
 70
8
 71
3
 72
8
 73
4
 74
0
 40
0
 40
0
 40
0
 40
0
 40
1
 40
1
 40
1
 40
1
 10
97.728459
 20
229.333144
 30
0.0
 10
97.728408
 20
228.780934
 30
0.0
 10
97.280767
 20
228.333293
 30
0.0
 10
96.728557
 20
228.333239
 30
0.0
  0
SPLINE
  5
147
100
AcDbEntity
  8
Layer_1
 62
7
100
AcDbSpline
 70
8
 71
3
 72
8
 73
4
 74
0
 40
0
 40
0
 40
0
 40
0
 40
1
 40
1
 40
1
 40
1
 10
96.728557
 20
228.333239
 30
0.0
 10
96.176346
 20
228.333293
 30
0.0
 10
95.728705
 20
228.780934
 30
0.0
 10
95.728652
 20
229.333144
 30
0.0
  0
SPLINE
  5
148
100
AcDbEntity
  8
Layer_1
 62
7
100
AcDbSpline
 70
8
 71
3
 72
8
 73
4
 74
0
 40
0
 40
0
 40
0
 40
0
 40
1
 40
1
 40
1
 40
1
 10
95.728652
 20
229.333144
 30
0.0
 10
95.728705
 20
229.885354
 30
0.0
 10
96.176346
 20
230.332995
 30
0.0
 10
96.728557
 20
230.333049
 30
0.0
  0
LINE
  5
149
100
AcDbEntity
  8
Layer_1
 62
7
100
AcDbLine
 10
96.728557
 20
230.333049
 30
0.0
 11
96.728557
 21
230.333049
 31
0.0
  0
SPLINE
  5
14a
100
AcDbEntity
  8
Layer_1
 62
7
100
AcDbSpline
 70
8
 71
3
 72
8
 73
4
 74
0
 40
0
 40
0
 40
0
 40
0
 40
1
 40
1
 40
1
 40
1
 10
60.720969
 20
227.158049
 30
0.0
 10
61.330730
 20
227.129883
 30
0.0
 10
61.894237
 20
226.824770
 30
0.0
 10
62.251141
 20
226.329572
 30
0.0
  0
SPLINE
  5
14b
100
AcDbEntity
  8
Layer_1
 62
7
100
AcDbSpline
 70
8
 71
3
 72
8
 73
4
 74
0
 40
0
 40
0
 40
0
 40
0
 40
1
 40
1
 40
1
 40
1
 10
62.251141
 20
226.329572
 30
0.0
 10
62.896756
 20
225.433203
 30
0.0
 10
62.693395
 20
224.183164
 30
0.0
 10
61.796941
 20
223.537666
 30
0.0
  0
SPLINE
  5
14c
100
AcDbEntity
  8
Layer_1
 62
7
100
AcDbSpline
 70
8
 71
3
 72
8
 73
4
 74
0
 40
0
 40
0
 40
0
 40
0
 40
1
 40
1
 40
1
 40
1
 10
61.796941
 20
223.537666
 30
0.0
 10
60.900474
 20
222.891676
 30
0.0
 10
59.650015
 20
223.095065
 30
0.0
 10
59.004485
 20
223.991866
 30
0.0
  0
SPLINE
  5
14d
100
AcDbEntity
  8
Layer_1
 62
7
100
AcDbSpline
 70
8
 71
3
 72
8
 73
4
 74
0
 40
0
 40
0
 40
0
 40
0
 40
1
 40
1
 40
1
 40
1
 10
59.004485
 20
223.991866
 30
0.0
 10
58.358986
 20
224.888378
 30
0.0
 10
58.562601
 20
226.138445
 30
0.0
 10
59.459238
 20
226.783772
 30
0.0
  0
SPLINE
  5
14e
100
AcDbEntity
  8
Layer_1
 62
7
100
AcDbSpline
 70
8
 71
3
 72
8
 73
4
 74
0
 40
0
 40
0
 40
0
 40
0
 40
1
 40
1
 40
1
 40
1
 10
59.459238
 20
226.783772
 30
0.0
 10
59.606008
 20
226.889266
 30
0.0
 10
59.766403
 20
226.974379
 30
0.0
 10
59.936039
 20
227.036781
 30
0.0
  0
SPLINE
  5
14f
100
AcDbEntity
  8
Layer_1
 62
7
100
AcDbSpline
 70
8
 71
3
 72
8
 73
4
 74
0
 40
0
 40
0
 40
0
 40
0
 40
1
 40
1
 40
1
 40
1
 10
59.936039
 20
227.036781
 30
0.0
 10
60.186943
 20
227.129271
 30
0.0
 10
60.453849
 20
227.170506
 30
0.0
 10
60.720969
 20
227.158049
 30
0.0
  0
LINE
  5
150
100
AcDbEntity
  8
Layer_1
 62
7
100
AcDbLine
 10
60.720969
 20
227.158049
 30
0.0
 11
60.720969
 21
227.158049
 31
0.0
  0
SPLINE
  5
151
100
AcDbEntity
  8
Layer_1
 62
7
100
AcDbSpline
 70
8
 71
3
 72
8
 73
4
 74
0
 40
0
 40
0
 40
0
 40
0
 40
1
 40
1
 40
1
 40
1
 10
149.236771
 20
227.158049
 30
0.0
 10
149.503709
 20
227.170439
 30
0.0
 10
149.770420
 20
227.129197
 30
0.0
 10
150.021152
 20
227.036781
 30
0.0
  0
SPLINE
  5
152
100
AcDbEntity
  8
Layer_1
 62
7
100
AcDbSpline
 70
8
 71
3
 72
8
 73
4
 74
0
 40
0
 40
0
 40
0
 40
0
 40
1
 40
1
 40
1
 40
1
 10
150.021152
 20
227.036781
 30
0.0
 10
150.190979
 20
226.974424
 30
0.0
 10
150.351561
 20
226.889309
 30
0.0
 10
150.498502
 20
226.783772
 30
0.0
  0
SPLINE
  5
153
100
AcDbEntity
  8
Layer_1
 62
7
100
AcDbSpline
 70
8
 71
3
 72
8
 73
4
 74
0
 40
0
 40
0
 40
0
 40
0
 40
1
 40
1
 40
1
 40
1
 10
150.498502
 20
226.783772
 30
0.0
 10
151.394956
 20
226.138273
 30
0.0
 10
151.598320
 20
224.888237
 30
0.0
 10
150.952705
 20
223.991866
 30
0.0
  0
SPLINE
  5
154
100
AcDbEntity
  8
Layer_1
 62
7
100
AcDbSpline
 70
8
 71
3
 72
8
 73
4
 74
0
 40
0
 40
0
 40
0
 40
0
 40
1
 40
1
 40
1
 40
1
 10
150.952705
 20
223.991866
 30
0.0
 10
150.307175
 20
223.095068
 30
0.0
 10
149.056717
 20
222.891676
 30
0.0
 10
148.160249
 20
223.537666
 30
0.0
  0
SPLINE
  5
155
100
AcDbEntity
  8
Layer_1
 62
7
100
AcDbSpline
 70
8
 71
3
 72
8
 73
4
 74
0
 40
0
 40
0
 40
0
 40
0
 40
1
 40
1
 40
1
 40
1
 10
148.160249
 20
223.537666
 30
0.0
 10
147.263979
 20
224.183336
 30
0.0
 10
147.060869
 20
225.433347
 30
0.0
 10
147.706599
 20
226.329572
 30
0.0
  0
SPLINE
  5
156
100
AcDbEntity
  8
Layer_1
 62
7
100
AcDbSpline
 70
8
 71
3
 72
8
 73
4
 74
0
 40
0
 40
0
 40
0
 40
0
 40
1
 40
1
 40
1
 40
1
 10
147.706599
 20
226.329572
 30
0.0
 10
148.063503
 20
226.824770
 30
0.0
 10
148.627011
 20
227.129869
 30
0.0
 10
149.236771
 20
227.158049
 30
0.0
  0
LINE
  5
157
100
AcDbEntity
  8
Layer_1
 62
7
100
AcDbLine
 10
149.236771
 20
227.158049
 30
0.0
 11
149.236771
 21
227.158049
 31
0.0
  0
LINE
  5
158
100
AcDbEntity
  8
Layer_1
 62
7
100
AcDbLine
 10
101.174107
 20
221.832756
 30
0.0
 11
108.783634
 21
221.832756
 31
0.0
  0
SPLINE
  5
159
100
AcDbEntity
  8
Layer_1
 62
7
100
AcDbSpline
 70
8
 71
3
 72
8
 73
4
 74
0
 40
0
 40
0
 40
0
 40
0
 40
1
 40
1
 40
1
 40
1
 10
108.783634
 20
221.832756
 30
0.0
 10
109.999760
 20
221.832756
 30
0.0
 10
110.978572
 20
220.853944
 30
0.0
 10
110.978572
 20
219.637817
 30
0.0
  0
LINE
  5
15a
100
AcDbEntity
  8
Layer_1
 62
7
100
AcDbLine
 10
110.978572
 20
219.637817
 30
0.0
 11
110.978572
 21
219.028172
 31
0.0
  0
SPLINE
  5
15b
100
AcDbEntity
  8
Layer_1
 62
7
100
AcDbSpline
 70
8
 71
3
 72
8
 73
4
 74
0
 40
0
 40
0
 40
0
 40
0
 40
1
 40
1
 40
1
 40
1
 10
110.978572
 20
219.028172
 30
0.0
 10
110.978572
 20
217.812046
 30
0.0
 10
109.999760
 20
216.832684
 30
0.0
 10
108.783634
 20
216.832684
 30
0.0
  0
LINE
  5
15c
100
AcDbEntity
  8
Layer_1
 62
7
100
AcDbLine
 10
108.783634
 20
216.832684
 30
0.0
 11
101.174107
 21
216.832684
 31
0.0
  0
SPLINE
  5
15d
100
AcDbEntity
  8
Layer_1
 62
7
100
AcDbSpline
 70
8
 71
3
 72
8
 73
4
 74
0
 40
0
 40
0
 40
0
 40
0
 40
1
 40
1
 40
1
 40
1
 10
101.174107
 20
216.832684
 30
0.0
 10
99.957980
 20
216.832684
 30
0.0
 10
98.978616
 20
217.812046
 30
0.0
 10
98.978616
 20
219.028172
 30
0.0
  0
LINE
  5
15e
100
AcDbEntity
  8
Layer_1
 62
7
100
AcDbLine
 10
98.978616
 20
219.028172
 30
0.0
 11
98.978616
 21
219.637817
 31
0.0
  0
SPLINE
  5
15f
100
AcDbEntity
  8
Layer_1
 62
7
100
AcDbSpline
 70
8
 71
3
 72
8
 73
4
 74
0
 40
0
 40
0
 40
0
 40
0
 40
1
 40
1
 40
1
 40
1
 10
98.978616
 20
219.637817
 30
0.0
 10
98.978616
 20
220.853944
 30
0.0
 10
99.957980
 20
221.832756
 30
0.0
 10
101.174107
 20
221.832756
 30
0.0
  0
LINE
  5
160
100
AcDbEntity
  8
Layer_1
 62
7
100
AcDbLine
 10
101.174107
 20
221.832756
 30
0.0
 11
101.174107
 21
221.832756
 31
0.0
  0
SPLINE
  5
161
100
AcDbEntity
  8
Layer_1
 62
7
100
AcDbSpline
 70
8
 71
3
 72
8
 73
4
 74
0
 40
0
 40
0
 40
0
 40
0
 40
1
 40
1
 40
1
 40
1
 10
119.978266
 20
221.332805
 30
0.0
 10
120.508728
 20
221.332900
 30
0.0
 10
121.017500
 20
221.122255
 30
0.0
 10
121.392645
 20
220.747213
 30
0.0
  0
SPLINE
  5
162
100
AcDbEntity
  8
Layer_1
 62
7
100
AcDbSpline
 70
8
 71
3
 72
8
 73
4
 74
0
 40
0
 40
0
 40
0
 40
0
 40
1
 40
1
 40
1
 40
1
 10
121.392645
 20
220.747213
 30
0.0
 10
121.767790
 20
220.372171
 30
0.0
 10
121.978576
 20
219.863457
 30
0.0
 10
121.978626
 20
219.332995
 30
0.0
  0
SPLINE
  5
163
100
AcDbEntity
  8
Layer_1
 62
7
100
AcDbSpline
 70
8
 71
3
 72
8
 73
4
 74
0
 40
0
 40
0
 40
0
 40
0
 40
1
 40
1
 40
1
 40
1
 10
121.978626
 20
219.332995
 30
0.0
 10
121.978722
 20
218.802437
 30
0.0
 10
121.768001
 20
218.293582
 30
0.0
 10
121.392840
 20
217.918421
 30
0.0
  0
SPLINE
  5
164
100
AcDbEntity
  8
Layer_1
 62
7
100
AcDbSpline
 70
8
 71
3
 72
8
 73
4
 74
0
 40
0
 40
0
 40
0
 40
0
 40
1
 40
1
 40
1
 40
1
 10
121.392840
 20
217.918421
 30
0.0
 10
121.017679
 20
217.543260
 30
0.0
 10
120.508824
 20
217.332539
 30
0.0
 10
119.978266
 20
217.332635
 30
0.0
  0
SPLINE
  5
165
100
AcDbEntity
  8
Layer_1
 62
7
100
AcDbSpline
 70
8
 71
3
 72
8
 73
4
 74
0
 40
0
 40
0
 40
0
 40
0
 40
1
 40
1
 40
1
 40
1
 10
119.978266
 20
217.332635
 30
0.0
 10
119.447804
 20
217.332685
 30
0.0
 10
118.939090
 20
217.543471
 30
0.0
 10
118.564048
 20
217.918616
 30
0.0
  0
SPLINE
  5
166
100
AcDbEntity
  8
Layer_1
 62
7
100
AcDbSpline
 70
8
 71
3
 72
8
 73
4
 74
0
 40
0
 40
0
 40
0
 40
0
 40
1
 40
1
 40
1
 40
1
 10
118.564048
 20
217.918616
 30
0.0
 10
118.189006
 20
218.293761
 30
0.0
 10
117.978361
 20
218.802532
 30
0.0
 10
117.978456
 20
219.332995
 30
0.0
  0
SPLINE
  5
167
100
AcDbEntity
  8
Layer_1
 62
7
100
AcDbSpline
 70
8
 71
3
 72
8
 73
4
 74
0
 40
0
 40
0
 40
0
 40
0
 40
1
 40
1
 40
1
 40
1
 10
117.978456
 20
219.332995
 30
0.0
 10
117.978561
 20
220.437416
 30
0.0
 10
118.873845
 20
221.332699
 30
0.0
 10
119.978266
 20
221.332805
 30
0.0
  0
LINE
  5
168
100
AcDbEntity
  8
Layer_1
 62
7
100
AcDbLine
 10
119.978266
 20
221.332805
 30
0.0
 11
119.978266
 21
221.332805
 31
0.0
  0
SPLINE
  5
169
100
AcDbEntity
  8
Layer_1
 62
7
100
AcDbSpline
 70
8
 71
3
 72
8
 73
4
 74
0
 40
0
 40
0
 40
0
 40
0
 40
1
 40
1
 40
1
 40
1
 10
49.978886
 20
218.160009
 30
0.0
 10
51.083306
 20
218.159904
 30
0.0
 10
51.978591
 20
217.264622
 30
0.0
 10
51.978695
 20
216.160199
 30
0.0
  0
SPLINE
  5
16a
100
AcDbEntity
  8
Layer_1
 62
7
100
AcDbSpline
 70
8
 71
3
 72
8
 73
4
 74
0
 40
0
 40
0
 40
0
 40
0
 40
1
 40
1
 40
1
 40
1
 10
51.978695
 20
216.160199
 30
0.0
 10
51.978893
 20
215.055573
 30
0.0
 10
51.083520
 20
214.159943
 30
0.0
 10
49.978886
 20
214.159839
 30
0.0
  0
SPLINE
  5
16b
100
AcDbEntity
  8
Layer_1
 62
7
100
AcDbSpline
 70
8
 71
3
 72
8
 73
4
 74
0
 40
0
 40
0
 40
0
 40
0
 40
1
 40
1
 40
1
 40
1
 10
49.978886
 20
214.159839
 30
0.0
 10
48.874034
 20
214.159641
 30
0.0
 10
47.978328
 20
215.055347
 30
0.0
 10
47.978526
 20
216.160199
 30
0.0
  0
SPLINE
  5
16c
100
AcDbEntity
  8
Layer_1
 62
7
100
AcDbSpline
 70
8
 71
3
 72
8
 73
4
 74
0
 40
0
 40
0
 40
0
 40
0
 40
1
 40
1
 40
1
 40
1
 10
47.978526
 20
216.160199
 30
0.0
 10
47.978630
 20
217.264834
 30
0.0
 10
48.874251
 20
218.160206
 30
0.0
 10
49.978886
 20
218.160009
 30
0.0
  0
LINE
  5
16d
100
AcDbEntity
  8
Layer_1
 62
7
100
AcDbLine
 10
49.978886
 20
218.160009
 30
0.0
 11
49.978886
 21
218.160009
 31
0.0
  0
SPLINE
  5
16e
100
AcDbEntity
  8
Layer_1
 62
7
100
AcDbSpline
 70
8
 71
3
 72
8
 73
4
 74
0
 40
0
 40
0
 40
0
 40
0
 40
1
 40
1
 40
1
 40
1
 10
129.978412
 20
218.160009
 30
0.0
 10
131.083047
 20
218.160206
 30
0.0
 10
131.978668
 20
217.264836
 30
0.0
 10
131.978773
 20
216.160199
 30
0.0
  0
SPLINE
  5
16f
100
AcDbEntity
  8
Layer_1
 62
7
100
AcDbSpline
 70
8
 71
3
 72
8
 73
4
 74
0
 40
0
 40
0
 40
0
 40
0
 40
1
 40
1
 40
1
 40
1
 10
131.978773
 20
216.160199
 30
0.0
 10
131.978970
 20
215.055347
 30
0.0
 10
131.083264
 20
214.159641
 30
0.0
 10
129.978412
 20
214.159839
 30
0.0
  0
SPLINE
  5
170
100
AcDbEntity
  8
Layer_1
 62
7
100
AcDbSpline
 70
8
 71
3
 72
8
 73
4
 74
0
 40
0
 40
0
 40
0
 40
0
 40
1
 40
1
 40
1
 40
1
 10
129.978412
 20
214.159839
 30
0.0
 10
128.873778
 20
214.159943
 30
0.0
 10
127.978405
 20
215.055573
 30
0.0
 10
127.978603
 20
216.160199
 30
0.0
  0
SPLINE
  5
171
100
AcDbEntity
  8
Layer_1
 62
7
100
AcDbSpline
 70
8
 71
3
 72
8
 73
4
 74
0
 40
0
 40
0
 40
0
 40
0
 40
1
 40
1
 40
1
 40
1
 10
127.978603
 20
216.160199
 30
0.0
 10
127.978707
 20
217.264625
 30
0.0
 10
128.873992
 20
218.159904
 30
0.0
 10
129.978412
 20
218.160009
 30
0.0
  0
LINE
  5
172
100
AcDbEntity
  8
Layer_1
 62
7
100
AcDbLine
 10
129.978412
 20
218.160009
 30
0.0
 11
129.978412
 21
218.160009
 31
0.0
  0
SPLINE
  5
173
100
AcDbEntity
  8
Layer_1
 62
7
100
AcDbSpline
 70
8
 71
3
 72
8
 73
4
 74
0
 40
0
 40
0
 40
0
 40
0
 40
1
 40
1
 40
1
 40
1
 10
139.978559
 20
218.160009
 30
0.0
 10
141.083194
 20
218.160206
 30
0.0
 10
141.978815
 20
217.264836
 30
0.0
 10
141.978919
 20
216.160199
 30
0.0
  0
SPLINE
  5
174
100
AcDbEntity
  8
Layer_1
 62
7
100
AcDbSpline
 70
8
 71
3
 72
8
 73
4
 74
0
 40
0
 40
0
 40
0
 40
0
 40
1
 40
1
 40
1
 40
1
 10
141.978919
 20
216.160199
 30
0.0
 10
141.979117
 20
215.055347
 30
0.0
 10
141.083411
 20
214.159641
 30
0.0
 10
139.978559
 20
214.159839
 30
0.0
  0
SPLINE
  5
175
100
AcDbEntity
  8
Layer_1
 62
7
100
AcDbSpline
 70
8
 71
3
 72
8
 73
4
 74
0
 40
0
 40
0
 40
0
 40
0
 40
1
 40
1
 40
1
 40
1
 10
139.978559
 20
214.159839
 30
0.0
 10
138.873924
 20
214.159946
 30
0.0
 10
137.978555
 20
215.055573
 30
0.0
 10
137.978752
 20
216.160199
 30
0.0
  0
SPLINE
  5
176
100
AcDbEntity
  8
Layer_1
 62
7
100
AcDbSpline
 70
8
 71
3
 72
8
 73
4
 74
0
 40
0
 40
0
 40
0
 40
0
 40
1
 40
1
 40
1
 40
1
 10
137.978752
 20
216.160199
 30
0.0
 10
137.978856
 20
217.264625
 30
0.0
 10
138.874139
 20
218.159901
 30
0.0
 10
139.978559
 20
218.160009
 30
0.0
  0
LINE
  5
177
100
AcDbEntity
  8
Layer_1
 62
7
100
AcDbLine
 10
139.978559
 20
218.160009
 30
0.0
 11
139.978559
 21
218.160009
 31
0.0
  0
SPLINE
  5
178
100
AcDbEntity
  8
Layer_1
 62
7
100
AcDbSpline
 70
8
 71
3
 72
8
 73
4
 74
0
 40
0
 40
0
 40
0
 40
0
 40
1
 40
1
 40
1
 40
1
 10
149.978708
 20
218.160009
 30
0.0
 10
151.083129
 20
218.159901
 30
0.0
 10
151.978411
 20
217.264622
 30
0.0
 10
151.978515
 20
216.160199
 30
0.0
  0
SPLINE
  5
179
100
AcDbEntity
  8
Layer_1
 62
7
100
AcDbSpline
 70
8
 71
3
 72
8
 73
4
 74
0
 40
0
 40
0
 40
0
 40
0
 40
1
 40
1
 40
1
 40
1
 10
151.978515
 20
216.160199
 30
0.0
 10
151.978713
 20
215.055573
 30
0.0
 10
151.083343
 20
214.159946
 30
0.0
 10
149.978708
 20
214.159839
 30
0.0
  0
SPLINE
  5
17a
100
AcDbEntity
  8
Layer_1
 62
7
100
AcDbSpline
 70
8
 71
3
 72
8
 73
4
 74
0
 40
0
 40
0
 40
0
 40
0
 40
1
 40
1
 40
1
 40
1
 10
149.978708
 20
214.159839
 30
0.0
 10
148.873856
 20
214.159641
 30
0.0
 10
147.978151
 20
215.055347
 30
0.0
 10
147.978348
 20
216.160199
 30
0.0
  0
SPLINE
  5
17b
100
AcDbEntity
  8
Layer_1
 62
7
100
AcDbSpline
 70
8
 71
3
 72
8
 73
4
 74
0
 40
0
 40
0
 40
0
 40
0
 40
1
 40
1
 40
1
 40
1
 10
147.978348
 20
216.160199
 30
0.0
 10
147.978453
 20
217.264834
 30
0.0
 10
148.874074
 20
218.160206
 30
0.0
 10
149.978708
 20
218.160009
 30
0.0
  0
LINE
  5
17c
100
AcDbEntity
  8
Layer_1
 62
7
100
AcDbLine
 10
149.978708
 20
218.160009
 30
0.0
 11
149.978708
 21
218.160009
 31
0.0
  0
SPLINE
  5
17d
100
AcDbEntity
  8
Layer_1
 62
7
100
AcDbSpline
 70
8
 71
3
 72
8
 73
4
 74
0
 40
0
 40
0
 40
0
 40
0
 40
1
 40
1
 40
1
 40
1
 10
159.978855
 20
218.160009
 30
0.0
 10
161.083275
 20
218.159904
 30
0.0
 10
161.978560
 20
217.264622
 30
0.0
 10
161.978665
 20
216.160199
 30
0.0
  0
SPLINE
  5
17e
100
AcDbEntity
  8
Layer_1
 62
7
100
AcDbSpline
 70
8
 71
3
 72
8
 73
4
 74
0
 40
0
 40
0
 40
0
 40
0
 40
1
 40
1
 40
1
 40
1
 10
161.978665
 20
216.160199
 30
0.0
 10
161.978862
 20
215.055573
 30
0.0
 10
161.083490
 20
214.159943
 30
0.0
 10
159.978855
 20
214.159839
 30
0.0
  0
SPLINE
  5
17f
100
AcDbEntity
  8
Layer_1
 62
7
100
AcDbSpline
 70
8
 71
3
 72
8
 73
4
 74
0
 40
0
 40
0
 40
0
 40
0
 40
1
 40
1
 40
1
 40
1
 10
159.978855
 20
214.159839
 30
0.0
 10
158.874003
 20
214.159641
 30
0.0
 10
157.978297
 20
215.055347
 30
0.0
 10
157.978495
 20
216.160199
 30
0.0
  0
SPLINE
  5
180
100
AcDbEntity
  8
Layer_1
 62
7
100
AcDbSpline
 70
8
 71
3
 72
8
 73
4
 74
0
 40
0
 40
0
 40
0
 40
0
 40
1
 40
1
 40
1
 40
1
 10
157.978495
 20
216.160199
 30
0.0
 10
157.978599
 20
217.264834
 30
0.0
 10
158.874220
 20
218.160206
 30
0.0
 10
159.978855
 20
218.160009
 30
0.0
  0
LINE
  5
181
100
AcDbEntity
  8
Layer_1
 62
7
100
AcDbLine
 10
159.978855
 20
218.160009
 30
0.0
 11
159.978855
 21
218.160009
 31
0.0
  0
SPLINE
  5
182
100
AcDbEntity
  8
Layer_1
 62
7
100
AcDbSpline
 70
8
 71
3
 72
8
 73
4
 74
0
 40
0
 40
0
 40
0
 40
0
 40
1
 40
1
 40
1
 40
1
 10
59.978482
 20
218.159444
 30
0.0
 10
61.082902
 20
218.159340
 30
0.0
 10
61.978187
 20
217.264055
 30
0.0
 10
61.978292
 20
216.159634
 30
0.0
  0
SPLINE
  5
183
100
AcDbEntity
  8
Layer_1
 62
7
100
AcDbSpline
 70
8
 71
3
 72
8
 73
4
 74
0
 40
0
 40
0
 40
0
 40
0
 40
1
 40
1
 40
1
 40
1
 10
61.978292
 20
216.159634
 30
0.0
 10
61.978187
 20
215.055214
 30
0.0
 10
61.082902
 20
214.159929
 30
0.0
 10
59.978482
 20
214.159825
 30
0.0
  0
SPLINE
  5
184
100
AcDbEntity
  8
Layer_1
 62
7
100
AcDbSpline
 70
8
 71
3
 72
8
 73
4
 74
0
 40
0
 40
0
 40
0
 40
0
 40
1
 40
1
 40
1
 40
1
 10
59.978482
 20
214.159825
 30
0.0
 10
58.874062
 20
214.159929
 30
0.0
 10
57.978777
 20
215.055214
 30
0.0
 10
57.978672
 20
216.159634
 30
0.0
  0
SPLINE
  5
185
100
AcDbEntity
  8
Layer_1
 62
7
100
AcDbSpline
 70
8
 71
3
 72
8
 73
4
 74
0
 40
0
 40
0
 40
0
 40
0
 40
1
 40
1
 40
1
 40
1
 10
57.978672
 20
216.159634
 30
0.0
 10
57.978777
 20
217.264055
 30
0.0
 10
58.874062
 20
218.159340
 30
0.0
 10
59.978482
 20
218.159444
 30
0.0
  0
LINE
  5
186
100
AcDbEntity
  8
Layer_1
 62
7
100
AcDbLine
 10
59.978482
 20
218.159444
 30
0.0
 11
59.978482
 21
218.159444
 31
0.0
  0
SPLINE
  5
187
100
AcDbEntity
  8
Layer_1
 62
7
100
AcDbSpline
 70
8
 71
3
 72
8
 73
4
 74
0
 40
0
 40
0
 40
0
 40
0
 40
1
 40
1
 40
1
 40
1
 10
69.978628
 20
218.159444
 30
0.0
 10
71.083263
 20
218.159642
 30
0.0
 10
71.978884
 20
217.264269
 30
0.0
 10
71.978988
 20
216.159634
 30
0.0
  0
SPLINE
  5
188
100
AcDbEntity
  8
Layer_1
 62
7
100
AcDbSpline
 70
8
 71
3
 72
8
 73
4
 74
0
 40
0
 40
0
 40
0
 40
0
 40
1
 40
1
 40
1
 40
1
 10
71.978988
 20
216.159634
 30
0.0
 10
71.978884
 20
215.055000
 30
0.0
 10
71.083263
 20
214.159627
 30
0.0
 10
69.978628
 20
214.159825
 30
0.0
  0
SPLINE
  5
189
100
AcDbEntity
  8
Layer_1
 62
7
100
AcDbSpline
 70
8
 71
3
 72
8
 73
4
 74
0
 40
0
 40
0
 40
0
 40
0
 40
1
 40
1
 40
1
 40
1
 10
69.978628
 20
214.159825
 30
0.0
 10
68.874208
 20
214.159932
 30
0.0
 10
67.978926
 20
215.055214
 30
0.0
 10
67.978822
 20
216.159634
 30
0.0
  0
SPLINE
  5
18a
100
AcDbEntity
  8
Layer_1
 62
7
100
AcDbSpline
 70
8
 71
3
 72
8
 73
4
 74
0
 40
0
 40
0
 40
0
 40
0
 40
1
 40
1
 40
1
 40
1
 10
67.978822
 20
216.159634
 30
0.0
 10
67.978926
 20
217.264055
 30
0.0
 10
68.874208
 20
218.159337
 30
0.0
 10
69.978628
 20
218.159444
 30
0.0
  0
LINE
  5
18b
100
AcDbEntity
  8
Layer_1
 62
7
100
AcDbLine
 10
69.978628
 20
218.159444
 30
0.0
 11
69.978628
 21
218.159444
 31
0.0
  0
SPLINE
  5
18c
100
AcDbEntity
  8
Layer_1
 62
7
100
AcDbSpline
 70
8
 71
3
 72
8
 73
4
 74
0
 40
0
 40
0
 40
0
 40
0
 40
1
 40
1
 40
1
 40
1
 10
79.978778
 20
218.159444
 30
0.0
 10
81.083198
 20
218.159337
 30
0.0
 10
81.978480
 20
217.264055
 30
0.0
 10
81.978585
 20
216.159634
 30
0.0
  0
SPLINE
  5
18d
100
AcDbEntity
  8
Layer_1
 62
7
100
AcDbSpline
 70
8
 71
3
 72
8
 73
4
 74
0
 40
0
 40
0
 40
0
 40
0
 40
1
 40
1
 40
1
 40
1
 10
81.978585
 20
216.159634
 30
0.0
 10
81.978480
 20
215.055214
 30
0.0
 10
81.083198
 20
214.159932
 30
0.0
 10
79.978778
 20
214.159825
 30
0.0
  0
SPLINE
  5
18e
100
AcDbEntity
  8
Layer_1
 62
7
100
AcDbSpline
 70
8
 71
3
 72
8
 73
4
 74
0
 40
0
 40
0
 40
0
 40
0
 40
1
 40
1
 40
1
 40
1
 10
79.978778
 20
214.159825
 30
0.0
 10
78.874143
 20
214.159627
 30
0.0
 10
77.978522
 20
215.055000
 30
0.0
 10
77.978418
 20
216.159634
 30
0.0
  0
SPLINE
  5
18f
100
AcDbEntity
  8
Layer_1
 62
7
100
AcDbSpline
 70
8
 71
3
 72
8
 73
4
 74
0
 40
0
 40
0
 40
0
 40
0
 40
1
 40
1
 40
1
 40
1
 10
77.978418
 20
216.159634
 30
0.0
 10
77.978522
 20
217.264269
 30
0.0
 10
78.874143
 20
218.159642
 30
0.0
 10
79.978778
 20
218.159444
 30
0.0
  0
LINE
  5
190
100
AcDbEntity
  8
Layer_1
 62
7
100
AcDbLine
 10
79.978778
 20
218.159444
 30
0.0
 11
79.978778
 21
218.159444
 31
0.0
  0
LINE
  5
191
100
AcDbEntity
  8
Layer_1
 62
7
100
AcDbLine
 10
135.289922
 20
208.927690
 30
0.0
 11
140.289997
 21
208.927690
 31
0.0
  0
LINE
  5
192
100
AcDbEntity
  8
Layer_1
 62
7
100
AcDbLine
 10
140.289997
 20
208.927690
 30
0.0
 11
140.289997
 21
199.927448
 31
0.0
  0
LINE
  5
193
100
AcDbEntity
  8
Layer_1
 62
7
100
AcDbLine
 10
140.289997
 20
199.927448
 30
0.0
 11
143.740053
 21
199.927448
 31
0.0
  0
LINE
  5
194
100
AcDbEntity
  8
Layer_1
 62
7
100
AcDbLine
 10
143.740053
 20
199.927448
 30
0.0
 11
143.740053
 21
193.927469
 31
0.0
  0
LINE
  5
195
100
AcDbEntity
  8
Layer_1
 62
7
100
AcDbLine
 10
143.740053
 20
193.927469
 30
0.0
 11
140.289997
 21
193.927469
 31
0.0
  0
LINE
  5
196
100
AcDbEntity
  8
Layer_1
 62
7
100
AcDbLine
 10
140.289997
 20
193.927469
 30
0.0
 11
140.289997
 21
184.927778
 31
0.0
  0
LINE
  5
197
100
AcDbEntity
  8
Layer_1
 62
7
100
AcDbLine
 10
140.289997
 20
184.927778
 30
0.0
 11
135.289922
 21
184.927778
 31
0.0
  0
LINE
  5
198
100
AcDbEntity
  8
Layer_1
 62
7
100
AcDbLine
 10
135.289922
 20
184.927778
 30
0.0
 11
135.289922
 21
193.927469
 31
0.0
  0
LINE
  5
199
100
AcDbEntity
  8
Layer_1
 62
7
100
AcDbLine
 10
135.289922
 20
193.927469
 30
0.0
 11
131.840419
 21
193.927469
 31
0.0
  0
LINE
  5
19a
100
AcDbEntity
  8
Layer_1
 62
7
100
AcDbLine
 10
131.840419
 20
193.927469
 30
0.0
 11
131.840419
 21
199.927448
 31
0.0
  0
LINE
  5
19b
100
AcDbEntity
  8
Layer_1
 62
7
100
AcDbLine
 10
131.840419
 20
199.927448
 30
0.0
 11
135.289922
 21
199.927448
 31
0.0
  0
LINE
  5
19c
100
AcDbEntity
  8
Layer_1
 62
7
100
AcDbLine
 10
135.289922
 20
199.927448
 30
0.0
 11
135.289922
 21
208.927690
 31
0.0
  0
LINE
  5
19d
100
AcDbEntity
  8
Layer_1
 62
7
100
AcDbLine
 10
135.289922
 20
208.927690
 30
0.0
 11
135.289922
 21
208.927690
 31
0.0
  0
LINE
  5
19e
100
AcDbEntity
  8
Layer_1
 62
7
100
AcDbLine
 10
69.642389
 20
208.891862
 30
0.0
 11
74.642461
 21
208.891862
 31
0.0
  0
LINE
  5
19f
100
AcDbEntity
  8
Layer_1
 62
7
100
AcDbLine
 10
74.642461
 20
208.891862
 30
0.0
 11
74.642461
 21
199.891617
 31
0.0
  0
LINE
  5
1a0
100
AcDbEntity
  8
Layer_1
 62
7
100
AcDbLine
 10
74.642461
 20
199.891617
 30
0.0
 11
78.091967
 21
199.891617
 31
0.0
  0
LINE
  5
1a1
100
AcDbEntity
  8
Layer_1
 62
7
100
AcDbLine
 10
78.091967
 20
199.891617
 30
0.0
 11
78.091967
 21
193.891641
 31
0.0
  0
LINE
  5
1a2
100
AcDbEntity
  8
Layer_1
 62
7
100
AcDbLine
 10
78.091967
 20
193.891641
 30
0.0
 11
74.642461
 21
193.891641
 31
0.0
  0
LINE
  5
1a3
100
AcDbEntity
  8
Layer_1
 62
7
100
AcDbLine
 10
74.642461
 20
193.891641
 30
0.0
 11
74.642461
 21
184.891949
 31
0.0
  0
LINE
  5
1a4
100
AcDbEntity
  8
Layer_1
 62
7
100
AcDbLine
 10
74.642461
 20
184.891949
 30
0.0
 11
69.642389
 21
184.891949
 31
0.0
  0
LINE
  5
1a5
100
AcDbEntity
  8
Layer_1
 62
7
100
AcDbLine
 10
69.642389
 20
184.891949
 30
0.0
 11
69.642389
 21
193.891641
 31
0.0
  0
LINE
  5
1a6
100
AcDbEntity
  8
Layer_1
 62
7
100
AcDbLine
 10
69.642389
 20
193.891641
 30
0.0
 11
66.192332
 21
193.891641
 31
0.0
  0
LINE
  5
1a7
100
AcDbEntity
  8
Layer_1
 62
7
100
AcDbLine
 10
66.192332
 20
193.891641
 30
0.0
 11
66.192332
 21
199.891617
 31
0.0
  0
LINE
  5
1a8
100
AcDbEntity
  8
Layer_1
 62
7
100
AcDbLine
 10
66.192332
 20
199.891617
 30
0.0
 11
69.642389
 21
199.891617
 31
0.0
  0
LINE
  5
1a9
100
AcDbEntity
  8
Layer_1
 62
7
100
AcDbLine
 10
69.642389
 20
199.891617
 30
0.0
 11
69.642389
 21
208.891862
 31
0.0
  0
LINE
  5
1aa
100
AcDbEntity
  8
Layer_1
 62
7
100
AcDbLine
 10
69.642389
 20
208.891862
 30
0.0
 11
69.642389
 21
208.891862
 31
0.0
  0
SPLINE
  5
1ab
100
AcDbEntity
  8
Layer_1
 62
7
100
AcDbSpline
 70
8
 71
3
 72
8
 73
4
 74
0
 40
0
 40
0
 40
0
 40
0
 40
1
 40
1
 40
1
 40
1
 10
79.979328
 20
208.159848
 30
0.0
 10
81.083748
 20
208.159744
 30
0.0
 10
81.979033
 20
207.264459
 30
0.0
 10
81.979138
 20
206.160038
 30
0.0
  0
SPLINE
  5
1ac
100
AcDbEntity
  8
Layer_1
 62
7
100
AcDbSpline
 70
8
 71
3
 72
8
 73
4
 74
0
 40
0
 40
0
 40
0
 40
0
 40
1
 40
1
 40
1
 40
1
 10
81.979138
 20
206.160038
 30
0.0
 10
81.979335
 20
205.055404
 30
0.0
 10
81.083963
 20
204.159783
 30
0.0
 10
79.979328
 20
204.159678
 30
0.0
  0
SPLINE
  5
1ad
100
AcDbEntity
  8
Layer_1
 62
7
100
AcDbSpline
 70
8
 71
3
 72
8
 73
4
 74
0
 40
0
 40
0
 40
0
 40
0
 40
1
 40
1
 40
1
 40
1
 10
79.979328
 20
204.159678
 30
0.0
 10
78.874476
 20
204.159481
 30
0.0
 10
77.978770
 20
205.055186
 30
0.0
 10
77.978968
 20
206.160038
 30
0.0
  0
SPLINE
  5
1ae
100
AcDbEntity
  8
Layer_1
 62
7
100
AcDbSpline
 70
8
 71
3
 72
8
 73
4
 74
0
 40
0
 40
0
 40
0
 40
0
 40
1
 40
1
 40
1
 40
1
 10
77.978968
 20
206.160038
 30
0.0
 10
77.979072
 20
207.264673
 30
0.0
 10
78.874693
 20
208.160046
 30
0.0
 10
79.979328
 20
208.159848
 30
0.0
  0
LINE
  5
1af
100
AcDbEntity
  8
Layer_1
 62
7
100
AcDbLine
 10
79.979328
 20
208.159848
 30
0.0
 11
79.979328
 21
208.159848
 31
0.0
  0
SPLINE
  5
1b0
100
AcDbEntity
  8
Layer_1
 62
7
100
AcDbSpline
 70
8
 71
3
 72
8
 73
4
 74
0
 40
0
 40
0
 40
0
 40
0
 40
1
 40
1
 40
1
 40
1
 10
89.978924
 20
208.159848
 30
0.0
 10
91.083344
 20
208.159744
 30
0.0
 10
91.978630
 20
207.264459
 30
0.0
 10
91.978734
 20
206.160038
 30
0.0
  0
SPLINE
  5
1b1
100
AcDbEntity
  8
Layer_1
 62
7
100
AcDbSpline
 70
8
 71
3
 72
8
 73
4
 74
0
 40
0
 40
0
 40
0
 40
0
 40
1
 40
1
 40
1
 40
1
 10
91.978734
 20
206.160038
 30
0.0
 10
91.978932
 20
205.055404
 30
0.0
 10
91.083559
 20
204.159783
 30
0.0
 10
89.978924
 20
204.159678
 30
0.0
  0
SPLINE
  5
1b2
100
AcDbEntity
  8
Layer_1
 62
7
100
AcDbSpline
 70
8
 71
3
 72
8
 73
4
 74
0
 40
0
 40
0
 40
0
 40
0
 40
1
 40
1
 40
1
 40
1
 10
89.978924
 20
204.159678
 30
0.0
 10
88.874072
 20
204.159481
 30
0.0
 10
87.978367
 20
205.055186
 30
0.0
 10
87.978564
 20
206.160038
 30
0.0
  0
SPLINE
  5
1b3
100
AcDbEntity
  8
Layer_1
 62
7
100
AcDbSpline
 70
8
 71
3
 72
8
 73
4
 74
0
 40
0
 40
0
 40
0
 40
0
 40
1
 40
1
 40
1
 40
1
 10
87.978564
 20
206.160038
 30
0.0
 10
87.978669
 20
207.264673
 30
0.0
 10
88.874290
 20
208.160046
 30
0.0
 10
89.978924
 20
208.159848
 30
0.0
  0
LINE
  5
1b4
100
AcDbEntity
  8
Layer_1
 62
7
100
AcDbLine
 10
89.978924
 20
208.159848
 30
0.0
 11
89.978924
 21
208.159848
 31
0.0
  0
SPLINE
  5
1b5
100
AcDbEntity
  8
Layer_1
 62
7
100
AcDbSpline
 70
8
 71
3
 72
8
 73
4
 74
0
 40
0
 40
0
 40
0
 40
0
 40
1
 40
1
 40
1
 40
1
 10
99.978520
 20
208.159284
 30
0.0
 10
101.082941
 20
208.159179
 30
0.0
 10
101.978226
 20
207.263894
 30
0.0
 10
101.978330
 20
206.159474
 30
0.0
  0
SPLINE
  5
1b6
100
AcDbEntity
  8
Layer_1
 62
7
100
AcDbSpline
 70
8
 71
3
 72
8
 73
4
 74
0
 40
0
 40
0
 40
0
 40
0
 40
1
 40
1
 40
1
 40
1
 10
101.978330
 20
206.159474
 30
0.0
 10
101.978226
 20
205.055054
 30
0.0
 10
101.082941
 20
204.159769
 30
0.0
 10
99.978520
 20
204.159664
 30
0.0
  0
SPLINE
  5
1b7
100
AcDbEntity
  8
Layer_1
 62
7
100
AcDbSpline
 70
8
 71
3
 72
8
 73
4
 74
0
 40
0
 40
0
 40
0
 40
0
 40
1
 40
1
 40
1
 40
1
 10
99.978520
 20
204.159664
 30
0.0
 10
98.874100
 20
204.159769
 30
0.0
 10
97.978815
 20
205.055054
 30
0.0
 10
97.978711
 20
206.159474
 30
0.0
  0
SPLINE
  5
1b8
100
AcDbEntity
  8
Layer_1
 62
7
100
AcDbSpline
 70
8
 71
3
 72
8
 73
4
 74
0
 40
0
 40
0
 40
0
 40
0
 40
1
 40
1
 40
1
 40
1
 10
97.978711
 20
206.159474
 30
0.0
 10
97.978815
 20
207.263894
 30
0.0
 10
98.874100
 20
208.159179
 30
0.0
 10
99.978520
 20
208.159284
 30
0.0
  0
LINE
  5
1b9
100
AcDbEntity
  8
Layer_1
 62
7
100
AcDbLine
 10
99.978520
 20
208.159284
 30
0.0
 11
99.978520
 21
208.159284
 31
0.0
  0
SPLINE
  5
1ba
100
AcDbEntity
  8
Layer_1
 62
7
100
AcDbSpline
 70
8
 71
3
 72
8
 73
4
 74
0
 40
0
 40
0
 40
0
 40
0
 40
1
 40
1
 40
1
 40
1
 10
109.978670
 20
208.159284
 30
0.0
 10
111.083304
 20
208.159481
 30
0.0
 10
111.978925
 20
207.264109
 30
0.0
 10
111.979030
 20
206.159474
 30
0.0
  0
SPLINE
  5
1bb
100
AcDbEntity
  8
Layer_1
 62
7
100
AcDbSpline
 70
8
 71
3
 72
8
 73
4
 74
0
 40
0
 40
0
 40
0
 40
0
 40
1
 40
1
 40
1
 40
1
 10
111.979030
 20
206.159474
 30
0.0
 10
111.978925
 20
205.054839
 30
0.0
 10
111.083296
 20
204.159467
 30
0.0
 10
109.978670
 20
204.159664
 30
0.0
  0
SPLINE
  5
1bc
100
AcDbEntity
  8
Layer_1
 62
7
100
AcDbSpline
 70
8
 71
3
 72
8
 73
4
 74
0
 40
0
 40
0
 40
0
 40
0
 40
1
 40
1
 40
1
 40
1
 10
109.978670
 20
204.159664
 30
0.0
 10
108.874250
 20
204.159769
 30
0.0
 10
107.978964
 20
205.055054
 30
0.0
 10
107.978860
 20
206.159474
 30
0.0
  0
SPLINE
  5
1bd
100
AcDbEntity
  8
Layer_1
 62
7
100
AcDbSpline
 70
8
 71
3
 72
8
 73
4
 74
0
 40
0
 40
0
 40
0
 40
0
 40
1
 40
1
 40
1
 40
1
 10
107.978860
 20
206.159474
 30
0.0
 10
107.978964
 20
207.263894
 30
0.0
 10
108.874241
 20
208.159179
 30
0.0
 10
109.978670
 20
208.159284
 30
0.0
  0
LINE
  5
1be
100
AcDbEntity
  8
Layer_1
 62
7
100
AcDbLine
 10
109.978670
 20
208.159284
 30
0.0
 11
109.978670
 21
208.159284
 31
0.0
  0
SPLINE
  5
1bf
100
AcDbEntity
  8
Layer_1
 62
7
100
AcDbSpline
 70
8
 71
3
 72
8
 73
4
 74
0
 40
0
 40
0
 40
0
 40
0
 40
1
 40
1
 40
1
 40
1
 10
119.978816
 20
208.159284
 30
0.0
 10
121.083237
 20
208.159179
 30
0.0
 10
121.978522
 20
207.263894
 30
0.0
 10
121.978626
 20
206.159474
 30
0.0
  0
SPLINE
  5
1c0
100
AcDbEntity
  8
Layer_1
 62
7
100
AcDbSpline
 70
8
 71
3
 72
8
 73
4
 74
0
 40
0
 40
0
 40
0
 40
0
 40
1
 40
1
 40
1
 40
1
 10
121.978626
 20
206.159474
 30
0.0
 10
121.978522
 20
205.055054
 30
0.0
 10
121.083237
 20
204.159769
 30
0.0
 10
119.978816
 20
204.159664
 30
0.0
  0
SPLINE
  5
1c1
100
AcDbEntity
  8
Layer_1
 62
7
100
AcDbSpline
 70
8
 71
3
 72
8
 73
4
 74
0
 40
0
 40
0
 40
0
 40
0
 40
1
 40
1
 40
1
 40
1
 10
119.978816
 20
204.159664
 30
0.0
 10
118.874182
 20
204.159467
 30
0.0
 10
117.978561
 20
205.054839
 30
0.0
 10
117.978456
 20
206.159474
 30
0.0
  0
SPLINE
  5
1c2
100
AcDbEntity
  8
Layer_1
 62
7
100
AcDbSpline
 70
8
 71
3
 72
8
 73
4
 74
0
 40
0
 40
0
 40
0
 40
0
 40
1
 40
1
 40
1
 40
1
 10
117.978456
 20
206.159474
 30
0.0
 10
117.978561
 20
207.264109
 30
0.0
 10
118.874182
 20
208.159481
 30
0.0
 10
119.978816
 20
208.159284
 30
0.0
  0
LINE
  5
1c3
100
AcDbEntity
  8
Layer_1
 62
7
100
AcDbLine
 10
119.978816
 20
208.159284
 30
0.0
 11
119.978816
 21
208.159284
 31
0.0
  0
SPLINE
  5
1c4
100
AcDbEntity
  8
Layer_1
 62
7
100
AcDbSpline
 70
8
 71
3
 72
8
 73
4
 74
0
 40
0
 40
0
 40
0
 40
0
 40
1
 40
1
 40
1
 40
1
 10
129.978963
 20
208.159284
 30
0.0
 10
131.083383
 20
208.159179
 30
0.0
 10
131.978668
 20
207.263894
 30
0.0
 10
131.978773
 20
206.159474
 30
0.0
  0
SPLINE
  5
1c5
100
AcDbEntity
  8
Layer_1
 62
7
100
AcDbSpline
 70
8
 71
3
 72
8
 73
4
 74
0
 40
0
 40
0
 40
0
 40
0
 40
1
 40
1
 40
1
 40
1
 10
131.978773
 20
206.159474
 30
0.0
 10
131.978668
 20
205.055054
 30
0.0
 10
131.083383
 20
204.159769
 30
0.0
 10
129.978963
 20
204.159664
 30
0.0
  0
SPLINE
  5
1c6
100
AcDbEntity
  8
Layer_1
 62
7
100
AcDbSpline
 70
8
 71
3
 72
8
 73
4
 74
0
 40
0
 40
0
 40
0
 40
0
 40
1
 40
1
 40
1
 40
1
 10
129.978963
 20
204.159664
 30
0.0
 10
128.874328
 20
204.159467
 30
0.0
 10
127.978707
 20
205.054839
 30
0.0
 10
127.978603
 20
206.159474
 30
0.0
  0
SPLINE
  5
1c7
100
AcDbEntity
  8
Layer_1
 62
7
100
AcDbSpline
 70
8
 71
3
 72
8
 73
4
 74
0
 40
0
 40
0
 40
0
 40
0
 40
1
 40
1
 40
1
 40
1
 10
127.978603
 20
206.159474
 30
0.0
 10
127.978707
 20
207.264109
 30
0.0
 10
128.874328
 20
208.159481
 30
0.0
 10
129.978963
 20
208.159284
 30
0.0
  0
LINE
  5
1c8
100
AcDbEntity
  8
Layer_1
 62
7
100
AcDbLine
 10
129.978963
 20
208.159284
 30
0.0
 11
129.978963
 21
208.159284
 31
0.0
  0
SPLINE
  5
1c9
100
AcDbEntity
  8
Layer_1
 62
7
100
AcDbSpline
 70
8
 71
3
 72
8
 73
4
 74
0
 40
0
 40
0
 40
0
 40
0
 40
1
 40
1
 40
1
 40
1
 10
128.290041
 20
198.427576
 30
0.0
 10
129.118140
 20
198.427497
 30
0.0
 10
129.789513
 20
197.756369
 30
0.0
 10
129.789896
 20
196.928270
 30
0.0
  0
SPLINE
  5
1ca
100
AcDbEntity
  8
Layer_1
 62
7
100
AcDbSpline
 70
8
 71
3
 72
8
 73
4
 74
0
 40
0
 40
0
 40
0
 40
0
 40
1
 40
1
 40
1
 40
1
 10
129.789896
 20
196.928270
 30
0.0
 10
129.790461
 20
196.099524
 30
0.0
 10
129.118786
 20
195.427390
 30
0.0
 10
128.290041
 20
195.427311
 30
0.0
  0
SPLINE
  5
1cb
100
AcDbEntity
  8
Layer_1
 62
7
100
AcDbSpline
 70
8
 71
3
 72
8
 73
4
 74
0
 40
0
 40
0
 40
0
 40
0
 40
1
 40
1
 40
1
 40
1
 10
128.290041
 20
195.427311
 30
0.0
 10
127.461078
 20
195.427085
 30
0.0
 10
126.789101
 20
196.099307
 30
0.0
 10
126.789632
 20
196.928270
 30
0.0
  0
SPLINE
  5
1cc
100
AcDbEntity
  8
Layer_1
 62
7
100
AcDbSpline
 70
8
 71
3
 72
8
 73
4
 74
0
 40
0
 40
0
 40
0
 40
0
 40
1
 40
1
 40
1
 40
1
 10
126.789632
 20
196.928270
 30
0.0
 10
126.789914
 20
197.756587
 30
0.0
 10
127.461724
 20
198.427801
 30
0.0
 10
128.290041
 20
198.427576
 30
0.0
  0
LINE
  5
1cd
100
AcDbEntity
  8
Layer_1
 62
7
100
AcDbLine
 10
128.290041
 20
198.427576
 30
0.0
 11
128.290041
 21
198.427576
 31
0.0
  0
SPLINE
  5
1ce
100
AcDbEntity
  8
Layer_1
 62
7
100
AcDbSpline
 70
8
 71
3
 72
8
 73
4
 74
0
 40
0
 40
0
 40
0
 40
0
 40
1
 40
1
 40
1
 40
1
 10
81.642345
 20
198.391747
 30
0.0
 10
82.470659
 20
198.391973
 30
0.0
 10
83.142368
 20
197.720756
 30
0.0
 10
83.142751
 20
196.892442
 30
0.0
  0
SPLINE
  5
1cf
100
AcDbEntity
  8
Layer_1
 62
7
100
AcDbSpline
 70
8
 71
3
 72
8
 73
4
 74
0
 40
0
 40
0
 40
0
 40
0
 40
1
 40
1
 40
1
 40
1
 10
83.142751
 20
196.892442
 30
0.0
 10
83.143316
 20
196.063482
 30
0.0
 10
82.471305
 20
195.391257
 30
0.0
 10
81.642345
 20
195.391483
 30
0.0
  0
SPLINE
  5
1d0
100
AcDbEntity
  8
Layer_1
 62
7
100
AcDbSpline
 70
8
 71
3
 72
8
 73
4
 74
0
 40
0
 40
0
 40
0
 40
0
 40
1
 40
1
 40
1
 40
1
 10
81.642345
 20
195.391483
 30
0.0
 10
80.813600
 20
195.391562
 30
0.0
 10
80.141956
 20
196.063696
 30
0.0
 10
80.142486
 20
196.892442
 30
0.0
  0
SPLINE
  5
1d1
100
AcDbEntity
  8
Layer_1
 62
7
100
AcDbSpline
 70
8
 71
3
 72
8
 73
4
 74
0
 40
0
 40
0
 40
0
 40
0
 40
1
 40
1
 40
1
 40
1
 10
80.142486
 20
196.892442
 30
0.0
 10
80.142769
 20
197.720544
 30
0.0
 10
80.814243
 20
198.391668
 30
0.0
 10
81.642345
 20
198.391747
 30
0.0
  0
LINE
  5
1d2
100
AcDbEntity
  8
Layer_1
 62
7
100
AcDbLine
 10
81.642345
 20
198.391747
 30
0.0
 11
81.642345
 21
198.391747
 31
0.0
  0
SPLINE
  5
1d3
100
AcDbEntity
  8
Layer_1
 62
7
100
AcDbSpline
 70
8
 71
3
 72
8
 73
4
 74
0
 40
0
 40
0
 40
0
 40
0
 40
1
 40
1
 40
1
 40
1
 10
104.978595
 20
182.934019
 30
0.0
 10
105.806912
 20
182.933940
 30
0.0
 10
106.478372
 20
182.262477
 30
0.0
 10
106.478451
 20
181.434160
 30
0.0
  0
SPLINE
  5
1d4
100
AcDbEntity
  8
Layer_1
 62
7
100
AcDbSpline
 70
8
 71
3
 72
8
 73
4
 74
0
 40
0
 40
0
 40
0
 40
0
 40
1
 40
1
 40
1
 40
1
 10
106.478451
 20
181.434160
 30
0.0
 10
106.478677
 20
180.605632
 30
0.0
 10
105.807123
 20
179.933833
 30
0.0
 10
104.978595
 20
179.933754
 30
0.0
  0
SPLINE
  5
1d5
100
AcDbEntity
  8
Layer_1
 62
7
100
AcDbSpline
 70
8
 71
3
 72
8
 73
4
 74
0
 40
0
 40
0
 40
0
 40
0
 40
1
 40
1
 40
1
 40
1
 10
104.978595
 20
179.933754
 30
0.0
 10
104.150064
 20
179.933833
 30
0.0
 10
103.478511
 20
180.605629
 30
0.0
 10
103.478736
 20
181.434160
 30
0.0
  0
SPLINE
  5
1d6
100
AcDbEntity
  8
Layer_1
 62
7
100
AcDbSpline
 70
8
 71
3
 72
8
 73
4
 74
0
 40
0
 40
0
 40
0
 40
0
 40
1
 40
1
 40
1
 40
1
 10
103.478736
 20
181.434160
 30
0.0
 10
103.478815
 20
182.262477
 30
0.0
 10
104.150279
 20
182.933940
 30
0.0
 10
104.978595
 20
182.934019
 30
0.0
  0
LINE
  5
1d7
100
AcDbEntity
  8
Layer_1
 62
7
100
AcDbLine
 10
104.978595
 20
182.934019
 30
0.0
 11
104.978595
 21
182.934019
 31
0.0
  0
LINE
  5
1d8
100
AcDbEntity
  8
Layer_1
 62
7
100
AcDbLine
 10
65.668127
 20
182.010181
 30
0.0
 11
67.667934
 21
182.010181
 31
0.0
  0
LINE
  5
1d9
100
AcDbEntity
  8
Layer_1
 62
7
100
AcDbLine
 10
67.667934
 20
182.010181
 30
0.0
 11
67.667934
 21
170.009677
 31
0.0
  0
LINE
  5
1da
100
AcDbEntity
  8
Layer_1
 62
7
100
AcDbLine
 10
67.667934
 20
170.009677
 30
0.0
 11
65.668127
 21
170.009677
 31
0.0
  0
LINE
  5
1db
100
AcDbEntity
  8
Layer_1
 62
7
100
AcDbLine
 10
65.668127
 20
170.009677
 30
0.0
 11
65.668127
 21
182.010181
 31
0.0
  0
LINE
  5
1dc
100
AcDbEntity
  8
Layer_1
 62
7
100
AcDbLine
 10
65.668127
 20
182.010181
 30
0.0
 11
65.668127
 21
182.010181
 31
0.0
  0
LINE
  5
1dd
100
AcDbEntity
  8
Layer_1
 62
7
100
AcDbLine
 10
142.290357
 20
182.009617
 30
0.0
 11
144.290167
 21
182.009617
 31
0.0
  0
LINE
  5
1de
100
AcDbEntity
  8
Layer_1
 62
7
100
AcDbLine
 10
144.290167
 20
182.009617
 30
0.0
 11
144.290167
 21
170.009649
 31
0.0
  0
LINE
  5
1df
100
AcDbEntity
  8
Layer_1
 62
7
100
AcDbLine
 10
144.290167
 20
170.009649
 30
0.0
 11
142.290357
 21
170.009649
 31
0.0
  0
LINE
  5
1e0
100
AcDbEntity
  8
Layer_1
 62
7
100
AcDbLine
 10
142.290357
 20
170.009649
 30
0.0
 11
142.290357
 21
182.009617
 31
0.0
  0
LINE
  5
1e1
100
AcDbEntity
  8
Layer_1
 62
7
100
AcDbLine
 10
142.290357
 20
182.009617
 30
0.0
 11
142.290357
 21
182.009617
 31
0.0
  0
SPLINE
  5
1e2
100
AcDbEntity
  8
Layer_1
 62
7
100
AcDbSpline
 70
8
 71
3
 72
8
 73
4
 74
0
 40
0
 40
0
 40
0
 40
0
 40
1
 40
1
 40
1
 40
1
 10
94.002245
 20
167.627919
 30
0.0
 10
94.830564
 20
167.627835
 30
0.0
 10
95.502030
 20
166.956372
 30
0.0
 10
95.502101
 20
166.128049
 30
0.0
  0
SPLINE
  5
1e3
100
AcDbEntity
  8
Layer_1
 62
7
100
AcDbSpline
 70
8
 71
3
 72
8
 73
4
 74
0
 40
0
 40
0
 40
0
 40
0
 40
1
 40
1
 40
1
 40
1
 10
95.502101
 20
166.128049
 30
0.0
 10
95.502013
 20
165.299727
 30
0.0
 10
94.830553
 20
164.628292
 30
0.0
 10
94.002245
 20
164.628208
 30
0.0
  0
SPLINE
  5
1e4
100
AcDbEntity
  8
Layer_1
 62
7
100
AcDbSpline
 70
8
 71
3
 72
8
 73
4
 74
0
 40
0
 40
0
 40
0
 40
0
 40
1
 40
1
 40
1
 40
1
 10
94.002245
 20
164.628208
 30
0.0
 10
93.173719
 20
164.627982
 30
0.0
 10
92.501923
 20
165.299530
 30
0.0
 10
92.501836
 20
166.128049
 30
0.0
  0
SPLINE
  5
1e5
100
AcDbEntity
  8
Layer_1
 62
7
100
AcDbSpline
 70
8
 71
3
 72
8
 73
4
 74
0
 40
0
 40
0
 40
0
 40
0
 40
1
 40
1
 40
1
 40
1
 10
92.501836
 20
166.128049
 30
0.0
 10
92.501906
 20
166.956597
 30
0.0
 10
93.173708
 20
167.628145
 30
0.0
 10
94.002245
 20
167.627919
 30
0.0
  0
LINE
  5
1e6
100
AcDbEntity
  8
Layer_1
 62
7
100
AcDbLine
 10
94.002245
 20
167.627919
 30
0.0
 11
94.002245
 21
167.627919
 31
0.0
  0
SPLINE
  5
1e7
100
AcDbEntity
  8
Layer_1
 62
7
100
AcDbSpline
 70
8
 71
3
 72
8
 73
4
 74
0
 40
0
 40
0
 40
0
 40
0
 40
1
 40
1
 40
1
 40
1
 10
115.955496
 20
167.627919
 30
0.0
 10
116.783815
 20
167.627835
 30
0.0
 10
117.455281
 20
166.956372
 30
0.0
 10
117.455352
 20
166.128049
 30
0.0
  0
SPLINE
  5
1e8
100
AcDbEntity
  8
Layer_1
 62
7
100
AcDbSpline
 70
8
 71
3
 72
8
 73
4
 74
0
 40
0
 40
0
 40
0
 40
0
 40
1
 40
1
 40
1
 40
1
 10
117.455352
 20
166.128049
 30
0.0
 10
117.455264
 20
165.299727
 30
0.0
 10
116.783804
 20
164.628292
 30
0.0
 10
115.955496
 20
164.628208
 30
0.0
  0
SPLINE
  5
1e9
100
AcDbEntity
  8
Layer_1
 62
7
100
AcDbSpline
 70
8
 71
3
 72
8
 73
4
 74
0
 40
0
 40
0
 40
0
 40
0
 40
1
 40
1
 40
1
 40
1
 10
115.955496
 20
164.628208
 30
0.0
 10
115.127188
 20
164.628292
 30
0.0
 10
114.455727
 20
165.299727
 30
0.0
 10
114.455640
 20
166.128049
 30
0.0
  0
SPLINE
  5
1ea
100
AcDbEntity
  8
Layer_1
 62
7
100
AcDbSpline
 70
8
 71
3
 72
8
 73
4
 74
0
 40
0
 40
0
 40
0
 40
0
 40
1
 40
1
 40
1
 40
1
 10
114.455640
 20
166.128049
 30
0.0
 10
114.455710
 20
166.956372
 30
0.0
 10
115.127176
 20
167.627835
 30
0.0
 10
115.955496
 20
167.627919
 30
0.0
  0
LINE
  5
1eb
100
AcDbEntity
  8
Layer_1
 62
7
100
AcDbLine
 10
115.955496
 20
167.627919
 30
0.0
 11
115.955496
 21
167.627919
 31
0.0
  0
SPLINE
  5
1ec
100
AcDbEntity
  8
Layer_1
 62
7
100
AcDbSpline
 70
8
 71
3
 72
8
 73
4
 74
0
 40
0
 40
0
 40
0
 40
0
 40
1
 40
1
 40
1
 40
1
 10
11.978654
 20
153.208114
 30
0.0
 10
13.083506
 20
153.208311
 30
0.0
 10
13.979215
 20
152.312594
 30
0.0
 10
13.979014
 20
151.207751
 30
0.0
  0
SPLINE
  5
1ed
100
AcDbEntity
  8
Layer_1
 62
7
100
AcDbSpline
 70
8
 71
3
 72
8
 73
4
 74
0
 40
0
 40
0
 40
0
 40
0
 40
1
 40
1
 40
1
 40
1
 10
13.979014
 20
151.207751
 30
0.0
 10
13.978904
 20
150.103133
 30
0.0
 10
13.083286
 20
149.207755
 30
0.0
 10
11.978654
 20
149.207952
 30
0.0
  0
SPLINE
  5
1ee
100
AcDbEntity
  8
Layer_1
 62
7
100
AcDbSpline
 70
8
 71
3
 72
8
 73
4
 74
0
 40
0
 40
0
 40
0
 40
0
 40
1
 40
1
 40
1
 40
1
 10
11.978654
 20
149.207952
 30
0.0
 10
10.874240
 20
149.208065
 30
0.0
 10
9.978958
 20
150.103331
 30
0.0
 10
9.978845
 20
151.207751
 30
0.0
  0
SPLINE
  5
1ef
100
AcDbEntity
  8
Layer_1
 62
7
100
AcDbSpline
 70
8
 71
3
 72
8
 73
4
 74
0
 40
0
 40
0
 40
0
 40
0
 40
1
 40
1
 40
1
 40
1
 10
9.978845
 20
151.207751
 30
0.0
 10
9.978644
 20
152.312397
 30
0.0
 10
10.874017
 20
153.208001
 30
0.0
 10
11.978654
 20
153.208114
 30
0.0
  0
LINE
  5
1f0
100
AcDbEntity
  8
Layer_1
 62
7
100
AcDbLine
 10
11.978654
 20
153.208114
 30
0.0
 11
11.978654
 21
153.208114
 31
0.0
  0
SPLINE
  5
1f1
100
AcDbEntity
  8
Layer_1
 62
7
100
AcDbSpline
 70
8
 71
3
 72
8
 73
4
 74
0
 40
0
 40
0
 40
0
 40
0
 40
1
 40
1
 40
1
 40
1
 10
71.978988
 20
153.208114
 30
0.0
 10
73.083626
 20
153.208001
 30
0.0
 10
73.978999
 20
152.312397
 30
0.0
 10
73.978798
 20
151.207751
 30
0.0
  0
SPLINE
  5
1f2
100
AcDbEntity
  8
Layer_1
 62
7
100
AcDbSpline
 70
8
 71
3
 72
8
 73
4
 74
0
 40
0
 40
0
 40
0
 40
0
 40
1
 40
1
 40
1
 40
1
 10
73.978798
 20
151.207751
 30
0.0
 10
73.978688
 20
150.103331
 30
0.0
 10
73.083406
 20
149.208065
 30
0.0
 10
71.978988
 20
149.207952
 30
0.0
  0
SPLINE
  5
1f3
100
AcDbEntity
  8
Layer_1
 62
7
100
AcDbSpline
 70
8
 71
3
 72
8
 73
4
 74
0
 40
0
 40
0
 40
0
 40
0
 40
1
 40
1
 40
1
 40
1
 10
71.978988
 20
149.207952
 30
0.0
 10
70.874357
 20
149.207755
 30
0.0
 10
69.978738
 20
150.103133
 30
0.0
 10
69.978628
 20
151.207751
 30
0.0
  0
SPLINE
  5
1f4
100
AcDbEntity
  8
Layer_1
 62
7
100
AcDbSpline
 70
8
 71
3
 72
8
 73
4
 74
0
 40
0
 40
0
 40
0
 40
0
 40
1
 40
1
 40
1
 40
1
 10
69.978628
 20
151.207751
 30
0.0
 10
69.978428
 20
152.312594
 30
0.0
 10
70.874136
 20
153.208311
 30
0.0
 10
71.978988
 20
153.208114
 30
0.0
  0
LINE
  5
1f5
100
AcDbEntity
  8
Layer_1
 62
7
100
AcDbLine
 10
71.978988
 20
153.208114
 30
0.0
 11
71.978988
 21
153.208114
 31
0.0
  0
SPLINE
  5
1f6
100
AcDbEntity
  8
Layer_1
 62
7
100
AcDbSpline
 70
8
 71
3
 72
8
 73
4
 74
0
 40
0
 40
0
 40
0
 40
0
 40
1
 40
1
 40
1
 40
1
 10
137.979302
 20
153.208114
 30
0.0
 10
139.083940
 20
153.208001
 30
0.0
 10
139.979313
 20
152.312397
 30
0.0
 10
139.979112
 20
151.207751
 30
0.0
  0
SPLINE
  5
1f7
100
AcDbEntity
  8
Layer_1
 62
7
100
AcDbSpline
 70
8
 71
3
 72
8
 73
4
 74
0
 40
0
 40
0
 40
0
 40
0
 40
1
 40
1
 40
1
 40
1
 10
139.979112
 20
151.207751
 30
0.0
 10
139.979002
 20
150.103331
 30
0.0
 10
139.083720
 20
149.208065
 30
0.0
 10
137.979302
 20
149.207952
 30
0.0
  0
SPLINE
  5
1f8
100
AcDbEntity
  8
Layer_1
 62
7
100
AcDbSpline
 70
8
 71
3
 72
8
 73
4
 74
0
 40
0
 40
0
 40
0
 40
0
 40
1
 40
1
 40
1
 40
1
 10
137.979302
 20
149.207952
 30
0.0
 10
136.874671
 20
149.207755
 30
0.0
 10
135.979052
 20
150.103133
 30
0.0
 10
135.978942
 20
151.207751
 30
0.0
  0
SPLINE
  5
1f9
100
AcDbEntity
  8
Layer_1
 62
7
100
AcDbSpline
 70
8
 71
3
 72
8
 73
4
 74
0
 40
0
 40
0
 40
0
 40
0
 40
1
 40
1
 40
1
 40
1
 10
135.978942
 20
151.207751
 30
0.0
 10
135.978742
 20
152.312594
 30
0.0
 10
136.874450
 20
153.208311
 30
0.0
 10
137.979302
 20
153.208114
 30
0.0
  0
LINE
  5
1fa
100
AcDbEntity
  8
Layer_1
 62
7
100
AcDbLine
 10
137.979302
 20
153.208114
 30
0.0
 11
137.979302
 21
153.208114
 31
0.0
  0
SPLINE
  5
1fb
100
AcDbEntity
  8
Layer_1
 62
7
100
AcDbSpline
 70
8
 71
3
 72
8
 73
4
 74
0
 40
0
 40
0
 40
0
 40
0
 40
1
 40
1
 40
1
 40
1
 10
197.979086
 20
153.208114
 30
0.0
 10
199.083713
 20
153.208001
 30
0.0
 10
199.979094
 20
152.312397
 30
0.0
 10
199.978893
 20
151.207751
 30
0.0
  0
SPLINE
  5
1fc
100
AcDbEntity
  8
Layer_1
 62
7
100
AcDbSpline
 70
8
 71
3
 72
8
 73
4
 74
0
 40
0
 40
0
 40
0
 40
0
 40
1
 40
1
 40
1
 40
1
 10
199.978893
 20
151.207751
 30
0.0
 10
199.978783
 20
150.103331
 30
0.0
 10
199.083501
 20
149.208065
 30
0.0
 10
197.979086
 20
149.207952
 30
0.0
  0
SPLINE
  5
1fd
100
AcDbEntity
  8
Layer_1
 62
7
100
AcDbSpline
 70
8
 71
3
 72
8
 73
4
 74
0
 40
0
 40
0
 40
0
 40
0
 40
1
 40
1
 40
1
 40
1
 10
197.979086
 20
149.207952
 30
0.0
 10
196.874669
 20
149.208065
 30
0.0
 10
195.979387
 20
150.103331
 30
0.0
 10
195.979277
 20
151.207751
 30
0.0
  0
SPLINE
  5
1fe
100
AcDbEntity
  8
Layer_1
 62
7
100
AcDbSpline
 70
8
 71
3
 72
8
 73
4
 74
0
 40
0
 40
0
 40
0
 40
0
 40
1
 40
1
 40
1
 40
1
 10
195.979277
 20
151.207751
 30
0.0
 10
195.979076
 20
152.312397
 30
0.0
 10
196.874440
 20
153.208001
 30
0.0
 10
197.979086
 20
153.208114
 30
0.0
  0
LINE
  5
1ff
100
AcDbEntity
  8
Layer_1
 62
7
100
AcDbLine
 10
197.979086
 20
153.208114
 30
0.0
 11
197.979086
 21
153.208114
 31
0.0
  0
SPLINE
  5
200
100
AcDbEntity
  8
Layer_1
 62
7
100
AcDbSpline
 70
8
 71
3
 72
8
 73
4
 74
0
 40
0
 40
0
 40
0
 40
0
 40
1
 40
1
 40
1
 40
1
 10
22.478755
 20
147.708111
 30
0.0
 10
22.876628
 20
147.708219
 30
0.0
 10
23.258244
 20
147.550250
 30
0.0
 10
23.539633
 20
147.268961
 30
0.0
  0
SPLINE
  5
201
100
AcDbEntity
  8
Layer_1
 62
7
100
AcDbSpline
 70
8
 71
3
 72
8
 73
4
 74
0
 40
0
 40
0
 40
0
 40
0
 40
1
 40
1
 40
1
 40
1
 10
23.539633
 20
147.268961
 30
0.0
 10
23.821023
 20
146.987673
 30
0.0
 10
23.979129
 20
146.606114
 30
0.0
 10
23.979164
 20
146.208241
 30
0.0
  0
SPLINE
  5
202
100
AcDbEntity
  8
Layer_1
 62
7
100
AcDbSpline
 70
8
 71
3
 72
8
 73
4
 74
0
 40
0
 40
0
 40
0
 40
0
 40
1
 40
1
 40
1
 40
1
 10
23.979164
 20
146.208241
 30
0.0
 10
23.979272
 20
145.810275
 30
0.0
 10
23.821228
 20
145.428577
 30
0.0
 10
23.539823
 20
145.147173
 30
0.0
  0
SPLINE
  5
203
100
AcDbEntity
  8
Layer_1
 62
7
100
AcDbSpline
 70
8
 71
3
 72
8
 73
4
 74
0
 40
0
 40
0
 40
0
 40
0
 40
1
 40
1
 40
1
 40
1
 10
23.539823
 20
145.147173
 30
0.0
 10
23.258418
 20
144.865769
 30
0.0
 10
22.876721
 20
144.707726
 30
0.0
 10
22.478755
 20
144.707834
 30
0.0
  0
SPLINE
  5
204
100
AcDbEntity
  8
Layer_1
 62
7
100
AcDbSpline
 70
8
 71
3
 72
8
 73
4
 74
0
 40
0
 40
0
 40
0
 40
0
 40
1
 40
1
 40
1
 40
1
 10
22.478755
 20
144.707834
 30
0.0
 10
22.080885
 20
144.707872
 30
0.0
 10
21.699329
 20
144.865980
 30
0.0
 10
21.418044
 20
145.147369
 30
0.0
  0
SPLINE
  5
205
100
AcDbEntity
  8
Layer_1
 62
7
100
AcDbSpline
 70
8
 71
3
 72
8
 73
4
 74
0
 40
0
 40
0
 40
0
 40
0
 40
1
 40
1
 40
1
 40
1
 10
21.418044
 20
145.147369
 30
0.0
 10
21.136759
 20
145.428757
 30
0.0
 10
20.978791
 20
145.810370
 30
0.0
 10
20.978899
 20
146.208241
 30
0.0
  0
SPLINE
  5
206
100
AcDbEntity
  8
Layer_1
 62
7
100
AcDbSpline
 70
8
 71
3
 72
8
 73
4
 74
0
 40
0
 40
0
 40
0
 40
0
 40
1
 40
1
 40
1
 40
1
 10
20.978899
 20
146.208241
 30
0.0
 10
20.978971
 20
147.036561
 30
0.0
 10
21.650435
 20
147.708031
 30
0.0
 10
22.478755
 20
147.708111
 30
0.0
  0
LINE
  5
207
100
AcDbEntity
  8
Layer_1
 62
7
100
AcDbLine
 10
22.478755
 20
147.708111
 30
0.0
 11
22.478755
 21
147.708111
 31
0.0
  0
SPLINE
  5
208
100
AcDbEntity
  8
Layer_1
 62
7
100
AcDbSpline
 70
8
 71
3
 72
8
 73
4
 74
0
 40
0
 40
0
 40
0
 40
0
 40
1
 40
1
 40
1
 40
1
 10
40.479241
 20
147.708111
 30
0.0
 10
41.307562
 20
147.708033
 30
0.0
 10
41.979028
 20
147.036562
 30
0.0
 10
41.979099
 20
146.208241
 30
0.0
  0
SPLINE
  5
209
100
AcDbEntity
  8
Layer_1
 62
7
100
AcDbSpline
 70
8
 71
3
 72
8
 73
4
 74
0
 40
0
 40
0
 40
0
 40
0
 40
1
 40
1
 40
1
 40
1
 10
41.979099
 20
146.208241
 30
0.0
 10
41.979207
 20
145.810370
 30
0.0
 10
41.821239
 20
145.428756
 30
0.0
 10
41.539953
 20
145.147368
 30
0.0
  0
SPLINE
  5
20a
100
AcDbEntity
  8
Layer_1
 62
7
100
AcDbSpline
 70
8
 71
3
 72
8
 73
4
 74
0
 40
0
 40
0
 40
0
 40
0
 40
1
 40
1
 40
1
 40
1
 10
41.539953
 20
145.147368
 30
0.0
 10
41.258667
 20
144.865979
 30
0.0
 10
40.877111
 20
144.707872
 30
0.0
 10
40.479241
 20
144.707834
 30
0.0
  0
SPLINE
  5
20b
100
AcDbEntity
  8
Layer_1
 62
7
100
AcDbSpline
 70
8
 71
3
 72
8
 73
4
 74
0
 40
0
 40
0
 40
0
 40
0
 40
1
 40
1
 40
1
 40
1
 10
40.479241
 20
144.707834
 30
0.0
 10
40.081275
 20
144.707726
 30
0.0
 10
39.699578
 20
144.865770
 30
0.0
 10
39.418174
 20
145.147174
 30
0.0
  0
SPLINE
  5
20c
100
AcDbEntity
  8
Layer_1
 62
7
100
AcDbSpline
 70
8
 71
3
 72
8
 73
4
 74
0
 40
0
 40
0
 40
0
 40
0
 40
1
 40
1
 40
1
 40
1
 10
39.418174
 20
145.147174
 30
0.0
 10
39.136770
 20
145.428578
 30
0.0
 10
38.978727
 20
145.810275
 30
0.0
 10
38.978834
 20
146.208241
 30
0.0
  0
SPLINE
  5
20d
100
AcDbEntity
  8
Layer_1
 62
7
100
AcDbSpline
 70
8
 71
3
 72
8
 73
4
 74
0
 40
0
 40
0
 40
0
 40
0
 40
1
 40
1
 40
1
 40
1
 10
38.978834
 20
146.208241
 30
0.0
 10
38.978869
 20
146.606113
 30
0.0
 10
39.136975
 20
146.987672
 30
0.0
 10
39.418364
 20
147.268960
 30
0.0
  0
SPLINE
  5
20e
100
AcDbEntity
  8
Layer_1
 62
7
100
AcDbSpline
 70
8
 71
3
 72
8
 73
4
 74
0
 40
0
 40
0
 40
0
 40
0
 40
1
 40
1
 40
1
 40
1
 10
39.418364
 20
147.268960
 30
0.0
 10
39.699752
 20
147.550248
 30
0.0
 10
40.081368
 20
147.708218
 30
0.0
 10
40.479241
 20
147.708111
 30
0.0
  0
LINE
  5
20f
100
AcDbEntity
  8
Layer_1
 62
7
100
AcDbLine
 10
40.479241
 20
147.708111
 30
0.0
 11
40.479241
 21
147.708111
 31
0.0
  0
SPLINE
  5
210
100
AcDbEntity
  8
Layer_1
 62
7
100
AcDbSpline
 70
8
 71
3
 72
8
 73
4
 74
0
 40
0
 40
0
 40
0
 40
0
 40
1
 40
1
 40
1
 40
1
 10
169.479050
 20
147.708111
 30
0.0
 10
170.307370
 20
147.708031
 30
0.0
 10
170.978834
 20
147.036561
 30
0.0
 10
170.978906
 20
146.208241
 30
0.0
  0
SPLINE
  5
211
100
AcDbEntity
  8
Layer_1
 62
7
100
AcDbSpline
 70
8
 71
3
 72
8
 73
4
 74
0
 40
0
 40
0
 40
0
 40
0
 40
1
 40
1
 40
1
 40
1
 10
170.978906
 20
146.208241
 30
0.0
 10
170.979014
 20
145.810370
 30
0.0
 10
170.821046
 20
145.428757
 30
0.0
 10
170.539761
 20
145.147369
 30
0.0
  0
SPLINE
  5
212
100
AcDbEntity
  8
Layer_1
 62
7
100
AcDbSpline
 70
8
 71
3
 72
8
 73
4
 74
0
 40
0
 40
0
 40
0
 40
0
 40
1
 40
1
 40
1
 40
1
 10
170.539761
 20
145.147369
 30
0.0
 10
170.258476
 20
144.865980
 30
0.0
 10
169.876920
 20
144.707872
 30
0.0
 10
169.479050
 20
144.707834
 30
0.0
  0
SPLINE
  5
213
100
AcDbEntity
  8
Layer_1
 62
7
100
AcDbSpline
 70
8
 71
3
 72
8
 73
4
 74
0
 40
0
 40
0
 40
0
 40
0
 40
1
 40
1
 40
1
 40
1
 10
169.479050
 20
144.707834
 30
0.0
 10
169.081180
 20
144.707872
 30
0.0
 10
168.699625
 20
144.865980
 30
0.0
 10
168.418340
 20
145.147369
 30
0.0
  0
SPLINE
  5
214
100
AcDbEntity
  8
Layer_1
 62
7
100
AcDbSpline
 70
8
 71
3
 72
8
 73
4
 74
0
 40
0
 40
0
 40
0
 40
0
 40
1
 40
1
 40
1
 40
1
 10
168.418340
 20
145.147369
 30
0.0
 10
168.137055
 20
145.428757
 30
0.0
 10
167.979087
 20
145.810370
 30
0.0
 10
167.979194
 20
146.208241
 30
0.0
  0
SPLINE
  5
215
100
AcDbEntity
  8
Layer_1
 62
7
100
AcDbSpline
 70
8
 71
3
 72
8
 73
4
 74
0
 40
0
 40
0
 40
0
 40
0
 40
1
 40
1
 40
1
 40
1
 10
167.979194
 20
146.208241
 30
0.0
 10
167.979266
 20
147.036561
 30
0.0
 10
168.650730
 20
147.708031
 30
0.0
 10
169.479050
 20
147.708111
 30
0.0
  0
LINE
  5
216
100
AcDbEntity
  8
Layer_1
 62
7
100
AcDbLine
 10
169.479050
 20
147.708111
 30
0.0
 11
169.479050
 21
147.708111
 31
0.0
  0
SPLINE
  5
217
100
AcDbEntity
  8
Layer_1
 62
7
100
AcDbSpline
 70
8
 71
3
 72
8
 73
4
 74
0
 40
0
 40
0
 40
0
 40
0
 40
1
 40
1
 40
1
 40
1
 10
187.478986
 20
147.708111
 30
0.0
 10
188.307306
 20
147.708031
 30
0.0
 10
188.978770
 20
147.036561
 30
0.0
 10
188.978842
 20
146.208241
 30
0.0
  0
SPLINE
  5
218
100
AcDbEntity
  8
Layer_1
 62
7
100
AcDbSpline
 70
8
 71
3
 72
8
 73
4
 74
0
 40
0
 40
0
 40
0
 40
0
 40
1
 40
1
 40
1
 40
1
 10
188.978842
 20
146.208241
 30
0.0
 10
188.978950
 20
145.810370
 30
0.0
 10
188.820982
 20
145.428757
 30
0.0
 10
188.539697
 20
145.147369
 30
0.0
  0
SPLINE
  5
219
100
AcDbEntity
  8
Layer_1
 62
7
100
AcDbSpline
 70
8
 71
3
 72
8
 73
4
 74
0
 40
0
 40
0
 40
0
 40
0
 40
1
 40
1
 40
1
 40
1
 10
188.539697
 20
145.147369
 30
0.0
 10
188.258412
 20
144.865980
 30
0.0
 10
187.876856
 20
144.707872
 30
0.0
 10
187.478986
 20
144.707834
 30
0.0
  0
SPLINE
  5
21a
100
AcDbEntity
  8
Layer_1
 62
7
100
AcDbSpline
 70
8
 71
3
 72
8
 73
4
 74
0
 40
0
 40
0
 40
0
 40
0
 40
1
 40
1
 40
1
 40
1
 10
187.478986
 20
144.707834
 30
0.0
 10
187.081115
 20
144.707872
 30
0.0
 10
186.699559
 20
144.865979
 30
0.0
 10
186.418274
 20
145.147368
 30
0.0
  0
SPLINE
  5
21b
100
AcDbEntity
  8
Layer_1
 62
7
100
AcDbSpline
 70
8
 71
3
 72
8
 73
4
 74
0
 40
0
 40
0
 40
0
 40
0
 40
1
 40
1
 40
1
 40
1
 10
186.418274
 20
145.147368
 30
0.0
 10
186.136988
 20
145.428756
 30
0.0
 10
185.979020
 20
145.810370
 30
0.0
 10
185.979127
 20
146.208241
 30
0.0
  0
SPLINE
  5
21c
100
AcDbEntity
  8
Layer_1
 62
7
100
AcDbSpline
 70
8
 71
3
 72
8
 73
4
 74
0
 40
0
 40
0
 40
0
 40
0
 40
1
 40
1
 40
1
 40
1
 10
185.979127
 20
146.208241
 30
0.0
 10
185.979199
 20
147.036562
 30
0.0
 10
186.650665
 20
147.708033
 30
0.0
 10
187.478986
 20
147.708111
 30
0.0
  0
LINE
  5
21d
100
AcDbEntity
  8
Layer_1
 62
7
100
AcDbLine
 10
187.478986
 20
147.708111
 30
0.0
 11
187.478986
 21
147.708111
 31
0.0
  0
SPLINE
  5
21e
100
AcDbEntity
  8
Layer_1
 62
7
100
AcDbSpline
 70
8
 71
3
 72
8
 73
4
 74
0
 40
0
 40
0
 40
0
 40
0
 40
1
 40
1
 40
1
 40
1
 10
31.478999
 20
144.207878
 30
0.0
 10
33.135849
 20
144.207718
 30
0.0
 10
34.478863
 20
142.864451
 30
0.0
 10
34.478711
 20
141.207601
 30
0.0
  0
SPLINE
  5
21f
100
AcDbEntity
  8
Layer_1
 62
7
100
AcDbSpline
 70
8
 71
3
 72
8
 73
4
 74
0
 40
0
 40
0
 40
0
 40
0
 40
1
 40
1
 40
1
 40
1
 10
34.478711
 20
141.207601
 30
0.0
 10
34.478552
 20
139.550972
 30
0.0
 10
33.135628
 20
138.208049
 30
0.0
 10
31.478999
 20
138.207890
 30
0.0
  0
SPLINE
  5
220
100
AcDbEntity
  8
Layer_1
 62
7
100
AcDbSpline
 70
8
 71
3
 72
8
 73
4
 74
0
 40
0
 40
0
 40
0
 40
0
 40
1
 40
1
 40
1
 40
1
 10
31.478999
 20
138.207890
 30
0.0
 10
29.822154
 20
138.207743
 30
0.0
 10
28.478893
 20
139.550756
 30
0.0
 10
28.478734
 20
141.207601
 30
0.0
  0
SPLINE
  5
221
100
AcDbEntity
  8
Layer_1
 62
7
100
AcDbSpline
 70
8
 71
3
 72
8
 73
4
 74
0
 40
0
 40
0
 40
0
 40
0
 40
1
 40
1
 40
1
 40
1
 10
28.478734
 20
141.207601
 30
0.0
 10
28.478661
 20
142.003345
 30
0.0
 10
28.794735
 20
142.766518
 30
0.0
 10
29.357410
 20
143.329194
 30
0.0
  0
SPLINE
  5
222
100
AcDbEntity
  8
Layer_1
 62
7
100
AcDbSpline
 70
8
 71
3
 72
8
 73
4
 74
0
 40
0
 40
0
 40
0
 40
0
 40
1
 40
1
 40
1
 40
1
 10
29.357410
 20
143.329194
 30
0.0
 10
29.920084
 20
143.891871
 30
0.0
 10
30.683256
 20
144.207948
 30
0.0
 10
31.478999
 20
144.207878
 30
0.0
  0
LINE
  5
223
100
AcDbEntity
  8
Layer_1
 62
7
100
AcDbLine
 10
31.478999
 20
144.207878
 30
0.0
 11
31.478999
 21
144.207878
 31
0.0
  0
SPLINE
  5
224
100
AcDbEntity
  8
Layer_1
 62
7
100
AcDbSpline
 70
8
 71
3
 72
8
 73
4
 74
0
 40
0
 40
0
 40
0
 40
0
 40
1
 40
1
 40
1
 40
1
 10
70.490156
 20
144.207878
 30
0.0
 10
72.147007
 20
144.207708
 30
0.0
 10
73.490023
 20
142.864443
 30
0.0
 10
73.489871
 20
141.207601
 30
0.0
  0
SPLINE
  5
225
100
AcDbEntity
  8
Layer_1
 62
7
100
AcDbSpline
 70
8
 71
3
 72
8
 73
4
 74
0
 40
0
 40
0
 40
0
 40
0
 40
1
 40
1
 40
1
 40
1
 10
73.489871
 20
141.207601
 30
0.0
 10
73.489713
 20
139.550985
 30
0.0
 10
72.146787
 20
138.208059
 30
0.0
 10
70.490156
 20
138.207890
 30
0.0
  0
SPLINE
  5
226
100
AcDbEntity
  8
Layer_1
 62
7
100
AcDbSpline
 70
8
 71
3
 72
8
 73
4
 74
0
 40
0
 40
0
 40
0
 40
0
 40
1
 40
1
 40
1
 40
1
 10
70.490156
 20
138.207890
 30
0.0
 10
68.833311
 20
138.207749
 30
0.0
 10
67.490049
 20
139.550759
 30
0.0
 10
67.489891
 20
141.207601
 30
0.0
  0
SPLINE
  5
227
100
AcDbEntity
  8
Layer_1
 62
7
100
AcDbSpline
 70
8
 71
3
 72
8
 73
4
 74
0
 40
0
 40
0
 40
0
 40
0
 40
1
 40
1
 40
1
 40
1
 10
67.489891
 20
141.207601
 30
0.0
 10
67.489739
 20
142.864669
 30
0.0
 10
68.833091
 20
144.208019
 30
0.0
 10
70.490156
 20
144.207878
 30
0.0
  0
LINE
  5
228
100
AcDbEntity
  8
Layer_1
 62
7
100
AcDbLine
 10
70.490156
 20
144.207878
 30
0.0
 11
70.490156
 21
144.207878
 31
0.0
  0
SPLINE
  5
229
100
AcDbEntity
  8
Layer_1
 62
7
100
AcDbSpline
 70
8
 71
3
 72
8
 73
4
 74
0
 40
0
 40
0
 40
0
 40
0
 40
1
 40
1
 40
1
 40
1
 10
139.767996
 20
144.207878
 30
0.0
 10
141.424846
 20
144.207708
 30
0.0
 10
142.767863
 20
142.864443
 30
0.0
 10
142.767710
 20
141.207601
 30
0.0
  0
SPLINE
  5
22a
100
AcDbEntity
  8
Layer_1
 62
7
100
AcDbSpline
 70
8
 71
3
 72
8
 73
4
 74
0
 40
0
 40
0
 40
0
 40
0
 40
1
 40
1
 40
1
 40
1
 10
142.767710
 20
141.207601
 30
0.0
 10
142.767552
 20
139.550985
 30
0.0
 10
141.424626
 20
138.208059
 30
0.0
 10
139.767996
 20
138.207890
 30
0.0
  0
SPLINE
  5
22b
100
AcDbEntity
  8
Layer_1
 62
7
100
AcDbSpline
 70
8
 71
3
 72
8
 73
4
 74
0
 40
0
 40
0
 40
0
 40
0
 40
1
 40
1
 40
1
 40
1
 10
139.767996
 20
138.207890
 30
0.0
 10
138.111151
 20
138.207749
 30
0.0
 10
136.767889
 20
139.550759
 30
0.0
 10
136.767731
 20
141.207601
 30
0.0
  0
SPLINE
  5
22c
100
AcDbEntity
  8
Layer_1
 62
7
100
AcDbSpline
 70
8
 71
3
 72
8
 73
4
 74
0
 40
0
 40
0
 40
0
 40
0
 40
1
 40
1
 40
1
 40
1
 10
136.767731
 20
141.207601
 30
0.0
 10
136.767578
 20
142.864669
 30
0.0
 10
138.110931
 20
144.208019
 30
0.0
 10
139.767996
 20
144.207878
 30
0.0
  0
LINE
  5
22d
100
AcDbEntity
  8
Layer_1
 62
7
100
AcDbLine
 10
139.767996
 20
144.207878
 30
0.0
 11
139.767996
 21
144.207878
 31
0.0
  0
SPLINE
  5
22e
100
AcDbEntity
  8
Layer_1
 62
7
100
AcDbSpline
 70
8
 71
3
 72
8
 73
4
 74
0
 40
0
 40
0
 40
0
 40
0
 40
1
 40
1
 40
1
 40
1
 10
178.480946
 20
144.199693
 30
0.0
 10
180.137796
 20
144.199536
 30
0.0
 10
181.480813
 20
142.856268
 30
0.0
 10
181.480660
 20
141.199417
 30
0.0
  0
SPLINE
  5
22f
100
AcDbEntity
  8
Layer_1
 62
7
100
AcDbSpline
 70
8
 71
3
 72
8
 73
4
 74
0
 40
0
 40
0
 40
0
 40
0
 40
1
 40
1
 40
1
 40
1
 10
181.480660
 20
141.199417
 30
0.0
 10
181.480501
 20
139.542787
 30
0.0
 10
180.137576
 20
138.199863
 30
0.0
 10
178.480946
 20
138.199705
 30
0.0
  0
SPLINE
  5
230
100
AcDbEntity
  8
Layer_1
 62
7
100
AcDbSpline
 70
8
 71
3
 72
8
 73
4
 74
0
 40
0
 40
0
 40
0
 40
0
 40
1
 40
1
 40
1
 40
1
 10
178.480946
 20
138.199705
 30
0.0
 10
176.824101
 20
138.199559
 30
0.0
 10
175.480840
 20
139.542572
 30
0.0
 10
175.480681
 20
141.199417
 30
0.0
  0
SPLINE
  5
231
100
AcDbEntity
  8
Layer_1
 62
7
100
AcDbSpline
 70
8
 71
3
 72
8
 73
4
 74
0
 40
0
 40
0
 40
0
 40
0
 40
1
 40
1
 40
1
 40
1
 10
175.480681
 20
141.199417
 30
0.0
 10
175.480608
 20
141.995160
 30
0.0
 10
175.796682
 20
142.758333
 30
0.0
 10
176.359356
 20
143.321010
 30
0.0
  0
SPLINE
  5
232
100
AcDbEntity
  8
Layer_1
 62
7
100
AcDbSpline
 70
8
 71
3
 72
8
 73
4
 74
0
 40
0
 40
0
 40
0
 40
0
 40
1
 40
1
 40
1
 40
1
 10
176.359356
 20
143.321010
 30
0.0
 10
176.922031
 20
143.883686
 30
0.0
 10
177.685203
 20
144.199763
 30
0.0
 10
178.480946
 20
144.199693
 30
0.0
  0
LINE
  5
233
100
AcDbEntity
  8
Layer_1
 62
7
100
AcDbLine
 10
178.480946
 20
144.199693
 30
0.0
 11
178.480946
 21
144.199693
 31
0.0
  0
SPLINE
  5
234
100
AcDbEntity
  8
Layer_1
 62
7
100
AcDbSpline
 70
8
 71
3
 72
8
 73
4
 74
0
 40
0
 40
0
 40
0
 40
0
 40
1
 40
1
 40
1
 40
1
 10
11.978654
 20
143.208049
 30
0.0
 10
13.083506
 20
143.208247
 30
0.0
 10
13.979215
 20
142.312530
 30
0.0
 10
13.979014
 20
141.207686
 30
0.0
  0
SPLINE
  5
235
100
AcDbEntity
  8
Layer_1
 62
7
100
AcDbSpline
 70
8
 71
3
 72
8
 73
4
 74
0
 40
0
 40
0
 40
0
 40
0
 40
1
 40
1
 40
1
 40
1
 10
13.979014
 20
141.207686
 30
0.0
 10
13.978904
 20
140.103068
 30
0.0
 10
13.083286
 20
139.207690
 30
0.0
 10
11.978654
 20
139.207888
 30
0.0
  0
SPLINE
  5
236
100
AcDbEntity
  8
Layer_1
 62
7
100
AcDbSpline
 70
8
 71
3
 72
8
 73
4
 74
0
 40
0
 40
0
 40
0
 40
0
 40
1
 40
1
 40
1
 40
1
 10
11.978654
 20
139.207888
 30
0.0
 10
10.874240
 20
139.208001
 30
0.0
 10
9.978958
 20
140.103266
 30
0.0
 10
9.978845
 20
141.207686
 30
0.0
  0
SPLINE
  5
237
100
AcDbEntity
  8
Layer_1
 62
7
100
AcDbSpline
 70
8
 71
3
 72
8
 73
4
 74
0
 40
0
 40
0
 40
0
 40
0
 40
1
 40
1
 40
1
 40
1
 10
9.978845
 20
141.207686
 30
0.0
 10
9.978644
 20
142.312332
 30
0.0
 10
10.874017
 20
143.207936
 30
0.0
 10
11.978654
 20
143.208049
 30
0.0
  0
LINE
  5
238
100
AcDbEntity
  8
Layer_1
 62
7
100
AcDbLine
 10
11.978654
 20
143.208049
 30
0.0
 11
11.978654
 21
143.208049
 31
0.0
  0
SPLINE
  5
239
100
AcDbEntity
  8
Layer_1
 62
7
100
AcDbSpline
 70
8
 71
3
 72
8
 73
4
 74
0
 40
0
 40
0
 40
0
 40
0
 40
1
 40
1
 40
1
 40
1
 10
197.979086
 20
143.208049
 30
0.0
 10
199.083713
 20
143.207936
 30
0.0
 10
199.979094
 20
142.312332
 30
0.0
 10
199.978893
 20
141.207686
 30
0.0
  0
SPLINE
  5
23a
100
AcDbEntity
  8
Layer_1
 62
7
100
AcDbSpline
 70
8
 71
3
 72
8
 73
4
 74
0
 40
0
 40
0
 40
0
 40
0
 40
1
 40
1
 40
1
 40
1
 10
199.978893
 20
141.207686
 30
0.0
 10
199.978783
 20
140.103266
 30
0.0
 10
199.083498
 20
139.208001
 30
0.0
 10
197.979086
 20
139.207888
 30
0.0
  0
SPLINE
  5
23b
100
AcDbEntity
  8
Layer_1
 62
7
100
AcDbSpline
 70
8
 71
3
 72
8
 73
4
 74
0
 40
0
 40
0
 40
0
 40
0
 40
1
 40
1
 40
1
 40
1
 10
197.979086
 20
139.207888
 30
0.0
 10
196.874669
 20
139.208001
 30
0.0
 10
195.979387
 20
140.103266
 30
0.0
 10
195.979277
 20
141.207686
 30
0.0
  0
SPLINE
  5
23c
100
AcDbEntity
  8
Layer_1
 62
7
100
AcDbSpline
 70
8
 71
3
 72
8
 73
4
 74
0
 40
0
 40
0
 40
0
 40
0
 40
1
 40
1
 40
1
 40
1
 10
195.979277
 20
141.207686
 30
0.0
 10
195.979076
 20
142.312332
 30
0.0
 10
196.874440
 20
143.207936
 30
0.0
 10
197.979086
 20
143.208049
 30
0.0
  0
LINE
  5
23d
100
AcDbEntity
  8
Layer_1
 62
7
100
AcDbLine
 10
197.979086
 20
143.208049
 30
0.0
 11
197.979086
 21
143.208049
 31
0.0
  0
SPLINE
  5
23e
100
AcDbEntity
  8
Layer_1
 62
7
100
AcDbSpline
 70
8
 71
3
 72
8
 73
4
 74
0
 40
0
 40
0
 40
0
 40
0
 40
1
 40
1
 40
1
 40
1
 10
104.978595
 20
137.934021
 30
0.0
 10
105.807118
 20
137.934247
 30
0.0
 10
106.478914
 20
137.262699
 30
0.0
 10
106.479001
 20
136.434179
 30
0.0
  0
SPLINE
  5
23f
100
AcDbEntity
  8
Layer_1
 62
7
100
AcDbSpline
 70
8
 71
3
 72
8
 73
4
 74
0
 40
0
 40
0
 40
0
 40
0
 40
1
 40
1
 40
1
 40
1
 10
106.479001
 20
136.434179
 30
0.0
 10
106.478931
 20
135.605631
 30
0.0
 10
105.807129
 20
134.934084
 30
0.0
 10
104.978595
 20
134.934309
 30
0.0
  0
SPLINE
  5
240
100
AcDbEntity
  8
Layer_1
 62
7
100
AcDbSpline
 70
8
 71
3
 72
8
 73
4
 74
0
 40
0
 40
0
 40
0
 40
0
 40
1
 40
1
 40
1
 40
1
 10
104.978595
 20
134.934309
 30
0.0
 10
104.150273
 20
134.934394
 30
0.0
 10
103.478813
 20
135.605857
 30
0.0
 10
103.478736
 20
136.434179
 30
0.0
  0
SPLINE
  5
241
100
AcDbEntity
  8
Layer_1
 62
7
100
AcDbSpline
 70
8
 71
3
 72
8
 73
4
 74
0
 40
0
 40
0
 40
0
 40
0
 40
1
 40
1
 40
1
 40
1
 10
103.478736
 20
136.434179
 30
0.0
 10
103.478827
 20
137.262502
 30
0.0
 10
104.150284
 20
137.933937
 30
0.0
 10
104.978595
 20
137.934021
 30
0.0
  0
LINE
  5
242
100
AcDbEntity
  8
Layer_1
 62
7
100
AcDbLine
 10
104.978595
 20
137.934021
 30
0.0
 11
104.978595
 21
137.934021
 31
0.0
  0
SPLINE
  5
243
100
AcDbEntity
  8
Layer_1
 62
7
100
AcDbSpline
 70
8
 71
3
 72
8
 73
4
 74
0
 40
0
 40
0
 40
0
 40
0
 40
1
 40
1
 40
1
 40
1
 10
22.478755
 20
134.708306
 30
0.0
 10
22.876721
 20
134.708414
 30
0.0
 10
23.258418
 20
134.550371
 30
0.0
 10
23.539823
 20
134.268967
 30
0.0
  0
SPLINE
  5
244
100
AcDbEntity
  8
Layer_1
 62
7
100
AcDbSpline
 70
8
 71
3
 72
8
 73
4
 74
0
 40
0
 40
0
 40
0
 40
0
 40
1
 40
1
 40
1
 40
1
 10
23.539823
 20
134.268967
 30
0.0
 10
23.821228
 20
133.987563
 30
0.0
 10
23.979272
 20
133.605866
 30
0.0
 10
23.979164
 20
133.207900
 30
0.0
  0
SPLINE
  5
245
100
AcDbEntity
  8
Layer_1
 62
7
100
AcDbSpline
 70
8
 71
3
 72
8
 73
4
 74
0
 40
0
 40
0
 40
0
 40
0
 40
1
 40
1
 40
1
 40
1
 10
23.979164
 20
133.207900
 30
0.0
 10
23.979122
 20
132.810031
 30
0.0
 10
23.821012
 20
132.428479
 30
0.0
 10
23.539623
 20
132.147197
 30
0.0
  0
SPLINE
  5
246
100
AcDbEntity
  8
Layer_1
 62
7
100
AcDbSpline
 70
8
 71
3
 72
8
 73
4
 74
0
 40
0
 40
0
 40
0
 40
0
 40
1
 40
1
 40
1
 40
1
 10
23.539623
 20
132.147197
 30
0.0
 10
23.258235
 20
131.865915
 30
0.0
 10
22.876623
 20
131.707949
 30
0.0
 10
22.478755
 20
131.708058
 30
0.0
  0
SPLINE
  5
247
100
AcDbEntity
  8
Layer_1
 62
7
100
AcDbSpline
 70
8
 71
3
 72
8
 73
4
 74
0
 40
0
 40
0
 40
0
 40
0
 40
1
 40
1
 40
1
 40
1
 10
22.478755
 20
131.708058
 30
0.0
 10
21.650446
 20
131.708137
 30
0.0
 10
20.978986
 20
132.379591
 30
0.0
 10
20.978899
 20
133.207900
 30
0.0
  0
SPLINE
  5
248
100
AcDbEntity
  8
Layer_1
 62
7
100
AcDbSpline
 70
8
 71
3
 72
8
 73
4
 74
0
 40
0
 40
0
 40
0
 40
0
 40
1
 40
1
 40
1
 40
1
 10
20.978899
 20
133.207900
 30
0.0
 10
20.978791
 20
133.605770
 30
0.0
 10
21.136759
 20
133.987383
 30
0.0
 10
21.418044
 20
134.268771
 30
0.0
  0
SPLINE
  5
249
100
AcDbEntity
  8
Layer_1
 62
7
100
AcDbSpline
 70
8
 71
3
 72
8
 73
4
 74
0
 40
0
 40
0
 40
0
 40
0
 40
1
 40
1
 40
1
 40
1
 10
21.418044
 20
134.268771
 30
0.0
 10
21.699329
 20
134.550160
 30
0.0
 10
22.080885
 20
134.708268
 30
0.0
 10
22.478755
 20
134.708306
 30
0.0
  0
LINE
  5
24a
100
AcDbEntity
  8
Layer_1
 62
7
100
AcDbLine
 10
22.478755
 20
134.708306
 30
0.0
 11
22.478755
 21
134.708306
 31
0.0
  0
SPLINE
  5
24b
100
AcDbEntity
  8
Layer_1
 62
7
100
AcDbSpline
 70
8
 71
3
 72
8
 73
4
 74
0
 40
0
 40
0
 40
0
 40
0
 40
1
 40
1
 40
1
 40
1
 10
40.479241
 20
134.708306
 30
0.0
 10
40.877111
 20
134.708268
 30
0.0
 10
41.258667
 20
134.550161
 30
0.0
 10
41.539953
 20
134.268772
 30
0.0
  0
SPLINE
  5
24c
100
AcDbEntity
  8
Layer_1
 62
7
100
AcDbSpline
 70
8
 71
3
 72
8
 73
4
 74
0
 40
0
 40
0
 40
0
 40
0
 40
1
 40
1
 40
1
 40
1
 10
41.539953
 20
134.268772
 30
0.0
 10
41.821239
 20
133.987384
 30
0.0
 10
41.979207
 20
133.605770
 30
0.0
 10
41.979099
 20
133.207900
 30
0.0
  0
SPLINE
  5
24d
100
AcDbEntity
  8
Layer_1
 62
7
100
AcDbSpline
 70
8
 71
3
 72
8
 73
4
 74
0
 40
0
 40
0
 40
0
 40
0
 40
1
 40
1
 40
1
 40
1
 10
41.979099
 20
133.207900
 30
0.0
 10
41.979012
 20
132.379589
 30
0.0
 10
41.307551
 20
131.708136
 30
0.0
 10
40.479241
 20
131.708058
 30
0.0
  0
SPLINE
  5
24e
100
AcDbEntity
  8
Layer_1
 62
7
100
AcDbSpline
 70
8
 71
3
 72
8
 73
4
 74
0
 40
0
 40
0
 40
0
 40
0
 40
1
 40
1
 40
1
 40
1
 10
40.479241
 20
131.708058
 30
0.0
 10
40.081373
 20
131.707950
 30
0.0
 10
39.699762
 20
131.865916
 30
0.0
 10
39.418374
 20
132.147198
 30
0.0
  0
SPLINE
  5
24f
100
AcDbEntity
  8
Layer_1
 62
7
100
AcDbSpline
 70
8
 71
3
 72
8
 73
4
 74
0
 40
0
 40
0
 40
0
 40
0
 40
1
 40
1
 40
1
 40
1
 10
39.418374
 20
132.147198
 30
0.0
 10
39.136986
 20
132.428480
 30
0.0
 10
38.978876
 20
132.810032
 30
0.0
 10
38.978834
 20
133.207900
 30
0.0
  0
SPLINE
  5
250
100
AcDbEntity
  8
Layer_1
 62
7
100
AcDbSpline
 70
8
 71
3
 72
8
 73
4
 74
0
 40
0
 40
0
 40
0
 40
0
 40
1
 40
1
 40
1
 40
1
 10
38.978834
 20
133.207900
 30
0.0
 10
38.978727
 20
133.605865
 30
0.0
 10
39.136770
 20
133.987562
 30
0.0
 10
39.418174
 20
134.268966
 30
0.0
  0
SPLINE
  5
251
100
AcDbEntity
  8
Layer_1
 62
7
100
AcDbSpline
 70
8
 71
3
 72
8
 73
4
 74
0
 40
0
 40
0
 40
0
 40
0
 40
1
 40
1
 40
1
 40
1
 10
39.418174
 20
134.268966
 30
0.0
 10
39.699578
 20
134.550370
 30
0.0
 10
40.081275
 20
134.708414
 30
0.0
 10
40.479241
 20
134.708306
 30
0.0
  0
LINE
  5
252
100
AcDbEntity
  8
Layer_1
 62
7
100
AcDbLine
 10
40.479241
 20
134.708306
 30
0.0
 11
40.479241
 21
134.708306
 31
0.0
  0
SPLINE
  5
253
100
AcDbEntity
  8
Layer_1
 62
7
100
AcDbSpline
 70
8
 71
3
 72
8
 73
4
 74
0
 40
0
 40
0
 40
0
 40
0
 40
1
 40
1
 40
1
 40
1
 10
169.479050
 20
134.708306
 30
0.0
 10
169.876920
 20
134.708268
 30
0.0
 10
170.258476
 20
134.550160
 30
0.0
 10
170.539761
 20
134.268771
 30
0.0
  0
SPLINE
  5
254
100
AcDbEntity
  8
Layer_1
 62
7
100
AcDbSpline
 70
8
 71
3
 72
8
 73
4
 74
0
 40
0
 40
0
 40
0
 40
0
 40
1
 40
1
 40
1
 40
1
 10
170.539761
 20
134.268771
 30
0.0
 10
170.821046
 20
133.987383
 30
0.0
 10
170.979014
 20
133.605770
 30
0.0
 10
170.978906
 20
133.207900
 30
0.0
  0
SPLINE
  5
255
100
AcDbEntity
  8
Layer_1
 62
7
100
AcDbSpline
 70
8
 71
3
 72
8
 73
4
 74
0
 40
0
 40
0
 40
0
 40
0
 40
1
 40
1
 40
1
 40
1
 10
170.978906
 20
133.207900
 30
0.0
 10
170.978819
 20
132.379591
 30
0.0
 10
170.307359
 20
131.708137
 30
0.0
 10
169.479050
 20
131.708058
 30
0.0
  0
SPLINE
  5
256
100
AcDbEntity
  8
Layer_1
 62
7
100
AcDbSpline
 70
8
 71
3
 72
8
 73
4
 74
0
 40
0
 40
0
 40
0
 40
0
 40
1
 40
1
 40
1
 40
1
 10
169.479050
 20
131.708058
 30
0.0
 10
168.650741
 20
131.708137
 30
0.0
 10
167.979282
 20
132.379591
 30
0.0
 10
167.979194
 20
133.207900
 30
0.0
  0
SPLINE
  5
257
100
AcDbEntity
  8
Layer_1
 62
7
100
AcDbSpline
 70
8
 71
3
 72
8
 73
4
 74
0
 40
0
 40
0
 40
0
 40
0
 40
1
 40
1
 40
1
 40
1
 10
167.979194
 20
133.207900
 30
0.0
 10
167.979087
 20
133.605770
 30
0.0
 10
168.137055
 20
133.987383
 30
0.0
 10
168.418340
 20
134.268771
 30
0.0
  0
SPLINE
  5
258
100
AcDbEntity
  8
Layer_1
 62
7
100
AcDbSpline
 70
8
 71
3
 72
8
 73
4
 74
0
 40
0
 40
0
 40
0
 40
0
 40
1
 40
1
 40
1
 40
1
 10
168.418340
 20
134.268771
 30
0.0
 10
168.699625
 20
134.550160
 30
0.0
 10
169.081180
 20
134.708268
 30
0.0
 10
169.479050
 20
134.708306
 30
0.0
  0
LINE
  5
259
100
AcDbEntity
  8
Layer_1
 62
7
100
AcDbLine
 10
169.479050
 20
134.708306
 30
0.0
 11
169.479050
 21
134.708306
 31
0.0
  0
SPLINE
  5
25a
100
AcDbEntity
  8
Layer_1
 62
7
100
AcDbSpline
 70
8
 71
3
 72
8
 73
4
 74
0
 40
0
 40
0
 40
0
 40
0
 40
1
 40
1
 40
1
 40
1
 10
187.478986
 20
134.708306
 30
0.0
 10
187.876856
 20
134.708268
 30
0.0
 10
188.258412
 20
134.550160
 30
0.0
 10
188.539697
 20
134.268771
 30
0.0
  0
SPLINE
  5
25b
100
AcDbEntity
  8
Layer_1
 62
7
100
AcDbSpline
 70
8
 71
3
 72
8
 73
4
 74
0
 40
0
 40
0
 40
0
 40
0
 40
1
 40
1
 40
1
 40
1
 10
188.539697
 20
134.268771
 30
0.0
 10
188.820982
 20
133.987383
 30
0.0
 10
188.978950
 20
133.605770
 30
0.0
 10
188.978842
 20
133.207900
 30
0.0
  0
SPLINE
  5
25c
100
AcDbEntity
  8
Layer_1
 62
7
100
AcDbSpline
 70
8
 71
3
 72
8
 73
4
 74
0
 40
0
 40
0
 40
0
 40
0
 40
1
 40
1
 40
1
 40
1
 10
188.978842
 20
133.207900
 30
0.0
 10
188.978755
 20
132.379591
 30
0.0
 10
188.307295
 20
131.708137
 30
0.0
 10
187.478986
 20
131.708058
 30
0.0
  0
SPLINE
  5
25d
100
AcDbEntity
  8
Layer_1
 62
7
100
AcDbSpline
 70
8
 71
3
 72
8
 73
4
 74
0
 40
0
 40
0
 40
0
 40
0
 40
1
 40
1
 40
1
 40
1
 10
187.478986
 20
131.708058
 30
0.0
 10
186.650676
 20
131.708136
 30
0.0
 10
185.979215
 20
132.379589
 30
0.0
 10
185.979127
 20
133.207900
 30
0.0
  0
SPLINE
  5
25e
100
AcDbEntity
  8
Layer_1
 62
7
100
AcDbSpline
 70
8
 71
3
 72
8
 73
4
 74
0
 40
0
 40
0
 40
0
 40
0
 40
1
 40
1
 40
1
 40
1
 10
185.979127
 20
133.207900
 30
0.0
 10
185.979020
 20
133.605770
 30
0.0
 10
186.136988
 20
133.987384
 30
0.0
 10
186.418274
 20
134.268772
 30
0.0
  0
SPLINE
  5
25f
100
AcDbEntity
  8
Layer_1
 62
7
100
AcDbSpline
 70
8
 71
3
 72
8
 73
4
 74
0
 40
0
 40
0
 40
0
 40
0
 40
1
 40
1
 40
1
 40
1
 10
186.418274
 20
134.268772
 30
0.0
 10
186.699559
 20
134.550161
 30
0.0
 10
187.081115
 20
134.708268
 30
0.0
 10
187.478986
 20
134.708306
 30
0.0
  0
LINE
  5
260
100
AcDbEntity
  8
Layer_1
 62
7
100
AcDbLine
 10
187.478986
 20
134.708306
 30
0.0
 11
187.478986
 21
134.708306
 31
0.0
  0
SPLINE
  5
261
100
AcDbEntity
  8
Layer_1
 62
7
100
AcDbSpline
 70
8
 71
3
 72
8
 73
4
 74
0
 40
0
 40
0
 40
0
 40
0
 40
1
 40
1
 40
1
 40
1
 10
11.978654
 20
133.207900
 30
0.0
 10
13.083286
 20
133.208097
 30
0.0
 10
13.978904
 20
132.312719
 30
0.0
 10
13.979014
 20
131.208101
 30
0.0
  0
SPLINE
  5
262
100
AcDbEntity
  8
Layer_1
 62
7
100
AcDbSpline
 70
8
 71
3
 72
8
 73
4
 74
0
 40
0
 40
0
 40
0
 40
0
 40
1
 40
1
 40
1
 40
1
 10
13.979014
 20
131.208101
 30
0.0
 10
13.978904
 20
130.103483
 30
0.0
 10
13.083286
 20
129.208105
 30
0.0
 10
11.978654
 20
129.208303
 30
0.0
  0
SPLINE
  5
263
100
AcDbEntity
  8
Layer_1
 62
7
100
AcDbSpline
 70
8
 71
3
 72
8
 73
4
 74
0
 40
0
 40
0
 40
0
 40
0
 40
1
 40
1
 40
1
 40
1
 10
11.978654
 20
129.208303
 30
0.0
 10
10.874240
 20
129.208416
 30
0.0
 10
9.978958
 20
130.103681
 30
0.0
 10
9.978845
 20
131.208101
 30
0.0
  0
SPLINE
  5
264
100
AcDbEntity
  8
Layer_1
 62
7
100
AcDbSpline
 70
8
 71
3
 72
8
 73
4
 74
0
 40
0
 40
0
 40
0
 40
0
 40
1
 40
1
 40
1
 40
1
 10
9.978845
 20
131.208101
 30
0.0
 10
9.978958
 20
132.312521
 30
0.0
 10
10.874240
 20
133.207787
 30
0.0
 10
11.978654
 20
133.207900
 30
0.0
  0
LINE
  5
265
100
AcDbEntity
  8
Layer_1
 62
7
100
AcDbLine
 10
11.978654
 20
133.207900
 30
0.0
 11
11.978654
 21
133.207900
 31
0.0
  0
SPLINE
  5
266
100
AcDbEntity
  8
Layer_1
 62
7
100
AcDbSpline
 70
8
 71
3
 72
8
 73
4
 74
0
 40
0
 40
0
 40
0
 40
0
 40
1
 40
1
 40
1
 40
1
 10
71.978988
 20
133.207900
 30
0.0
 10
73.083406
 20
133.207787
 30
0.0
 10
73.978688
 20
132.312521
 30
0.0
 10
73.978798
 20
131.208101
 30
0.0
  0
SPLINE
  5
267
100
AcDbEntity
  8
Layer_1
 62
7
100
AcDbSpline
 70
8
 71
3
 72
8
 73
4
 74
0
 40
0
 40
0
 40
0
 40
0
 40
1
 40
1
 40
1
 40
1
 10
73.978798
 20
131.208101
 30
0.0
 10
73.978688
 20
130.103681
 30
0.0
 10
73.083406
 20
129.208416
 30
0.0
 10
71.978988
 20
129.208303
 30
0.0
  0
SPLINE
  5
268
100
AcDbEntity
  8
Layer_1
 62
7
100
AcDbSpline
 70
8
 71
3
 72
8
 73
4
 74
0
 40
0
 40
0
 40
0
 40
0
 40
1
 40
1
 40
1
 40
1
 10
71.978988
 20
129.208303
 30
0.0
 10
70.874357
 20
129.208105
 30
0.0
 10
69.978738
 20
130.103483
 30
0.0
 10
69.978628
 20
131.208101
 30
0.0
  0
SPLINE
  5
269
100
AcDbEntity
  8
Layer_1
 62
7
100
AcDbSpline
 70
8
 71
3
 72
8
 73
4
 74
0
 40
0
 40
0
 40
0
 40
0
 40
1
 40
1
 40
1
 40
1
 10
69.978628
 20
131.208101
 30
0.0
 10
69.978738
 20
132.312719
 30
0.0
 10
70.874357
 20
133.208097
 30
0.0
 10
71.978988
 20
133.207900
 30
0.0
  0
LINE
  5
26a
100
AcDbEntity
  8
Layer_1
 62
7
100
AcDbLine
 10
71.978988
 20
133.207900
 30
0.0
 11
71.978988
 21
133.207900
 31
0.0
  0
SPLINE
  5
26b
100
AcDbEntity
  8
Layer_1
 62
7
100
AcDbSpline
 70
8
 71
3
 72
8
 73
4
 74
0
 40
0
 40
0
 40
0
 40
0
 40
1
 40
1
 40
1
 40
1
 10
137.979302
 20
133.207900
 30
0.0
 10
139.083720
 20
133.207787
 30
0.0
 10
139.979002
 20
132.312521
 30
0.0
 10
139.979112
 20
131.208101
 30
0.0
  0
SPLINE
  5
26c
100
AcDbEntity
  8
Layer_1
 62
7
100
AcDbSpline
 70
8
 71
3
 72
8
 73
4
 74
0
 40
0
 40
0
 40
0
 40
0
 40
1
 40
1
 40
1
 40
1
 10
139.979112
 20
131.208101
 30
0.0
 10
139.979002
 20
130.103681
 30
0.0
 10
139.083720
 20
129.208416
 30
0.0
 10
137.979302
 20
129.208303
 30
0.0
  0
SPLINE
  5
26d
100
AcDbEntity
  8
Layer_1
 62
7
100
AcDbSpline
 70
8
 71
3
 72
8
 73
4
 74
0
 40
0
 40
0
 40
0
 40
0
 40
1
 40
1
 40
1
 40
1
 10
137.979302
 20
129.208303
 30
0.0
 10
136.874671
 20
129.208105
 30
0.0
 10
135.979052
 20
130.103483
 30
0.0
 10
135.978942
 20
131.208101
 30
0.0
  0
SPLINE
  5
26e
100
AcDbEntity
  8
Layer_1
 62
7
100
AcDbSpline
 70
8
 71
3
 72
8
 73
4
 74
0
 40
0
 40
0
 40
0
 40
0
 40
1
 40
1
 40
1
 40
1
 10
135.978942
 20
131.208101
 30
0.0
 10
135.979052
 20
132.312719
 30
0.0
 10
136.874671
 20
133.208097
 30
0.0
 10
137.979302
 20
133.207900
 30
0.0
  0
LINE
  5
26f
100
AcDbEntity
  8
Layer_1
 62
7
100
AcDbLine
 10
137.979302
 20
133.207900
 30
0.0
 11
137.979302
 21
133.207900
 31
0.0
  0
SPLINE
  5
270
100
AcDbEntity
  8
Layer_1
 62
7
100
AcDbSpline
 70
8
 71
3
 72
8
 73
4
 74
0
 40
0
 40
0
 40
0
 40
0
 40
1
 40
1
 40
1
 40
1
 10
197.979086
 20
133.207900
 30
0.0
 10
199.083498
 20
133.207787
 30
0.0
 10
199.978783
 20
132.312521
 30
0.0
 10
199.978893
 20
131.208101
 30
0.0
  0
SPLINE
  5
271
100
AcDbEntity
  8
Layer_1
 62
7
100
AcDbSpline
 70
8
 71
3
 72
8
 73
4
 74
0
 40
0
 40
0
 40
0
 40
0
 40
1
 40
1
 40
1
 40
1
 10
199.978893
 20
131.208101
 30
0.0
 10
199.978783
 20
130.103681
 30
0.0
 10
199.083493
 20
129.208416
 30
0.0
 10
197.979086
 20
129.208303
 30
0.0
  0
SPLINE
  5
272
100
AcDbEntity
  8
Layer_1
 62
7
100
AcDbSpline
 70
8
 71
3
 72
8
 73
4
 74
0
 40
0
 40
0
 40
0
 40
0
 40
1
 40
1
 40
1
 40
1
 10
197.979086
 20
129.208303
 30
0.0
 10
196.874669
 20
129.208416
 30
0.0
 10
195.979387
 20
130.103681
 30
0.0
 10
195.979277
 20
131.208101
 30
0.0
  0
SPLINE
  5
273
100
AcDbEntity
  8
Layer_1
 62
7
100
AcDbSpline
 70
8
 71
3
 72
8
 73
4
 74
0
 40
0
 40
0
 40
0
 40
0
 40
1
 40
1
 40
1
 40
1
 10
195.979277
 20
131.208101
 30
0.0
 10
195.979387
 20
132.312521
 30
0.0
 10
196.874661
 20
133.207787
 30
0.0
 10
197.979086
 20
133.207900
 30
0.0
  0
LINE
  5
274
100
AcDbEntity
  8
Layer_1
 62
7
100
AcDbLine
 10
197.979086
 20
133.207900
 30
0.0
 11
197.979086
 21
133.207900
 31
0.0
  0
SPLINE
  5
275
100
AcDbEntity
  8
Layer_1
 62
7
100
AcDbSpline
 70
8
 71
3
 72
8
 73
4
 74
0
 40
0
 40
0
 40
0
 40
0
 40
1
 40
1
 40
1
 40
1
 10
124.028595
 20
125.144726
 30
0.0
 10
124.857118
 20
125.144952
 30
0.0
 10
125.528914
 20
124.473404
 30
0.0
 10
125.529001
 20
123.644884
 30
0.0
  0
SPLINE
  5
276
100
AcDbEntity
  8
Layer_1
 62
7
100
AcDbSpline
 70
8
 71
3
 72
8
 73
4
 74
0
 40
0
 40
0
 40
0
 40
0
 40
1
 40
1
 40
1
 40
1
 10
125.529001
 20
123.644884
 30
0.0
 10
125.528931
 20
122.816336
 30
0.0
 10
124.857129
 20
122.144789
 30
0.0
 10
124.028595
 20
122.145014
 30
0.0
  0
SPLINE
  5
277
100
AcDbEntity
  8
Layer_1
 62
7
100
AcDbSpline
 70
8
 71
3
 72
8
 73
4
 74
0
 40
0
 40
0
 40
0
 40
0
 40
1
 40
1
 40
1
 40
1
 10
124.028595
 20
122.145014
 30
0.0
 10
123.200273
 20
122.145099
 30
0.0
 10
122.528813
 20
122.816562
 30
0.0
 10
122.528736
 20
123.644884
 30
0.0
  0
SPLINE
  5
278
100
AcDbEntity
  8
Layer_1
 62
7
100
AcDbSpline
 70
8
 71
3
 72
8
 73
4
 74
0
 40
0
 40
0
 40
0
 40
0
 40
1
 40
1
 40
1
 40
1
 10
122.528736
 20
123.644884
 30
0.0
 10
122.528827
 20
124.473207
 30
0.0
 10
123.200284
 20
125.144641
 30
0.0
 10
124.028595
 20
125.144726
 30
0.0
  0
LINE
  5
279
100
AcDbEntity
  8
Layer_1
 62
7
100
AcDbLine
 10
124.028595
 20
125.144726
 30
0.0
 11
124.028595
 21
125.144726
 31
0.0
  0
SPLINE
  5
27a
100
AcDbEntity
  8
Layer_1
 62
7
100
AcDbSpline
 70
8
 71
3
 72
8
 73
4
 74
0
 40
0
 40
0
 40
0
 40
0
 40
1
 40
1
 40
1
 40
1
 10
96.174032
 20
125.059862
 30
0.0
 10
97.002354
 20
125.059777
 30
0.0
 10
97.673820
 20
124.388314
 30
0.0
 10
97.673891
 20
123.559992
 30
0.0
  0
SPLINE
  5
27b
100
AcDbEntity
  8
Layer_1
 62
7
100
AcDbSpline
 70
8
 71
3
 72
8
 73
4
 74
0
 40
0
 40
0
 40
0
 40
0
 40
1
 40
1
 40
1
 40
1
 10
97.673891
 20
123.559992
 30
0.0
 10
97.673820
 20
122.731670
 30
0.0
 10
97.002354
 20
122.060207
 30
0.0
 10
96.174032
 20
122.060122
 30
0.0
  0
SPLINE
  5
27c
100
AcDbEntity
  8
Layer_1
 62
7
100
AcDbSpline
 70
8
 71
3
 72
8
 73
4
 74
0
 40
0
 40
0
 40
0
 40
0
 40
1
 40
1
 40
1
 40
1
 10
96.174032
 20
122.060122
 30
0.0
 10
95.345498
 20
122.059896
 30
0.0
 10
94.673697
 20
122.731444
 30
0.0
 10
94.673626
 20
123.559992
 30
0.0
  0
SPLINE
  5
27d
100
AcDbEntity
  8
Layer_1
 62
7
100
AcDbSpline
 70
8
 71
3
 72
8
 73
4
 74
0
 40
0
 40
0
 40
0
 40
0
 40
1
 40
1
 40
1
 40
1
 10
94.673626
 20
123.559992
 30
0.0
 10
94.673697
 20
124.388540
 30
0.0
 10
95.345498
 20
125.060088
 30
0.0
 10
96.174032
 20
125.059862
 30
0.0
  0
LINE
  5
27e
100
AcDbEntity
  8
Layer_1
 62
7
100
AcDbLine
 10
96.174032
 20
125.059862
 30
0.0
 11
96.174032
 21
125.059862
 31
0.0
  0
LINE
  5
27f
100
AcDbEntity
  8
Layer_1
 62
7
100
AcDbLine
 10
65.667574
 20
112.310247
 30
0.0
 11
67.667934
 21
112.310247
 31
0.0
  0
LINE
  5
280
100
AcDbEntity
  8
Layer_1
 62
7
100
AcDbLine
 10
67.667934
 20
112.310247
 30
0.0
 11
67.667934
 21
100.310271
 31
0.0
  0
LINE
  5
281
100
AcDbEntity
  8
Layer_1
 62
7
100
AcDbLine
 10
67.667934
 20
100.310271
 30
0.0
 11
65.667574
 21
100.310271
 31
0.0
  0
LINE
  5
282
100
AcDbEntity
  8
Layer_1
 62
7
100
AcDbLine
 10
65.667574
 20
100.310271
 30
0.0
 11
65.667574
 21
112.310247
 31
0.0
  0
LINE
  5
283
100
AcDbEntity
  8
Layer_1
 62
7
100
AcDbLine
 10
65.667574
 20
112.310247
 30
0.0
 11
65.667574
 21
112.310247
 31
0.0
  0
LINE
  5
284
100
AcDbEntity
  8
Layer_1
 62
7
100
AcDbLine
 10
142.290357
 20
112.310247
 30
0.0
 11
144.290167
 21
112.310247
 31
0.0
  0
LINE
  5
285
100
AcDbEntity
  8
Layer_1
 62
7
100
AcDbLine
 10
144.290167
 20
112.310247
 30
0.0
 11
144.290167
 21
100.310271
 31
0.0
  0
LINE
  5
286
100
AcDbEntity
  8
Layer_1
 62
7
100
AcDbLine
 10
144.290167
 20
100.310271
 30
0.0
 11
142.290357
 21
100.310271
 31
0.0
  0
LINE
  5
287
100
AcDbEntity
  8
Layer_1
 62
7
100
AcDbLine
 10
142.290357
 20
100.310271
 30
0.0
 11
142.290357
 21
112.310247
 31
0.0
  0
LINE
  5
288
100
AcDbEntity
  8
Layer_1
 62
7
100
AcDbLine
 10
142.290357
 20
112.310247
 30
0.0
 11
142.290357
 21
112.310247
 31
0.0
  0
SPLINE
  5
289
100
AcDbEntity
  8
Layer_1
 62
7
100
AcDbSpline
 70
8
 71
3
 72
8
 73
4
 74
0
 40
0
 40
0
 40
0
 40
0
 40
1
 40
1
 40
1
 40
1
 10
104.978595
 20
106.310259
 30
0.0
 10
105.807341
 20
106.310485
 30
0.0
 10
106.479227
 20
105.638599
 30
0.0
 10
106.479001
 20
104.809853
 30
0.0
  0
SPLINE
  5
28a
100
AcDbEntity
  8
Layer_1
 62
7
100
AcDbSpline
 70
8
 71
3
 72
8
 73
4
 74
0
 40
0
 40
0
 40
0
 40
0
 40
1
 40
1
 40
1
 40
1
 10
106.479001
 20
104.809853
 30
0.0
 10
106.478931
 20
103.981305
 30
0.0
 10
105.807129
 20
103.309757
 30
0.0
 10
104.978595
 20
103.309983
 30
0.0
  0
SPLINE
  5
28b
100
AcDbEntity
  8
Layer_1
 62
7
100
AcDbSpline
 70
8
 71
3
 72
8
 73
4
 74
0
 40
0
 40
0
 40
0
 40
0
 40
1
 40
1
 40
1
 40
1
 10
104.978595
 20
103.309983
 30
0.0
 10
104.150273
 20
103.310068
 30
0.0
 10
103.478813
 20
103.981531
 30
0.0
 10
103.478736
 20
104.809853
 30
0.0
  0
SPLINE
  5
28c
100
AcDbEntity
  8
Layer_1
 62
7
100
AcDbSpline
 70
8
 71
3
 72
8
 73
4
 74
0
 40
0
 40
0
 40
0
 40
0
 40
1
 40
1
 40
1
 40
1
 10
103.478736
 20
104.809853
 30
0.0
 10
103.478511
 20
105.638373
 30
0.0
 10
104.150064
 20
106.310175
 30
0.0
 10
104.978595
 20
106.310259
 30
0.0
  0
LINE
  5
28d
100
AcDbEntity
  8
Layer_1
 62
7
100
AcDbLine
 10
104.978595
 20
106.310259
 30
0.0
 11
104.978595
 21
106.310259
 31
0.0
  0
LINE
  5
28e
100
AcDbEntity
  8
Layer_1
 62
7
100
AcDbLine
 10
135.289922
 20
97.463242
 30
0.0
 11
140.289997
 21
97.463242
 31
0.0
  0
LINE
  5
28f
100
AcDbEntity
  8
Layer_1
 62
7
100
AcDbLine
 10
140.289997
 20
97.463242
 30
0.0
 11
140.289997
 21
88.463006
 31
0.0
  0
LINE
  5
290
100
AcDbEntity
  8
Layer_1
 62
7
100
AcDbLine
 10
140.289997
 20
88.463006
 30
0.0
 11
143.740053
 21
88.463006
 31
0.0
  0
LINE
  5
291
100
AcDbEntity
  8
Layer_1
 62
7
100
AcDbLine
 10
143.740053
 20
88.463006
 30
0.0
 11
143.740053
 21
82.463046
 31
0.0
  0
LINE
  5
292
100
AcDbEntity
  8
Layer_1
 62
7
100
AcDbLine
 10
143.740053
 20
82.463046
 30
0.0
 11
140.289997
 21
82.463046
 31
0.0
  0
LINE
  5
293
100
AcDbEntity
  8
Layer_1
 62
7
100
AcDbLine
 10
140.289997
 20
82.463046
 30
0.0
 11
140.289997
 21
73.463346
 31
0.0
  0
LINE
  5
294
100
AcDbEntity
  8
Layer_1
 62
7
100
AcDbLine
 10
140.289997
 20
73.463346
 30
0.0
 11
135.289922
 21
73.463346
 31
0.0
  0
LINE
  5
295
100
AcDbEntity
  8
Layer_1
 62
7
100
AcDbLine
 10
135.289922
 20
73.463346
 30
0.0
 11
135.289922
 21
82.463046
 31
0.0
  0
LINE
  5
296
100
AcDbEntity
  8
Layer_1
 62
7
100
AcDbLine
 10
135.289922
 20
82.463046
 30
0.0
 11
131.840419
 21
82.463046
 31
0.0
  0
LINE
  5
297
100
AcDbEntity
  8
Layer_1
 62
7
100
AcDbLine
 10
131.840419
 20
82.463046
 30
0.0
 11
131.840419
 21
88.463006
 31
0.0
  0
LINE
  5
298
100
AcDbEntity
  8
Layer_1
 62
7
100
AcDbLine
 10
131.840419
 20
88.463006
 30
0.0
 11
135.289922
 21
88.463006
 31
0.0
  0
LINE
  5
299
100
AcDbEntity
  8
Layer_1
 62
7
100
AcDbLine
 10
135.289922
 20
88.463006
 30
0.0
 11
135.289922
 21
97.463242
 31
0.0
  0
LINE
  5
29a
100
AcDbEntity
  8
Layer_1
 62
7
100
AcDbLine
 10
135.289922
 20
97.463242
 30
0.0
 11
135.289922
 21
97.463242
 31
0.0
  0
LINE
  5
29b
100
AcDbEntity
  8
Layer_1
 62
7
100
AcDbLine
 10
69.642389
 20
97.427964
 30
0.0
 11
74.642461
 21
97.427964
 31
0.0
  0
LINE
  5
29c
100
AcDbEntity
  8
Layer_1
 62
7
100
AcDbLine
 10
74.642461
 20
97.427964
 30
0.0
 11
74.642461
 21
88.427728
 31
0.0
  0
LINE
  5
29d
100
AcDbEntity
  8
Layer_1
 62
7
100
AcDbLine
 10
74.642461
 20
88.427728
 30
0.0
 11
78.091967
 21
88.427728
 31
0.0
  0
LINE
  5
29e
100
AcDbEntity
  8
Layer_1
 62
7
100
AcDbLine
 10
78.091967
 20
88.427728
 30
0.0
 11
78.091967
 21
82.427768
 31
0.0
  0
LINE
  5
29f
100
AcDbEntity
  8
Layer_1
 62
7
100
AcDbLine
 10
78.091967
 20
82.427768
 30
0.0
 11
74.642461
 21
82.427768
 31
0.0
  0
LINE
  5
2a0
100
AcDbEntity
  8
Layer_1
 62
7
100
AcDbLine
 10
74.642461
 20
82.427768
 30
0.0
 11
74.642461
 21
73.428068
 31
0.0
  0
LINE
  5
2a1
100
AcDbEntity
  8
Layer_1
 62
7
100
AcDbLine
 10
74.642461
 20
73.428068
 30
0.0
 11
69.642389
 21
73.428068
 31
0.0
  0
LINE
  5
2a2
100
AcDbEntity
  8
Layer_1
 62
7
100
AcDbLine
 10
69.642389
 20
73.428068
 30
0.0
 11
69.642389
 21
82.427768
 31
0.0
  0
LINE
  5
2a3
100
AcDbEntity
  8
Layer_1
 62
7
100
AcDbLine
 10
69.642389
 20
82.427768
 30
0.0
 11
66.192332
 21
82.427768
 31
0.0
  0
LINE
  5
2a4
100
AcDbEntity
  8
Layer_1
 62
7
100
AcDbLine
 10
66.192332
 20
82.427768
 30
0.0
 11
66.192332
 21
88.427728
 31
0.0
  0
LINE
  5
2a5
100
AcDbEntity
  8
Layer_1
 62
7
100
AcDbLine
 10
66.192332
 20
88.427728
 30
0.0
 11
69.642389
 21
88.427728
 31
0.0
  0
LINE
  5
2a6
100
AcDbEntity
  8
Layer_1
 62
7
100
AcDbLine
 10
69.642389
 20
88.427728
 30
0.0
 11
69.642389
 21
97.427964
 31
0.0
  0
LINE
  5
2a7
100
AcDbEntity
  8
Layer_1
 62
7
100
AcDbLine
 10
69.642389
 20
97.427964
 30
0.0
 11
69.642389
 21
97.427964
 31
0.0
  0
SPLINE
  5
2a8
100
AcDbEntity
  8
Layer_1
 62
7
100
AcDbSpline
 70
8
 71
3
 72
8
 73
4
 74
0
 40
0
 40
0
 40
0
 40
0
 40
1
 40
1
 40
1
 40
1
 10
96.978809
 20
91.175528
 30
0.0
 10
97.807334
 20
91.175528
 30
0.0
 10
98.478890
 20
90.503642
 30
0.0
 10
98.478665
 20
89.675122
 30
0.0
  0
SPLINE
  5
2a9
100
AcDbEntity
  8
Layer_1
 62
7
100
AcDbSpline
 70
8
 71
3
 72
8
 73
4
 74
0
 40
0
 40
0
 40
0
 40
0
 40
1
 40
1
 40
1
 40
1
 10
98.478665
 20
89.675122
 30
0.0
 10
98.478577
 20
88.846800
 30
0.0
 10
97.807117
 20
88.175365
 30
0.0
 10
96.978809
 20
88.175280
 30
0.0
  0
SPLINE
  5
2aa
100
AcDbEntity
  8
Layer_1
 62
7
100
AcDbSpline
 70
8
 71
3
 72
8
 73
4
 74
0
 40
0
 40
0
 40
0
 40
0
 40
1
 40
1
 40
1
 40
1
 10
96.978809
 20
88.175280
 30
0.0
 10
96.150498
 20
88.175365
 30
0.0
 10
95.479037
 20
88.846800
 30
0.0
 10
95.478950
 20
89.675122
 30
0.0
  0
SPLINE
  5
2ab
100
AcDbEntity
  8
Layer_1
 62
7
100
AcDbSpline
 70
8
 71
3
 72
8
 73
4
 74
0
 40
0
 40
0
 40
0
 40
0
 40
1
 40
1
 40
1
 40
1
 10
95.478950
 20
89.675122
 30
0.0
 10
95.478724
 20
90.503642
 30
0.0
 10
96.150275
 20
91.175500
 30
0.0
 10
96.978809
 20
91.175528
 30
0.0
  0
LINE
  5
2ac
100
AcDbEntity
  8
Layer_1
 62
7
100
AcDbLine
 10
96.978809
 20
91.175528
 30
0.0
 11
96.978809
 21
91.175528
 31
0.0
  0
SPLINE
  5
2ad
100
AcDbEntity
  8
Layer_1
 62
7
100
AcDbSpline
 70
8
 71
3
 72
8
 73
4
 74
0
 40
0
 40
0
 40
0
 40
0
 40
1
 40
1
 40
1
 40
1
 10
104.978595
 20
91.175528
 30
0.0
 10
105.807341
 20
91.175528
 30
0.0
 10
106.479227
 20
90.503867
 30
0.0
 10
106.479001
 20
89.675122
 30
0.0
  0
SPLINE
  5
2ae
100
AcDbEntity
  8
Layer_1
 62
7
100
AcDbSpline
 70
8
 71
3
 72
8
 73
4
 74
0
 40
0
 40
0
 40
0
 40
0
 40
1
 40
1
 40
1
 40
1
 10
106.479001
 20
89.675122
 30
0.0
 10
106.478914
 20
88.846602
 30
0.0
 10
105.807118
 20
88.175054
 30
0.0
 10
104.978595
 20
88.175280
 30
0.0
  0
SPLINE
  5
2af
100
AcDbEntity
  8
Layer_1
 62
7
100
AcDbSpline
 70
8
 71
3
 72
8
 73
4
 74
0
 40
0
 40
0
 40
0
 40
0
 40
1
 40
1
 40
1
 40
1
 10
104.978595
 20
88.175280
 30
0.0
 10
104.150284
 20
88.175365
 30
0.0
 10
103.478832
 20
88.846800
 30
0.0
 10
103.478736
 20
89.675122
 30
0.0
  0
SPLINE
  5
2b0
100
AcDbEntity
  8
Layer_1
 62
7
100
AcDbSpline
 70
8
 71
3
 72
8
 73
4
 74
0
 40
0
 40
0
 40
0
 40
0
 40
1
 40
1
 40
1
 40
1
 10
103.478736
 20
89.675122
 30
0.0
 10
103.478511
 20
90.503642
 30
0.0
 10
104.150064
 20
91.175500
 30
0.0
 10
104.978595
 20
91.175528
 30
0.0
  0
LINE
  5
2b1
100
AcDbEntity
  8
Layer_1
 62
7
100
AcDbLine
 10
104.978595
 20
91.175528
 30
0.0
 11
104.978595
 21
91.175528
 31
0.0
  0
SPLINE
  5
2b2
100
AcDbEntity
  8
Layer_1
 62
7
100
AcDbSpline
 70
8
 71
3
 72
8
 73
4
 74
0
 40
0
 40
0
 40
0
 40
0
 40
1
 40
1
 40
1
 40
1
 10
112.978932
 20
91.175528
 30
0.0
 10
113.807463
 20
91.175528
 30
0.0
 10
114.479016
 20
90.503642
 30
0.0
 10
114.478791
 20
89.675122
 30
0.0
  0
SPLINE
  5
2b3
100
AcDbEntity
  8
Layer_1
 62
7
100
AcDbSpline
 70
8
 71
3
 72
8
 73
4
 74
0
 40
0
 40
0
 40
0
 40
0
 40
1
 40
1
 40
1
 40
1
 10
114.478791
 20
89.675122
 30
0.0
 10
114.478703
 20
88.846800
 30
0.0
 10
113.807243
 20
88.175365
 30
0.0
 10
112.978932
 20
88.175280
 30
0.0
  0
SPLINE
  5
2b4
100
AcDbEntity
  8
Layer_1
 62
7
100
AcDbSpline
 70
8
 71
3
 72
8
 73
4
 74
0
 40
0
 40
0
 40
0
 40
0
 40
1
 40
1
 40
1
 40
1
 10
112.978932
 20
88.175280
 30
0.0
 10
112.150409
 20
88.175054
 30
0.0
 10
111.478613
 20
88.846602
 30
0.0
 10
111.478526
 20
89.675122
 30
0.0
  0
SPLINE
  5
2b5
100
AcDbEntity
  8
Layer_1
 62
7
100
AcDbSpline
 70
8
 71
3
 72
8
 73
4
 74
0
 40
0
 40
0
 40
0
 40
0
 40
1
 40
1
 40
1
 40
1
 10
111.478526
 20
89.675122
 30
0.0
 10
111.478300
 20
90.503867
 30
0.0
 10
112.150186
 20
91.175754
 30
0.0
 10
112.978932
 20
91.175528
 30
0.0
  0
LINE
  5
2b6
100
AcDbEntity
  8
Layer_1
 62
7
100
AcDbLine
 10
112.978932
 20
91.175528
 30
0.0
 11
112.978932
 21
91.175528
 31
0.0
  0
SPLINE
  5
2b7
100
AcDbEntity
  8
Layer_1
 62
7
100
AcDbSpline
 70
8
 71
3
 72
8
 73
4
 74
0
 40
0
 40
0
 40
0
 40
0
 40
1
 40
1
 40
1
 40
1
 10
128.290041
 20
86.963164
 30
0.0
 10
129.118140
 20
86.963079
 30
0.0
 10
129.789513
 20
86.291955
 30
0.0
 10
129.789896
 20
85.463858
 30
0.0
  0
SPLINE
  5
2b8
100
AcDbEntity
  8
Layer_1
 62
7
100
AcDbSpline
 70
8
 71
3
 72
8
 73
4
 74
0
 40
0
 40
0
 40
0
 40
0
 40
1
 40
1
 40
1
 40
1
 10
129.789896
 20
85.463858
 30
0.0
 10
129.790461
 20
84.635113
 30
0.0
 10
129.118792
 20
83.962972
 30
0.0
 10
128.290041
 20
83.962888
 30
0.0
  0
SPLINE
  5
2b9
100
AcDbEntity
  8
Layer_1
 62
7
100
AcDbSpline
 70
8
 71
3
 72
8
 73
4
 74
0
 40
0
 40
0
 40
0
 40
0
 40
1
 40
1
 40
1
 40
1
 10
128.290041
 20
83.962888
 30
0.0
 10
127.461075
 20
83.962662
 30
0.0
 10
126.789095
 20
84.634887
 30
0.0
 10
126.789632
 20
85.463858
 30
0.0
  0
SPLINE
  5
2ba
100
AcDbEntity
  8
Layer_1
 62
7
100
AcDbSpline
 70
8
 71
3
 72
8
 73
4
 74
0
 40
0
 40
0
 40
0
 40
0
 40
1
 40
1
 40
1
 40
1
 10
126.789632
 20
85.463858
 30
0.0
 10
126.789914
 20
86.292181
 30
0.0
 10
127.461724
 20
86.963390
 30
0.0
 10
128.290041
 20
86.963164
 30
0.0
  0
LINE
  5
2bb
100
AcDbEntity
  8
Layer_1
 62
7
100
AcDbLine
 10
128.290041
 20
86.963164
 30
0.0
 11
128.290041
 21
86.963164
 31
0.0
  0
SPLINE
  5
2bc
100
AcDbEntity
  8
Layer_1
 62
7
100
AcDbSpline
 70
8
 71
3
 72
8
 73
4
 74
0
 40
0
 40
0
 40
0
 40
0
 40
1
 40
1
 40
1
 40
1
 10
81.642345
 20
86.927886
 30
0.0
 10
82.470659
 20
86.928112
 30
0.0
 10
83.142368
 20
86.256903
 30
0.0
 10
83.142751
 20
85.428581
 30
0.0
  0
SPLINE
  5
2bd
100
AcDbEntity
  8
Layer_1
 62
7
100
AcDbSpline
 70
8
 71
3
 72
8
 73
4
 74
0
 40
0
 40
0
 40
0
 40
0
 40
1
 40
1
 40
1
 40
1
 10
83.142751
 20
85.428581
 30
0.0
 10
83.143316
 20
84.599609
 30
0.0
 10
82.471311
 20
83.927384
 30
0.0
 10
81.642345
 20
83.927610
 30
0.0
  0
SPLINE
  5
2be
100
AcDbEntity
  8
Layer_1
 62
7
100
AcDbSpline
 70
8
 71
3
 72
8
 73
4
 74
0
 40
0
 40
0
 40
0
 40
0
 40
1
 40
1
 40
1
 40
1
 10
81.642345
 20
83.927610
 30
0.0
 10
80.813594
 20
83.927695
 30
0.0
 10
80.141956
 20
84.599835
 30
0.0
 10
80.142486
 20
85.428581
 30
0.0
  0
SPLINE
  5
2bf
100
AcDbEntity
  8
Layer_1
 62
7
100
AcDbSpline
 70
8
 71
3
 72
8
 73
4
 74
0
 40
0
 40
0
 40
0
 40
0
 40
1
 40
1
 40
1
 40
1
 10
80.142486
 20
85.428581
 30
0.0
 10
80.142769
 20
86.256677
 30
0.0
 10
80.814243
 20
86.927801
 30
0.0
 10
81.642345
 20
86.927886
 30
0.0
  0
LINE
  5
2c0
100
AcDbEntity
  8
Layer_1
 62
7
100
AcDbLine
 10
81.642345
 20
86.927886
 30
0.0
 11
81.642345
 21
86.927886
 31
0.0
  0
SPLINE
  5
2c1
100
AcDbEntity
  8
Layer_1
 62
7
100
AcDbSpline
 70
8
 71
3
 72
8
 73
4
 74
0
 40
0
 40
0
 40
0
 40
0
 40
1
 40
1
 40
1
 40
1
 10
104.978595
 20
82.310335
 30
0.0
 10
105.807341
 20
82.310561
 30
0.0
 10
106.479227
 20
81.638675
 30
0.0
 10
106.479001
 20
80.809929
 30
0.0
  0
SPLINE
  5
2c2
100
AcDbEntity
  8
Layer_1
 62
7
100
AcDbSpline
 70
8
 71
3
 72
8
 73
4
 74
0
 40
0
 40
0
 40
0
 40
0
 40
1
 40
1
 40
1
 40
1
 10
106.479001
 20
80.809929
 30
0.0
 10
106.478914
 20
79.981409
 30
0.0
 10
105.807118
 20
79.309862
 30
0.0
 10
104.978595
 20
79.310087
 30
0.0
  0
SPLINE
  5
2c3
100
AcDbEntity
  8
Layer_1
 62
7
100
AcDbSpline
 70
8
 71
3
 72
8
 73
4
 74
0
 40
0
 40
0
 40
0
 40
0
 40
1
 40
1
 40
1
 40
1
 10
104.978595
 20
79.310087
 30
0.0
 10
104.150284
 20
79.310172
 30
0.0
 10
103.478832
 20
79.981607
 30
0.0
 10
103.478736
 20
80.809929
 30
0.0
  0
SPLINE
  5
2c4
100
AcDbEntity
  8
Layer_1
 62
7
100
AcDbSpline
 70
8
 71
3
 72
8
 73
4
 74
0
 40
0
 40
0
 40
0
 40
0
 40
1
 40
1
 40
1
 40
1
 10
103.478736
 20
80.809929
 30
0.0
 10
103.478511
 20
81.638449
 30
0.0
 10
104.150064
 20
82.310251
 30
0.0
 10
104.978595
 20
82.310335
 30
0.0
  0
LINE
  5
2c5
100
AcDbEntity
  8
Layer_1
 62
7
100
AcDbLine
 10
104.978595
 20
82.310335
 30
0.0
 11
104.978595
 21
82.310335
 31
0.0
  0
SPLINE
  5
2c6
100
AcDbEntity
  8
Layer_1
 62
7
100
AcDbSpline
 70
8
 71
3
 72
8
 73
4
 74
0
 40
0
 40
0
 40
0
 40
0
 40
1
 40
1
 40
1
 40
1
 10
80.848595
 20
74.259862
 30
0.0
 10
81.677129
 20
74.260088
 30
0.0
 10
82.348931
 20
73.588540
 30
0.0
 10
82.349001
 20
72.759992
 30
0.0
  0
SPLINE
  5
2c7
100
AcDbEntity
  8
Layer_1
 62
7
100
AcDbSpline
 70
8
 71
3
 72
8
 73
4
 74
0
 40
0
 40
0
 40
0
 40
0
 40
1
 40
1
 40
1
 40
1
 10
82.349001
 20
72.759992
 30
0.0
 10
82.348931
 20
71.931444
 30
0.0
 10
81.677129
 20
71.259896
 30
0.0
 10
80.848595
 20
71.260122
 30
0.0
  0
SPLINE
  5
2c8
100
AcDbEntity
  8
Layer_1
 62
7
100
AcDbSpline
 70
8
 71
3
 72
8
 73
4
 74
0
 40
0
 40
0
 40
0
 40
0
 40
1
 40
1
 40
1
 40
1
 10
80.848595
 20
71.260122
 30
0.0
 10
80.020273
 20
71.260207
 30
0.0
 10
79.348815
 20
71.931670
 30
0.0
 10
79.348736
 20
72.759992
 30
0.0
  0
SPLINE
  5
2c9
100
AcDbEntity
  8
Layer_1
 62
7
100
AcDbSpline
 70
8
 71
3
 72
8
 73
4
 74
0
 40
0
 40
0
 40
0
 40
0
 40
1
 40
1
 40
1
 40
1
 10
79.348736
 20
72.759992
 30
0.0
 10
79.348807
 20
73.588314
 30
0.0
 10
80.020273
 20
74.259777
 30
0.0
 10
80.848595
 20
74.259862
 30
0.0
  0
LINE
  5
2ca
100
AcDbEntity
  8
Layer_1
 62
7
100
AcDbLine
 10
80.848595
 20
74.259862
 30
0.0
 11
80.848595
 21
74.259862
 31
0.0
  0
SPLINE
  5
2cb
100
AcDbEntity
  8
Layer_1
 62
7
100
AcDbSpline
 70
8
 71
3
 72
8
 73
4
 74
0
 40
0
 40
0
 40
0
 40
0
 40
1
 40
1
 40
1
 40
1
 10
129.108595
 20
72.904969
 30
0.0
 10
129.937341
 20
72.905195
 30
0.0
 10
130.609227
 20
72.233309
 30
0.0
 10
130.609001
 20
71.404563
 30
0.0
  0
SPLINE
  5
2cc
100
AcDbEntity
  8
Layer_1
 62
7
100
AcDbSpline
 70
8
 71
3
 72
8
 73
4
 74
0
 40
0
 40
0
 40
0
 40
0
 40
1
 40
1
 40
1
 40
1
 10
130.609001
 20
71.404563
 30
0.0
 10
130.608931
 20
70.576015
 30
0.0
 10
129.937129
 20
69.904467
 30
0.0
 10
129.108595
 20
69.904693
 30
0.0
  0
SPLINE
  5
2cd
100
AcDbEntity
  8
Layer_1
 62
7
100
AcDbSpline
 70
8
 71
3
 72
8
 73
4
 74
0
 40
0
 40
0
 40
0
 40
0
 40
1
 40
1
 40
1
 40
1
 10
129.108595
 20
69.904693
 30
0.0
 10
128.280273
 20
69.904778
 30
0.0
 10
127.608813
 20
70.576241
 30
0.0
 10
127.608736
 20
71.404563
 30
0.0
  0
SPLINE
  5
2ce
100
AcDbEntity
  8
Layer_1
 62
7
100
AcDbSpline
 70
8
 71
3
 72
8
 73
4
 74
0
 40
0
 40
0
 40
0
 40
0
 40
1
 40
1
 40
1
 40
1
 10
127.608736
 20
71.404563
 30
0.0
 10
127.608511
 20
72.233083
 30
0.0
 10
128.280064
 20
72.904885
 30
0.0
 10
129.108595
 20
72.904969
 30
0.0
  0
LINE
  5
2cf
100
AcDbEntity
  8
Layer_1
 62
7
100
AcDbLine
 10
129.108595
 20
72.904969
 30
0.0
 11
129.108595
 21
72.904969
 31
0.0
  0
SPLINE
  5
2d0
100
AcDbEntity
  8
Layer_1
 62
7
100
AcDbSpline
 70
8
 71
3
 72
8
 73
4
 74
0
 40
0
 40
0
 40
0
 40
0
 40
1
 40
1
 40
1
 40
1
 10
49.978886
 20
67.874020
 30
0.0
 10
51.083523
 20
67.873907
 30
0.0
 10
51.978896
 20
66.978303
 30
0.0
 10
51.978695
 20
65.873657
 30
0.0
  0
SPLINE
  5
2d1
100
AcDbEntity
  8
Layer_1
 62
7
100
AcDbSpline
 70
8
 71
3
 72
8
 73
4
 74
0
 40
0
 40
0
 40
0
 40
0
 40
1
 40
1
 40
1
 40
1
 10
51.978695
 20
65.873657
 30
0.0
 10
51.978585
 20
64.769237
 30
0.0
 10
51.083303
 20
63.873971
 30
0.0
 10
49.978886
 20
63.873858
 30
0.0
  0
SPLINE
  5
2d2
100
AcDbEntity
  8
Layer_1
 62
7
100
AcDbSpline
 70
8
 71
3
 72
8
 73
4
 74
0
 40
0
 40
0
 40
0
 40
0
 40
1
 40
1
 40
1
 40
1
 10
49.978886
 20
63.873858
 30
0.0
 10
48.874254
 20
63.873661
 30
0.0
 10
47.978636
 20
64.769011
 30
0.0
 10
47.978526
 20
65.873657
 30
0.0
  0
SPLINE
  5
2d3
100
AcDbEntity
  8
Layer_1
 62
7
100
AcDbSpline
 70
8
 71
3
 72
8
 73
4
 74
0
 40
0
 40
0
 40
0
 40
0
 40
1
 40
1
 40
1
 40
1
 10
47.978526
 20
65.873657
 30
0.0
 10
47.978325
 20
66.978500
 30
0.0
 10
48.874034
 20
67.874217
 30
0.0
 10
49.978886
 20
67.874020
 30
0.0
  0
LINE
  5
2d4
100
AcDbEntity
  8
Layer_1
 62
7
100
AcDbLine
 10
49.978886
 20
67.874020
 30
0.0
 11
49.978886
 21
67.874020
 31
0.0
  0
SPLINE
  5
2d5
100
AcDbEntity
  8
Layer_1
 62
7
100
AcDbSpline
 70
8
 71
3
 72
8
 73
4
 74
0
 40
0
 40
0
 40
0
 40
0
 40
1
 40
1
 40
1
 40
1
 10
59.978482
 20
67.874020
 30
0.0
 10
61.082899
 20
67.873907
 30
0.0
 10
61.978182
 20
66.978641
 30
0.0
 10
61.978292
 20
65.874221
 30
0.0
  0
SPLINE
  5
2d6
100
AcDbEntity
  8
Layer_1
 62
7
100
AcDbSpline
 70
8
 71
3
 72
8
 73
4
 74
0
 40
0
 40
0
 40
0
 40
0
 40
1
 40
1
 40
1
 40
1
 10
61.978292
 20
65.874221
 30
0.0
 10
61.978196
 20
64.769801
 30
0.0
 10
61.082908
 20
63.874507
 30
0.0
 10
59.978482
 20
63.874395
 30
0.0
  0
SPLINE
  5
2d7
100
AcDbEntity
  8
Layer_1
 62
7
100
AcDbSpline
 70
8
 71
3
 72
8
 73
4
 74
0
 40
0
 40
0
 40
0
 40
0
 40
1
 40
1
 40
1
 40
1
 10
59.978482
 20
63.874395
 30
0.0
 10
58.874056
 20
63.874507
 30
0.0
 10
57.978768
 20
64.769801
 30
0.0
 10
57.978672
 20
65.874221
 30
0.0
  0
SPLINE
  5
2d8
100
AcDbEntity
  8
Layer_1
 62
7
100
AcDbSpline
 70
8
 71
3
 72
8
 73
4
 74
0
 40
0
 40
0
 40
0
 40
0
 40
1
 40
1
 40
1
 40
1
 10
57.978672
 20
65.874221
 30
0.0
 10
57.978782
 20
66.978641
 30
0.0
 10
58.874065
 20
67.873907
 30
0.0
 10
59.978482
 20
67.874020
 30
0.0
  0
LINE
  5
2d9
100
AcDbEntity
  8
Layer_1
 62
7
100
AcDbLine
 10
59.978482
 20
67.874020
 30
0.0
 11
59.978482
 21
67.874020
 31
0.0
  0
SPLINE
  5
2da
100
AcDbEntity
  8
Layer_1
 62
7
100
AcDbSpline
 70
8
 71
3
 72
8
 73
4
 74
0
 40
0
 40
0
 40
0
 40
0
 40
1
 40
1
 40
1
 40
1
 10
69.978628
 20
67.874020
 30
0.0
 10
71.083260
 20
67.874217
 30
0.0
 10
71.978878
 20
66.978867
 30
0.0
 10
71.978988
 20
65.874221
 30
0.0
  0
SPLINE
  5
2db
100
AcDbEntity
  8
Layer_1
 62
7
100
AcDbSpline
 70
8
 71
3
 72
8
 73
4
 74
0
 40
0
 40
0
 40
0
 40
0
 40
1
 40
1
 40
1
 40
1
 10
71.978988
 20
65.874221
 30
0.0
 10
71.978893
 20
64.769575
 30
0.0
 10
71.083272
 20
63.874197
 30
0.0
 10
69.978628
 20
63.874395
 30
0.0
  0
SPLINE
  5
2dc
100
AcDbEntity
  8
Layer_1
 62
7
100
AcDbSpline
 70
8
 71
3
 72
8
 73
4
 74
0
 40
0
 40
0
 40
0
 40
0
 40
1
 40
1
 40
1
 40
1
 10
69.978628
 20
63.874395
 30
0.0
 10
68.874203
 20
63.874507
 30
0.0
 10
67.978917
 20
64.769801
 30
0.0
 10
67.978822
 20
65.874221
 30
0.0
  0
SPLINE
  5
2dd
100
AcDbEntity
  8
Layer_1
 62
7
100
AcDbSpline
 70
8
 71
3
 72
8
 73
4
 74
0
 40
0
 40
0
 40
0
 40
0
 40
1
 40
1
 40
1
 40
1
 10
67.978822
 20
65.874221
 30
0.0
 10
67.978932
 20
66.978641
 30
0.0
 10
68.874214
 20
67.873907
 30
0.0
 10
69.978628
 20
67.874020
 30
0.0
  0
LINE
  5
2de
100
AcDbEntity
  8
Layer_1
 62
7
100
AcDbLine
 10
69.978628
 20
67.874020
 30
0.0
 11
69.978628
 21
67.874020
 31
0.0
  0
SPLINE
  5
2df
100
AcDbEntity
  8
Layer_1
 62
7
100
AcDbSpline
 70
8
 71
3
 72
8
 73
4
 74
0
 40
0
 40
0
 40
0
 40
0
 40
1
 40
1
 40
1
 40
1
 10
139.978559
 20
67.874020
 30
0.0
 10
141.083411
 20
67.874217
 30
0.0
 10
141.979119
 20
66.978500
 30
0.0
 10
141.978919
 20
65.873657
 30
0.0
  0
SPLINE
  5
2e0
100
AcDbEntity
  8
Layer_1
 62
7
100
AcDbSpline
 70
8
 71
3
 72
8
 73
4
 74
0
 40
0
 40
0
 40
0
 40
0
 40
1
 40
1
 40
1
 40
1
 10
141.978919
 20
65.873657
 30
0.0
 10
141.978809
 20
64.769011
 30
0.0
 10
141.083191
 20
63.873661
 30
0.0
 10
139.978559
 20
63.873858
 30
0.0
  0
SPLINE
  5
2e1
100
AcDbEntity
  8
Layer_1
 62
7
100
AcDbSpline
 70
8
 71
3
 72
8
 73
4
 74
0
 40
0
 40
0
 40
0
 40
0
 40
1
 40
1
 40
1
 40
1
 10
139.978559
 20
63.873858
 30
0.0
 10
138.874144
 20
63.873971
 30
0.0
 10
137.978862
 20
64.769237
 30
0.0
 10
137.978752
 20
65.873657
 30
0.0
  0
SPLINE
  5
2e2
100
AcDbEntity
  8
Layer_1
 62
7
100
AcDbSpline
 70
8
 71
3
 72
8
 73
4
 74
0
 40
0
 40
0
 40
0
 40
0
 40
1
 40
1
 40
1
 40
1
 10
137.978752
 20
65.873657
 30
0.0
 10
137.978552
 20
66.978303
 30
0.0
 10
138.873924
 20
67.873907
 30
0.0
 10
139.978559
 20
67.874020
 30
0.0
  0
LINE
  5
2e3
100
AcDbEntity
  8
Layer_1
 62
7
100
AcDbLine
 10
139.978559
 20
67.874020
 30
0.0
 11
139.978559
 21
67.874020
 31
0.0
  0
SPLINE
  5
2e4
100
AcDbEntity
  8
Layer_1
 62
7
100
AcDbSpline
 70
8
 71
3
 72
8
 73
4
 74
0
 40
0
 40
0
 40
0
 40
0
 40
1
 40
1
 40
1
 40
1
 10
149.978708
 20
67.874020
 30
0.0
 10
151.083343
 20
67.873907
 30
0.0
 10
151.978716
 20
66.978303
 30
0.0
 10
151.978515
 20
65.873657
 30
0.0
  0
SPLINE
  5
2e5
100
AcDbEntity
  8
Layer_1
 62
7
100
AcDbSpline
 70
8
 71
3
 72
8
 73
4
 74
0
 40
0
 40
0
 40
0
 40
0
 40
1
 40
1
 40
1
 40
1
 10
151.978515
 20
65.873657
 30
0.0
 10
151.978405
 20
64.769237
 30
0.0
 10
151.083123
 20
63.873971
 30
0.0
 10
149.978708
 20
63.873858
 30
0.0
  0
SPLINE
  5
2e6
100
AcDbEntity
  8
Layer_1
 62
7
100
AcDbSpline
 70
8
 71
3
 72
8
 73
4
 74
0
 40
0
 40
0
 40
0
 40
0
 40
1
 40
1
 40
1
 40
1
 10
149.978708
 20
63.873858
 30
0.0
 10
148.874076
 20
63.873661
 30
0.0
 10
147.978458
 20
64.769011
 30
0.0
 10
147.978348
 20
65.873657
 30
0.0
  0
SPLINE
  5
2e7
100
AcDbEntity
  8
Layer_1
 62
7
100
AcDbSpline
 70
8
 71
3
 72
8
 73
4
 74
0
 40
0
 40
0
 40
0
 40
0
 40
1
 40
1
 40
1
 40
1
 10
147.978348
 20
65.873657
 30
0.0
 10
147.978148
 20
66.978500
 30
0.0
 10
148.873856
 20
67.874217
 30
0.0
 10
149.978708
 20
67.874020
 30
0.0
  0
LINE
  5
2e8
100
AcDbEntity
  8
Layer_1
 62
7
100
AcDbLine
 10
149.978708
 20
67.874020
 30
0.0
 11
149.978708
 21
67.874020
 31
0.0
  0
SPLINE
  5
2e9
100
AcDbEntity
  8
Layer_1
 62
7
100
AcDbSpline
 70
8
 71
3
 72
8
 73
4
 74
0
 40
0
 40
0
 40
0
 40
0
 40
1
 40
1
 40
1
 40
1
 10
159.978855
 20
67.874020
 30
0.0
 10
161.083492
 20
67.873907
 30
0.0
 10
161.978865
 20
66.978303
 30
0.0
 10
161.978665
 20
65.873657
 30
0.0
  0
SPLINE
  5
2ea
100
AcDbEntity
  8
Layer_1
 62
7
100
AcDbSpline
 70
8
 71
3
 72
8
 73
4
 74
0
 40
0
 40
0
 40
0
 40
0
 40
1
 40
1
 40
1
 40
1
 10
161.978665
 20
65.873657
 30
0.0
 10
161.978554
 20
64.769237
 30
0.0
 10
161.083272
 20
63.873971
 30
0.0
 10
159.978855
 20
63.873858
 30
0.0
  0
SPLINE
  5
2eb
100
AcDbEntity
  8
Layer_1
 62
7
100
AcDbSpline
 70
8
 71
3
 72
8
 73
4
 74
0
 40
0
 40
0
 40
0
 40
0
 40
1
 40
1
 40
1
 40
1
 10
159.978855
 20
63.873858
 30
0.0
 10
158.874223
 20
63.873661
 30
0.0
 10
157.978605
 20
64.769011
 30
0.0
 10
157.978495
 20
65.873657
 30
0.0
  0
SPLINE
  5
2ec
100
AcDbEntity
  8
Layer_1
 62
7
100
AcDbSpline
 70
8
 71
3
 72
8
 73
4
 74
0
 40
0
 40
0
 40
0
 40
0
 40
1
 40
1
 40
1
 40
1
 10
157.978495
 20
65.873657
 30
0.0
 10
157.978294
 20
66.978500
 30
0.0
 10
158.874003
 20
67.874217
 30
0.0
 10
159.978855
 20
67.874020
 30
0.0
  0
LINE
  5
2ed
100
AcDbEntity
  8
Layer_1
 62
7
100
AcDbLine
 10
159.978855
 20
67.874020
 30
0.0
 11
159.978855
 21
67.874020
 31
0.0
  0
LINE
  5
2ee
100
AcDbEntity
  8
Layer_1
 62
7
100
AcDbLine
 10
60.676872
 20
58.876521
 30
0.0
 11
60.676872
 21
58.876521
 31
0.0
  0
SPLINE
  5
2ef
100
AcDbEntity
  8
Layer_1
 62
7
100
AcDbSpline
 70
8
 71
3
 72
8
 73
4
 74
0
 40
0
 40
0
 40
0
 40
0
 40
1
 40
1
 40
1
 40
1
 10
60.676872
 20
58.876521
 30
0.0
 10
61.079626
 20
58.866643
 30
0.0
 10
61.470026
 20
58.735467
 30
0.0
 10
61.796941
 20
58.500037
 30
0.0
  0
SPLINE
  5
2f0
100
AcDbEntity
  8
Layer_1
 62
7
100
AcDbSpline
 70
8
 71
3
 72
8
 73
4
 74
0
 40
0
 40
0
 40
0
 40
0
 40
1
 40
1
 40
1
 40
1
 10
61.796941
 20
58.500037
 30
0.0
 10
62.693736
 20
57.854510
 30
0.0
 10
62.897125
 20
56.604068
 30
0.0
 10
62.251141
 20
55.707589
 30
0.0
  0
SPLINE
  5
2f1
100
AcDbEntity
  8
Layer_1
 62
7
100
AcDbSpline
 70
8
 71
3
 72
8
 73
4
 74
0
 40
0
 40
0
 40
0
 40
0
 40
1
 40
1
 40
1
 40
1
 10
62.251141
 20
55.707589
 30
0.0
 10
61.725914
 20
54.978581
 30
0.0
 10
60.778988
 20
54.689331
 30
0.0
 10
59.936039
 20
55.000397
 30
0.0
  0
SPLINE
  5
2f2
100
AcDbEntity
  8
Layer_1
 62
7
100
AcDbSpline
 70
8
 71
3
 72
8
 73
4
 74
0
 40
0
 40
0
 40
0
 40
0
 40
1
 40
1
 40
1
 40
1
 10
59.936039
 20
55.000397
 30
0.0
 10
59.766372
 20
55.062965
 30
0.0
 10
59.605977
 20
55.148253
 30
0.0
 10
59.459238
 20
55.253945
 30
0.0
  0
SPLINE
  5
2f3
100
AcDbEntity
  8
Layer_1
 62
7
100
AcDbSpline
 70
8
 71
3
 72
8
 73
4
 74
0
 40
0
 40
0
 40
0
 40
0
 40
1
 40
1
 40
1
 40
1
 10
59.459238
 20
55.253945
 30
0.0
 10
58.562598
 20
55.899274
 30
0.0
 10
58.358984
 20
57.149349
 30
0.0
 10
59.004485
 20
58.045857
 30
0.0
  0
SPLINE
  5
2f4
100
AcDbEntity
  8
Layer_1
 62
7
100
AcDbSpline
 70
8
 71
3
 72
8
 73
4
 74
0
 40
0
 40
0
 40
0
 40
0
 40
1
 40
1
 40
1
 40
1
 10
59.004485
 20
58.045857
 30
0.0
 10
59.361157
 20
58.541128
 30
0.0
 10
59.924448
 20
58.846408
 30
0.0
 10
60.534107
 20
58.874884
 30
0.0
  0
SPLINE
  5
2f5
100
AcDbEntity
  8
Layer_1
 62
7
100
AcDbSpline
 70
8
 71
3
 72
8
 73
4
 74
0
 40
0
 40
0
 40
0
 40
0
 40
1
 40
1
 40
1
 40
1
 10
60.534107
 20
58.874884
 30
0.0
 10
60.581647
 20
58.877707
 30
0.0
 10
60.629264
 20
58.878553
 30
0.0
 10
60.676872
 20
58.877707
 30
0.0
  0
LINE
  5
2f6
100
AcDbEntity
  8
Layer_1
 62
7
100
AcDbLine
 10
60.676872
 20
58.877707
 30
0.0
 11
60.676872
 21
58.876521
 31
0.0
  0
LINE
  5
2f7
100
AcDbEntity
  8
Layer_1
 62
7
100
AcDbLine
 10
149.254410
 20
58.872006
 30
0.0
 11
149.254410
 21
58.872006
 31
0.0
  0
SPLINE
  5
2f8
100
AcDbEntity
  8
Layer_1
 62
7
100
AcDbSpline
 70
8
 71
3
 72
8
 73
4
 74
0
 40
0
 40
0
 40
0
 40
0
 40
1
 40
1
 40
1
 40
1
 10
149.254410
 20
58.872006
 30
0.0
 10
149.310479
 20
58.874828
 30
0.0
 10
149.366684
 20
58.874828
 30
0.0
 10
149.423083
 20
58.872006
 30
0.0
  0
SPLINE
  5
2f9
100
AcDbEntity
  8
Layer_1
 62
7
100
AcDbSpline
 70
8
 71
3
 72
8
 73
4
 74
0
 40
0
 40
0
 40
0
 40
0
 40
1
 40
1
 40
1
 40
1
 10
149.423083
 20
58.872006
 30
0.0
 10
150.032743
 20
58.843529
 30
0.0
 10
150.596033
 20
58.538250
 30
0.0
 10
150.952705
 20
58.042978
 30
0.0
  0
SPLINE
  5
2fa
100
AcDbEntity
  8
Layer_1
 62
7
100
AcDbSpline
 70
8
 71
3
 72
8
 73
4
 74
0
 40
0
 40
0
 40
0
 40
0
 40
1
 40
1
 40
1
 40
1
 10
150.952705
 20
58.042978
 30
0.0
 10
151.598322
 20
57.146612
 30
0.0
 10
151.394959
 20
55.896565
 30
0.0
 10
150.498502
 20
55.251066
 30
0.0
  0
SPLINE
  5
2fb
100
AcDbEntity
  8
Layer_1
 62
7
100
AcDbSpline
 70
8
 71
3
 72
8
 73
4
 74
0
 40
0
 40
0
 40
0
 40
0
 40
1
 40
1
 40
1
 40
1
 10
150.498502
 20
55.251066
 30
0.0
 10
150.351594
 20
55.145318
 30
0.0
 10
150.191010
 20
55.060030
 30
0.0
 10
150.021152
 20
54.997490
 30
0.0
  0
SPLINE
  5
2fc
100
AcDbEntity
  8
Layer_1
 62
7
100
AcDbSpline
 70
8
 71
3
 72
8
 73
4
 74
0
 40
0
 40
0
 40
0
 40
0
 40
1
 40
1
 40
1
 40
1
 10
150.021152
 20
54.997490
 30
0.0
 10
149.178360
 20
54.686707
 30
0.0
 10
148.231756
 20
54.976041
 30
0.0
 10
147.706599
 20
55.704710
 30
0.0
  0
SPLINE
  5
2fd
100
AcDbEntity
  8
Layer_1
 62
7
100
AcDbSpline
 70
8
 71
3
 72
8
 73
4
 74
0
 40
0
 40
0
 40
0
 40
0
 40
1
 40
1
 40
1
 40
1
 10
147.706599
 20
55.704710
 30
0.0
 10
147.060499
 20
56.601020
 30
0.0
 10
147.263637
 20
57.851462
 30
0.0
 10
148.160249
 20
58.497158
 30
0.0
  0
SPLINE
  5
2fe
100
AcDbEntity
  8
Layer_1
 62
7
100
AcDbSpline
 70
8
 71
3
 72
8
 73
4
 74
0
 40
0
 40
0
 40
0
 40
0
 40
1
 40
1
 40
1
 40
1
 10
148.160249
 20
58.497158
 30
0.0
 10
148.480969
 20
58.728129
 30
0.0
 10
148.861938
 20
58.857866
 30
0.0
 10
149.254410
 20
58.872542
 30
0.0
  0
LINE
  5
2ff
100
AcDbEntity
  8
Layer_1
 62
7
100
AcDbLine
 10
149.254410
 20
58.872542
 30
0.0
 11
149.254410
 21
58.872006
 31
0.0
  0
SPLINE
  5
300
100
AcDbEntity
  8
Layer_1
 62
7
100
AcDbSpline
 70
8
 71
3
 72
8
 73
4
 74
0
 40
0
 40
0
 40
0
 40
0
 40
1
 40
1
 40
1
 40
1
 10
104.978595
 20
57.158860
 30
0.0
 10
108.292290
 20
57.158860
 30
0.0
 10
110.978566
 20
54.472556
 30
0.0
 10
110.978572
 20
51.158872
 30
0.0
  0
SPLINE
  5
301
100
AcDbEntity
  8
Layer_1
 62
7
100
AcDbSpline
 70
8
 71
3
 72
8
 73
4
 74
0
 40
0
 40
0
 40
0
 40
0
 40
1
 40
1
 40
1
 40
1
 10
110.978572
 20
51.158872
 30
0.0
 10
110.978549
 20
47.845188
 30
0.0
 10
108.292279
 20
45.158913
 30
0.0
 10
104.978595
 20
45.158913
 30
0.0
  0
SPLINE
  5
302
100
AcDbEntity
  8
Layer_1
 62
7
100
AcDbSpline
 70
8
 71
3
 72
8
 73
4
 74
0
 40
0
 40
0
 40
0
 40
0
 40
1
 40
1
 40
1
 40
1
 10
104.978595
 20
45.158913
 30
0.0
 10
101.664911
 20
45.158913
 30
0.0
 10
98.978638
 20
47.845188
 30
0.0
 10
98.978616
 20
51.158872
 30
0.0
  0
SPLINE
  5
303
100
AcDbEntity
  8
Layer_1
 62
7
100
AcDbSpline
 70
8
 71
3
 72
8
 73
4
 74
0
 40
0
 40
0
 40
0
 40
0
 40
1
 40
1
 40
1
 40
1
 10
98.978616
 20
51.158872
 30
0.0
 10
98.978621
 20
54.472556
 30
0.0
 10
101.664900
 20
57.158860
 30
0.0
 10
104.978595
 20
57.158860
 30
0.0
  0
LINE
  5
304
100
AcDbEntity
  8
Layer_1
 62
7
100
AcDbLine
 10
104.978595
 20
57.158860
 30
0.0
 11
104.978595
 21
57.158860
 31
0.0
  0
LINE
  5
305
100
AcDbEntity
  8
Layer_1
 62
7
100
AcDbLine
 10
70.027687
 20
55.331020
 30
0.0
 11
70.027687
 21
55.331020
 31
0.0
  0
SPLINE
  5
306
100
AcDbEntity
  8
Layer_1
 62
7
100
AcDbSpline
 70
8
 71
3
 72
8
 73
4
 74
0
 40
0
 40
0
 40
0
 40
0
 40
1
 40
1
 40
1
 40
1
 10
70.027687
 20
55.331020
 30
0.0
 10
70.430441
 20
55.321142
 30
0.0
 10
70.820842
 20
55.189965
 30
0.0
 10
71.147757
 20
54.954535
 30
0.0
  0
SPLINE
  5
307
100
AcDbEntity
  8
Layer_1
 62
7
100
AcDbSpline
 70
8
 71
3
 72
8
 73
4
 74
0
 40
0
 40
0
 40
0
 40
0
 40
1
 40
1
 40
1
 40
1
 10
71.147757
 20
54.954535
 30
0.0
 10
72.044552
 20
54.309009
 30
0.0
 10
72.247943
 20
53.058567
 30
0.0
 10
71.601959
 20
52.162088
 30
0.0
  0
SPLINE
  5
308
100
AcDbEntity
  8
Layer_1
 62
7
100
AcDbSpline
 70
8
 71
3
 72
8
 73
4
 74
0
 40
0
 40
0
 40
0
 40
0
 40
1
 40
1
 40
1
 40
1
 10
71.601959
 20
52.162088
 30
0.0
 10
71.076577
 20
51.433277
 30
0.0
 10
70.129679
 20
51.144253
 30
0.0
 10
69.286854
 20
51.455431
 30
0.0
  0
SPLINE
  5
309
100
AcDbEntity
  8
Layer_1
 62
7
100
AcDbSpline
 70
8
 71
3
 72
8
 73
4
 74
0
 40
0
 40
0
 40
0
 40
0
 40
1
 40
1
 40
1
 40
1
 10
69.286854
 20
51.455431
 30
0.0
 10
69.117218
 20
51.517831
 30
0.0
 10
68.956823
 20
51.602949
 30
0.0
 10
68.810053
 20
51.708444
 30
0.0
  0
SPLINE
  5
30a
100
AcDbEntity
  8
Layer_1
 62
7
100
AcDbSpline
 70
8
 71
3
 72
8
 73
4
 74
0
 40
0
 40
0
 40
0
 40
0
 40
1
 40
1
 40
1
 40
1
 10
68.810053
 20
51.708444
 30
0.0
 10
67.913597
 20
52.353942
 30
0.0
 10
67.710233
 20
53.603989
 30
0.0
 10
68.355851
 20
54.500355
 30
0.0
  0
SPLINE
  5
30b
100
AcDbEntity
  8
Layer_1
 62
7
100
AcDbSpline
 70
8
 71
3
 72
8
 73
4
 74
0
 40
0
 40
0
 40
0
 40
0
 40
1
 40
1
 40
1
 40
1
 10
68.355851
 20
54.500355
 30
0.0
 10
68.712523
 20
54.995627
 30
0.0
 10
69.275810
 20
55.300907
 30
0.0
 10
69.885475
 20
55.329383
 30
0.0
  0
SPLINE
  5
30c
100
AcDbEntity
  8
Layer_1
 62
7
100
AcDbSpline
 70
8
 71
3
 72
8
 73
4
 74
0
 40
0
 40
0
 40
0
 40
0
 40
1
 40
1
 40
1
 40
1
 10
69.885475
 20
55.329383
 30
0.0
 10
69.932821
 20
55.332205
 30
0.0
 10
69.980265
 20
55.333052
 30
0.0
 10
70.027687
 20
55.332205
 30
0.0
  0
LINE
  5
30d
100
AcDbEntity
  8
Layer_1
 62
7
100
AcDbLine
 10
70.027687
 20
55.332205
 30
0.0
 11
70.027687
 21
55.331020
 31
0.0
  0
LINE
  5
30e
100
AcDbEntity
  8
Layer_1
 62
7
100
AcDbLine
 10
139.903595
 20
55.326504
 30
0.0
 11
139.903595
 21
55.326504
 31
0.0
  0
SPLINE
  5
30f
100
AcDbEntity
  8
Layer_1
 62
7
100
AcDbSpline
 70
8
 71
3
 72
8
 73
4
 74
0
 40
0
 40
0
 40
0
 40
0
 40
1
 40
1
 40
1
 40
1
 10
139.903595
 20
55.326504
 30
0.0
 10
139.959639
 20
55.329327
 30
0.0
 10
140.015891
 20
55.329327
 30
0.0
 10
140.072265
 20
55.326504
 30
0.0
  0
SPLINE
  5
310
100
AcDbEntity
  8
Layer_1
 62
7
100
AcDbSpline
 70
8
 71
3
 72
8
 73
4
 74
0
 40
0
 40
0
 40
0
 40
0
 40
1
 40
1
 40
1
 40
1
 10
140.072265
 20
55.326504
 30
0.0
 10
140.681924
 20
55.298028
 30
0.0
 10
141.245217
 20
54.992748
 30
0.0
 10
141.601890
 20
54.497477
 30
0.0
  0
SPLINE
  5
311
100
AcDbEntity
  8
Layer_1
 62
7
100
AcDbSpline
 70
8
 71
3
 72
8
 73
4
 74
0
 40
0
 40
0
 40
0
 40
0
 40
1
 40
1
 40
1
 40
1
 10
141.601890
 20
54.497477
 30
0.0
 10
142.247391
 20
53.600969
 30
0.0
 10
142.043777
 20
52.350894
 30
0.0
 10
141.147137
 20
51.705565
 30
0.0
  0
SPLINE
  5
312
100
AcDbEntity
  8
Layer_1
 62
7
100
AcDbSpline
 70
8
 71
3
 72
8
 73
4
 74
0
 40
0
 40
0
 40
0
 40
0
 40
1
 40
1
 40
1
 40
1
 10
141.147137
 20
51.705565
 30
0.0
 10
141.000536
 20
51.600127
 30
0.0
 10
140.840330
 20
51.515009
 30
0.0
 10
140.670887
 20
51.452553
 30
0.0
  0
SPLINE
  5
313
100
AcDbEntity
  8
Layer_1
 62
7
100
AcDbSpline
 70
8
 71
3
 72
8
 73
4
 74
0
 40
0
 40
0
 40
0
 40
0
 40
1
 40
1
 40
1
 40
1
 10
140.670887
 20
51.452553
 30
0.0
 10
139.828061
 20
51.141375
 30
0.0
 10
138.881163
 20
51.430539
 30
0.0
 10
138.355781
 20
52.159209
 30
0.0
  0
SPLINE
  5
314
100
AcDbEntity
  8
Layer_1
 62
7
100
AcDbSpline
 70
8
 71
3
 72
8
 73
4
 74
0
 40
0
 40
0
 40
0
 40
0
 40
1
 40
1
 40
1
 40
1
 10
138.355781
 20
52.159209
 30
0.0
 10
137.709797
 20
53.055716
 30
0.0
 10
137.913189
 20
54.306130
 30
0.0
 10
138.809984
 20
54.951657
 30
0.0
  0
SPLINE
  5
315
100
AcDbEntity
  8
Layer_1
 62
7
100
AcDbSpline
 70
8
 71
3
 72
8
 73
4
 74
0
 40
0
 40
0
 40
0
 40
0
 40
1
 40
1
 40
1
 40
1
 10
138.809984
 20
54.951657
 30
0.0
 10
139.130572
 20
55.182543
 30
0.0
 10
139.511289
 20
55.312280
 30
0.0
 10
139.903595
 20
55.327041
 30
0.0
  0
LINE
  5
316
100
AcDbEntity
  8
Layer_1
 62
7
100
AcDbLine
 10
139.903595
 20
55.327041
 30
0.0
 11
139.903595
 21
55.326504
 31
0.0
  0
LINE
  5
317
100
AcDbEntity
  8
Layer_1
 62
7
100
AcDbLine
 10
79.378502
 20
51.785490
 30
0.0
 11
79.378502
 21
51.785490
 31
0.0
  0
SPLINE
  5
318
100
AcDbEntity
  8
Layer_1
 62
7
100
AcDbSpline
 70
8
 71
3
 72
8
 73
4
 74
0
 40
0
 40
0
 40
0
 40
0
 40
1
 40
1
 40
1
 40
1
 10
79.378502
 20
51.785490
 30
0.0
 10
79.781256
 20
51.775613
 30
0.0
 10
80.171657
 20
51.644436
 30
0.0
 10
80.498572
 20
51.409006
 30
0.0
  0
SPLINE
  5
319
100
AcDbEntity
  8
Layer_1
 62
7
100
AcDbSpline
 70
8
 71
3
 72
8
 73
4
 74
0
 40
0
 40
0
 40
0
 40
0
 40
1
 40
1
 40
1
 40
1
 10
80.498572
 20
51.409006
 30
0.0
 10
81.394828
 20
50.763338
 30
0.0
 10
81.597937
 20
49.513347
 30
0.0
 10
80.952224
 20
48.617123
 30
0.0
  0
SPLINE
  5
31a
100
AcDbEntity
  8
Layer_1
 62
7
100
AcDbSpline
 70
8
 71
3
 72
8
 73
4
 74
0
 40
0
 40
0
 40
0
 40
0
 40
1
 40
1
 40
1
 40
1
 10
80.952224
 20
48.617123
 30
0.0
 10
80.427068
 20
47.888368
 30
0.0
 10
79.480464
 20
47.599119
 30
0.0
 10
78.637669
 20
47.909902
 30
0.0
  0
SPLINE
  5
31b
100
AcDbEntity
  8
Layer_1
 62
7
100
AcDbSpline
 70
8
 71
3
 72
8
 73
4
 74
0
 40
0
 40
0
 40
0
 40
0
 40
1
 40
1
 40
1
 40
1
 10
78.637669
 20
47.909902
 30
0.0
 10
78.468226
 20
47.972358
 30
0.0
 10
78.308019
 20
48.057476
 30
0.0
 10
78.161419
 20
48.162914
 30
0.0
  0
SPLINE
  5
31c
100
AcDbEntity
  8
Layer_1
 62
7
100
AcDbSpline
 70
8
 71
3
 72
8
 73
4
 74
0
 40
0
 40
0
 40
0
 40
0
 40
1
 40
1
 40
1
 40
1
 10
78.161419
 20
48.162914
 30
0.0
 10
77.264779
 20
48.808243
 30
0.0
 10
77.061167
 20
50.058319
 30
0.0
 10
77.706669
 20
50.954826
 30
0.0
  0
SPLINE
  5
31d
100
AcDbEntity
  8
Layer_1
 62
7
100
AcDbSpline
 70
8
 71
3
 72
8
 73
4
 74
0
 40
0
 40
0
 40
0
 40
0
 40
1
 40
1
 40
1
 40
1
 10
77.706669
 20
50.954826
 30
0.0
 10
78.063341
 20
51.450097
 30
0.0
 10
78.626631
 20
51.755377
 30
0.0
 10
79.236291
 20
51.783853
 30
0.0
  0
SPLINE
  5
31e
100
AcDbEntity
  8
Layer_1
 62
7
100
AcDbSpline
 70
8
 71
3
 72
8
 73
4
 74
0
 40
0
 40
0
 40
0
 40
0
 40
1
 40
1
 40
1
 40
1
 10
79.236291
 20
51.783853
 30
0.0
 10
79.283645
 20
51.786676
 30
0.0
 10
79.331081
 20
51.787522
 30
0.0
 10
79.378502
 20
51.786676
 30
0.0
  0
LINE
  5
31f
100
AcDbEntity
  8
Layer_1
 62
7
100
AcDbLine
 10
79.378502
 20
51.786676
 30
0.0
 11
79.378502
 21
51.785490
 31
0.0
  0
LINE
  5
320
100
AcDbEntity
  8
Layer_1
 62
7
100
AcDbLine
 10
130.552780
 20
51.780975
 30
0.0
 11
130.552780
 21
51.780975
 31
0.0
  0
SPLINE
  5
321
100
AcDbEntity
  8
Layer_1
 62
7
100
AcDbSpline
 70
8
 71
3
 72
8
 73
4
 74
0
 40
0
 40
0
 40
0
 40
0
 40
1
 40
1
 40
1
 40
1
 10
130.552780
 20
51.780975
 30
0.0
 10
130.608846
 20
51.783797
 30
0.0
 10
130.665051
 20
51.783797
 30
0.0
 10
130.721450
 20
51.780975
 30
0.0
  0
SPLINE
  5
322
100
AcDbEntity
  8
Layer_1
 62
7
100
AcDbSpline
 70
8
 71
3
 72
8
 73
4
 74
0
 40
0
 40
0
 40
0
 40
0
 40
1
 40
1
 40
1
 40
1
 10
130.721450
 20
51.780975
 30
0.0
 10
131.330912
 20
51.752329
 30
0.0
 10
131.893968
 20
51.447049
 30
0.0
 10
132.250521
 20
50.951947
 30
0.0
  0
SPLINE
  5
323
100
AcDbEntity
  8
Layer_1
 62
7
100
AcDbSpline
 70
8
 71
3
 72
8
 73
4
 74
0
 40
0
 40
0
 40
0
 40
0
 40
1
 40
1
 40
1
 40
1
 10
132.250521
 20
50.951947
 30
0.0
 10
132.896139
 20
50.055581
 30
0.0
 10
132.692778
 20
48.805534
 30
0.0
 10
131.796322
 20
48.160035
 30
0.0
  0
SPLINE
  5
324
100
AcDbEntity
  8
Layer_1
 62
7
100
AcDbSpline
 70
8
 71
3
 72
8
 73
4
 74
0
 40
0
 40
0
 40
0
 40
0
 40
1
 40
1
 40
1
 40
1
 10
131.796322
 20
48.160035
 30
0.0
 10
131.649721
 20
48.054597
 30
0.0
 10
131.489515
 20
47.969479
 30
0.0
 10
131.320072
 20
47.907023
 30
0.0
  0
SPLINE
  5
325
100
AcDbEntity
  8
Layer_1
 62
7
100
AcDbSpline
 70
8
 71
3
 72
8
 73
4
 74
0
 40
0
 40
0
 40
0
 40
0
 40
1
 40
1
 40
1
 40
1
 10
131.320072
 20
47.907023
 30
0.0
 10
130.477119
 20
47.595958
 30
0.0
 10
129.530193
 20
47.885292
 30
0.0
 10
129.004966
 20
48.614244
 30
0.0
  0
SPLINE
  5
326
100
AcDbEntity
  8
Layer_1
 62
7
100
AcDbSpline
 70
8
 71
3
 72
8
 73
4
 74
0
 40
0
 40
0
 40
0
 40
0
 40
1
 40
1
 40
1
 40
1
 10
129.004966
 20
48.614244
 30
0.0
 10
128.359253
 20
49.510469
 30
0.0
 10
128.562362
 20
50.760459
 30
0.0
 10
129.458616
 20
51.406127
 30
0.0
  0
SPLINE
  5
327
100
AcDbEntity
  8
Layer_1
 62
7
100
AcDbSpline
 70
8
 71
3
 72
8
 73
4
 74
0
 40
0
 40
0
 40
0
 40
0
 40
1
 40
1
 40
1
 40
1
 10
129.458616
 20
51.406127
 30
0.0
 10
129.779339
 20
51.637098
 30
0.0
 10
130.160305
 20
51.766835
 30
0.0
 10
130.552780
 20
51.781511
 30
0.0
  0
LINE
  5
328
100
AcDbEntity
  8
Layer_1
 62
7
100
AcDbLine
 10
130.552780
 20
51.781511
 30
0.0
 11
130.552780
 21
51.780975
 31
0.0
  0
SPLINE
  5
329
100
AcDbEntity
  8
Layer_1
 62
7
100
AcDbSpline
 70
8
 71
3
 72
8
 73
4
 74
0
 40
0
 40
0
 40
0
 40
0
 40
1
 40
1
 40
1
 40
1
 10
94.978446
 20
49.156647
 30
0.0
 10
96.083298
 20
49.156844
 30
0.0
 10
96.979009
 20
48.261127
 30
0.0
 10
96.978809
 20
47.156284
 30
0.0
  0
SPLINE
  5
32a
100
AcDbEntity
  8
Layer_1
 62
7
100
AcDbSpline
 70
8
 71
3
 72
8
 73
4
 74
0
 40
0
 40
0
 40
0
 40
0
 40
1
 40
1
 40
1
 40
1
 10
96.978809
 20
47.156284
 30
0.0
 10
96.978699
 20
46.051638
 30
0.0
 10
96.083078
 20
45.156288
 30
0.0
 10
94.978446
 20
45.156485
 30
0.0
  0
SPLINE
  5
32b
100
AcDbEntity
  8
Layer_1
 62
7
100
AcDbSpline
 70
8
 71
3
 72
8
 73
4
 74
0
 40
0
 40
0
 40
0
 40
0
 40
1
 40
1
 40
1
 40
1
 10
94.978446
 20
45.156485
 30
0.0
 10
93.874031
 20
45.156598
 30
0.0
 10
92.978749
 20
46.051864
 30
0.0
 10
92.978639
 20
47.156284
 30
0.0
  0
SPLINE
  5
32c
100
AcDbEntity
  8
Layer_1
 62
7
100
AcDbSpline
 70
8
 71
3
 72
8
 73
4
 74
0
 40
0
 40
0
 40
0
 40
0
 40
1
 40
1
 40
1
 40
1
 10
92.978639
 20
47.156284
 30
0.0
 10
92.978438
 20
48.260930
 30
0.0
 10
93.873811
 20
49.156534
 30
0.0
 10
94.978446
 20
49.156647
 30
0.0
  0
LINE
  5
32d
100
AcDbEntity
  8
Layer_1
 62
7
100
AcDbLine
 10
94.978446
 20
49.156647
 30
0.0
 11
94.978446
 21
49.156647
 31
0.0
  0
SPLINE
  5
32e
100
AcDbEntity
  8
Layer_1
 62
7
100
AcDbSpline
 70
8
 71
3
 72
8
 73
4
 74
0
 40
0
 40
0
 40
0
 40
0
 40
1
 40
1
 40
1
 40
1
 10
114.978742
 20
49.156647
 30
0.0
 10
116.083379
 20
49.156534
 30
0.0
 10
116.978752
 20
48.260930
 30
0.0
 10
116.978551
 20
47.156284
 30
0.0
  0
SPLINE
  5
32f
100
AcDbEntity
  8
Layer_1
 62
7
100
AcDbSpline
 70
8
 71
3
 72
8
 73
4
 74
0
 40
0
 40
0
 40
0
 40
0
 40
1
 40
1
 40
1
 40
1
 10
116.978551
 20
47.156284
 30
0.0
 10
116.978441
 20
46.051864
 30
0.0
 10
116.083159
 20
45.156598
 30
0.0
 10
114.978742
 20
45.156485
 30
0.0
  0
SPLINE
  5
330
100
AcDbEntity
  8
Layer_1
 62
7
100
AcDbSpline
 70
8
 71
3
 72
8
 73
4
 74
0
 40
0
 40
0
 40
0
 40
0
 40
1
 40
1
 40
1
 40
1
 10
114.978742
 20
45.156485
 30
0.0
 10
113.874324
 20
45.156598
 30
0.0
 10
112.979042
 20
46.051864
 30
0.0
 10
112.978932
 20
47.156284
 30
0.0
  0
SPLINE
  5
331
100
AcDbEntity
  8
Layer_1
 62
7
100
AcDbSpline
 70
8
 71
3
 72
8
 73
4
 74
0
 40
0
 40
0
 40
0
 40
0
 40
1
 40
1
 40
1
 40
1
 10
112.978932
 20
47.156284
 30
0.0
 10
112.978732
 20
48.260930
 30
0.0
 10
113.874104
 20
49.156534
 30
0.0
 10
114.978742
 20
49.156647
 30
0.0
  0
LINE
  5
332
100
AcDbEntity
  8
Layer_1
 62
7
100
AcDbLine
 10
114.978742
 20
49.156647
 30
0.0
 11
114.978742
 21
49.156647
 31
0.0
  0
LINE
  5
333
100
AcDbEntity
  8
Layer_1
 62
5
100
AcDbLine
 10
153.689889
 20
137.428803
 30
0.0
 11
150.192472
 21
133.171427
 31
0.0
  0
LINE
  5
334
100
AcDbEntity
  8
Layer_1
 62
5
100
AcDbLine
 10
150.192472
 20
133.171427
 30
0.0
 11
153.689889
 21
128.633930
 31
0.0
  0
LINE
  5
335
100
AcDbEntity
  8
Layer_1
 62
5
100
AcDbLine
 10
153.689889
 20
128.633930
 30
0.0
 11
157.187305
 21
133.171427
 31
0.0
  0
LINE
  5
336
100
AcDbEntity
  8
Layer_1
 62
5
100
AcDbLine
 10
157.187305
 20
133.171427
 30
0.0
 11
153.689889
 21
137.428803
 31
0.0
  0
LINE
  5
337
100
AcDbEntity
  8
Layer_1
 62
5
100
AcDbLine
 10
153.689889
 20
137.428803
 30
0.0
 11
153.689889
 21
137.428803
 31
0.0
  0
LINE
  5
338
100
AcDbEntity
  8
Layer_1
 62
5
100
AcDbLine
 10
148.884562
 20
132.821149
 30
0.0
 11
143.556629
 21
131.393657
 31
0.0
  0
LINE
  5
339
100
AcDbEntity
  8
Layer_1
 62
5
100
AcDbLine
 10
143.556629
 20
131.393657
 30
0.0
 11
145.124437
 21
125.542864
 31
0.0
  0
LINE
  5
33a
100
AcDbEntity
  8
Layer_1
 62
5
100
AcDbLine
 10
145.124437
 20
125.542864
 30
0.0
 11
151.872945
 21
124.952667
 31
0.0
  0
LINE
  5
33b
100
AcDbEntity
  8
Layer_1
 62
5
100
AcDbLine
 10
151.872945
 20
124.952667
 30
0.0
 11
153.348058
 21
128.496684
 31
0.0
  0
LINE
  5
33c
100
AcDbEntity
  8
Layer_1
 62
5
100
AcDbLine
 10
153.348058
 20
128.496684
 30
0.0
 11
148.884562
 21
132.821149
 31
0.0
  0
LINE
  5
33d
100
AcDbEntity
  8
Layer_1
 62
5
100
AcDbLine
 10
148.884562
 20
132.821149
 30
0.0
 11
148.884562
 21
132.821149
 31
0.0
  0
LINE
  5
33e
100
AcDbEntity
  8
Layer_1
 62
5
100
AcDbLine
 10
158.495216
 20
132.821149
 30
0.0
 11
154.031720
 21
128.496684
 31
0.0
  0
LINE
  5
33f
100
AcDbEntity
  8
Layer_1
 62
5
100
AcDbLine
 10
154.031720
 20
128.496684
 30
0.0
 11
155.507092
 21
124.952667
 31
0.0
  0
LINE
  5
340
100
AcDbEntity
  8
Layer_1
 62
5
100
AcDbLine
 10
155.507092
 20
124.952667
 30
0.0
 11
162.255341
 21
125.542864
 31
0.0
  0
LINE
  5
341
100
AcDbEntity
  8
Layer_1
 62
5
100
AcDbLine
 10
162.255341
 20
125.542864
 30
0.0
 11
163.823149
 21
131.393657
 31
0.0
  0
LINE
  5
342
100
AcDbEntity
  8
Layer_1
 62
5
100
AcDbLine
 10
163.823149
 20
131.393657
 30
0.0
 11
158.495216
 21
132.821149
 31
0.0
  0
LINE
  5
343
100
AcDbEntity
  8
Layer_1
 62
5
100
AcDbLine
 10
158.495216
 20
132.821149
 30
0.0
 11
158.495216
 21
132.821149
 31
0.0
  0
LINE
  5
344
100
AcDbEntity
  8
Layer_1
 62
5
100
AcDbLine
 10
153.643544
 20
126.322291
 30
0.0
 11
153.644439
 21
126.215003
 31
0.0
  0
LINE
  5
345
100
AcDbEntity
  8
Layer_1
 62
5
100
AcDbLine
 10
153.644439
 20
126.215003
 30
0.0
 11
152.166000
 21
124.491775
 31
0.0
  0
LINE
  5
346
100
AcDbEntity
  8
Layer_1
 62
5
100
AcDbLine
 10
152.166000
 20
124.491775
 30
0.0
 11
151.242420
 21
121.045059
 31
0.0
  0
LINE
  5
347
100
AcDbEntity
  8
Layer_1
 62
5
100
AcDbLine
 10
151.242420
 20
121.045059
 30
0.0
 11
153.690274
 21
118.216451
 31
0.0
  0
LINE
  5
348
100
AcDbEntity
  8
Layer_1
 62
5
100
AcDbLine
 10
153.690274
 20
118.216451
 30
0.0
 11
156.138387
 21
121.045059
 31
0.0
  0
LINE
  5
349
100
AcDbEntity
  8
Layer_1
 62
5
100
AcDbLine
 10
156.138387
 20
121.045059
 30
0.0
 11
155.214812
 21
124.491775
 31
0.0
  0
LINE
  5
34a
100
AcDbEntity
  8
Layer_1
 62
5
100
AcDbLine
 10
155.214812
 20
124.491775
 30
0.0
 11
153.736109
 21
126.215003
 31
0.0
  0
LINE
  5
34b
100
AcDbEntity
  8
Layer_1
 62
5
100
AcDbLine
 10
153.736109
 20
126.215003
 30
0.0
 11
153.737004
 21
126.322291
 31
0.0
  0
LINE
  5
34c
100
AcDbEntity
  8
Layer_1
 62
5
100
AcDbLine
 10
153.737004
 20
126.322291
 30
0.0
 11
153.690654
 21
126.268264
 31
0.0
  0
LINE
  5
34d
100
AcDbEntity
  8
Layer_1
 62
5
100
AcDbLine
 10
153.690654
 20
126.268264
 30
0.0
 11
153.644313
 21
126.322291
 31
0.0
  0
LINE
  5
34e
100
AcDbEntity
  8
Layer_1
 62
5
100
AcDbLine
 10
153.644313
 20
126.322291
 30
0.0
 11
153.643544
 21
126.322291
 31
0.0
  0
LINE
  5
34f
100
AcDbEntity
  8
Layer_1
 62
5
100
AcDbLine
 10
146.912704
 20
124.549898
 30
0.0
 11
145.103952
 21
120.781071
 31
0.0
  0
LINE
  5
350
100
AcDbEntity
  8
Layer_1
 62
5
100
AcDbLine
 10
145.103952
 20
120.781071
 30
0.0
 11
149.026413
 21
119.887447
 31
0.0
  0
LINE
  5
351
100
AcDbEntity
  8
Layer_1
 62
5
100
AcDbLine
 10
149.026413
 20
119.887447
 30
0.0
 11
151.769498
 21
124.461053
 31
0.0
  0
LINE
  5
352
100
AcDbEntity
  8
Layer_1
 62
5
100
AcDbLine
 10
151.769498
 20
124.461053
 30
0.0
 11
146.912704
 21
124.549898
 31
0.0
  0
LINE
  5
353
100
AcDbEntity
  8
Layer_1
 62
5
100
AcDbLine
 10
146.912704
 20
124.549898
 30
0.0
 11
146.912704
 21
124.549898
 31
0.0
  0
LINE
  5
354
100
AcDbEntity
  8
Layer_1
 62
5
100
AcDbLine
 10
160.467074
 20
124.549898
 30
0.0
 11
155.610280
 21
124.461053
 31
0.0
  0
LINE
  5
355
100
AcDbEntity
  8
Layer_1
 62
5
100
AcDbLine
 10
155.610280
 20
124.461053
 30
0.0
 11
158.353364
 21
119.887447
 31
0.0
  0
LINE
  5
356
100
AcDbEntity
  8
Layer_1
 62
5
100
AcDbLine
 10
158.353364
 20
119.887447
 30
0.0
 11
162.275825
 21
120.781071
 31
0.0
  0
LINE
  5
357
100
AcDbEntity
  8
Layer_1
 62
5
100
AcDbLine
 10
162.275825
 20
120.781071
 30
0.0
 11
160.467074
 21
124.549898
 31
0.0
  0
LINE
  5
358
100
AcDbEntity
  8
Layer_1
 62
5
100
AcDbLine
 10
160.467074
 20
124.549898
 30
0.0
 11
160.467074
 21
124.549898
 31
0.0
  0
LINE
  5
359
100
AcDbEntity
  8
Layer_1
 62
5
100
AcDbLine
 10
159.082485
 20
116.913832
 30
0.0
 11
159.820169
 21
116.913832
 31
0.0
  0
LINE
  5
35a
100
AcDbEntity
  8
Layer_1
 62
5
100
AcDbLine
 10
159.820169
 20
116.913832
 30
0.0
 11
159.820169
 21
113.065054
 31
0.0
  0
LINE
  5
35b
100
AcDbEntity
  8
Layer_1
 62
5
100
AcDbLine
 10
159.820169
 20
113.065054
 30
0.0
 11
160.525779
 21
113.065054
 31
0.0
  0
LINE
  5
35c
100
AcDbEntity
  8
Layer_1
 62
5
100
AcDbLine
 10
160.525779
 20
113.065054
 30
0.0
 11
160.525779
 21
116.913832
 31
0.0
  0
LINE
  5
35d
100
AcDbEntity
  8
Layer_1
 62
5
100
AcDbLine
 10
160.525779
 20
116.913832
 30
0.0
 11
161.263463
 21
116.913832
 31
0.0
  0
LINE
  5
35e
100
AcDbEntity
  8
Layer_1
 62
5
100
AcDbLine
 10
161.263463
 20
116.913832
 30
0.0
 11
161.263463
 21
117.555298
 31
0.0
  0
LINE
  5
35f
100
AcDbEntity
  8
Layer_1
 62
5
100
AcDbLine
 10
161.263463
 20
117.555298
 30
0.0
 11
159.082485
 21
117.555298
 31
0.0
  0
LINE
  5
360
100
AcDbEntity
  8
Layer_1
 62
5
100
AcDbLine
 10
159.082485
 20
117.555298
 30
0.0
 11
159.082485
 21
116.913832
 31
0.0
  0
LINE
  5
361
100
AcDbEntity
  8
Layer_1
 62
5
100
AcDbLine
 10
159.082485
 20
116.913832
 30
0.0
 11
159.082485
 21
116.913832
 31
0.0
  0
LINE
  5
362
100
AcDbEntity
  8
Layer_1
 62
5
100
AcDbLine
 10
158.072481
 20
113.065054
 30
0.0
 11
158.778091
 21
113.065054
 31
0.0
  0
LINE
  5
363
100
AcDbEntity
  8
Layer_1
 62
5
100
AcDbLine
 10
158.778091
 20
113.065054
 30
0.0
 11
158.778091
 21
117.555298
 31
0.0
  0
LINE
  5
364
100
AcDbEntity
  8
Layer_1
 62
5
100
AcDbLine
 10
158.778091
 20
117.555298
 30
0.0
 11
158.072481
 21
117.555298
 31
0.0
  0
LINE
  5
365
100
AcDbEntity
  8
Layer_1
 62
5
100
AcDbLine
 10
158.072481
 20
117.555298
 30
0.0
 11
158.072481
 21
113.065054
 31
0.0
  0
LINE
  5
366
100
AcDbEntity
  8
Layer_1
 62
5
100
AcDbLine
 10
158.072481
 20
113.065054
 30
0.0
 11
158.072481
 21
113.065054
 31
0.0
  0
LINE
  5
367
100
AcDbEntity
  8
Layer_1
 62
5
100
AcDbLine
 10
157.026496
 20
113.065054
 30
0.0
 11
157.751350
 21
113.065054
 31
0.0
  0
LINE
  5
368
100
AcDbEntity
  8
Layer_1
 62
5
100
AcDbLine
 10
157.751350
 20
113.065054
 30
0.0
 11
156.769911
 21
115.553931
 31
0.0
  0
LINE
  5
369
100
AcDbEntity
  8
Layer_1
 62
5
100
AcDbLine
 10
156.769911
 20
115.553931
 30
0.0
 11
157.751350
 21
117.555298
 31
0.0
  0
LINE
  5
36a
100
AcDbEntity
  8
Layer_1
 62
5
100
AcDbLine
 10
157.751350
 20
117.555298
 30
0.0
 11
157.045740
 21
117.555298
 31
0.0
  0
LINE
  5
36b
100
AcDbEntity
  8
Layer_1
 62
5
100
AcDbLine
 10
157.045740
 20
117.555298
 30
0.0
 11
156.134860
 21
115.611660
 31
0.0
  0
LINE
  5
36c
100
AcDbEntity
  8
Layer_1
 62
5
100
AcDbLine
 10
156.134860
 20
115.611660
 30
0.0
 11
156.122012
 21
115.611660
 31
0.0
  0
LINE
  5
36d
100
AcDbEntity
  8
Layer_1
 62
5
100
AcDbLine
 10
156.122012
 20
115.611660
 30
0.0
 11
156.122012
 21
117.555298
 31
0.0
  0
LINE
  5
36e
100
AcDbEntity
  8
Layer_1
 62
5
100
AcDbLine
 10
156.122012
 20
117.555298
 30
0.0
 11
155.416402
 21
117.555298
 31
0.0
  0
LINE
  5
36f
100
AcDbEntity
  8
Layer_1
 62
5
100
AcDbLine
 10
155.416402
 20
117.555298
 30
0.0
 11
155.416402
 21
113.065054
 31
0.0
  0
LINE
  5
370
100
AcDbEntity
  8
Layer_1
 62
5
100
AcDbLine
 10
155.416402
 20
113.065054
 30
0.0
 11
156.122012
 21
113.065054
 31
0.0
  0
LINE
  5
371
100
AcDbEntity
  8
Layer_1
 62
5
100
AcDbLine
 10
156.122012
 20
113.065054
 30
0.0
 11
156.122012
 21
114.444200
 31
0.0
  0
LINE
  5
372
100
AcDbEntity
  8
Layer_1
 62
5
100
AcDbLine
 10
156.122012
 20
114.444200
 30
0.0
 11
156.340108
 21
114.854736
 31
0.0
  0
LINE
  5
373
100
AcDbEntity
  8
Layer_1
 62
5
100
AcDbLine
 10
156.340108
 20
114.854736
 30
0.0
 11
157.026473
 21
113.065054
 31
0.0
  0
LINE
  5
374
100
AcDbEntity
  8
Layer_1
 62
5
100
AcDbLine
 10
157.026473
 20
113.065054
 30
0.0
 11
157.026496
 21
113.065054
 31
0.0
  0
LINE
  5
375
100
AcDbEntity
  8
Layer_1
 62
5
100
AcDbLine
 10
153.655406
 20
114.989443
 30
0.0
 11
154.938334
 21
114.989443
 31
0.0
  0
LINE
  5
376
100
AcDbEntity
  8
Layer_1
 62
5
100
AcDbLine
 10
154.938334
 20
114.989443
 30
0.0
 11
154.938334
 21
115.630905
 31
0.0
  0
LINE
  5
377
100
AcDbEntity
  8
Layer_1
 62
5
100
AcDbLine
 10
154.938334
 20
115.630905
 30
0.0
 11
153.655406
 21
115.630905
 31
0.0
  0
LINE
  5
378
100
AcDbEntity
  8
Layer_1
 62
5
100
AcDbLine
 10
153.655406
 20
115.630905
 30
0.0
 11
153.655406
 21
114.989443
 31
0.0
  0
LINE
  5
379
100
AcDbEntity
  8
Layer_1
 62
5
100
AcDbLine
 10
153.655406
 20
114.989443
 30
0.0
 11
153.655406
 21
114.989443
 31
0.0
  0
LINE
  5
37a
100
AcDbEntity
  8
Layer_1
 62
5
100
AcDbLine
 10
152.585968
 20
114.739273
 30
0.0
 11
152.585968
 21
114.097812
 31
0.0
  0
SPLINE
  5
37b
100
AcDbEntity
  8
Layer_1
 62
5
100
AcDbSpline
 70
8
 71
3
 72
8
 73
4
 74
0
 40
0
 40
0
 40
0
 40
0
 40
1
 40
1
 40
1
 40
1
 10
152.585968
 20
114.097812
 30
0.0
 10
152.585968
 20
113.777079
 30
0.0
 10
152.444851
 20
113.661616
 30
0.0
 10
152.220336
 20
113.661616
 30
0.0
  0
SPLINE
  5
37c
100
AcDbEntity
  8
Layer_1
 62
5
100
AcDbSpline
 70
8
 71
3
 72
8
 73
4
 74
0
 40
0
 40
0
 40
0
 40
0
 40
1
 40
1
 40
1
 40
1
 10
152.220336
 20
113.661616
 30
0.0
 10
151.995821
 20
113.661616
 30
0.0
 10
151.854699
 20
113.777079
 30
0.0
 10
151.854699
 20
114.097812
 30
0.0
  0
LINE
  5
37d
100
AcDbEntity
  8
Layer_1
 62
5
100
AcDbLine
 10
151.854699
 20
114.097812
 30
0.0
 11
151.854699
 21
116.522540
 31
0.0
  0
SPLINE
  5
37e
100
AcDbEntity
  8
Layer_1
 62
5
100
AcDbSpline
 70
8
 71
3
 72
8
 73
4
 74
0
 40
0
 40
0
 40
0
 40
0
 40
1
 40
1
 40
1
 40
1
 10
151.854699
 20
116.522540
 30
0.0
 10
151.854699
 20
116.843269
 30
0.0
 10
151.995821
 20
116.965151
 30
0.0
 10
152.220336
 20
116.965151
 30
0.0
  0
SPLINE
  5
37f
100
AcDbEntity
  8
Layer_1
 62
5
100
AcDbSpline
 70
8
 71
3
 72
8
 73
4
 74
0
 40
0
 40
0
 40
0
 40
0
 40
1
 40
1
 40
1
 40
1
 10
152.220336
 20
116.965151
 30
0.0
 10
152.444851
 20
116.965151
 30
0.0
 10
152.585968
 20
116.843269
 30
0.0
 10
152.585968
 20
116.522540
 30
0.0
  0
LINE
  5
380
100
AcDbEntity
  8
Layer_1
 62
5
100
AcDbLine
 10
152.585968
 20
116.522540
 30
0.0
 11
152.585968
 21
116.041441
 31
0.0
  0
LINE
  5
381
100
AcDbEntity
  8
Layer_1
 62
5
100
AcDbLine
 10
152.585968
 20
116.041441
 30
0.0
 11
153.253089
 21
116.041441
 31
0.0
  0
LINE
  5
382
100
AcDbEntity
  8
Layer_1
 62
5
100
AcDbLine
 10
153.253089
 20
116.041441
 30
0.0
 11
153.253089
 21
116.477636
 31
0.0
  0
SPLINE
  5
383
100
AcDbEntity
  8
Layer_1
 62
5
100
AcDbSpline
 70
8
 71
3
 72
8
 73
4
 74
0
 40
0
 40
0
 40
0
 40
0
 40
1
 40
1
 40
1
 40
1
 10
153.253089
 20
116.477636
 30
0.0
 10
153.253089
 20
117.196076
 30
0.0
 10
152.893871
 20
117.606612
 30
0.0
 10
152.201091
 20
117.606612
 30
0.0
  0
SPLINE
  5
384
100
AcDbEntity
  8
Layer_1
 62
5
100
AcDbSpline
 70
8
 71
3
 72
8
 73
4
 74
0
 40
0
 40
0
 40
0
 40
0
 40
1
 40
1
 40
1
 40
1
 10
152.201091
 20
117.606612
 30
0.0
 10
151.508311
 20
117.606612
 30
0.0
 10
151.149094
 20
117.196076
 30
0.0
 10
151.149094
 20
116.477636
 30
0.0
  0
LINE
  5
385
100
AcDbEntity
  8
Layer_1
 62
5
100
AcDbLine
 10
151.149094
 20
116.477636
 30
0.0
 11
151.149094
 21
114.142716
 31
0.0
  0
SPLINE
  5
386
100
AcDbEntity
  8
Layer_1
 62
5
100
AcDbSpline
 70
8
 71
3
 72
8
 73
4
 74
0
 40
0
 40
0
 40
0
 40
0
 40
1
 40
1
 40
1
 40
1
 10
151.149094
 20
114.142716
 30
0.0
 10
151.149094
 20
113.424276
 30
0.0
 10
151.508311
 20
113.013736
 30
0.0
 10
152.201091
 20
113.013736
 30
0.0
  0
SPLINE
  5
387
100
AcDbEntity
  8
Layer_1
 62
5
100
AcDbSpline
 70
8
 71
3
 72
8
 73
4
 74
0
 40
0
 40
0
 40
0
 40
0
 40
1
 40
1
 40
1
 40
1
 10
152.201091
 20
113.013736
 30
0.0
 10
152.893871
 20
113.013736
 30
0.0
 10
153.253089
 20
113.424276
 30
0.0
 10
153.253089
 20
114.142716
 30
0.0
  0
LINE
  5
388
100
AcDbEntity
  8
Layer_1
 62
5
100
AcDbLine
 10
153.253089
 20
114.142716
 30
0.0
 11
153.253089
 21
114.739273
 31
0.0
  0
LINE
  5
389
100
AcDbEntity
  8
Layer_1
 62
5
100
AcDbLine
 10
153.253089
 20
114.739273
 30
0.0
 11
152.585968
 21
114.739273
 31
0.0
  0
LINE
  5
38a
100
AcDbEntity
  8
Layer_1
 62
5
100
AcDbLine
 10
152.585968
 20
114.739273
 30
0.0
 11
152.585968
 21
114.739273
 31
0.0
  0
SPLINE
  5
38b
100
AcDbEntity
  8
Layer_1
 62
5
100
AcDbSpline
 70
8
 71
3
 72
8
 73
4
 74
0
 40
0
 40
0
 40
0
 40
0
 40
1
 40
1
 40
1
 40
1
 10
150.819739
 20
113.065054
 30
0.0
 10
150.749180
 20
113.231836
 30
0.0
 10
150.742765
 20
113.392202
 30
0.0
 10
150.742765
 20
113.610298
 30
0.0
  0
LINE
  5
38c
100
AcDbEntity
  8
Layer_1
 62
5
100
AcDbLine
 10
150.742765
 20
113.610298
 30
0.0
 11
150.742765
 21
114.303078
 31
0.0
  0
SPLINE
  5
38d
100
AcDbEntity
  8
Layer_1
 62
5
100
AcDbSpline
 70
8
 71
3
 72
8
 73
4
 74
0
 40
0
 40
0
 40
0
 40
0
 40
1
 40
1
 40
1
 40
1
 10
150.742765
 20
114.303078
 30
0.0
 10
150.742765
 20
114.771348
 30
0.0
 10
150.627298
 20
115.104910
 30
0.0
 10
150.274495
 20
115.252447
 30
0.0
  0
LINE
  5
38e
100
AcDbEntity
  8
Layer_1
 62
5
100
AcDbLine
 10
150.274495
 20
115.252447
 30
0.0
 11
150.274495
 21
115.265250
 31
0.0
  0
SPLINE
  5
38f
100
AcDbEntity
  8
Layer_1
 62
5
100
AcDbSpline
 70
8
 71
3
 72
8
 73
4
 74
0
 40
0
 40
0
 40
0
 40
0
 40
1
 40
1
 40
1
 40
1
 10
150.274495
 20
115.265250
 30
0.0
 10
150.588809
 20
115.412787
 30
0.0
 10
150.736346
 20
115.707860
 30
0.0
 10
150.736346
 20
116.169715
 30
0.0
  0
LINE
  5
390
100
AcDbEntity
  8
Layer_1
 62
5
100
AcDbLine
 10
150.736346
 20
116.169715
 30
0.0
 11
150.736346
 21
116.522518
 31
0.0
  0
SPLINE
  5
391
100
AcDbEntity
  8
Layer_1
 62
5
100
AcDbSpline
 70
8
 71
3
 72
8
 73
4
 74
0
 40
0
 40
0
 40
0
 40
0
 40
1
 40
1
 40
1
 40
1
 10
150.736346
 20
116.522518
 30
0.0
 10
150.736346
 20
117.215298
 30
0.0
 10
150.422028
 20
117.555275
 30
0.0
 10
149.690763
 20
117.555275
 30
0.0
  0
LINE
  5
392
100
AcDbEntity
  8
Layer_1
 62
5
100
AcDbLine
 10
149.690763
 20
117.555275
 30
0.0
 11
148.625936
 21
117.555275
 31
0.0
  0
LINE
  5
393
100
AcDbEntity
  8
Layer_1
 62
5
100
AcDbLine
 10
148.625936
 20
117.555275
 30
0.0
 11
148.625936
 21
113.065032
 31
0.0
  0
LINE
  5
394
100
AcDbEntity
  8
Layer_1
 62
5
100
AcDbLine
 10
148.625936
 20
113.065032
 30
0.0
 11
149.331541
 21
113.065032
 31
0.0
  0
LINE
  5
395
100
AcDbEntity
  8
Layer_1
 62
5
100
AcDbLine
 10
149.331541
 20
113.065032
 30
0.0
 11
149.331541
 21
114.893203
 31
0.0
  0
LINE
  5
396
100
AcDbEntity
  8
Layer_1
 62
5
100
AcDbLine
 10
149.331541
 20
114.893203
 30
0.0
 11
149.575300
 21
114.893203
 31
0.0
  0
SPLINE
  5
397
100
AcDbEntity
  8
Layer_1
 62
5
100
AcDbSpline
 70
8
 71
3
 72
8
 73
4
 74
0
 40
0
 40
0
 40
0
 40
0
 40
1
 40
1
 40
1
 40
1
 10
149.575300
 20
114.893203
 30
0.0
 10
149.896033
 20
114.893203
 30
0.0
 10
150.037151
 20
114.739251
 30
0.0
 10
150.037151
 20
114.322300
 30
0.0
  0
LINE
  5
398
100
AcDbEntity
  8
Layer_1
 62
5
100
AcDbLine
 10
150.037151
 20
114.322300
 30
0.0
 11
150.037151
 21
113.616690
 31
0.0
  0
SPLINE
  5
399
100
AcDbEntity
  8
Layer_1
 62
5
100
AcDbSpline
 70
8
 71
3
 72
8
 73
4
 74
0
 40
0
 40
0
 40
0
 40
0
 40
1
 40
1
 40
1
 40
1
 10
150.037151
 20
113.616690
 30
0.0
 10
150.037151
 20
113.251058
 30
0.0
 10
150.062801
 20
113.180495
 30
0.0
 10
150.101299
 20
113.065032
 30
0.0
  0
LINE
  5
39a
100
AcDbEntity
  8
Layer_1
 62
5
100
AcDbLine
 10
150.101299
 20
113.065032
 30
0.0
 11
150.819739
 21
113.065032
 31
0.0
  0
LINE
  5
39b
100
AcDbEntity
  8
Layer_1
 62
5
100
AcDbLine
 10
150.819739
 20
113.065032
 30
0.0
 11
150.819739
 21
113.065054
 31
0.0
  0
SPLINE
  5
39c
100
AcDbEntity
  8
Layer_1
 62
5
100
AcDbSpline
 70
8
 71
3
 72
8
 73
4
 74
0
 40
0
 40
0
 40
0
 40
0
 40
1
 40
1
 40
1
 40
1
 10
149.671519
 20
116.913832
 30
0.0
 10
149.921693
 20
116.913832
 30
0.0
 10
150.030736
 20
116.772714
 30
0.0
 10
150.030736
 20
116.451977
 30
0.0
  0
LINE
  5
39d
100
AcDbEntity
  8
Layer_1
 62
5
100
AcDbLine
 10
150.030736
 20
116.451977
 30
0.0
 11
150.030736
 21
116.009371
 31
0.0
  0
SPLINE
  5
39e
100
AcDbEntity
  8
Layer_1
 62
5
100
AcDbSpline
 70
8
 71
3
 72
8
 73
4
 74
0
 40
0
 40
0
 40
0
 40
0
 40
1
 40
1
 40
1
 40
1
 10
150.030736
 20
116.009371
 30
0.0
 10
150.030736
 20
115.650149
 30
0.0
 10
149.870370
 20
115.534686
 30
0.0
 10
149.607375
 20
115.534686
 30
0.0
  0
LINE
  5
39f
100
AcDbEntity
  8
Layer_1
 62
5
100
AcDbLine
 10
149.607375
 20
115.534686
 30
0.0
 11
149.331541
 21
115.534686
 31
0.0
  0
LINE
  5
3a0
100
AcDbEntity
  8
Layer_1
 62
5
100
AcDbLine
 10
149.331541
 20
115.534686
 30
0.0
 11
149.331541
 21
116.913832
 31
0.0
  0
LINE
  5
3a1
100
AcDbEntity
  8
Layer_1
 62
5
100
AcDbLine
 10
149.331541
 20
116.913832
 30
0.0
 11
149.671519
 21
116.913832
 31
0.0
  0
LINE
  5
3a2
100
AcDbEntity
  8
Layer_1
 62
5
100
AcDbLine
 10
149.671519
 20
116.913832
 30
0.0
 11
149.671519
 21
116.913832
 31
0.0
  0
SPLINE
  5
3a3
100
AcDbEntity
  8
Layer_1
 62
5
100
AcDbSpline
 70
8
 71
3
 72
8
 73
4
 74
0
 40
0
 40
0
 40
0
 40
0
 40
1
 40
1
 40
1
 40
1
 10
146.730510
 20
116.522540
 30
0.0
 10
146.730510
 20
116.843269
 30
0.0
 10
146.871636
 20
116.965151
 30
0.0
 10
147.096147
 20
116.965151
 30
0.0
  0
SPLINE
  5
3a4
100
AcDbEntity
  8
Layer_1
 62
5
100
AcDbSpline
 70
8
 71
3
 72
8
 73
4
 74
0
 40
0
 40
0
 40
0
 40
0
 40
1
 40
1
 40
1
 40
1
 10
147.096147
 20
116.965151
 30
0.0
 10
147.320662
 20
116.965151
 30
0.0
 10
147.461784
 20
116.843269
 30
0.0
 10
147.461784
 20
116.522540
 30
0.0
  0
LINE
  5
3a5
100
AcDbEntity
  8
Layer_1
 62
5
100
AcDbLine
 10
147.461784
 20
116.522540
 30
0.0
 11
147.461784
 21
114.097812
 31
0.0
  0
SPLINE
  5
3a6
100
AcDbEntity
  8
Layer_1
 62
5
100
AcDbSpline
 70
8
 71
3
 72
8
 73
4
 74
0
 40
0
 40
0
 40
0
 40
0
 40
1
 40
1
 40
1
 40
1
 10
147.461784
 20
114.097812
 30
0.0
 10
147.461784
 20
113.777079
 30
0.0
 10
147.320662
 20
113.655202
 30
0.0
 10
147.096147
 20
113.655202
 30
0.0
  0
SPLINE
  5
3a7
100
AcDbEntity
  8
Layer_1
 62
5
100
AcDbSpline
 70
8
 71
3
 72
8
 73
4
 74
0
 40
0
 40
0
 40
0
 40
0
 40
1
 40
1
 40
1
 40
1
 10
147.096147
 20
113.655202
 30
0.0
 10
146.871636
 20
113.655202
 30
0.0
 10
146.730510
 20
113.777079
 30
0.0
 10
146.730510
 20
114.097812
 30
0.0
  0
LINE
  5
3a8
100
AcDbEntity
  8
Layer_1
 62
5
100
AcDbLine
 10
146.730510
 20
114.097812
 30
0.0
 11
146.730510
 21
116.522540
 31
0.0
  0
LINE
  5
3a9
100
AcDbEntity
  8
Layer_1
 62
5
100
AcDbLine
 10
146.730510
 20
116.522540
 30
0.0
 11
146.730510
 21
116.522540
 31
0.0
  0
SPLINE
  5
3aa
100
AcDbEntity
  8
Layer_1
 62
5
100
AcDbSpline
 70
8
 71
3
 72
8
 73
4
 74
0
 40
0
 40
0
 40
0
 40
0
 40
1
 40
1
 40
1
 40
1
 10
146.024905
 20
114.142716
 30
0.0
 10
146.024905
 20
113.424276
 30
0.0
 10
146.403367
 20
113.013736
 30
0.0
 10
147.096147
 20
113.013736
 30
0.0
  0
SPLINE
  5
3ab
100
AcDbEntity
  8
Layer_1
 62
5
100
AcDbSpline
 70
8
 71
3
 72
8
 73
4
 74
0
 40
0
 40
0
 40
0
 40
0
 40
1
 40
1
 40
1
 40
1
 10
147.096147
 20
113.013736
 30
0.0
 10
147.788927
 20
113.013736
 30
0.0
 10
148.167393
 20
113.424276
 30
0.0
 10
148.167393
 20
114.142716
 30
0.0
  0
LINE
  5
3ac
100
AcDbEntity
  8
Layer_1
 62
5
100
AcDbLine
 10
148.167393
 20
114.142716
 30
0.0
 11
148.167393
 21
116.477636
 31
0.0
  0
SPLINE
  5
3ad
100
AcDbEntity
  8
Layer_1
 62
5
100
AcDbSpline
 70
8
 71
3
 72
8
 73
4
 74
0
 40
0
 40
0
 40
0
 40
0
 40
1
 40
1
 40
1
 40
1
 10
148.167393
 20
116.477636
 30
0.0
 10
148.167393
 20
117.196076
 30
0.0
 10
147.788927
 20
117.606612
 30
0.0
 10
147.096147
 20
117.606612
 30
0.0
  0
SPLINE
  5
3ae
100
AcDbEntity
  8
Layer_1
 62
5
100
AcDbSpline
 70
8
 71
3
 72
8
 73
4
 74
0
 40
0
 40
0
 40
0
 40
0
 40
1
 40
1
 40
1
 40
1
 10
147.096147
 20
117.606612
 30
0.0
 10
146.403367
 20
117.606612
 30
0.0
 10
146.024905
 20
117.196076
 30
0.0
 10
146.024905
 20
116.477636
 30
0.0
  0
LINE
  5
3af
100
AcDbEntity
  8
Layer_1
 62
5
100
AcDbLine
 10
146.024905
 20
116.477636
 30
0.0
 11
146.024905
 21
114.142716
 31
0.0
  0
LINE
  5
3b0
100
AcDbEntity
  8
Layer_1
 62
5
100
AcDbLine
 10
146.024905
 20
114.142716
 30
0.0
 11
146.024905
 21
114.142716
 31
0.0
  0
LINE
  5
3b1
100
AcDbEntity
  8
Layer_1
 62
5
100
AcDbLine
 10
56.267664
 20
137.378054
 30
0.0
 11
52.770248
 21
133.120678
 31
0.0
  0
LINE
  5
3b2
100
AcDbEntity
  8
Layer_1
 62
5
100
AcDbLine
 10
52.770248
 20
133.120678
 30
0.0
 11
56.267664
 21
128.583180
 31
0.0
  0
LINE
  5
3b3
100
AcDbEntity
  8
Layer_1
 62
5
100
AcDbLine
 10
56.267664
 20
128.583180
 30
0.0
 11
59.765081
 21
133.120678
 31
0.0
  0
LINE
  5
3b4
100
AcDbEntity
  8
Layer_1
 62
5
100
AcDbLine
 10
59.765081
 20
133.120678
 30
0.0
 11
56.267664
 21
137.378054
 31
0.0
  0
LINE
  5
3b5
100
AcDbEntity
  8
Layer_1
 62
5
100
AcDbLine
 10
56.267664
 20
137.378054
 30
0.0
 11
56.267664
 21
137.378054
 31
0.0
  0
LINE
  5
3b6
100
AcDbEntity
  8
Layer_1
 62
5
100
AcDbLine
 10
51.462337
 20
132.770400
 30
0.0
 11
46.134404
 21
131.342908
 31
0.0
  0
LINE
  5
3b7
100
AcDbEntity
  8
Layer_1
 62
5
100
AcDbLine
 10
46.134404
 20
131.342908
 30
0.0
 11
47.702212
 21
125.492115
 31
0.0
  0
LINE
  5
3b8
100
AcDbEntity
  8
Layer_1
 62
5
100
AcDbLine
 10
47.702212
 20
125.492115
 30
0.0
 11
54.450721
 21
124.901918
 31
0.0
  0
LINE
  5
3b9
100
AcDbEntity
  8
Layer_1
 62
5
100
AcDbLine
 10
54.450721
 20
124.901918
 30
0.0
 11
55.925833
 21
128.445935
 31
0.0
  0
LINE
  5
3ba
100
AcDbEntity
  8
Layer_1
 62
5
100
AcDbLine
 10
55.925833
 20
128.445935
 30
0.0
 11
51.462337
 21
132.770400
 31
0.0
  0
LINE
  5
3bb
100
AcDbEntity
  8
Layer_1
 62
5
100
AcDbLine
 10
51.462337
 20
132.770400
 30
0.0
 11
51.462337
 21
132.770400
 31
0.0
  0
LINE
  5
3bc
100
AcDbEntity
  8
Layer_1
 62
5
100
AcDbLine
 10
61.072991
 20
132.770400
 30
0.0
 11
56.609495
 21
128.445935
 31
0.0
  0
LINE
  5
3bd
100
AcDbEntity
  8
Layer_1
 62
5
100
AcDbLine
 10
56.609495
 20
128.445935
 30
0.0
 11
58.084867
 21
124.901918
 31
0.0
  0
LINE
  5
3be
100
AcDbEntity
  8
Layer_1
 62
5
100
AcDbLine
 10
58.084867
 20
124.901918
 30
0.0
 11
64.833116
 21
125.492115
 31
0.0
  0
LINE
  5
3bf
100
AcDbEntity
  8
Layer_1
 62
5
100
AcDbLine
 10
64.833116
 20
125.492115
 30
0.0
 11
66.400924
 21
131.342908
 31
0.0
  0
LINE
  5
3c0
100
AcDbEntity
  8
Layer_1
 62
5
100
AcDbLine
 10
66.400924
 20
131.342908
 30
0.0
 11
61.072991
 21
132.770400
 31
0.0
  0
LINE
  5
3c1
100
AcDbEntity
  8
Layer_1
 62
5
100
AcDbLine
 10
61.072991
 20
132.770400
 30
0.0
 11
61.072991
 21
132.770400
 31
0.0
  0
LINE
  5
3c2
100
AcDbEntity
  8
Layer_1
 62
5
100
AcDbLine
 10
56.221319
 20
126.271542
 30
0.0
 11
56.222214
 21
126.164254
 31
0.0
  0
LINE
  5
3c3
100
AcDbEntity
  8
Layer_1
 62
5
100
AcDbLine
 10
56.222214
 20
126.164254
 30
0.0
 11
54.743775
 21
124.441026
 31
0.0
  0
LINE
  5
3c4
100
AcDbEntity
  8
Layer_1
 62
5
100
AcDbLine
 10
54.743775
 20
124.441026
 30
0.0
 11
53.820195
 21
120.994310
 31
0.0
  0
LINE
  5
3c5
100
AcDbEntity
  8
Layer_1
 62
5
100
AcDbLine
 10
53.820195
 20
120.994310
 30
0.0
 11
56.268049
 21
118.165702
 31
0.0
  0
LINE
  5
3c6
100
AcDbEntity
  8
Layer_1
 62
5
100
AcDbLine
 10
56.268049
 20
118.165702
 30
0.0
 11
58.716163
 21
120.994310
 31
0.0
  0
LINE
  5
3c7
100
AcDbEntity
  8
Layer_1
 62
5
100
AcDbLine
 10
58.716163
 20
120.994310
 30
0.0
 11
57.792587
 21
124.441026
 31
0.0
  0
LINE
  5
3c8
100
AcDbEntity
  8
Layer_1
 62
5
100
AcDbLine
 10
57.792587
 20
124.441026
 30
0.0
 11
56.313884
 21
126.164254
 31
0.0
  0
LINE
  5
3c9
100
AcDbEntity
  8
Layer_1
 62
5
100
AcDbLine
 10
56.313884
 20
126.164254
 30
0.0
 11
56.314779
 21
126.271542
 31
0.0
  0
LINE
  5
3ca
100
AcDbEntity
  8
Layer_1
 62
5
100
AcDbLine
 10
56.314779
 20
126.271542
 30
0.0
 11
56.268430
 21
126.217515
 31
0.0
  0
LINE
  5
3cb
100
AcDbEntity
  8
Layer_1
 62
5
100
AcDbLine
 10
56.268430
 20
126.217515
 30
0.0
 11
56.222089
 21
126.271542
 31
0.0
  0
LINE
  5
3cc
100
AcDbEntity
  8
Layer_1
 62
5
100
AcDbLine
 10
56.222089
 20
126.271542
 30
0.0
 11
56.221319
 21
126.271542
 31
0.0
  0
LINE
  5
3cd
100
AcDbEntity
  8
Layer_1
 62
5
100
AcDbLine
 10
49.490479
 20
124.499149
 30
0.0
 11
47.681728
 21
120.730322
 31
0.0
  0
LINE
  5
3ce
100
AcDbEntity
  8
Layer_1
 62
5
100
AcDbLine
 10
47.681728
 20
120.730322
 30
0.0
 11
51.604189
 21
119.836698
 31
0.0
  0
LINE
  5
3cf
100
AcDbEntity
  8
Layer_1
 62
5
100
AcDbLine
 10
51.604189
 20
119.836698
 30
0.0
 11
54.347273
 21
124.410303
 31
0.0
  0
LINE
  5
3d0
100
AcDbEntity
  8
Layer_1
 62
5
100
AcDbLine
 10
54.347273
 20
124.410303
 30
0.0
 11
49.490479
 21
124.499149
 31
0.0
  0
LINE
  5
3d1
100
AcDbEntity
  8
Layer_1
 62
5
100
AcDbLine
 10
49.490479
 20
124.499149
 30
0.0
 11
49.490479
 21
124.499149
 31
0.0
  0
LINE
  5
3d2
100
AcDbEntity
  8
Layer_1
 62
5
100
AcDbLine
 10
63.044849
 20
124.499149
 30
0.0
 11
58.188055
 21
124.410303
 31
0.0
  0
LINE
  5
3d3
100
AcDbEntity
  8
Layer_1
 62
5
100
AcDbLine
 10
58.188055
 20
124.410303
 30
0.0
 11
60.931140
 21
119.836698
 31
0.0
  0
LINE
  5
3d4
100
AcDbEntity
  8
Layer_1
 62
5
100
AcDbLine
 10
60.931140
 20
119.836698
 30
0.0
 11
64.853601
 21
120.730322
 31
0.0
  0
LINE
  5
3d5
100
AcDbEntity
  8
Layer_1
 62
5
100
AcDbLine
 10
64.853601
 20
120.730322
 30
0.0
 11
63.044849
 21
124.499149
 31
0.0
  0
LINE
  5
3d6
100
AcDbEntity
  8
Layer_1
 62
5
100
AcDbLine
 10
63.044849
 20
124.499149
 30
0.0
 11
63.044849
 21
124.499149
 31
0.0
  0
LINE
  5
3d7
100
AcDbEntity
  8
Layer_1
 62
5
100
AcDbLine
 10
61.660260
 20
116.863083
 30
0.0
 11
62.397944
 21
116.863083
 31
0.0
  0
LINE
  5
3d8
100
AcDbEntity
  8
Layer_1
 62
5
100
AcDbLine
 10
62.397944
 20
116.863083
 30
0.0
 11
62.397944
 21
113.014305
 31
0.0
  0
LINE
  5
3d9
100
AcDbEntity
  8
Layer_1
 62
5
100
AcDbLine
 10
62.397944
 20
113.014305
 30
0.0
 11
63.103554
 21
113.014305
 31
0.0
  0
LINE
  5
3da
100
AcDbEntity
  8
Layer_1
 62
5
100
AcDbLine
 10
63.103554
 20
113.014305
 30
0.0
 11
63.103554
 21
116.863083
 31
0.0
  0
LINE
  5
3db
100
AcDbEntity
  8
Layer_1
 62
5
100
AcDbLine
 10
63.103554
 20
116.863083
 30
0.0
 11
63.841238
 21
116.863083
 31
0.0
  0
LINE
  5
3dc
100
AcDbEntity
  8
Layer_1
 62
5
100
AcDbLine
 10
63.841238
 20
116.863083
 30
0.0
 11
63.841238
 21
117.504549
 31
0.0
  0
LINE
  5
3dd
100
AcDbEntity
  8
Layer_1
 62
5
100
AcDbLine
 10
63.841238
 20
117.504549
 30
0.0
 11
61.660260
 21
117.504549
 31
0.0
  0
LINE
  5
3de
100
AcDbEntity
  8
Layer_1
 62
5
100
AcDbLine
 10
61.660260
 20
117.504549
 30
0.0
 11
61.660260
 21
116.863083
 31
0.0
  0
LINE
  5
3df
100
AcDbEntity
  8
Layer_1
 62
5
100
AcDbLine
 10
61.660260
 20
116.863083
 30
0.0
 11
61.660260
 21
116.863083
 31
0.0
  0
LINE
  5
3e0
100
AcDbEntity
  8
Layer_1
 62
5
100
AcDbLine
 10
60.650257
 20
113.014305
 30
0.0
 11
61.355866
 21
113.014305
 31
0.0
  0
LINE
  5
3e1
100
AcDbEntity
  8
Layer_1
 62
5
100
AcDbLine
 10
61.355866
 20
113.014305
 30
0.0
 11
61.355866
 21
117.504549
 31
0.0
  0
LINE
  5
3e2
100
AcDbEntity
  8
Layer_1
 62
5
100
AcDbLine
 10
61.355866
 20
117.504549
 30
0.0
 11
60.650257
 21
117.504549
 31
0.0
  0
LINE
  5
3e3
100
AcDbEntity
  8
Layer_1
 62
5
100
AcDbLine
 10
60.650257
 20
117.504549
 30
0.0
 11
60.650257
 21
113.014305
 31
0.0
  0
LINE
  5
3e4
100
AcDbEntity
  8
Layer_1
 62
5
100
AcDbLine
 10
60.650257
 20
113.014305
 30
0.0
 11
60.650257
 21
113.014305
 31
0.0
  0
LINE
  5
3e5
100
AcDbEntity
  8
Layer_1
 62
5
100
AcDbLine
 10
59.604271
 20
113.014305
 30
0.0
 11
60.329125
 21
113.014305
 31
0.0
  0
LINE
  5
3e6
100
AcDbEntity
  8
Layer_1
 62
5
100
AcDbLine
 10
60.329125
 20
113.014305
 30
0.0
 11
59.347686
 21
115.503182
 31
0.0
  0
LINE
  5
3e7
100
AcDbEntity
  8
Layer_1
 62
5
100
AcDbLine
 10
59.347686
 20
115.503182
 30
0.0
 11
60.329125
 21
117.504549
 31
0.0
  0
LINE
  5
3e8
100
AcDbEntity
  8
Layer_1
 62
5
100
AcDbLine
 10
60.329125
 20
117.504549
 30
0.0
 11
59.623515
 21
117.504549
 31
0.0
  0
LINE
  5
3e9
100
AcDbEntity
  8
Layer_1
 62
5
100
AcDbLine
 10
59.623515
 20
117.504549
 30
0.0
 11
58.712635
 21
115.560911
 31
0.0
  0
LINE
  5
3ea
100
AcDbEntity
  8
Layer_1
 62
5
100
AcDbLine
 10
58.712635
 20
115.560911
 30
0.0
 11
58.699788
 21
115.560911
 31
0.0
  0
LINE
  5
3eb
100
AcDbEntity
  8
Layer_1
 62
5
100
AcDbLine
 10
58.699788
 20
115.560911
 30
0.0
 11
58.699788
 21
117.504549
 31
0.0
  0
LINE
  5
3ec
100
AcDbEntity
  8
Layer_1
 62
5
100
AcDbLine
 10
58.699788
 20
117.504549
 30
0.0
 11
57.994178
 21
117.504549
 31
0.0
  0
LINE
  5
3ed
100
AcDbEntity
  8
Layer_1
 62
5
100
AcDbLine
 10
57.994178
 20
117.504549
 30
0.0
 11
57.994178
 21
113.014305
 31
0.0
  0
LINE
  5
3ee
100
AcDbEntity
  8
Layer_1
 62
5
100
AcDbLine
 10
57.994178
 20
113.014305
 30
0.0
 11
58.699788
 21
113.014305
 31
0.0
  0
LINE
  5
3ef
100
AcDbEntity
  8
Layer_1
 62
5
100
AcDbLine
 10
58.699788
 20
113.014305
 30
0.0
 11
58.699788
 21
114.393451
 31
0.0
  0
LINE
  5
3f0
100
AcDbEntity
  8
Layer_1
 62
5
100
AcDbLine
 10
58.699788
 20
114.393451
 30
0.0
 11
58.917883
 21
114.803987
 31
0.0
  0
LINE
  5
3f1
100
AcDbEntity
  8
Layer_1
 62
5
100
AcDbLine
 10
58.917883
 20
114.803987
 30
0.0
 11
59.604249
 21
113.014305
 31
0.0
  0
LINE
  5
3f2
100
AcDbEntity
  8
Layer_1
 62
5
100
AcDbLine
 10
59.604249
 20
113.014305
 30
0.0
 11
59.604271
 21
113.014305
 31
0.0
  0
LINE
  5
3f3
100
AcDbEntity
  8
Layer_1
 62
5
100
AcDbLine
 10
56.233182
 20
114.938694
 30
0.0
 11
57.516109
 21
114.938694
 31
0.0
  0
LINE
  5
3f4
100
AcDbEntity
  8
Layer_1
 62
5
100
AcDbLine
 10
57.516109
 20
114.938694
 30
0.0
 11
57.516109
 21
115.580155
 31
0.0
  0
LINE
  5
3f5
100
AcDbEntity
  8
Layer_1
 62
5
100
AcDbLine
 10
57.516109
 20
115.580155
 30
0.0
 11
56.233182
 21
115.580155
 31
0.0
  0
LINE
  5
3f6
100
AcDbEntity
  8
Layer_1
 62
5
100
AcDbLine
 10
56.233182
 20
115.580155
 30
0.0
 11
56.233182
 21
114.938694
 31
0.0
  0
LINE
  5
3f7
100
AcDbEntity
  8
Layer_1
 62
5
100
AcDbLine
 10
56.233182
 20
114.938694
 30
0.0
 11
56.233182
 21
114.938694
 31
0.0
  0
LINE
  5
3f8
100
AcDbEntity
  8
Layer_1
 62
5
100
AcDbLine
 10
55.163743
 20
114.688524
 30
0.0
 11
55.163743
 21
114.047063
 31
0.0
  0
SPLINE
  5
3f9
100
AcDbEntity
  8
Layer_1
 62
5
100
AcDbSpline
 70
8
 71
3
 72
8
 73
4
 74
0
 40
0
 40
0
 40
0
 40
0
 40
1
 40
1
 40
1
 40
1
 10
55.163743
 20
114.047063
 30
0.0
 10
55.163743
 20
113.726330
 30
0.0
 10
55.022626
 20
113.610867
 30
0.0
 10
54.798111
 20
113.610867
 30
0.0
  0
SPLINE
  5
3fa
100
AcDbEntity
  8
Layer_1
 62
5
100
AcDbSpline
 70
8
 71
3
 72
8
 73
4
 74
0
 40
0
 40
0
 40
0
 40
0
 40
1
 40
1
 40
1
 40
1
 10
54.798111
 20
113.610867
 30
0.0
 10
54.573596
 20
113.610867
 30
0.0
 10
54.432474
 20
113.726330
 30
0.0
 10
54.432474
 20
114.047063
 30
0.0
  0
LINE
  5
3fb
100
AcDbEntity
  8
Layer_1
 62
5
100
AcDbLine
 10
54.432474
 20
114.047063
 30
0.0
 11
54.432474
 21
116.471791
 31
0.0
  0
SPLINE
  5
3fc
100
AcDbEntity
  8
Layer_1
 62
5
100
AcDbSpline
 70
8
 71
3
 72
8
 73
4
 74
0
 40
0
 40
0
 40
0
 40
0
 40
1
 40
1
 40
1
 40
1
 10
54.432474
 20
116.471791
 30
0.0
 10
54.432474
 20
116.792520
 30
0.0
 10
54.573596
 20
116.914401
 30
0.0
 10
54.798111
 20
116.914401
 30
0.0
  0
SPLINE
  5
3fd
100
AcDbEntity
  8
Layer_1
 62
5
100
AcDbSpline
 70
8
 71
3
 72
8
 73
4
 74
0
 40
0
 40
0
 40
0
 40
0
 40
1
 40
1
 40
1
 40
1
 10
54.798111
 20
116.914401
 30
0.0
 10
55.022626
 20
116.914401
 30
0.0
 10
55.163743
 20
116.792520
 30
0.0
 10
55.163743
 20
116.471791
 30
0.0
  0
LINE
  5
3fe
100
AcDbEntity
  8
Layer_1
 62
5
100
AcDbLine
 10
55.163743
 20
116.471791
 30
0.0
 11
55.163743
 21
115.990692
 31
0.0
  0
LINE
  5
3ff
100
AcDbEntity
  8
Layer_1
 62
5
100
AcDbLine
 10
55.163743
 20
115.990692
 30
0.0
 11
55.830864
 21
115.990692
 31
0.0
  0
LINE
  5
400
100
AcDbEntity
  8
Layer_1
 62
5
100
AcDbLine
 10
55.830864
 20
115.990692
 30
0.0
 11
55.830864
 21
116.426887
 31
0.0
  0
SPLINE
  5
401
100
AcDbEntity
  8
Layer_1
 62
5
100
AcDbSpline
 70
8
 71
3
 72
8
 73
4
 74
0
 40
0
 40
0
 40
0
 40
0
 40
1
 40
1
 40
1
 40
1
 10
55.830864
 20
116.426887
 30
0.0
 10
55.830864
 20
117.145327
 30
0.0
 10
55.471647
 20
117.555863
 30
0.0
 10
54.778867
 20
117.555863
 30
0.0
  0
SPLINE
  5
402
100
AcDbEntity
  8
Layer_1
 62
5
100
AcDbSpline
 70
8
 71
3
 72
8
 73
4
 74
0
 40
0
 40
0
 40
0
 40
0
 40
1
 40
1
 40
1
 40
1
 10
54.778867
 20
117.555863
 30
0.0
 10
54.086086
 20
117.555863
 30
0.0
 10
53.726869
 20
117.145327
 30
0.0
 10
53.726869
 20
116.426887
 30
0.0
  0
LINE
  5
403
100
AcDbEntity
  8
Layer_1
 62
5
100
AcDbLine
 10
53.726869
 20
116.426887
 30
0.0
 11
53.726869
 21
114.091967
 31
0.0
  0
SPLINE
  5
404
100
AcDbEntity
  8
Layer_1
 62
5
100
AcDbSpline
 70
8
 71
3
 72
8
 73
4
 74
0
 40
0
 40
0
 40
0
 40
0
 40
1
 40
1
 40
1
 40
1
 10
53.726869
 20
114.091967
 30
0.0
 10
53.726869
 20
113.373527
 30
0.0
 10
54.086086
 20
112.962986
 30
0.0
 10
54.778867
 20
112.962986
 30
0.0
  0
SPLINE
  5
405
100
AcDbEntity
  8
Layer_1
 62
5
100
AcDbSpline
 70
8
 71
3
 72
8
 73
4
 74
0
 40
0
 40
0
 40
0
 40
0
 40
1
 40
1
 40
1
 40
1
 10
54.778867
 20
112.962986
 30
0.0
 10
55.471647
 20
112.962986
 30
0.0
 10
55.830864
 20
113.373527
 30
0.0
 10
55.830864
 20
114.091967
 30
0.0
  0
LINE
  5
406
100
AcDbEntity
  8
Layer_1
 62
5
100
AcDbLine
 10
55.830864
 20
114.091967
 30
0.0
 11
55.830864
 21
114.688524
 31
0.0
  0
LINE
  5
407
100
AcDbEntity
  8
Layer_1
 62
5
100
AcDbLine
 10
55.830864
 20
114.688524
 30
0.0
 11
55.163743
 21
114.688524
 31
0.0
  0
LINE
  5
408
100
AcDbEntity
  8
Layer_1
 62
5
100
AcDbLine
 10
55.163743
 20
114.688524
 30
0.0
 11
55.163743
 21
114.688524
 31
0.0
  0
SPLINE
  5
409
100
AcDbEntity
  8
Layer_1
 62
5
100
AcDbSpline
 70
8
 71
3
 72
8
 73
4
 74
0
 40
0
 40
0
 40
0
 40
0
 40
1
 40
1
 40
1
 40
1
 10
53.397514
 20
113.014305
 30
0.0
 10
53.326955
 20
113.181086
 30
0.0
 10
53.320541
 20
113.341453
 30
0.0
 10
53.320541
 20
113.559548
 30
0.0
  0
LINE
  5
40a
100
AcDbEntity
  8
Layer_1
 62
5
100
AcDbLine
 10
53.320541
 20
113.559548
 30
0.0
 11
53.320541
 21
114.252329
 31
0.0
  0
SPLINE
  5
40b
100
AcDbEntity
  8
Layer_1
 62
5
100
AcDbSpline
 70
8
 71
3
 72
8
 73
4
 74
0
 40
0
 40
0
 40
0
 40
0
 40
1
 40
1
 40
1
 40
1
 10
53.320541
 20
114.252329
 30
0.0
 10
53.320541
 20
114.720598
 30
0.0
 10
53.205074
 20
115.054161
 30
0.0
 10
52.852271
 20
115.201698
 30
0.0
  0
LINE
  5
40c
100
AcDbEntity
  8
Layer_1
 62
5
100
AcDbLine
 10
52.852271
 20
115.201698
 30
0.0
 11
52.852271
 21
115.214501
 31
0.0
  0
SPLINE
  5
40d
100
AcDbEntity
  8
Layer_1
 62
5
100
AcDbSpline
 70
8
 71
3
 72
8
 73
4
 74
0
 40
0
 40
0
 40
0
 40
0
 40
1
 40
1
 40
1
 40
1
 10
52.852271
 20
115.214501
 30
0.0
 10
53.166584
 20
115.362037
 30
0.0
 10
53.314121
 20
115.657111
 30
0.0
 10
53.314121
 20
116.118966
 30
0.0
  0
LINE
  5
40e
100
AcDbEntity
  8
Layer_1
 62
5
100
AcDbLine
 10
53.314121
 20
116.118966
 30
0.0
 11
53.314121
 21
116.471769
 31
0.0
  0
SPLINE
  5
40f
100
AcDbEntity
  8
Layer_1
 62
5
100
AcDbSpline
 70
8
 71
3
 72
8
 73
4
 74
0
 40
0
 40
0
 40
0
 40
0
 40
1
 40
1
 40
1
 40
1
 10
53.314121
 20
116.471769
 30
0.0
 10
53.314121
 20
117.164549
 30
0.0
 10
52.999803
 20
117.504526
 30
0.0
 10
52.268538
 20
117.504526
 30
0.0
  0
LINE
  5
410
100
AcDbEntity
  8
Layer_1
 62
5
100
AcDbLine
 10
52.268538
 20
117.504526
 30
0.0
 11
51.203711
 21
117.504526
 31
0.0
  0
LINE
  5
411
100
AcDbEntity
  8
Layer_1
 62
5
100
AcDbLine
 10
51.203711
 20
117.504526
 30
0.0
 11
51.203711
 21
113.014283
 31
0.0
  0
LINE
  5
412
100
AcDbEntity
  8
Layer_1
 62
5
100
AcDbLine
 10
51.203711
 20
113.014283
 30
0.0
 11
51.909316
 21
113.014283
 31
0.0
  0
LINE
  5
413
100
AcDbEntity
  8
Layer_1
 62
5
100
AcDbLine
 10
51.909316
 20
113.014283
 30
0.0
 11
51.909316
 21
114.842453
 31
0.0
  0
LINE
  5
414
100
AcDbEntity
  8
Layer_1
 62
5
100
AcDbLine
 10
51.909316
 20
114.842453
 30
0.0
 11
52.153076
 21
114.842453
 31
0.0
  0
SPLINE
  5
415
100
AcDbEntity
  8
Layer_1
 62
5
100
AcDbSpline
 70
8
 71
3
 72
8
 73
4
 74
0
 40
0
 40
0
 40
0
 40
0
 40
1
 40
1
 40
1
 40
1
 10
52.153076
 20
114.842453
 30
0.0
 10
52.473809
 20
114.842453
 30
0.0
 10
52.614926
 20
114.688502
 30
0.0
 10
52.614926
 20
114.271551
 30
0.0
  0
LINE
  5
416
100
AcDbEntity
  8
Layer_1
 62
5
100
AcDbLine
 10
52.614926
 20
114.271551
 30
0.0
 11
52.614926
 21
113.565941
 31
0.0
  0
SPLINE
  5
417
100
AcDbEntity
  8
Layer_1
 62
5
100
AcDbSpline
 70
8
 71
3
 72
8
 73
4
 74
0
 40
0
 40
0
 40
0
 40
0
 40
1
 40
1
 40
1
 40
1
 10
52.614926
 20
113.565941
 30
0.0
 10
52.614926
 20
113.200309
 30
0.0
 10
52.640577
 20
113.129745
 30
0.0
 10
52.679075
 20
113.014283
 30
0.0
  0
LINE
  5
418
100
AcDbEntity
  8
Layer_1
 62
5
100
AcDbLine
 10
52.679075
 20
113.014283
 30
0.0
 11
53.397514
 21
113.014283
 31
0.0
  0
LINE
  5
419
100
AcDbEntity
  8
Layer_1
 62
5
100
AcDbLine
 10
53.397514
 20
113.014283
 30
0.0
 11
53.397514
 21
113.014305
 31
0.0
  0
SPLINE
  5
41a
100
AcDbEntity
  8
Layer_1
 62
5
100
AcDbSpline
 70
8
 71
3
 72
8
 73
4
 74
0
 40
0
 40
0
 40
0
 40
0
 40
1
 40
1
 40
1
 40
1
 10
52.249294
 20
116.863083
 30
0.0
 10
52.499468
 20
116.863083
 30
0.0
 10
52.608511
 20
116.721965
 30
0.0
 10
52.608511
 20
116.401228
 30
0.0
  0
LINE
  5
41b
100
AcDbEntity
  8
Layer_1
 62
5
100
AcDbLine
 10
52.608511
 20
116.401228
 30
0.0
 11
52.608511
 21
115.958622
 31
0.0
  0
SPLINE
  5
41c
100
AcDbEntity
  8
Layer_1
 62
5
100
AcDbSpline
 70
8
 71
3
 72
8
 73
4
 74
0
 40
0
 40
0
 40
0
 40
0
 40
1
 40
1
 40
1
 40
1
 10
52.608511
 20
115.958622
 30
0.0
 10
52.608511
 20
115.599400
 30
0.0
 10
52.448145
 20
115.483937
 30
0.0
 10
52.185150
 20
115.483937
 30
0.0
  0
LINE
  5
41d
100
AcDbEntity
  8
Layer_1
 62
5
100
AcDbLine
 10
52.185150
 20
115.483937
 30
0.0
 11
51.909316
 21
115.483937
 31
0.0
  0
LINE
  5
41e
100
AcDbEntity
  8
Layer_1
 62
5
100
AcDbLine
 10
51.909316
 20
115.483937
 30
0.0
 11
51.909316
 21
116.863083
 31
0.0
  0
LINE
  5
41f
100
AcDbEntity
  8
Layer_1
 62
5
100
AcDbLine
 10
51.909316
 20
116.863083
 30
0.0
 11
52.249294
 21
116.863083
 31
0.0
  0
LINE
  5
420
100
AcDbEntity
  8
Layer_1
 62
5
100
AcDbLine
 10
52.249294
 20
116.863083
 30
0.0
 11
52.249294
 21
116.863083
 31
0.0
  0
SPLINE
  5
421
100
AcDbEntity
  8
Layer_1
 62
5
100
AcDbSpline
 70
8
 71
3
 72
8
 73
4
 74
0
 40
0
 40
0
 40
0
 40
0
 40
1
 40
1
 40
1
 40
1
 10
49.308285
 20
116.471791
 30
0.0
 10
49.308285
 20
116.792520
 30
0.0
 10
49.449412
 20
116.914401
 30
0.0
 10
49.673922
 20
116.914401
 30
0.0
  0
SPLINE
  5
422
100
AcDbEntity
  8
Layer_1
 62
5
100
AcDbSpline
 70
8
 71
3
 72
8
 73
4
 74
0
 40
0
 40
0
 40
0
 40
0
 40
1
 40
1
 40
1
 40
1
 10
49.673922
 20
116.914401
 30
0.0
 10
49.898437
 20
116.914401
 30
0.0
 10
50.039559
 20
116.792520
 30
0.0
 10
50.039559
 20
116.471791
 30
0.0
  0
LINE
  5
423
100
AcDbEntity
  8
Layer_1
 62
5
100
AcDbLine
 10
50.039559
 20
116.471791
 30
0.0
 11
50.039559
 21
114.047063
 31
0.0
  0
SPLINE
  5
424
100
AcDbEntity
  8
Layer_1
 62
5
100
AcDbSpline
 70
8
 71
3
 72
8
 73
4
 74
0
 40
0
 40
0
 40
0
 40
0
 40
1
 40
1
 40
1
 40
1
 10
50.039559
 20
114.047063
 30
0.0
 10
50.039559
 20
113.726330
 30
0.0
 10
49.898437
 20
113.604452
 30
0.0
 10
49.673922
 20
113.604452
 30
0.0
  0
SPLINE
  5
425
100
AcDbEntity
  8
Layer_1
 62
5
100
AcDbSpline
 70
8
 71
3
 72
8
 73
4
 74
0
 40
0
 40
0
 40
0
 40
0
 40
1
 40
1
 40
1
 40
1
 10
49.673922
 20
113.604452
 30
0.0
 10
49.449412
 20
113.604452
 30
0.0
 10
49.308285
 20
113.726330
 30
0.0
 10
49.308285
 20
114.047063
 30
0.0
  0
LINE
  5
426
100
AcDbEntity
  8
Layer_1
 62
5
100
AcDbLine
 10
49.308285
 20
114.047063
 30
0.0
 11
49.308285
 21
116.471791
 31
0.0
  0
LINE
  5
427
100
AcDbEntity
  8
Layer_1
 62
5
100
AcDbLine
 10
49.308285
 20
116.471791
 30
0.0
 11
49.308285
 21
116.471791
 31
0.0
  0
SPLINE
  5
428
100
AcDbEntity
  8
Layer_1
 62
5
100
AcDbSpline
 70
8
 71
3
 72
8
 73
4
 74
0
 40
0
 40
0
 40
0
 40
0
 40
1
 40
1
 40
1
 40
1
 10
48.602680
 20
114.091967
 30
0.0
 10
48.602680
 20
113.373527
 30
0.0
 10
48.981142
 20
112.962986
 30
0.0
 10
49.673922
 20
112.962986
 30
0.0
  0
SPLINE
  5
429
100
AcDbEntity
  8
Layer_1
 62
5
100
AcDbSpline
 70
8
 71
3
 72
8
 73
4
 74
0
 40
0
 40
0
 40
0
 40
0
 40
1
 40
1
 40
1
 40
1
 10
49.673922
 20
112.962986
 30
0.0
 10
50.366702
 20
112.962986
 30
0.0
 10
50.745169
 20
113.373527
 30
0.0
 10
50.745169
 20
114.091967
 30
0.0
  0
LINE
  5
42a
100
AcDbEntity
  8
Layer_1
 62
5
100
AcDbLine
 10
50.745169
 20
114.091967
 30
0.0
 11
50.745169
 21
116.426887
 31
0.0
  0
SPLINE
  5
42b
100
AcDbEntity
  8
Layer_1
 62
5
100
AcDbSpline
 70
8
 71
3
 72
8
 73
4
 74
0
 40
0
 40
0
 40
0
 40
0
 40
1
 40
1
 40
1
 40
1
 10
50.745169
 20
116.426887
 30
0.0
 10
50.745169
 20
117.145327
 30
0.0
 10
50.366702
 20
117.555863
 30
0.0
 10
49.673922
 20
117.555863
 30
0.0
  0
SPLINE
  5
42c
100
AcDbEntity
  8
Layer_1
 62
5
100
AcDbSpline
 70
8
 71
3
 72
8
 73
4
 74
0
 40
0
 40
0
 40
0
 40
0
 40
1
 40
1
 40
1
 40
1
 10
49.673922
 20
117.555863
 30
0.0
 10
48.981142
 20
117.555863
 30
0.0
 10
48.602680
 20
117.145327
 30
0.0
 10
48.602680
 20
116.426887
 30
0.0
  0
LINE
  5
42d
100
AcDbEntity
  8
Layer_1
 62
5
100
AcDbLine
 10
48.602680
 20
116.426887
 30
0.0
 11
48.602680
 21
114.091967
 31
0.0
  0
LINE
  5
42e
100
AcDbEntity
  8
Layer_1
 62
5
100
AcDbLine
 10
48.602680
 20
114.091967
 30
0.0
 11
48.602680
 21
114.091967
 31
0.0
  0
ENDSEC
  0
SECTION
  2
OBJECTS
  0
DICTIONARY
  5
C
330
0
100
AcDbDictionary
  3
ACAD_GROUP
350
D
  3
ACAD_MLINESTYLE
350
17
  0
DICTIONARY
  5
D
330
C
100
AcDbDictionary
  0
DICTIONARY
  5
1A
330
C
100
AcDbDictionary
  0
DICTIONARY
  5
17
330
C
100
AcDbDictionary
  3
STANDARD
350
18
  0
DICTIONARY
  5
19
330
C
100
AcDbDictionary
  0
ENDSEC
  0
EOF
