  0
SECTION
  2
HEADER
  9
$ACADVER
  1
AC1014
  9
$HANDSEED
  5
FFFF
  9
$MEASUREMENT
 70
     1
  0
ENDSEC
  0
SECTION
  2
TABLES
  0
TABLE
  2
VPORT
  5
8
330
0
100
AcDbSymbolTable
 70
     4
  0
VPORT
  5
2E
330
8
100
AcDbSymbolTableRecord
100
AcDbViewportTableRecord
  2
*ACTIVE
 70
     0
 10
0.0
 20
0.0
 11
1.0
 21
1.0
 12
210.0
 22
148.5
 13
0.0
 23
0.0
 14
10.0
 24
10.0
 15
10.0
 25
10.0
 16
0.0
 26
0.0
 36
1.0
 17
0.0
 27
0.0
 37
0.0
 40
341.0
 41
1.24
 42
50.0
 43
0.0
 44
0.0
 50
0.0
 51
0.0
 71
     0
 72
   100
 73
     1
 74
     3
 75
     0
 76
     0
 77
     0
 78
     0
  0
ENDTAB
  0
TABLE
  2
LTYPE
  5
5
330
0
100
AcDbSymbolTable
 70
     1
  0
LTYPE
  5
14
330
5
100
AcDbSymbolTableRecord
100
AcDbLinetypeTableRecord
  2
BYBLOCK
 70
     0
  3

 72
    65
 73
     0
 40
0.0
  0
LTYPE
  5
15
330
5
100
AcDbSymbolTableRecord
100
AcDbLinetypeTableRecord
  2
BYLAYER
 70
     0
  3

 72
    65
 73
     0
 40
0.0
  0
LTYPE
  5
16
330
5
100
AcDbSymbolTableRecord
100
AcDbLinetypeTableRecord
  2
CONTINUOUS
 70
     0
  3
Solid line
 72
    65
 73
     0
 40
0.0
  0
ENDTAB
  0
TABLE
  2
LAYER
  5
2
100
AcDbSymbolTable
 70
3
  0
LAYER
  5
50
100
AcDbSymbolTableRecord
100
AcDbLayerTableRecord
  2
0
 70
0
  6
CONTINUOUS
  0
LAYER
  5
51
100
AcDbSymbolTableRecord
100
AcDbLayerTableRecord
  2
outline
 70
0
  6
CONTINUOUS
  0
LAYER
  5
52
100
AcDbSymbolTableRecord
100
AcDbLayerTableRecord
  2
holes
 70
0
  6
CONTINUOUS
  0
ENDTAB
  0
TABLE
  2
STYLE
  5
3
330
0
100
AcDbSymbolTable
 70
     1
  0
STYLE
  5
11
330
3
100
AcDbSymbolTableRecord
100
AcDbTextStyleTableRecord
  2
STANDARD
 70
     0
 40
0.0
 41
1.0
 50
0.0
 71
     0
 42
2.5
  3
txt
  4

  0
ENDTAB
  0
TABLE
  2
VIEW
  5
6
330
0
100
AcDbSymbolTable
 70
     0
  0
ENDTAB
  0
TABLE
  2
UCS
  5
7
330
0
100
AcDbSymbolTable
 70
     0
  0
ENDTAB
  0
TABLE
  2
APPID
  5
9
330
0
100
AcDbSymbolTable
 70
     2
  0
APPID
  5
12
330
9
100
AcDbSymbolTableRecord
100
AcDbRegAppTableRecord
  2
ACAD
 70
     0
  0
ENDTAB
  0
TABLE
  2
DIMSTYLE
  5
A
330
0
100
AcDbSymbolTable
 70
     1
  0
DIMSTYLE
105
27
330
A
100
AcDbSymbolTableRecord
100
AcDbDimStyleTableRecord
  2
ISO-25
 70
     0
  3

  4

  5

  6

  7

 40
1.0
 41
2.5
 42
0.625
 43
3.75
 44
1.25
 45
0.0
 46
0.0
 47
0.0
 48
0.0
140
2.5
141
2.5
142
0.0
143
0.03937007874016
144
1.0
145
0.0
146
1.0
147
0.625
 71
     0
 72
     0
 73
     0
 74
     0
 75
     0
 76
     0
 77
     1
 78
     8
170
     0
171
     3
172
     1
173
     0
174
     0
175
     0
176
     0
177
     0
178
     0
270
     2
271
     2
272
     2
273
     2
274
     3
340
11
275
     0
280
     0
281
     0
282
     0
283
     0
284
     8
285
     0
286
     0
287
     3
288
     0
  0
ENDTAB
  0
TABLE
  2
BLOCK_RECORD
  5
1
330
0
100
AcDbSymbolTable
 70
     1
  0
BLOCK_RECORD
  5
1F
330
1
100
AcDbSymbolTableRecord
100
AcDbBlockTableRecord
  2
*MODEL_SPACE
  0
BLOCK_RECORD
  5
1B
330
1
100
AcDbSymbolTableRecord
100
AcDbBlockTableRecord
  2
*PAPER_SPACE
  0
ENDTAB
  0
ENDSEC
  0
SECTION
  2
BLOCKS
  0
BLOCK
  5
20
330
1F
100
AcDbEntity
  8
0
100
AcDbBlockBegin
  2
*MODEL_SPACE
 70
     0
 10
0.0
 20
0.0
 30
0.0
  3
*MODEL_SPACE
  1

  0
ENDBLK
  5
21
330
1F
100
AcDbEntity
  8
0
100
AcDbBlockEnd
  0
BLOCK
  5
1C
330
1B
100
AcDbEntity
 67
     1
  8
0
100
AcDbBlockBegin
  2
*PAPER_SPACE
  1

  0
ENDBLK
  5
1D
330
1B
100
AcDbEntity
 67
     1
  8
0
100
AcDbBlockEnd
  0
ENDSEC
  0
SECTION
  2
ENTITIES
  0
LINE
  5
100
100
AcDbEntity
  8
outline
 62
7
100
AcDbLine
 10
7.106257
 20
78.960888
 30
0.0
 11
7.106257
 21
60.960944
 31
0.0
  0
LINE
  5
101
100
AcDbEntity
  8
outline
 62
7
100
AcDbLine
 10
7.106257
 20
60.960944
 30
0.0
 11
13.355564
 21
60.960944
 31
0.0
  0
LINE
  5
102
100
AcDbEntity
  8
outline
 62
7
100
AcDbLine
 10
13.355564
 20
60.960944
 30
0.0
 11
13.355564
 21
63.960656
 31
0.0
  0
LINE
  5
103
100
AcDbEntity
  8
outline
 62
7
100
AcDbLine
 10
13.355564
 20
63.960656
 30
0.0
 11
19.244274
 21
63.960656
 31
0.0
  0
LINE
  5
104
100
AcDbEntity
  8
outline
 62
7
100
AcDbLine
 10
19.244274
 20
63.960656
 30
0.0
 11
21.328971
 21
63.960656
 31
0.0
  0
LINE
  5
105
100
AcDbEntity
  8
outline
 62
7
100
AcDbLine
 10
21.328971
 20
63.960656
 30
0.0
 11
37.578795
 21
63.960656
 31
0.0
  0
SPLINE
  5
106
100
AcDbEntity
  8
outline
 62
7
100
AcDbSpline
 70
8
 71
3
 72
8
 73
4
 74
0
 40
0
 40
0
 40
0
 40
0
 40
1
 40
1
 40
1
 40
1
 10
37.578795
 20
63.960656
 30
0.0
 10
38.978657
 20
63.960656
 30
0.0
 10
40.105564
 20
65.068942
 30
0.0
 10
40.105564
 20
66.445541
 30
0.0
  0
LINE
  5
107
100
AcDbEntity
  8
outline
 62
7
100
AcDbLine
 10
40.105564
 20
66.445541
 30
0.0
 11
40.105564
 21
73.476317
 31
0.0
  0
SPLINE
  5
108
100
AcDbEntity
  8
outline
 62
7
100
AcDbSpline
 70
8
 71
3
 72
8
 73
4
 74
0
 40
0
 40
0
 40
0
 40
0
 40
1
 40
1
 40
1
 40
1
 10
40.105564
 20
73.476317
 30
0.0
 10
40.105564
 20
74.852912
 30
0.0
 10
38.978657
 20
75.961171
 30
0.0
 10
37.578795
 20
75.961171
 30
0.0
  0
LINE
  5
109
100
AcDbEntity
  8
outline
 62
7
100
AcDbLine
 10
37.578795
 20
75.961171
 30
0.0
 11
21.328971
 21
75.961171
 31
0.0
  0
LINE
  5
10a
100
AcDbEntity
  8
outline
 62
7
100
AcDbLine
 10
21.328971
 20
75.961171
 30
0.0
 11
19.244274
 21
75.961171
 31
0.0
  0
LINE
  5
10b
100
AcDbEntity
  8
outline
 62
7
100
AcDbLine
 10
19.244274
 20
75.961171
 30
0.0
 11
13.355564
 21
75.961171
 31
0.0
  0
LINE
  5
10c
100
AcDbEntity
  8
outline
 62
7
100
AcDbLine
 10
13.355564
 20
75.961171
 30
0.0
 11
13.355564
 21
78.960888
 31
0.0
  0
LINE
  5
10d
100
AcDbEntity
  8
outline
 62
7
100
AcDbLine
 10
13.355564
 20
78.960888
 30
0.0
 11
7.106257
 21
78.960888
 31
0.0
  0
LINE
  5
10e
100
AcDbEntity
  8
outline
 62
7
100
AcDbLine
 10
7.106257
 20
42.960997
 30
0.0
 11
7.106257
 21
24.961053
 31
0.0
  0
LINE
  5
10f
100
AcDbEntity
  8
outline
 62
7
100
AcDbLine
 10
7.106257
 20
24.961053
 30
0.0
 11
13.355564
 21
24.961053
 31
0.0
  0
LINE
  5
110
100
AcDbEntity
  8
outline
 62
7
100
AcDbLine
 10
13.355564
 20
24.961053
 30
0.0
 11
13.355564
 21
27.960764
 31
0.0
  0
LINE
  5
111
100
AcDbEntity
  8
outline
 62
7
100
AcDbLine
 10
13.355564
 20
27.960764
 30
0.0
 11
19.244274
 21
27.960764
 31
0.0
  0
LINE
  5
112
100
AcDbEntity
  8
outline
 62
7
100
AcDbLine
 10
19.244274
 20
27.960764
 30
0.0
 11
21.328971
 21
27.960764
 31
0.0
  0
LINE
  5
113
100
AcDbEntity
  8
outline
 62
7
100
AcDbLine
 10
21.328971
 20
27.960764
 30
0.0
 11
37.578795
 21
27.960764
 31
0.0
  0
SPLINE
  5
114
100
AcDbEntity
  8
outline
 62
7
100
AcDbSpline
 70
8
 71
3
 72
8
 73
4
 74
0
 40
0
 40
0
 40
0
 40
0
 40
1
 40
1
 40
1
 40
1
 10
37.578795
 20
27.960764
 30
0.0
 10
38.978657
 20
27.960764
 30
0.0
 10
40.105564
 20
29.069051
 30
0.0
 10
40.105564
 20
30.445649
 30
0.0
  0
LINE
  5
115
100
AcDbEntity
  8
outline
 62
7
100
AcDbLine
 10
40.105564
 20
30.445649
 30
0.0
 11
40.105564
 21
37.476426
 31
0.0
  0
SPLINE
  5
116
100
AcDbEntity
  8
outline
 62
7
100
AcDbSpline
 70
8
 71
3
 72
8
 73
4
 74
0
 40
0
 40
0
 40
0
 40
0
 40
1
 40
1
 40
1
 40
1
 10
40.105564
 20
37.476426
 30
0.0
 10
40.105564
 20
38.853021
 30
0.0
 10
38.978657
 20
39.961279
 30
0.0
 10
37.578795
 20
39.961279
 30
0.0
  0
LINE
  5
117
100
AcDbEntity
  8
outline
 62
7
100
AcDbLine
 10
37.578795
 20
39.961279
 30
0.0
 11
21.328971
 21
39.961279
 31
0.0
  0
LINE
  5
118
100
AcDbEntity
  8
outline
 62
7
100
AcDbLine
 10
21.328971
 20
39.961279
 30
0.0
 11
19.244274
 21
39.961279
 31
0.0
  0
LINE
  5
119
100
AcDbEntity
  8
outline
 62
7
100
AcDbLine
 10
19.244274
 20
39.961279
 30
0.0
 11
13.355564
 21
39.961279
 31
0.0
  0
LINE
  5
11a
100
AcDbEntity
  8
outline
 62
7
100
AcDbLine
 10
13.355564
 20
39.961279
 30
0.0
 11
13.355564
 21
42.960997
 31
0.0
  0
LINE
  5
11b
100
AcDbEntity
  8
outline
 62
7
100
AcDbLine
 10
13.355564
 20
42.960997
 30
0.0
 11
7.106257
 21
42.960997
 31
0.0
  0
LINE
  5
11c
100
AcDbEntity
  8
outline
 62
7
100
AcDbLine
 10
44.189630
 20
78.960874
 30
0.0
 11
44.189630
 21
60.960927
 31
0.0
  0
LINE
  5
11d
100
AcDbEntity
  8
outline
 62
7
100
AcDbLine
 10
44.189630
 20
60.960927
 30
0.0
 11
50.438936
 21
60.960927
 31
0.0
  0
LINE
  5
11e
100
AcDbEntity
  8
outline
 62
7
100
AcDbLine
 10
50.438936
 20
60.960927
 30
0.0
 11
50.438936
 21
63.960639
 31
0.0
  0
LINE
  5
11f
100
AcDbEntity
  8
outline
 62
7
100
AcDbLine
 10
50.438936
 20
63.960639
 30
0.0
 11
56.327647
 21
63.960639
 31
0.0
  0
LINE
  5
120
100
AcDbEntity
  8
outline
 62
7
100
AcDbLine
 10
56.327647
 20
63.960639
 30
0.0
 11
58.412343
 21
63.960639
 31
0.0
  0
LINE
  5
121
100
AcDbEntity
  8
outline
 62
7
100
AcDbLine
 10
58.412343
 20
63.960639
 30
0.0
 11
74.662171
 21
63.960639
 31
0.0
  0
SPLINE
  5
122
100
AcDbEntity
  8
outline
 62
7
100
AcDbSpline
 70
8
 71
3
 72
8
 73
4
 74
0
 40
0
 40
0
 40
0
 40
0
 40
1
 40
1
 40
1
 40
1
 10
74.662171
 20
63.960639
 30
0.0
 10
76.062033
 20
63.960639
 30
0.0
 10
77.188941
 20
65.068925
 30
0.0
 10
77.188941
 20
66.445526
 30
0.0
  0
LINE
  5
123
100
AcDbEntity
  8
outline
 62
7
100
AcDbLine
 10
77.188941
 20
66.445526
 30
0.0
 11
77.188941
 21
73.476303
 31
0.0
  0
SPLINE
  5
124
100
AcDbEntity
  8
outline
 62
7
100
AcDbSpline
 70
8
 71
3
 72
8
 73
4
 74
0
 40
0
 40
0
 40
0
 40
0
 40
1
 40
1
 40
1
 40
1
 10
77.188941
 20
73.476303
 30
0.0
 10
77.188941
 20
74.852898
 30
0.0
 10
76.062033
 20
75.961157
 30
0.0
 10
74.662171
 20
75.961157
 30
0.0
  0
LINE
  5
125
100
AcDbEntity
  8
outline
 62
7
100
AcDbLine
 10
74.662171
 20
75.961157
 30
0.0
 11
58.412343
 21
75.961157
 31
0.0
  0
LINE
  5
126
100
AcDbEntity
  8
outline
 62
7
100
AcDbLine
 10
58.412343
 20
75.961157
 30
0.0
 11
56.327647
 21
75.961157
 31
0.0
  0
LINE
  5
127
100
AcDbEntity
  8
outline
 62
7
100
AcDbLine
 10
56.327647
 20
75.961157
 30
0.0
 11
50.438936
 21
75.961157
 31
0.0
  0
LINE
  5
128
100
AcDbEntity
  8
outline
 62
7
100
AcDbLine
 10
50.438936
 20
75.961157
 30
0.0
 11
50.438936
 21
78.960874
 31
0.0
  0
LINE
  5
129
100
AcDbEntity
  8
outline
 62
7
100
AcDbLine
 10
50.438936
 20
78.960874
 30
0.0
 11
44.189630
 21
78.960874
 31
0.0
  0
LINE
  5
12a
100
AcDbEntity
  8
outline
 62
7
100
AcDbLine
 10
44.190051
 20
42.960983
 30
0.0
 11
44.190051
 21
24.961039
 31
0.0
  0
LINE
  5
12b
100
AcDbEntity
  8
outline
 62
7
100
AcDbLine
 10
44.190051
 20
24.961039
 30
0.0
 11
50.439357
 21
24.961039
 31
0.0
  0
LINE
  5
12c
100
AcDbEntity
  8
outline
 62
7
100
AcDbLine
 10
50.439357
 20
24.961039
 30
0.0
 11
50.439357
 21
27.960750
 31
0.0
  0
LINE
  5
12d
100
AcDbEntity
  8
outline
 62
7
100
AcDbLine
 10
50.439357
 20
27.960750
 30
0.0
 11
56.328067
 21
27.960750
 31
0.0
  0
LINE
  5
12e
100
AcDbEntity
  8
outline
 62
7
100
AcDbLine
 10
56.328067
 20
27.960750
 30
0.0
 11
58.412764
 21
27.960750
 31
0.0
  0
LINE
  5
12f
100
AcDbEntity
  8
outline
 62
7
100
AcDbLine
 10
58.412764
 20
27.960750
 30
0.0
 11
74.662589
 21
27.960750
 31
0.0
  0
SPLINE
  5
130
100
AcDbEntity
  8
outline
 62
7
100
AcDbSpline
 70
8
 71
3
 72
8
 73
4
 74
0
 40
0
 40
0
 40
0
 40
0
 40
1
 40
1
 40
1
 40
1
 10
74.662589
 20
27.960750
 30
0.0
 10
76.062451
 20
27.960750
 30
0.0
 10
77.189358
 20
29.069037
 30
0.0
 10
77.189358
 20
30.445635
 30
0.0
  0
LINE
  5
131
100
AcDbEntity
  8
outline
 62
7
100
AcDbLine
 10
77.189358
 20
30.445635
 30
0.0
 11
77.189358
 21
37.476412
 31
0.0
  0
SPLINE
  5
132
100
AcDbEntity
  8
outline
 62
7
100
AcDbSpline
 70
8
 71
3
 72
8
 73
4
 74
0
 40
0
 40
0
 40
0
 40
0
 40
1
 40
1
 40
1
 40
1
 10
77.189358
 20
37.476412
 30
0.0
 10
77.189358
 20
38.853007
 30
0.0
 10
76.062451
 20
39.961265
 30
0.0
 10
74.662589
 20
39.961265
 30
0.0
  0
LINE
  5
133
100
AcDbEntity
  8
outline
 62
7
100
AcDbLine
 10
74.662589
 20
39.961265
 30
0.0
 11
58.412764
 21
39.961265
 31
0.0
  0
LINE
  5
134
100
AcDbEntity
  8
outline
 62
7
100
AcDbLine
 10
58.412764
 20
39.961265
 30
0.0
 11
56.328067
 21
39.961265
 31
0.0
  0
LINE
  5
135
100
AcDbEntity
  8
outline
 62
7
100
AcDbLine
 10
56.328067
 20
39.961265
 30
0.0
 11
50.439357
 21
39.961265
 31
0.0
  0
LINE
  5
136
100
AcDbEntity
  8
outline
 62
7
100
AcDbLine
 10
50.439357
 20
39.961265
 30
0.0
 11
50.439357
 21
42.960983
 31
0.0
  0
LINE
  5
137
100
AcDbEntity
  8
outline
 62
7
100
AcDbLine
 10
50.439357
 20
42.960983
 30
0.0
 11
44.190051
 21
42.960983
 31
0.0
  0
LINE
  5
138
100
AcDbEntity
  8
outline
 62
7
100
AcDbLine
 10
77.189358
 20
61.319513
 30
0.0
 11
77.189358
 21
43.319569
 31
0.0
  0
LINE
  5
139
100
AcDbEntity
  8
outline
 62
7
100
AcDbLine
 10
77.189358
 20
43.319569
 30
0.0
 11
70.940052
 21
43.319569
 31
0.0
  0
LINE
  5
13a
100
AcDbEntity
  8
outline
 62
7
100
AcDbLine
 10
70.940052
 20
43.319569
 30
0.0
 11
70.940052
 21
46.319280
 31
0.0
  0
LINE
  5
13b
100
AcDbEntity
  8
outline
 62
7
100
AcDbLine
 10
70.940052
 20
46.319280
 30
0.0
 11
65.051342
 21
46.319280
 31
0.0
  0
LINE
  5
13c
100
AcDbEntity
  8
outline
 62
7
100
AcDbLine
 10
65.051342
 20
46.319280
 30
0.0
 11
62.966645
 21
46.319280
 31
0.0
  0
LINE
  5
13d
100
AcDbEntity
  8
outline
 62
7
100
AcDbLine
 10
62.966645
 20
46.319280
 30
0.0
 11
46.716817
 21
46.319280
 31
0.0
  0
SPLINE
  5
13e
100
AcDbEntity
  8
outline
 62
7
100
AcDbSpline
 70
8
 71
3
 72
8
 73
4
 74
0
 40
0
 40
0
 40
0
 40
0
 40
1
 40
1
 40
1
 40
1
 10
46.716817
 20
46.319280
 30
0.0
 10
45.316956
 20
46.319280
 30
0.0
 10
44.190048
 20
47.427567
 30
0.0
 10
44.190048
 20
48.804165
 30
0.0
  0
LINE
  5
13f
100
AcDbEntity
  8
outline
 62
7
100
AcDbLine
 10
44.190048
 20
48.804165
 30
0.0
 11
44.190048
 21
55.834942
 31
0.0
  0
SPLINE
  5
140
100
AcDbEntity
  8
outline
 62
7
100
AcDbSpline
 70
8
 71
3
 72
8
 73
4
 74
0
 40
0
 40
0
 40
0
 40
0
 40
1
 40
1
 40
1
 40
1
 10
44.190048
 20
55.834942
 30
0.0
 10
44.190048
 20
57.211537
 30
0.0
 10
45.316956
 20
58.319796
 30
0.0
 10
46.716817
 20
58.319796
 30
0.0
  0
LINE
  5
141
100
AcDbEntity
  8
outline
 62
7
100
AcDbLine
 10
46.716817
 20
58.319796
 30
0.0
 11
62.966645
 21
58.319796
 31
0.0
  0
LINE
  5
142
100
AcDbEntity
  8
outline
 62
7
100
AcDbLine
 10
62.966645
 20
58.319796
 30
0.0
 11
65.051342
 21
58.319796
 31
0.0
  0
LINE
  5
143
100
AcDbEntity
  8
outline
 62
7
100
AcDbLine
 10
65.051342
 20
58.319796
 30
0.0
 11
70.940052
 21
58.319796
 31
0.0
  0
LINE
  5
144
100
AcDbEntity
  8
outline
 62
7
100
AcDbLine
 10
70.940052
 20
58.319796
 30
0.0
 11
70.940052
 21
61.319513
 31
0.0
  0
LINE
  5
145
100
AcDbEntity
  8
outline
 62
7
100
AcDbLine
 10
70.940052
 20
61.319513
 30
0.0
 11
77.189358
 21
61.319513
 31
0.0
  0
LINE
  5
146
100
AcDbEntity
  8
outline
 62
7
100
AcDbLine
 10
40.105564
 20
61.319406
 30
0.0
 11
40.105564
 21
43.319461
 31
0.0
  0
LINE
  5
147
100
AcDbEntity
  8
outline
 62
7
100
AcDbLine
 10
40.105564
 20
43.319461
 30
0.0
 11
33.856261
 21
43.319461
 31
0.0
  0
LINE
  5
148
100
AcDbEntity
  8
outline
 62
7
100
AcDbLine
 10
33.856261
 20
43.319461
 30
0.0
 11
33.856261
 21
46.319173
 31
0.0
  0
LINE
  5
149
100
AcDbEntity
  8
outline
 62
7
100
AcDbLine
 10
33.856261
 20
46.319173
 30
0.0
 11
27.967549
 21
46.319173
 31
0.0
  0
LINE
  5
14a
100
AcDbEntity
  8
outline
 62
7
100
AcDbLine
 10
27.967549
 20
46.319173
 30
0.0
 11
25.882853
 21
46.319173
 31
0.0
  0
LINE
  5
14b
100
AcDbEntity
  8
outline
 62
7
100
AcDbLine
 10
25.882853
 20
46.319173
 30
0.0
 11
9.633027
 21
46.319173
 31
0.0
  0
SPLINE
  5
14c
100
AcDbEntity
  8
outline
 62
7
100
AcDbSpline
 70
8
 71
3
 72
8
 73
4
 74
0
 40
0
 40
0
 40
0
 40
0
 40
1
 40
1
 40
1
 40
1
 10
9.633027
 20
46.319173
 30
0.0
 10
8.233165
 20
46.319173
 30
0.0
 10
7.106257
 20
47.427460
 30
0.0
 10
7.106257
 20
48.804058
 30
0.0
  0
LINE
  5
14d
100
AcDbEntity
  8
outline
 62
7
100
AcDbLine
 10
7.106257
 20
48.804058
 30
0.0
 11
7.106257
 21
55.834834
 31
0.0
  0
SPLINE
  5
14e
100
AcDbEntity
  8
outline
 62
7
100
AcDbSpline
 70
8
 71
3
 72
8
 73
4
 74
0
 40
0
 40
0
 40
0
 40
0
 40
1
 40
1
 40
1
 40
1
 10
7.106257
 20
55.834834
 30
0.0
 10
7.106257
 20
57.211430
 30
0.0
 10
8.233165
 20
58.319688
 30
0.0
 10
9.633027
 20
58.319688
 30
0.0
  0
LINE
  5
14f
100
AcDbEntity
  8
outline
 62
7
100
AcDbLine
 10
9.633027
 20
58.319688
 30
0.0
 11
25.882853
 21
58.319688
 31
0.0
  0
LINE
  5
150
100
AcDbEntity
  8
outline
 62
7
100
AcDbLine
 10
25.882853
 20
58.319688
 30
0.0
 11
27.967549
 21
58.319688
 31
0.0
  0
LINE
  5
151
100
AcDbEntity
  8
outline
 62
7
100
AcDbLine
 10
27.967549
 20
58.319688
 30
0.0
 11
33.856261
 21
58.319688
 31
0.0
  0
LINE
  5
152
100
AcDbEntity
  8
outline
 62
7
100
AcDbLine
 10
33.856261
 20
58.319688
 30
0.0
 11
33.856261
 21
61.319406
 31
0.0
  0
LINE
  5
153
100
AcDbEntity
  8
outline
 62
7
100
AcDbLine
 10
33.856261
 20
61.319406
 30
0.0
 11
40.105564
 21
61.319406
 31
0.0
  0
LINE
  5
154
100
AcDbEntity
  8
outline
 62
7
100
AcDbLine
 10
40.105564
 20
25.319365
 30
0.0
 11
40.105564
 21
7.319435
 31
0.0
  0
LINE
  5
155
100
AcDbEntity
  8
outline
 62
7
100
AcDbLine
 10
40.105564
 20
7.319435
 30
0.0
 11
33.856261
 21
7.319435
 31
0.0
  0
LINE
  5
156
100
AcDbEntity
  8
outline
 62
7
100
AcDbLine
 10
33.856261
 20
7.319435
 30
0.0
 11
33.856261
 21
10.319146
 31
0.0
  0
LINE
  5
157
100
AcDbEntity
  8
outline
 62
7
100
AcDbLine
 10
33.856261
 20
10.319146
 30
0.0
 11
27.967549
 21
10.319146
 31
0.0
  0
LINE
  5
158
100
AcDbEntity
  8
outline
 62
7
100
AcDbLine
 10
27.967549
 20
10.319146
 30
0.0
 11
25.882853
 21
10.319146
 31
0.0
  0
LINE
  5
159
100
AcDbEntity
  8
outline
 62
7
100
AcDbLine
 10
25.882853
 20
10.319146
 30
0.0
 11
9.633027
 21
10.319146
 31
0.0
  0
SPLINE
  5
15a
100
AcDbEntity
  8
outline
 62
7
100
AcDbSpline
 70
8
 71
3
 72
8
 73
4
 74
0
 40
0
 40
0
 40
0
 40
0
 40
1
 40
1
 40
1
 40
1
 10
9.633027
 20
10.319146
 30
0.0
 10
8.233165
 20
10.319146
 30
0.0
 10
7.106257
 20
11.427433
 30
0.0
 10
7.106257
 20
12.804028
 30
0.0
  0
LINE
  5
15b
100
AcDbEntity
  8
outline
 62
7
100
AcDbLine
 10
7.106257
 20
12.804028
 30
0.0
 11
7.106257
 21
19.834794
 31
0.0
  0
SPLINE
  5
15c
100
AcDbEntity
  8
outline
 62
7
100
AcDbSpline
 70
8
 71
3
 72
8
 73
4
 74
0
 40
0
 40
0
 40
0
 40
0
 40
1
 40
1
 40
1
 40
1
 10
7.106257
 20
19.834794
 30
0.0
 10
7.106257
 20
21.211389
 30
0.0
 10
8.233165
 20
22.319647
 30
0.0
 10
9.633027
 20
22.319647
 30
0.0
  0
LINE
  5
15d
100
AcDbEntity
  8
outline
 62
7
100
AcDbLine
 10
9.633027
 20
22.319647
 30
0.0
 11
25.882853
 21
22.319647
 31
0.0
  0
LINE
  5
15e
100
AcDbEntity
  8
outline
 62
7
100
AcDbLine
 10
25.882853
 20
22.319647
 30
0.0
 11
27.967549
 21
22.319647
 31
0.0
  0
LINE
  5
15f
100
AcDbEntity
  8
outline
 62
7
100
AcDbLine
 10
27.967549
 20
22.319647
 30
0.0
 11
33.856261
 21
22.319647
 31
0.0
  0
LINE
  5
160
100
AcDbEntity
  8
outline
 62
7
100
AcDbLine
 10
33.856261
 20
22.319647
 30
0.0
 11
33.856261
 21
25.319365
 31
0.0
  0
LINE
  5
161
100
AcDbEntity
  8
outline
 62
7
100
AcDbLine
 10
33.856261
 20
25.319365
 30
0.0
 11
40.105564
 21
25.319365
 31
0.0
  0
LINE
  5
162
100
AcDbEntity
  8
outline
 62
7
100
AcDbLine
 10
77.189364
 20
25.319503
 30
0.0
 11
77.189364
 21
7.319576
 31
0.0
  0
LINE
  5
163
100
AcDbEntity
  8
outline
 62
7
100
AcDbLine
 10
77.189364
 20
7.319576
 30
0.0
 11
70.940058
 21
7.319576
 31
0.0
  0
LINE
  5
164
100
AcDbEntity
  8
outline
 62
7
100
AcDbLine
 10
70.940058
 20
7.319576
 30
0.0
 11
70.940058
 21
10.319288
 31
0.0
  0
LINE
  5
165
100
AcDbEntity
  8
outline
 62
7
100
AcDbLine
 10
70.940058
 20
10.319288
 30
0.0
 11
65.051347
 21
10.319288
 31
0.0
  0
LINE
  5
166
100
AcDbEntity
  8
outline
 62
7
100
AcDbLine
 10
65.051347
 20
10.319288
 30
0.0
 11
62.966651
 21
10.319288
 31
0.0
  0
LINE
  5
167
100
AcDbEntity
  8
outline
 62
7
100
AcDbLine
 10
62.966651
 20
10.319288
 30
0.0
 11
46.716823
 21
10.319288
 31
0.0
  0
SPLINE
  5
168
100
AcDbEntity
  8
outline
 62
7
100
AcDbSpline
 70
8
 71
3
 72
8
 73
4
 74
0
 40
0
 40
0
 40
0
 40
0
 40
1
 40
1
 40
1
 40
1
 10
46.716823
 20
10.319288
 30
0.0
 10
45.316961
 20
10.319288
 30
0.0
 10
44.190054
 20
11.427574
 30
0.0
 10
44.190054
 20
12.804170
 30
0.0
  0
LINE
  5
169
100
AcDbEntity
  8
outline
 62
7
100
AcDbLine
 10
44.190054
 20
12.804170
 30
0.0
 11
44.190054
 21
19.834932
 31
0.0
  0
SPLINE
  5
16a
100
AcDbEntity
  8
outline
 62
7
100
AcDbSpline
 70
8
 71
3
 72
8
 73
4
 74
0
 40
0
 40
0
 40
0
 40
0
 40
1
 40
1
 40
1
 40
1
 10
44.190054
 20
19.834932
 30
0.0
 10
44.190054
 20
21.211527
 30
0.0
 10
45.316961
 20
22.319786
 30
0.0
 10
46.716823
 20
22.319786
 30
0.0
  0
LINE
  5
16b
100
AcDbEntity
  8
outline
 62
7
100
AcDbLine
 10
46.716823
 20
22.319786
 30
0.0
 11
62.966651
 21
22.319786
 31
0.0
  0
LINE
  5
16c
100
AcDbEntity
  8
outline
 62
7
100
AcDbLine
 10
62.966651
 20
22.319786
 30
0.0
 11
65.051347
 21
22.319786
 31
0.0
  0
LINE
  5
16d
100
AcDbEntity
  8
outline
 62
7
100
AcDbLine
 10
65.051347
 20
22.319786
 30
0.0
 11
70.940058
 21
22.319786
 31
0.0
  0
LINE
  5
16e
100
AcDbEntity
  8
outline
 62
7
100
AcDbLine
 10
70.940058
 20
22.319786
 30
0.0
 11
70.940058
 21
25.319503
 31
0.0
  0
LINE
  5
16f
100
AcDbEntity
  8
outline
 62
7
100
AcDbLine
 10
70.940058
 20
25.319503
 30
0.0
 11
77.189364
 21
25.319503
 31
0.0
  0
SPLINE
  5
170
100
AcDbEntity
  8
holes
 62
1
100
AcDbSpline
 70
8
 71
3
 72
8
 73
4
 74
0
 40
0
 40
0
 40
0
 40
0
 40
1
 40
1
 40
1
 40
1
 10
20.105272
 20
71.461053
 30
0.0
 10
20.933797
 20
71.461279
 30
0.0
 10
21.605594
 20
70.789731
 30
0.0
 10
21.605681
 20
69.961211
 30
0.0
  0
SPLINE
  5
171
100
AcDbEntity
  8
holes
 62
1
100
AcDbSpline
 70
8
 71
3
 72
8
 73
4
 74
0
 40
0
 40
0
 40
0
 40
0
 40
1
 40
1
 40
1
 40
1
 10
21.605681
 20
69.961211
 30
0.0
 10
21.605921
 20
69.132465
 30
0.0
 10
20.934029
 20
68.460551
 30
0.0
 10
20.105272
 20
68.460777
 30
0.0
  0
SPLINE
  5
172
100
AcDbEntity
  8
holes
 62
1
100
AcDbSpline
 70
8
 71
3
 72
8
 73
4
 74
0
 40
0
 40
0
 40
0
 40
0
 40
1
 40
1
 40
1
 40
1
 10
20.105272
 20
68.460777
 30
0.0
 10
19.276733
 20
68.460861
 30
0.0
 10
18.605176
 20
69.132663
 30
0.0
 10
18.605416
 20
69.961211
 30
0.0
  0
SPLINE
  5
173
100
AcDbEntity
  8
holes
 62
1
100
AcDbSpline
 70
8
 71
3
 72
8
 73
4
 74
0
 40
0
 40
0
 40
0
 40
0
 40
1
 40
1
 40
1
 40
1
 10
18.605416
 20
69.961211
 30
0.0
 10
18.605504
 20
70.789533
 30
0.0
 10
19.276964
 20
71.460968
 30
0.0
 10
20.105272
 20
71.461053
 30
0.0
  0
LINE
  5
174
100
AcDbEntity
  8
holes
 62
1
100
AcDbLine
 10
20.105272
 20
71.461053
 30
0.0
 11
20.105272
 21
71.461053
 31
0.0
  0
SPLINE
  5
175
100
AcDbEntity
  8
holes
 62
1
100
AcDbSpline
 70
8
 71
3
 72
8
 73
4
 74
0
 40
0
 40
0
 40
0
 40
0
 40
1
 40
1
 40
1
 40
1
 10
37.605803
 20
71.461053
 30
0.0
 10
38.434332
 20
71.460968
 30
0.0
 10
39.105885
 20
70.789166
 30
0.0
 10
39.105659
 20
69.960647
 30
0.0
  0
SPLINE
  5
176
100
AcDbEntity
  8
holes
 62
1
100
AcDbSpline
 70
8
 71
3
 72
8
 73
4
 74
0
 40
0
 40
0
 40
0
 40
0
 40
1
 40
1
 40
1
 40
1
 10
39.105659
 20
69.960647
 30
0.0
 10
39.105589
 20
69.132324
 30
0.0
 10
38.434123
 20
68.460861
 30
0.0
 10
37.605803
 20
68.460777
 30
0.0
  0
SPLINE
  5
177
100
AcDbEntity
  8
holes
 62
1
100
AcDbSpline
 70
8
 71
3
 72
8
 73
4
 74
0
 40
0
 40
0
 40
0
 40
0
 40
1
 40
1
 40
1
 40
1
 10
37.605803
 20
68.460777
 30
0.0
 10
36.777267
 20
68.460551
 30
0.0
 10
36.105465
 20
69.132099
 30
0.0
 10
36.105394
 20
69.960647
 30
0.0
  0
SPLINE
  5
178
100
AcDbEntity
  8
holes
 62
1
100
AcDbSpline
 70
8
 71
3
 72
8
 73
4
 74
0
 40
0
 40
0
 40
0
 40
0
 40
1
 40
1
 40
1
 40
1
 10
36.105394
 20
69.960647
 30
0.0
 10
36.105169
 20
70.789392
 30
0.0
 10
36.777058
 20
71.461279
 30
0.0
 10
37.605803
 20
71.461053
 30
0.0
  0
LINE
  5
179
100
AcDbEntity
  8
holes
 62
1
100
AcDbLine
 10
37.605803
 20
71.461053
 30
0.0
 11
37.605803
 21
71.461053
 31
0.0
  0
SPLINE
  5
17a
100
AcDbEntity
  8
holes
 62
1
100
AcDbSpline
 70
8
 71
3
 72
8
 73
4
 74
0
 40
0
 40
0
 40
0
 40
0
 40
1
 40
1
 40
1
 40
1
 10
20.105272
 20
35.461164
 30
0.0
 10
20.933797
 20
35.461390
 30
0.0
 10
21.605594
 20
34.789842
 30
0.0
 10
21.605681
 20
33.961323
 30
0.0
  0
SPLINE
  5
17b
100
AcDbEntity
  8
holes
 62
1
100
AcDbSpline
 70
8
 71
3
 72
8
 73
4
 74
0
 40
0
 40
0
 40
0
 40
0
 40
1
 40
1
 40
1
 40
1
 10
21.605681
 20
33.961323
 30
0.0
 10
21.605921
 20
33.132577
 30
0.0
 10
20.934029
 20
32.460662
 30
0.0
 10
20.105272
 20
32.460888
 30
0.0
  0
SPLINE
  5
17c
100
AcDbEntity
  8
holes
 62
1
100
AcDbSpline
 70
8
 71
3
 72
8
 73
4
 74
0
 40
0
 40
0
 40
0
 40
0
 40
1
 40
1
 40
1
 40
1
 10
20.105272
 20
32.460888
 30
0.0
 10
19.276733
 20
32.460973
 30
0.0
 10
18.605176
 20
33.132775
 30
0.0
 10
18.605416
 20
33.961323
 30
0.0
  0
SPLINE
  5
17d
100
AcDbEntity
  8
holes
 62
1
100
AcDbSpline
 70
8
 71
3
 72
8
 73
4
 74
0
 40
0
 40
0
 40
0
 40
0
 40
1
 40
1
 40
1
 40
1
 10
18.605416
 20
33.961323
 30
0.0
 10
18.605504
 20
34.789645
 30
0.0
 10
19.276964
 20
35.461080
 30
0.0
 10
20.105272
 20
35.461164
 30
0.0
  0
LINE
  5
17e
100
AcDbEntity
  8
holes
 62
1
100
AcDbLine
 10
20.105272
 20
35.461164
 30
0.0
 11
20.105272
 21
35.461164
 31
0.0
  0
SPLINE
  5
17f
100
AcDbEntity
  8
holes
 62
1
100
AcDbSpline
 70
8
 71
3
 72
8
 73
4
 74
0
 40
0
 40
0
 40
0
 40
0
 40
1
 40
1
 40
1
 40
1
 10
37.605803
 20
35.461164
 30
0.0
 10
38.434332
 20
35.461080
 30
0.0
 10
39.105885
 20
34.789278
 30
0.0
 10
39.105659
 20
33.960758
 30
0.0
  0
SPLINE
  5
180
100
AcDbEntity
  8
holes
 62
1
100
AcDbSpline
 70
8
 71
3
 72
8
 73
4
 74
0
 40
0
 40
0
 40
0
 40
0
 40
1
 40
1
 40
1
 40
1
 10
39.105659
 20
33.960758
 30
0.0
 10
39.105589
 20
33.132436
 30
0.0
 10
38.434123
 20
32.460973
 30
0.0
 10
37.605803
 20
32.460888
 30
0.0
  0
SPLINE
  5
181
100
AcDbEntity
  8
holes
 62
1
100
AcDbSpline
 70
8
 71
3
 72
8
 73
4
 74
0
 40
0
 40
0
 40
0
 40
0
 40
1
 40
1
 40
1
 40
1
 10
37.605803
 20
32.460888
 30
0.0
 10
36.777267
 20
32.460662
 30
0.0
 10
36.105465
 20
33.132210
 30
0.0
 10
36.105394
 20
33.960758
 30
0.0
  0
SPLINE
  5
182
100
AcDbEntity
  8
holes
 62
1
100
AcDbSpline
 70
8
 71
3
 72
8
 73
4
 74
0
 40
0
 40
0
 40
0
 40
0
 40
1
 40
1
 40
1
 40
1
 10
36.105394
 20
33.960758
 30
0.0
 10
36.105169
 20
34.789504
 30
0.0
 10
36.777058
 20
35.461390
 30
0.0
 10
37.605803
 20
35.461164
 30
0.0
  0
LINE
  5
183
100
AcDbEntity
  8
holes
 62
1
100
AcDbLine
 10
37.605803
 20
35.461164
 30
0.0
 11
37.605803
 21
35.461164
 31
0.0
  0
SPLINE
  5
184
100
AcDbEntity
  8
holes
 62
1
100
AcDbSpline
 70
8
 71
3
 72
8
 73
4
 74
0
 40
0
 40
0
 40
0
 40
0
 40
1
 40
1
 40
1
 40
1
 10
57.188645
 20
71.461039
 30
0.0
 10
58.017170
 20
71.461264
 30
0.0
 10
58.688966
 20
70.789717
 30
0.0
 10
58.689054
 20
69.961197
 30
0.0
  0
SPLINE
  5
185
100
AcDbEntity
  8
holes
 62
1
100
AcDbSpline
 70
8
 71
3
 72
8
 73
4
 74
0
 40
0
 40
0
 40
0
 40
0
 40
1
 40
1
 40
1
 40
1
 10
58.689054
 20
69.961197
 30
0.0
 10
58.689294
 20
69.132451
 30
0.0
 10
58.017402
 20
68.460537
 30
0.0
 10
57.188645
 20
68.460762
 30
0.0
  0
SPLINE
  5
186
100
AcDbEntity
  8
holes
 62
1
100
AcDbSpline
 70
8
 71
3
 72
8
 73
4
 74
0
 40
0
 40
0
 40
0
 40
0
 40
1
 40
1
 40
1
 40
1
 10
57.188645
 20
68.460762
 30
0.0
 10
56.360105
 20
68.460847
 30
0.0
 10
55.688549
 20
69.132649
 30
0.0
 10
55.688789
 20
69.961197
 30
0.0
  0
SPLINE
  5
187
100
AcDbEntity
  8
holes
 62
1
100
AcDbSpline
 70
8
 71
3
 72
8
 73
4
 74
0
 40
0
 40
0
 40
0
 40
0
 40
1
 40
1
 40
1
 40
1
 10
55.688789
 20
69.961197
 30
0.0
 10
55.688876
 20
70.789519
 30
0.0
 10
56.360337
 20
71.460954
 30
0.0
 10
57.188645
 20
71.461039
 30
0.0
  0
LINE
  5
188
100
AcDbEntity
  8
holes
 62
1
100
AcDbLine
 10
57.188645
 20
71.461039
 30
0.0
 11
57.188645
 21
71.461039
 31
0.0
  0
SPLINE
  5
189
100
AcDbEntity
  8
holes
 62
1
100
AcDbSpline
 70
8
 71
3
 72
8
 73
4
 74
0
 40
0
 40
0
 40
0
 40
0
 40
1
 40
1
 40
1
 40
1
 10
74.689180
 20
71.461039
 30
0.0
 10
75.517708
 20
71.460954
 30
0.0
 10
76.189261
 20
70.789152
 30
0.0
 10
76.189036
 20
69.960632
 30
0.0
  0
SPLINE
  5
18a
100
AcDbEntity
  8
holes
 62
1
100
AcDbSpline
 70
8
 71
3
 72
8
 73
4
 74
0
 40
0
 40
0
 40
0
 40
0
 40
1
 40
1
 40
1
 40
1
 10
76.189036
 20
69.960632
 30
0.0
 10
76.188965
 20
69.132310
 30
0.0
 10
75.517499
 20
68.460847
 30
0.0
 10
74.689180
 20
68.460762
 30
0.0
  0
SPLINE
  5
18b
100
AcDbEntity
  8
holes
 62
1
100
AcDbSpline
 70
8
 71
3
 72
8
 73
4
 74
0
 40
0
 40
0
 40
0
 40
0
 40
1
 40
1
 40
1
 40
1
 10
74.689180
 20
68.460762
 30
0.0
 10
73.860643
 20
68.460537
 30
0.0
 10
73.188841
 20
69.132084
 30
0.0
 10
73.188771
 20
69.960632
 30
0.0
  0
SPLINE
  5
18c
100
AcDbEntity
  8
holes
 62
1
100
AcDbSpline
 70
8
 71
3
 72
8
 73
4
 74
0
 40
0
 40
0
 40
0
 40
0
 40
1
 40
1
 40
1
 40
1
 10
73.188771
 20
69.960632
 30
0.0
 10
73.188545
 20
70.789378
 30
0.0
 10
73.860434
 20
71.461264
 30
0.0
 10
74.689180
 20
71.461039
 30
0.0
  0
LINE
  5
18d
100
AcDbEntity
  8
holes
 62
1
100
AcDbLine
 10
74.689180
 20
71.461039
 30
0.0
 11
74.689180
 21
71.461039
 31
0.0
  0
SPLINE
  5
18e
100
AcDbEntity
  8
holes
 62
1
100
AcDbSpline
 70
8
 71
3
 72
8
 73
4
 74
0
 40
0
 40
0
 40
0
 40
0
 40
1
 40
1
 40
1
 40
1
 10
57.189065
 20
35.461150
 30
0.0
 10
58.017591
 20
35.461376
 30
0.0
 10
58.689387
 20
34.789828
 30
0.0
 10
58.689474
 20
33.961308
 30
0.0
  0
SPLINE
  5
18f
100
AcDbEntity
  8
holes
 62
1
100
AcDbSpline
 70
8
 71
3
 72
8
 73
4
 74
0
 40
0
 40
0
 40
0
 40
0
 40
1
 40
1
 40
1
 40
1
 10
58.689474
 20
33.961308
 30
0.0
 10
58.689714
 20
33.132563
 30
0.0
 10
58.017822
 20
32.460648
 30
0.0
 10
57.189065
 20
32.460874
 30
0.0
  0
SPLINE
  5
190
100
AcDbEntity
  8
holes
 62
1
100
AcDbSpline
 70
8
 71
3
 72
8
 73
4
 74
0
 40
0
 40
0
 40
0
 40
0
 40
1
 40
1
 40
1
 40
1
 10
57.189065
 20
32.460874
 30
0.0
 10
56.360526
 20
32.460959
 30
0.0
 10
55.688969
 20
33.132760
 30
0.0
 10
55.689209
 20
33.961308
 30
0.0
  0
SPLINE
  5
191
100
AcDbEntity
  8
holes
 62
1
100
AcDbSpline
 70
8
 71
3
 72
8
 73
4
 74
0
 40
0
 40
0
 40
0
 40
0
 40
1
 40
1
 40
1
 40
1
 10
55.689209
 20
33.961308
 30
0.0
 10
55.689297
 20
34.789631
 30
0.0
 10
56.360757
 20
35.461066
 30
0.0
 10
57.189065
 20
35.461150
 30
0.0
  0
LINE
  5
192
100
AcDbEntity
  8
holes
 62
1
100
AcDbLine
 10
57.189065
 20
35.461150
 30
0.0
 11
57.189065
 21
35.461150
 31
0.0
  0
SPLINE
  5
193
100
AcDbEntity
  8
holes
 62
1
100
AcDbSpline
 70
8
 71
3
 72
8
 73
4
 74
0
 40
0
 40
0
 40
0
 40
0
 40
1
 40
1
 40
1
 40
1
 10
74.689597
 20
35.461150
 30
0.0
 10
75.518126
 20
35.461066
 30
0.0
 10
76.189679
 20
34.789264
 30
0.0
 10
76.189453
 20
33.960744
 30
0.0
  0
SPLINE
  5
194
100
AcDbEntity
  8
holes
 62
1
100
AcDbSpline
 70
8
 71
3
 72
8
 73
4
 74
0
 40
0
 40
0
 40
0
 40
0
 40
1
 40
1
 40
1
 40
1
 10
76.189453
 20
33.960744
 30
0.0
 10
76.189383
 20
33.132422
 30
0.0
 10
75.517917
 20
32.460959
 30
0.0
 10
74.689597
 20
32.460874
 30
0.0
  0
SPLINE
  5
195
100
AcDbEntity
  8
holes
 62
1
100
AcDbSpline
 70
8
 71
3
 72
8
 73
4
 74
0
 40
0
 40
0
 40
0
 40
0
 40
1
 40
1
 40
1
 40
1
 10
74.689597
 20
32.460874
 30
0.0
 10
73.861061
 20
32.460648
 30
0.0
 10
73.189259
 20
33.132196
 30
0.0
 10
73.189188
 20
33.960744
 30
0.0
  0
SPLINE
  5
196
100
AcDbEntity
  8
holes
 62
1
100
AcDbSpline
 70
8
 71
3
 72
8
 73
4
 74
0
 40
0
 40
0
 40
0
 40
0
 40
1
 40
1
 40
1
 40
1
 10
73.189188
 20
33.960744
 30
0.0
 10
73.188963
 20
34.789490
 30
0.0
 10
73.860852
 20
35.461376
 30
0.0
 10
74.689597
 20
35.461150
 30
0.0
  0
LINE
  5
197
100
AcDbEntity
  8
holes
 62
1
100
AcDbLine
 10
74.689597
 20
35.461150
 30
0.0
 11
74.689597
 21
35.461150
 31
0.0
  0
SPLINE
  5
198
100
AcDbEntity
  8
holes
 62
1
100
AcDbSpline
 70
8
 71
3
 72
8
 73
4
 74
0
 40
0
 40
0
 40
0
 40
0
 40
1
 40
1
 40
1
 40
1
 10
64.190344
 20
53.819678
 30
0.0
 10
63.361818
 20
53.819903
 30
0.0
 10
62.690022
 20
53.148356
 30
0.0
 10
62.689935
 20
52.319836
 30
0.0
  0
SPLINE
  5
199
100
AcDbEntity
  8
holes
 62
1
100
AcDbSpline
 70
8
 71
3
 72
8
 73
4
 74
0
 40
0
 40
0
 40
0
 40
0
 40
1
 40
1
 40
1
 40
1
 10
62.689935
 20
52.319836
 30
0.0
 10
62.689695
 20
51.491090
 30
0.0
 10
63.361587
 20
50.819176
 30
0.0
 10
64.190344
 20
50.819401
 30
0.0
  0
SPLINE
  5
19a
100
AcDbEntity
  8
holes
 62
1
100
AcDbSpline
 70
8
 71
3
 72
8
 73
4
 74
0
 40
0
 40
0
 40
0
 40
0
 40
1
 40
1
 40
1
 40
1
 10
64.190344
 20
50.819401
 30
0.0
 10
65.018883
 20
50.819486
 30
0.0
 10
65.690440
 20
51.491288
 30
0.0
 10
65.690200
 20
52.319836
 30
0.0
  0
SPLINE
  5
19b
100
AcDbEntity
  8
holes
 62
1
100
AcDbSpline
 70
8
 71
3
 72
8
 73
4
 74
0
 40
0
 40
0
 40
0
 40
0
 40
1
 40
1
 40
1
 40
1
 10
65.690200
 20
52.319836
 30
0.0
 10
65.690112
 20
53.148158
 30
0.0
 10
65.018652
 20
53.819593
 30
0.0
 10
64.190344
 20
53.819678
 30
0.0
  0
LINE
  5
19c
100
AcDbEntity
  8
holes
 62
1
100
AcDbLine
 10
64.190344
 20
53.819678
 30
0.0
 11
64.190344
 21
53.819678
 31
0.0
  0
SPLINE
  5
19d
100
AcDbEntity
  8
holes
 62
1
100
AcDbSpline
 70
8
 71
3
 72
8
 73
4
 74
0
 40
0
 40
0
 40
0
 40
0
 40
1
 40
1
 40
1
 40
1
 10
46.689809
 20
53.819678
 30
0.0
 10
45.861280
 20
53.819593
 30
0.0
 10
45.189727
 20
53.147791
 30
0.0
 10
45.189953
 20
52.319271
 30
0.0
  0
SPLINE
  5
19e
100
AcDbEntity
  8
holes
 62
1
100
AcDbSpline
 70
8
 71
3
 72
8
 73
4
 74
0
 40
0
 40
0
 40
0
 40
0
 40
1
 40
1
 40
1
 40
1
 10
45.189953
 20
52.319271
 30
0.0
 10
45.190023
 20
51.490949
 30
0.0
 10
45.861489
 20
50.819486
 30
0.0
 10
46.689809
 20
50.819401
 30
0.0
  0
SPLINE
  5
19f
100
AcDbEntity
  8
holes
 62
1
100
AcDbSpline
 70
8
 71
3
 72
8
 73
4
 74
0
 40
0
 40
0
 40
0
 40
0
 40
1
 40
1
 40
1
 40
1
 10
46.689809
 20
50.819401
 30
0.0
 10
47.518345
 20
50.819176
 30
0.0
 10
48.190147
 20
51.490723
 30
0.0
 10
48.190218
 20
52.319271
 30
0.0
  0
SPLINE
  5
1a0
100
AcDbEntity
  8
holes
 62
1
100
AcDbSpline
 70
8
 71
3
 72
8
 73
4
 74
0
 40
0
 40
0
 40
0
 40
0
 40
1
 40
1
 40
1
 40
1
 10
48.190218
 20
52.319271
 30
0.0
 10
48.190444
 20
53.148017
 30
0.0
 10
47.518554
 20
53.819903
 30
0.0
 10
46.689809
 20
53.819678
 30
0.0
  0
LINE
  5
1a1
100
AcDbEntity
  8
holes
 62
1
100
AcDbLine
 10
46.689809
 20
53.819678
 30
0.0
 11
46.689809
 21
53.819678
 31
0.0
  0
SPLINE
  5
1a2
100
AcDbEntity
  8
holes
 62
1
100
AcDbSpline
 70
8
 71
3
 72
8
 73
4
 74
0
 40
0
 40
0
 40
0
 40
0
 40
1
 40
1
 40
1
 40
1
 10
27.106551
 20
53.819570
 30
0.0
 10
26.278026
 20
53.819796
 30
0.0
 10
25.606230
 20
53.148248
 30
0.0
 10
25.606142
 20
52.319728
 30
0.0
  0
SPLINE
  5
1a3
100
AcDbEntity
  8
holes
 62
1
100
AcDbSpline
 70
8
 71
3
 72
8
 73
4
 74
0
 40
0
 40
0
 40
0
 40
0
 40
1
 40
1
 40
1
 40
1
 10
25.606142
 20
52.319728
 30
0.0
 10
25.605903
 20
51.490983
 30
0.0
 10
26.277795
 20
50.819068
 30
0.0
 10
27.106551
 20
50.819294
 30
0.0
  0
SPLINE
  5
1a4
100
AcDbEntity
  8
holes
 62
1
100
AcDbSpline
 70
8
 71
3
 72
8
 73
4
 74
0
 40
0
 40
0
 40
0
 40
0
 40
1
 40
1
 40
1
 40
1
 10
27.106551
 20
50.819294
 30
0.0
 10
27.935091
 20
50.819379
 30
0.0
 10
28.606648
 20
51.491180
 30
0.0
 10
28.606409
 20
52.319728
 30
0.0
  0
SPLINE
  5
1a5
100
AcDbEntity
  8
holes
 62
1
100
AcDbSpline
 70
8
 71
3
 72
8
 73
4
 74
0
 40
0
 40
0
 40
0
 40
0
 40
1
 40
1
 40
1
 40
1
 10
28.606409
 20
52.319728
 30
0.0
 10
28.606321
 20
53.148051
 30
0.0
 10
27.934860
 20
53.819486
 30
0.0
 10
27.106551
 20
53.819570
 30
0.0
  0
LINE
  5
1a6
100
AcDbEntity
  8
holes
 62
1
100
AcDbLine
 10
27.106551
 20
53.819570
 30
0.0
 11
27.106551
 21
53.819570
 31
0.0
  0
SPLINE
  5
1a7
100
AcDbEntity
  8
holes
 62
1
100
AcDbSpline
 70
8
 71
3
 72
8
 73
4
 74
0
 40
0
 40
0
 40
0
 40
0
 40
1
 40
1
 40
1
 40
1
 10
9.606018
 20
53.819570
 30
0.0
 10
8.777490
 20
53.819486
 30
0.0
 10
8.105936
 20
53.147684
 30
0.0
 10
8.106162
 20
52.319164
 30
0.0
  0
SPLINE
  5
1a8
100
AcDbEntity
  8
holes
 62
1
100
AcDbSpline
 70
8
 71
3
 72
8
 73
4
 74
0
 40
0
 40
0
 40
0
 40
0
 40
1
 40
1
 40
1
 40
1
 10
8.106162
 20
52.319164
 30
0.0
 10
8.106232
 20
51.490842
 30
0.0
 10
8.777698
 20
50.819379
 30
0.0
 10
9.606018
 20
50.819294
 30
0.0
  0
SPLINE
  5
1a9
100
AcDbEntity
  8
holes
 62
1
100
AcDbSpline
 70
8
 71
3
 72
8
 73
4
 74
0
 40
0
 40
0
 40
0
 40
0
 40
1
 40
1
 40
1
 40
1
 10
9.606018
 20
50.819294
 30
0.0
 10
10.434555
 20
50.819068
 30
0.0
 10
11.106357
 20
51.490616
 30
0.0
 10
11.106427
 20
52.319164
 30
0.0
  0
SPLINE
  5
1aa
100
AcDbEntity
  8
holes
 62
1
100
AcDbSpline
 70
8
 71
3
 72
8
 73
4
 74
0
 40
0
 40
0
 40
0
 40
0
 40
1
 40
1
 40
1
 40
1
 10
11.106427
 20
52.319164
 30
0.0
 10
11.106653
 20
53.147910
 30
0.0
 10
10.434764
 20
53.819796
 30
0.0
 10
9.606018
 20
53.819570
 30
0.0
  0
LINE
  5
1ab
100
AcDbEntity
  8
holes
 62
1
100
AcDbLine
 10
9.606018
 20
53.819570
 30
0.0
 11
9.606018
 21
53.819570
 31
0.0
  0
SPLINE
  5
1ac
100
AcDbEntity
  8
holes
 62
1
100
AcDbSpline
 70
8
 71
3
 72
8
 73
4
 74
0
 40
0
 40
0
 40
0
 40
0
 40
1
 40
1
 40
1
 40
1
 10
27.106551
 20
17.819532
 30
0.0
 10
26.278026
 20
17.819758
 30
0.0
 10
25.606230
 20
17.148210
 30
0.0
 10
25.606142
 20
16.319690
 30
0.0
  0
SPLINE
  5
1ad
100
AcDbEntity
  8
holes
 62
1
100
AcDbSpline
 70
8
 71
3
 72
8
 73
4
 74
0
 40
0
 40
0
 40
0
 40
0
 40
1
 40
1
 40
1
 40
1
 10
25.606142
 20
16.319690
 30
0.0
 10
25.605903
 20
15.490945
 30
0.0
 10
26.277795
 20
14.819030
 30
0.0
 10
27.106551
 20
14.819256
 30
0.0
  0
SPLINE
  5
1ae
100
AcDbEntity
  8
holes
 62
1
100
AcDbSpline
 70
8
 71
3
 72
8
 73
4
 74
0
 40
0
 40
0
 40
0
 40
0
 40
1
 40
1
 40
1
 40
1
 10
27.106551
 20
14.819256
 30
0.0
 10
27.935091
 20
14.819341
 30
0.0
 10
28.606648
 20
15.491142
 30
0.0
 10
28.606409
 20
16.319690
 30
0.0
  0
SPLINE
  5
1af
100
AcDbEntity
  8
holes
 62
1
100
AcDbSpline
 70
8
 71
3
 72
8
 73
4
 74
0
 40
0
 40
0
 40
0
 40
0
 40
1
 40
1
 40
1
 40
1
 10
28.606409
 20
16.319690
 30
0.0
 10
28.606321
 20
17.148013
 30
0.0
 10
27.934860
 20
17.819448
 30
0.0
 10
27.106551
 20
17.819532
 30
0.0
  0
LINE
  5
1b0
100
AcDbEntity
  8
holes
 62
1
100
AcDbLine
 10
27.106551
 20
17.819532
 30
0.0
 11
27.106551
 21
17.819532
 31
0.0
  0
SPLINE
  5
1b1
100
AcDbEntity
  8
holes
 62
1
100
AcDbSpline
 70
8
 71
3
 72
8
 73
4
 74
0
 40
0
 40
0
 40
0
 40
0
 40
1
 40
1
 40
1
 40
1
 10
9.606018
 20
17.819532
 30
0.0
 10
8.777490
 20
17.819448
 30
0.0
 10
8.105936
 20
17.147646
 30
0.0
 10
8.106162
 20
16.319126
 30
0.0
  0
SPLINE
  5
1b2
100
AcDbEntity
  8
holes
 62
1
100
AcDbSpline
 70
8
 71
3
 72
8
 73
4
 74
0
 40
0
 40
0
 40
0
 40
0
 40
1
 40
1
 40
1
 40
1
 10
8.106162
 20
16.319126
 30
0.0
 10
8.106232
 20
15.490804
 30
0.0
 10
8.777698
 20
14.819341
 30
0.0
 10
9.606018
 20
14.819256
 30
0.0
  0
SPLINE
  5
1b3
100
AcDbEntity
  8
holes
 62
1
100
AcDbSpline
 70
8
 71
3
 72
8
 73
4
 74
0
 40
0
 40
0
 40
0
 40
0
 40
1
 40
1
 40
1
 40
1
 10
9.606018
 20
14.819256
 30
0.0
 10
10.434555
 20
14.819030
 30
0.0
 10
11.106357
 20
15.490578
 30
0.0
 10
11.106427
 20
16.319126
 30
0.0
  0
SPLINE
  5
1b4
100
AcDbEntity
  8
holes
 62
1
100
AcDbSpline
 70
8
 71
3
 72
8
 73
4
 74
0
 40
0
 40
0
 40
0
 40
0
 40
1
 40
1
 40
1
 40
1
 10
11.106427
 20
16.319126
 30
0.0
 10
11.106653
 20
17.147872
 30
0.0
 10
10.434764
 20
17.819758
 30
0.0
 10
9.606018
 20
17.819532
 30
0.0
  0
LINE
  5
1b5
100
AcDbEntity
  8
holes
 62
1
100
AcDbLine
 10
9.606018
 20
17.819532
 30
0.0
 11
9.606018
 21
17.819532
 31
0.0
  0
SPLINE
  5
1b6
100
AcDbEntity
  8
holes
 62
1
100
AcDbSpline
 70
8
 71
3
 72
8
 73
4
 74
0
 40
0
 40
0
 40
0
 40
0
 40
1
 40
1
 40
1
 40
1
 10
64.190349
 20
17.819670
 30
0.0
 10
63.361824
 20
17.819896
 30
0.0
 10
62.690028
 20
17.148348
 30
0.0
 10
62.689940
 20
16.319829
 30
0.0
  0
SPLINE
  5
1b7
100
AcDbEntity
  8
holes
 62
1
100
AcDbSpline
 70
8
 71
3
 72
8
 73
4
 74
0
 40
0
 40
0
 40
0
 40
0
 40
1
 40
1
 40
1
 40
1
 10
62.689940
 20
16.319829
 30
0.0
 10
62.689700
 20
15.491083
 30
0.0
 10
63.361593
 20
14.819168
 30
0.0
 10
64.190349
 20
14.819394
 30
0.0
  0
SPLINE
  5
1b8
100
AcDbEntity
  8
holes
 62
1
100
AcDbSpline
 70
8
 71
3
 72
8
 73
4
 74
0
 40
0
 40
0
 40
0
 40
0
 40
1
 40
1
 40
1
 40
1
 10
64.190349
 20
14.819394
 30
0.0
 10
65.018889
 20
14.819479
 30
0.0
 10
65.690445
 20
15.491281
 30
0.0
 10
65.690205
 20
16.319829
 30
0.0
  0
SPLINE
  5
1b9
100
AcDbEntity
  8
holes
 62
1
100
AcDbSpline
 70
8
 71
3
 72
8
 73
4
 74
0
 40
0
 40
0
 40
0
 40
0
 40
1
 40
1
 40
1
 40
1
 10
65.690205
 20
16.319829
 30
0.0
 10
65.690118
 20
17.148151
 30
0.0
 10
65.018658
 20
17.819586
 30
0.0
 10
64.190349
 20
17.819670
 30
0.0
  0
LINE
  5
1ba
100
AcDbEntity
  8
holes
 62
1
100
AcDbLine
 10
64.190349
 20
17.819670
 30
0.0
 11
64.190349
 21
17.819670
 31
0.0
  0
SPLINE
  5
1bb
100
AcDbEntity
  8
holes
 62
1
100
AcDbSpline
 70
8
 71
3
 72
8
 73
4
 74
0
 40
0
 40
0
 40
0
 40
0
 40
1
 40
1
 40
1
 40
1
 10
46.689814
 20
17.819670
 30
0.0
 10
45.861286
 20
17.819586
 30
0.0
 10
45.189733
 20
17.147784
 30
0.0
 10
45.189958
 20
16.319264
 30
0.0
  0
SPLINE
  5
1bc
100
AcDbEntity
  8
holes
 62
1
100
AcDbSpline
 70
8
 71
3
 72
8
 73
4
 74
0
 40
0
 40
0
 40
0
 40
0
 40
1
 40
1
 40
1
 40
1
 10
45.189958
 20
16.319264
 30
0.0
 10
45.190029
 20
15.490942
 30
0.0
 10
45.861495
 20
14.819479
 30
0.0
 10
46.689814
 20
14.819394
 30
0.0
  0
SPLINE
  5
1bd
100
AcDbEntity
  8
holes
 62
1
100
AcDbSpline
 70
8
 71
3
 72
8
 73
4
 74
0
 40
0
 40
0
 40
0
 40
0
 40
1
 40
1
 40
1
 40
1
 10
46.689814
 20
14.819394
 30
0.0
 10
47.518351
 20
14.819168
 30
0.0
 10
48.190153
 20
15.490716
 30
0.0
 10
48.190223
 20
16.319264
 30
0.0
  0
SPLINE
  5
1be
100
AcDbEntity
  8
holes
 62
1
100
AcDbSpline
 70
8
 71
3
 72
8
 73
4
 74
0
 40
0
 40
0
 40
0
 40
0
 40
1
 40
1
 40
1
 40
1
 10
48.190223
 20
16.319264
 30
0.0
 10
48.190449
 20
17.148010
 30
0.0
 10
47.518560
 20
17.819896
 30
0.0
 10
46.689814
 20
17.819670
 30
0.0
  0
LINE
  5
1bf
100
AcDbEntity
  8
holes
 62
1
100
AcDbLine
 10
46.689814
 20
17.819670
 30
0.0
 11
46.689814
 21
17.819670
 31
0.0
  0
ENDSEC
  0
SECTION
  2
OBJECTS
  0
DICTIONARY
  5
C
330
0
100
AcDbDictionary
  3
ACAD_GROUP
350
D
  3
ACAD_MLINESTYLE
350
17
  0
DICTIONARY
  5
D
330
C
100
AcDbDictionary
  0
DICTIONARY
  5
1A
330
C
100
AcDbDictionary
  0
DICTIONARY
  5
17
330
C
100
AcDbDictionary
  3
STANDARD
350
18
  0
DICTIONARY
  5
19
330
C
100
AcDbDictionary
  0
ENDSEC
  0
EOF
